
<svg xmlns="http://www.w3.org/2000/svg" enable-background="new 0 0 2500 2000" viewBox="0 0 2500 2000"><rect width="2500" height="2000" fill="none"/><path fill="#aec9ff" d="M1555.76,485.78v350.32c0,49.13-39.83,88.96-88.96,88.96H910.95l-177.24,104.71    c-6.74,3.98-15.24-0.88-15.24-8.7v-96.01c-49.13,0-88.96-39.83-88.96-88.96V485.78c0-49.13,39.83-88.96,88.96-88.96h748.34    C1515.93,396.82,1555.76,436.65,1555.76,485.78z" class="coloraec9ff svgShape"/><path fill="#80b1ff" d="M976.17,902.85v22.22h-65.21l51.17-30.23C968.33,891.17,976.17,895.64,976.17,902.85z" class="color80b1ff svgShape"/><line x1="1140.32" x2="1426.45" y1="499.54" y2="499.54" fill="none" stroke="#eef2fe" stroke-linecap="round" stroke-linejoin="round" stroke-miterlimit="10" stroke-width="9.043" class="colorStrokeeef2fe svgStroke"/><line x1="1181.59" x2="1426.45" y1="576.28" y2="576.28" fill="none" stroke="#eef2fe" stroke-linecap="round" stroke-linejoin="round" stroke-miterlimit="10" stroke-width="9.043" class="colorStrokeeef2fe svgStroke"/><line x1="1140.32" x2="1317.32" y1="653.03" y2="653.03" fill="none" stroke="#eef2fe" stroke-linecap="round" stroke-linejoin="round" stroke-miterlimit="10" stroke-width="9.043" class="colorStrokeeef2fe svgStroke"/><circle cx="876.2" cy="660.94" r="161.41" fill="#ffffff" class="colorfff svgShape"/><path fill="#ff9c39" d="M1036.71,678.07c-2.11,19.94-7.84,38.8-16.53,55.9c-4.78,9.41-10.46,18.29-16.93,26.53l16.93-99.56     C1026.07,662.91,1031.6,669.2,1036.71,678.07z" class="colorff9c39 svgShape"/><path fill="#ff9c39" d="M1020.18,660.95v73.03c-4.78,9.41-10.46,18.29-16.93,26.53c-29.54,37.66-75.48,61.85-127.05,61.85     c-35.88,0-69.03-11.71-95.82-31.52c-10.35-7.63-19.74-16.49-27.98-26.33V660.95c24-2.98,49.96-5.37,77.69-6.8     c2.99-0.16,6-0.31,9.04-0.43c14.93-0.65,30.36-1.01,46.24-1.02c16.53-0.01,32.57,0.35,48.07,1.02c3.04,0.14,6.05,0.28,9.04,0.43     C970.23,655.57,996.19,657.98,1020.18,660.95z" class="colorff9c39 svgShape"/><path fill="#ff9c39" d="M780.38,790.84c-10.35-7.63-19.74-16.49-27.98-26.33c-15.24-18.19-26.53-39.78-32.59-63.48     c9.7-20.46,20.82-36.6,32.59-40.07C752.4,660.95,768.97,737.14,780.38,790.84z" class="colorff9c39 svgShape"/><path fill="#ffffff" d="M942.49,654.15c-2.8,28.54-26.93,50.92-56.2,50.92c-29.26,0-53.4-22.38-56.2-50.92     c2.99-0.16,6-0.31,9.04-0.43c14.93-0.65,30.36-1.01,46.24-1.02c16.53-0.01,32.57,0.35,48.07,1.02     C936.48,653.85,939.5,653.99,942.49,654.15z" class="colorfff svgShape"/><path fill="#f2a89b" d="M933.45,653.71c-2.55,23.79-22.69,42.31-47.15,42.31c-24.47,0-44.61-18.52-47.16-42.31     c14.93-0.65,30.36-1.01,46.24-1.02C901.9,652.68,917.95,653.04,933.45,653.71z" class="colorf2a89b svgShape"/><path fill="#233151" d="M835.87,572.64c-23.53-22.42-8.76-74.91,19.99-62.25c-1.32-15.03,17.41-23.47,22.16-7.91     c32.18-28.49,82.29-3.17,57.23,24c17.67,3.43,11.34,15.56,4.75,16.35c11.61,8.97-1.05,29.8-1.05,29.8H835.87z" class="color233151 svgShape"/><path fill="#f2a89b" d="M887.38,634.01L887.38,634.01c-26.44,0-47.87-21.43-47.87-47.87v-19.72c0-26.44,21.43-47.87,47.87-47.87h0     c26.44,0,47.87,21.43,47.87,47.87v19.72C935.25,612.58,913.82,634.01,887.38,634.01z" class="colorf2a89b svgShape"/><path fill="#233151" d="M843.93,566.87c6.14-0.52,12.57-10.73,12.85-16.25c13.03-3.4,35.87-11,34.48-29.81     c0,0-18.05-17.84-41.63,3.1c-7.68,6.82-13.75,38.69-13.75,38.69L843.93,566.87z" class="color233151 svgShape"/><ellipse cx="903.33" cy="570.9" fill="#233151" rx="2.97" ry="5.04" class="color233151 svgShape"/><path fill="none" stroke="#233151" stroke-linecap="round" stroke-linejoin="round" stroke-miterlimit="10" stroke-width="5.865" d="M900.36,557.75c0.68-0.2,1.98-0.48,3.56-0.2c1.92,0.34,3.2,1.31,3.76,1.78" class="colorStroke233151 svgStroke"/><ellipse cx="871.68" cy="570.9" fill="#233151" rx="2.97" ry="5.04" class="color233151 svgShape"/><path fill="none" stroke="#233151" stroke-linecap="round" stroke-linejoin="round" stroke-miterlimit="10" stroke-width="5.865" d="M874.65,557.75c-0.68-0.2-1.98-0.48-3.56-0.2c-1.92,0.34-3.2,1.31-3.76,1.78" class="colorStroke233151 svgStroke"/><path fill="#ea7d6e" d="M890.88,595.13h-6.76c-1.72,0-2.76-1.9-1.84-3.35c2.29-3.58,5.22-10.24,5.22-20.89     c0,10.64,2.93,17.31,5.22,20.89C893.64,593.24,892.61,595.13,890.88,595.13z" class="colorea7d6e svgShape"/><path fill="none" stroke="#ea7d6e" stroke-linecap="round" stroke-linejoin="round" stroke-miterlimit="10" stroke-width="4.189" d="M871.68,601.57c0.36,0.81,1.48,3.02,4.03,4.55c2.72,1.63,5.36,1.47,6.23,1.38" class="colorStrokeea7d6e svgStroke"/><circle cx="833.55" cy="577.37" r="14.77" fill="#f2a89b" class="colorf2a89b svgShape"/><circle cx="833.55" cy="577.37" r="6.2" fill="#ea7d6e" class="colorea7d6e svgShape"/><path fill="#233151" d="M930.84,566.87c-10.06,0-8.78-15.26-8.78-15.26c-15.29,1.27-37.48-20.65-34.67-33.05     c2.81-12.4,39.07,12.74,39.07,12.74s14.77,31.26,14.77,35.57C941.22,571.17,930.84,566.87,930.84,566.87z" class="color233151 svgShape"/><circle cx="941.22" cy="577.37" r="14.77" fill="#f2a89b" class="colorf2a89b svgShape"/><circle cx="941.22" cy="577.37" r="6.2" fill="#ea7d6e" class="colorea7d6e svgShape"/><g fill="#000000" class="color000 svgShape"><path fill="#aec9ff" d="M1917.71,1071.64v350.32c0,48.79-39.28,88.41-87.94,88.95v95.74c0,7.82-8.51,12.68-15.24,8.7l-176.78-104.44    h-557.33c-49.13,0-88.96-39.83-88.96-88.96v-350.32c0-49.13,39.83-88.96,88.96-88.96h748.34    C1877.88,982.68,1917.71,1022.51,1917.71,1071.64z" class="coloraec9ff svgShape"/><path fill="#80b1ff" d="M1572.06,1484.17v26.48h65.21l-54.84-32.4C1577.85,1475.54,1572.06,1478.85,1572.06,1484.17z" class="color80b1ff svgShape"/><path fill="#ffffff" d="M1832.42,1246.8c0,53.37-25.91,100.71-65.85,130.08c-9.98,7.35-20.85,13.58-32.39,18.49h-0.01    c-19.4,8.27-40.74,12.83-63.16,12.83c-89.14,0-161.41-72.27-161.41-161.41c0-89.14,72.27-161.41,161.41-161.41    C1760.15,1085.39,1832.42,1157.66,1832.42,1246.8z" class="colorfff svgShape"/><path fill="#239f95" d="M1796.86,1347.86c-15.39,19.16-35.08,34.73-57.59,45.24c-20.73,9.69-43.86,15.1-68.26,15.1     c-36.37,0-69.93-12.03-96.92-32.33c-1.73-5.85-2.63-11.86-2.13-17.69c1.76-20.47,24.44-44.2,31.64-81.21     c2.17-11.11,7.84-20.87,15.8-28.11c7.96-7.23,18.19-11.93,29.47-12.95c14.11-1.28,28.1,3.41,38.6,12.91l55.95,50.65     L1796.86,1347.86z" class="color239f95 svgShape"/><path fill="#15877c" d="M1766.57,1376.88c-9.98,7.35-20.85,13.58-32.39,18.49h-0.01c-75.62-14.07-98.56-99.12-98.92-100.45     l48.92,63.7l11.17-9.81l56.37,13.49C1751.71,1362.31,1760.24,1369.18,1766.57,1376.88z" class="color15877c svgShape"/><path fill="#f2a89b" d="M1796.86 1347.86c-15.39 19.16-35.08 34.73-57.59 45.24l-43.92-44.28 52.08-45.72L1796.86 1347.86zM1668.71 1408.18c-5.65-.06-11.22-.43-16.71-1.09-1.46 1.51-3.04 4.36-4.3 7.01-1.31 2.73-4.05 4.39-6.95 4.39-.71 0-1.45-.1-2.16-.31-4.22-1.24-6.58-5.77-5.11-9.92.5-1.39 1.08-2.74 1.75-4.04 2.73-5.41 6.73-9.92 10.62-12.62 2.71-1.89 5.37-2.88 7.52-2.69C1660.68 1389.6 1668.47 1398.06 1668.71 1408.18z" class="colorf2a89b svgShape"/><path fill="none" stroke="#000" stroke-miterlimit="10" stroke-width=".962" d="M1668.71,1408.21c0-0.01,0-0.02,0-0.03" class="colorStroke000 svgStroke"/><path fill="#f2a89b" d="M1645.83,1391.6c-3.89,2.7-7.89,7.22-10.62,12.62c-2.45-0.55-4.87-1.16-7.28-1.83     c-1.58,1.73-3.24,3.7-4.68,5.51c-1.44,1.79-3.56,2.72-5.7,2.72c-1.51,0-3.04-0.46-4.34-1.43c-2.34-1.74-3.37-4.63-2.8-7.37     c0.14-0.66,0.37-1.31,0.7-1.93c0.43-0.82,0.91-1.7,1.45-2.6c0.54-0.93,1.13-1.88,1.77-2.84v-0.01c2.27-3.39,5.08-6.76,8.3-8.75     c0.71-0.43,1.43-0.83,2.16-1.18C1632.96,1380.64,1642.85,1382.2,1645.83,1391.6z" class="colorf2a89b svgShape"/><path fill="none" stroke="#ea7d6e" stroke-linecap="round" stroke-linejoin="round" stroke-miterlimit="10" stroke-width="4.522" d="M1627.94,1402.39c1.98-2.14,3.85-3.89,5.09-4.4" class="colorStrokeea7d6e svgStroke"/><path fill="#f2a89b" d="M1624.79,1384.52c-0.73,0.34-1.46,0.74-2.16,1.18c-3.22,2-6.03,5.36-8.3,8.75v0.01     c-0.64,0.96-1.23,1.91-1.77,2.84c-0.53,0.9-1.01,1.77-1.45,2.6c-0.33,0.61-0.55,1.27-0.7,1.93c-1.14,0.82-2.53,1.28-3.96,1.28     c-0.82,0-1.66-0.15-2.47-0.47c-3.11-1.22-4.87-4.52-4.16-7.8c1.16-5.33,3.41-12.95,7.23-16.48     C1612.92,1372.93,1621.25,1374.69,1624.79,1384.52z" class="colorf2a89b svgShape"/><path fill="none" stroke="#ea7d6e" stroke-linecap="round" stroke-linejoin="round" stroke-miterlimit="10" stroke-width="4.522" d="M1645.83 1391.6c-3.89 2.7-7.89 7.22-10.62 12.62M1614.33 1394.46c-.64.96-1.23 1.91-1.77 2.84-.53.9-1.01 1.77-1.45 2.6-.33.61-.55 1.27-.7 1.93M1622.63 1385.7c-3.22 2-6.03 5.36-8.3 8.75v.01" class="colorStrokeea7d6e svgStroke"/><path fill="#f2a89b" d="M1644.06,1219.46L1644.06,1219.46c-28.17-2.64-48.86-27.61-46.22-55.77l1.97-21     c2.64-28.17,27.61-48.86,55.77-46.22h0c28.17,2.64,48.86,27.61,46.22,55.77l-1.97,21     C1697.19,1201.4,1672.22,1222.09,1644.06,1219.46z" class="colorf2a89b svgShape"/><path fill="#233151" d="M1701.79,1152.23l-1.97,21c-1.63,17.36-11.73,31.88-25.84,39.85c-24.87-3.75-14.56-38.52-14.56-38.52     l-9.92-23.29c-11.24-1.62-29.11-33.72-17.58-51.44c7.27-2.89,15.32-4.15,23.65-3.37c14.08,1.32,26.3,8.22,34.66,18.31     C1698.6,1124.86,1703.11,1138.15,1701.79,1152.23z" class="color233151 svgShape"/><circle cx="1711.35" cy="1101.68" r="27.66" fill="#233151" class="color233151 svgShape"/><path fill="#ea7d6e" d="M1599.8,1142.68c-0.83,8.91-6.03,15.88-9.52,19.64c-1.45,1.56-0.9,4.09,1.05,4.94l6.3,2.73L1599.8,1142.68z" class="colorea7d6e svgShape"/><ellipse cx="1613.57" cy="1149.98" fill="#233151" rx="5.08" ry="2.54" transform="rotate(-84.652 1613.633 1150.032)" class="color233151 svgShape"/><path fill="none" stroke="#233151" stroke-linecap="round" stroke-linejoin="round" stroke-miterlimit="10" stroke-width="6.33" d="M1612.43,1136.17c0.4-0.16,2.36-0.91,4.54,0c1.63,0.68,2.47,1.92,2.75,2.38" class="colorStroke233151 svgStroke"/><path fill="none" stroke="#ea7d6e" stroke-linecap="round" stroke-linejoin="round" stroke-miterlimit="10" stroke-width="4.522" d="M1616.13,1176.91c0.42,0.12,3.44,0.93,6.21-0.98c2.24-1.54,2.83-3.83,2.96-4.4" class="colorStrokeea7d6e svgStroke"/><circle cx="1663.16" cy="1159.21" r="15.8" fill="#f2a89b" class="colorf2a89b svgShape"/><circle cx="1663.16" cy="1159.21" r="6.63" fill="#ea7d6e" class="colorea7d6e svgShape"/><g fill="#000000" class="color000 svgShape"><line x1="1104.25" x2="1332.15" y1="1238.88" y2="1238.88" fill="none" stroke="#eef2fe" stroke-linecap="round" stroke-linejoin="round" stroke-miterlimit="10" stroke-width="9.043" class="colorStrokeeef2fe svgStroke"/><line x1="1145.52" x2="1390.38" y1="1162.14" y2="1162.14" fill="none" stroke="#eef2fe" stroke-linecap="round" stroke-linejoin="round" stroke-miterlimit="10" stroke-width="9.043" class="colorStrokeeef2fe svgStroke"/><line x1="1104.25" x2="1332.15" y1="1085.39" y2="1085.39" fill="none" stroke="#eef2fe" stroke-linecap="round" stroke-linejoin="round" stroke-miterlimit="10" stroke-width="9.043" class="colorStrokeeef2fe svgStroke"/></g></g></svg>