<svg id="connectedWorldSvg" viewBox="0 0 1040 510" fill="none">
<g id="connectedWorld" clip-path="url(#clip0_2_46)">
<g id="mapParts">
<path class="part" d="M210.64 15.6409C208.175 14.8569 205.518 14.8204 203.03 15.5363C200.543 16.2521 198.344 17.6856 196.733 19.6425C196.089 20.4569 195.549 21.5796 196.087 22.4614C196.86 23.7256 198.829 23.2263 200.28 22.7741C202.414 22.0417 204.736 21.9885 206.903 22.6222C208.266 23.0719 209.486 23.8665 210.855 24.2991C211.521 24.5669 212.251 24.6554 212.965 24.555C213.68 24.4547 214.353 24.1693 214.912 23.7295C215.851 22.8089 215.91 21.3776 215.912 20.0883C215.977 19.6569 215.941 19.2169 215.807 18.8005C215.672 18.3841 215.443 18.0018 215.135 17.6815C214.587 17.3765 213.971 17.2015 213.339 17.171C211.923 16.9191 210.642 16.2003 209.718 15.1384" fill="#3F3D56"/>
<path class="part" d="M224.738 11.8696C224.186 11.8407 223.636 11.9487 223.14 12.1832C222.644 12.4177 222.22 12.7708 221.907 13.2085C221.594 13.6462 221.404 14.1539 221.355 14.6826C221.305 15.2114 221.398 15.7435 221.625 16.2277C223.319 16.6717 225.089 16.7826 226.83 16.5538C227.697 16.4243 228.506 16.0509 229.153 15.4806C229.801 14.9103 230.258 14.1687 230.467 13.3491C228.419 13.7073 226.305 13.3194 224.538 12.261" fill="#3F3D56"/>
<path class="part" d="M272.037 5.57128C267.425 6.51334 262.945 7.97551 258.69 9.92738C260.696 10.6682 262.401 12.0084 263.554 13.7506C264.707 15.4929 265.247 17.5449 265.095 19.6044C264.915 20.395 264.936 21.2157 265.155 21.997C265.646 23.1387 267.066 23.5671 268.315 23.8602C270.558 24.5162 272.901 24.8035 275.244 24.7099C276.416 24.651 277.554 24.3122 278.556 23.7242C279.557 23.1362 280.39 22.3176 280.98 21.3423C281.319 20.4168 281.718 19.5121 282.173 18.6333C285.166 14.2534 294.058 19.5494 297.271 15.3162C298.403 13.825 298.3 11.5803 299.776 10.3986C300.539 9.88382 301.424 9.55944 302.35 9.45469C308.813 8.22102 315.341 7.32773 321.905 6.77881C325.015 6.51876 329.069 5.44573 329.095 2.44622C317.38 0.235617 305.233 1.80568 294.542 6.91231C290.691 8.76588 285.596 12.6649 281.886 10.2075C280.497 9.28745 280.566 6.80988 278.654 5.77526C276.699 4.71749 274.112 5.1477 272.037 5.57128Z" fill="#3F3D56"/>
<path class="part" d="M310.348 12.4549L315.848 13.4701C314.835 13.4271 313.825 13.5919 312.885 13.9536C311.944 14.3154 311.094 14.8657 310.392 15.5679C309.691 16.2701 309.153 17.1081 308.815 18.0258C308.477 18.9436 308.346 19.92 308.432 20.8901C313.582 22.543 319.196 20.9345 324.621 21.1543C330.046 21.374 336.358 25.0971 335.431 30.2374C335.151 31.7917 334.217 33.3449 334.703 34.8515C335.044 35.9076 336.013 36.6569 336.56 37.6295C337.7 39.6562 336.789 42.2197 335.349 44.062C333.91 45.9044 331.975 47.3744 330.711 49.3323C327.568 54.2019 329.354 60.4973 331.226 65.9375C331.767 67.993 332.767 69.9111 334.156 71.5589C336.929 74.3925 341.45 74.639 345.498 74.6957C348.444 74.7371 351.82 74.5972 353.683 72.4038C356.115 69.5403 354.414 65.0725 356.016 61.7117C357.471 58.6594 361.177 57.3499 364.534 56.4212C370.685 54.7198 376.954 53.2733 382.769 50.7033C389.99 47.5121 396.739 42.5389 404.676 42.1281C406.902 42.0129 409.184 42.2654 411.329 41.6792C413.474 41.0931 415.511 39.3114 415.349 37.1746C415.21 35.3489 413.603 34.0082 412.346 32.6319C411.09 31.2555 410.104 29.1391 411.258 27.683L432.062 23.9496C430.587 20.0883 429.438 15.0029 432.827 12.4896C434.049 11.5828 435.686 11.2203 436.727 10.124C438.502 8.25551 437.609 5.03681 435.561 3.44774C433.513 1.85866 430.744 1.48977 428.121 1.2804C418.999 0.552523 409.825 1.03349 400.685 1.51483C382.819 2.45574 364.953 3.39666 347.087 4.33757C343.491 4.52698 339.339 4.23761 336.04 5.41651C333.247 6.41457 331.262 8.24661 328.068 8.89029C322.172 10.0786 315.684 9.27448 310.348 12.4549Z" fill="#3F3D56"/>
<path class="part" d="M408.866 54.2188C408.306 54.1336 407.733 54.2584 407.265 54.5676C406.956 54.8944 406.772 55.3128 406.744 55.7535C406.389 57.6986 406.812 59.7008 407.928 61.3591C408.497 62.1726 409.282 62.825 410.201 63.2486C411.121 63.6722 412.142 63.8516 413.158 63.7681C415.634 63.4647 417.459 61.435 419.735 60.4446C423.244 58.9195 438.144 56.5419 427.837 51.1916C424.285 49.3478 421.99 50.9755 419.19 52.1898C416.005 53.7554 412.435 54.4569 408.866 54.2188V54.2188Z" fill="#3F3D56"/>
<path class="part" d="M499.146 9.43445C497.942 9.90689 496.936 10.749 496.283 11.8292C495.982 12.3777 495.912 13.0163 496.087 13.613C496.263 14.2096 496.671 14.7185 497.226 15.0345C497.675 15.1911 498.152 15.2638 498.63 15.2485L503.524 15.389C505.603 15.4487 508.199 15.8741 508.758 17.799C509.173 19.2283 508.244 21.065 509.365 22.0865C509.846 22.4442 510.424 22.6608 511.029 22.7103C512.642 23.1082 514.325 23.1604 515.96 22.8632C519.521 21.9456 517.65 19.8575 518.772 17.9983C520.488 15.1535 520.191 16.8756 523.214 15.2452C525.447 14.0411 528.332 11.8569 526.468 8.78809C523.228 3.45146 503.928 7.14185 499.146 9.43445Z" fill="#3F3D56"/>
<path class="part" d="M595.737 6.75144L592.896 7.11579C586.488 7.9374 580.043 8.76656 573.871 10.6155C576.543 11.6303 579.346 12.2912 582.203 12.5797C583.776 12.6538 585.338 12.8672 586.87 13.2171C589.596 13.9968 592.343 16.0103 594.976 14.9789C596.609 14.3394 597.142 12.7058 598.495 11.84C599.429 11.2422 602.972 10.2746 603.368 9.67118C606.569 4.79314 598.198 6.43591 595.737 6.75144Z" fill="#3F3D56"/>
<path class="part" d="M606.389 379.704C605.524 382.109 605.442 384.943 606.938 387.043C608.616 389.4 611.976 390.278 614.882 389.681C617.777 388.941 620.356 387.347 622.258 385.124C623.998 383.262 625.429 381.154 626.501 378.873C627.997 375.32 629.053 371.609 629.646 367.818L632.466 353.59C633.096 350.41 633.072 340.66 626.989 343.837C625.327 344.704 621.479 351.556 619.738 353.499C616.599 357 616.184 360.398 614.531 364.64C612.462 369.953 608.302 374.382 606.389 379.704Z" fill="#3F3D56"/>
<path class="part" d="M927.678 452.515C925.688 451.769 923.756 450.886 921.898 449.872C920.035 454.793 919.044 459.98 918.968 465.216L932.588 457.811C934.637 456.697 936.959 455.149 936.915 452.887C936.934 452.608 936.873 452.329 936.741 452.08C936.608 451.831 936.408 451.62 936.162 451.471C935.859 451.354 935.53 451.317 935.207 451.363C933.188 451.525 931.346 452.48 929.441 453.144C927.536 453.808 925.308 454.159 923.56 453.173" fill="#3F3D56"/>
<path class="part" d="M999.529 456.912C998.034 457.303 996.573 457.806 995.161 458.418C992.035 459.946 989.909 462.848 987.096 464.861C984.405 466.787 981.165 467.844 977.984 468.872C977.048 469.667 977.478 471.267 978.494 471.965C979.586 472.562 980.838 472.833 982.091 472.742C985.395 472.812 988.877 472.843 991.771 471.309C993.402 470.293 994.928 469.129 996.329 467.834C999.713 465.121 1003.78 463.331 1007.8 461.601C1009.26 461.07 1010.62 460.292 1011.8 459.304C1014.33 456.911 1014.5 453.22 1010.86 452.405C1007.91 451.747 1002.33 456.04 999.529 456.912Z" fill="#3F3D56"/>
<path class="part" d="M608.215 19.1605C604.42 21.1998 600.898 23.6778 597.729 26.5392C596.394 27.7451 595.03 29.2449 595.151 31.0017C595.312 33.3366 597.901 34.691 600.143 35.6033L609.228 39.2987C610.33 37.8063 609.321 35.7462 608.182 34.2796C607.043 32.813 605.69 31.1163 606.193 29.3514C606.767 27.3374 609.323 26.6511 611.466 26.3042C614.958 25.7389 624.378 25.7842 623.246 20.3772C621.912 14.0062 611.721 17.278 608.215 19.1605Z" fill="#3F3D56"/>
<path class="part" d="M1031.28 436.987C1031.44 435.341 1031.21 433.68 1030.61 432.131C1030.01 430.581 1029.05 429.183 1027.8 428.043C1027.76 431.337 1027.66 434.847 1025.73 437.571C1024.36 439.512 1022.2 440.823 1020.7 442.672C1019.19 444.521 1018.52 447.451 1020.29 449.074C1021.42 449.899 1022.79 450.354 1024.21 450.372C1027.72 450.769 1031.79 450.991 1034.26 448.551C1035.6 447.219 1036.26 445.247 1037.9 444.268C1038.51 444.021 1039.06 443.646 1039.5 443.169C1040.17 442.134 1039.1 440.77 1037.89 440.397C1036.67 440.024 1035.34 440.2 1034.12 439.846C1032.9 439.491 1031.78 438.175 1032.41 437.11" fill="#3F3D56"/>
<path class="part" d="M974.852 316.202C973.008 316.633 971.098 316.741 969.214 316.522C966.085 315.969 963.649 313.703 961.123 311.845C955.117 307.451 947.817 305.001 940.27 304.845C933.406 304.72 926.477 306.507 919.734 305.26C920.175 307.614 922.271 309.38 924.508 310.429C926.745 311.479 929.214 312.007 931.462 313.035C935.062 314.698 937.917 317.552 939.504 321.073C940.228 322.697 940.683 324.464 941.78 325.881C944.021 328.779 948.27 329.415 952.019 329.178C956.907 328.869 962.013 327.519 966.561 329.268C970.04 330.607 972.53 333.533 975.435 335.808C978.34 338.083 982.431 339.771 985.767 338.129C982.302 337.052 979.286 334.938 977.16 332.097C975.034 329.257 973.909 325.837 973.948 322.338C977.22 322.627 986.643 322.516 986.135 317.175C985.705 312.648 977.661 315.714 974.852 316.202Z" fill="#3F3D56"/>
<path class="part" d="M932.054 353.03C932.635 349.969 935.812 347.265 934.823 344.303C934.138 342.254 931.666 341.242 929.427 341.192C927.188 341.141 924.988 341.782 922.75 341.843C921.292 341.768 919.832 341.788 918.377 341.902C913.933 342.604 911.194 347.079 907.006 348.671C904.46 349.638 901.599 349.453 898.951 350.122C892.939 351.641 889.135 357.099 884.932 361.5C878.142 368.578 869.296 373.535 859.54 375.728C856.121 376.488 852.447 376.974 849.73 379.108C846.132 381.932 845.246 386.775 844.446 391.172C842.234 403.317 838.854 415.238 834.349 426.782L848.624 428.534C851.338 428.866 854.151 429.192 856.766 428.42C858.666 427.731 860.466 426.81 862.121 425.679C868.479 421.887 875.594 419.419 883.007 418.435C886.746 417.942 890.665 417.852 894.173 419.187C897.681 420.522 900.691 423.55 900.985 427.164C902.502 426.711 904.119 426.662 905.662 427.022C907.206 427.383 908.619 428.14 909.75 429.212C911.985 431.401 913.449 434.208 913.935 437.239C914.311 439.115 914.687 441.363 916.499 442.151C917.978 442.793 919.674 442.101 921.291 441.977C926.779 441.555 931.334 447.703 936.728 446.645C942.513 445.509 943.934 437.184 949.578 435.517C952.82 434.559 957.367 435.724 958.919 432.826C960.287 430.273 957.557 427.326 957.839 424.467C958.185 420.946 962.508 419.452 965.84 417.949C977.328 412.77 982.779 397.915 977.212 386.958C973.914 380.467 967.424 375.357 966.226 368.225C965.304 362.738 967.555 356.34 963.914 352.021C962.062 349.824 958.926 348.612 957.824 345.99C957.13 344.34 957.409 342.468 957.035 340.725C956.662 338.981 955.079 337.158 953.288 337.61C948.087 338.922 946.427 354.357 943.643 358.108C939.41 363.809 930.721 360.053 932.054 353.03Z" fill="#3F3D56"/>
<path class="part" d="M835.928 322.034C834.151 321.556 832.21 321.084 830.507 321.768C828.804 322.452 827.81 324.854 829.177 326.046C839.869 325.646 850.626 325.249 861.227 326.644C873.442 328.251 885.529 332.233 897.797 331.062C890.79 329.075 883.666 327.487 876.464 326.305L864.454 324.101C861.232 323.453 857.977 322.969 854.702 322.653C847.85 322.109 842.664 323.849 835.928 322.034Z" fill="#3F3D56"/>
<path class="part" d="M846.632 286.256C845.744 286.184 844.645 286.123 844.186 286.856C843.747 287.557 844.249 288.483 844.013 289.268C843.691 290.342 842.228 290.616 841.075 290.47C839.923 290.323 838.676 289.974 837.655 290.507C837.137 290.847 836.748 291.339 836.546 291.91C836.344 292.48 836.34 293.098 836.534 293.671C836.952 294.809 837.627 295.843 838.511 296.699C840.021 298.528 841.742 300.186 843.64 301.643C847.315 304.249 852.294 305.505 854.608 309.288C854.935 310.021 855.437 310.67 856.073 311.182C857.184 311.859 858.633 311.344 859.83 310.819L864.023 308.978C864.778 308.717 865.453 308.276 865.983 307.697C866.941 306.448 866.353 304.672 865.549 303.327C864.745 301.981 863.715 300.589 863.888 299.046C864.196 296.296 867.876 295.244 869.39 292.89C870.915 290.518 869.922 287.462 870.098 284.679C870.304 281.423 872.432 277.189 869.007 274.757C866.097 272.69 863.314 274.6 861.224 276.882C856.817 281.694 854.733 286.906 846.632 286.256Z" fill="#3F3D56"/>
<path class="part" d="M872.086 237.62C873.518 240.254 876.502 241.826 878.063 244.39C879.755 247.171 879.563 250.763 881.398 253.457C883.282 256.222 887.072 257.69 888.128 260.834C889.281 264.267 886.665 268.44 888.751 271.44C889.14 271.93 889.63 272.337 890.192 272.636C890.753 272.934 891.373 273.118 892.012 273.174C892.651 273.231 893.295 273.159 893.904 272.964C894.512 272.768 895.072 272.454 895.547 272.04C896.427 271.12 896.897 269.906 896.859 268.658C896.82 267.409 896.276 266.225 895.342 265.356C894.107 264.275 892.334 263.807 891.303 262.544C890.766 261.814 890.408 260.978 890.257 260.096C889.694 257.554 889.785 254.919 890.519 252.418C890.795 251.783 890.865 251.083 890.72 250.409C890.256 249.113 888.429 249.021 887.147 248.42C884.234 247.054 884.305 243.105 884.814 240.03C884.475 242.077 876.885 238.595 876.091 237.436C874.512 235.132 875.371 230.688 875.059 228.143C871.65 229.721 870.335 234.4 872.086 237.62Z" fill="#3F3D56"/>
<path class="part" d="M795.623 278.143C794.223 276.636 792.113 275.06 790.234 275.968C788.802 276.662 788.407 278.567 788.969 280.01C789.653 281.413 790.707 282.619 792.025 283.511C795.939 286.612 800.153 289.411 803.568 293.016C809.678 299.468 812.915 308.174 819.56 314.117C820.896 315.495 822.665 316.415 824.596 316.736C826.532 316.909 828.706 315.718 828.929 313.862C829.112 312.333 828.003 310.965 826.919 309.832C824.338 307.134 821.512 304.651 819.074 301.832C817.949 300.749 817.241 299.33 817.069 297.809C817.057 296.291 818.497 294.702 820.028 295.078C818.167 294.621 816.786 291.641 814.054 291.081C811.771 290.613 811.218 291.971 808.501 290.852C803.319 288.716 799.253 282.046 795.623 278.143Z" fill="#3F3D56"/>
<path class="part" d="M917.396 131.431C915.91 131.006 914.448 130.505 913.018 129.928C909.17 128.818 904.079 131.536 904.592 135.364C904.933 137.908 907.397 139.623 908.757 141.829C910.775 145.101 910.237 149.251 909.177 152.916C908.917 154.05 908.421 155.123 907.721 156.07C906.742 157.07 905.571 157.879 904.273 158.453C899.077 161.253 894.494 164.993 890.779 169.468C890.375 169.881 890.093 170.391 889.964 170.944C889.78 172.237 891.132 173.178 891.897 174.256C893.595 176.651 892.368 179.874 892.536 182.767C892.51 183.176 892.593 183.585 892.778 183.954C892.963 184.324 893.242 184.642 893.591 184.878C894.615 185.378 895.828 184.529 896.382 183.563C898.224 180.358 896.837 175.214 900.291 173.668C900.944 173.376 901.736 173.253 902.172 172.701C902.864 171.827 902.196 170.531 902.547 169.486C903.073 167.916 905.308 167.845 907.023 167.915C909.978 168.034 912.931 167.656 915.75 166.799C916.856 166.546 917.861 165.987 918.639 165.191C919.672 163.953 919.58 162.193 919.374 160.619C918.34 152.771 915.753 145.186 911.752 138.273C914.786 138.645 918.087 138.968 920.705 137.448C922.171 136.598 923.929 134.054 923.202 132.322C922.052 129.584 919.975 131.889 917.396 131.431Z" fill="#3F3D56"/>
<path class="part" d="M528.417 174.591C528.78 176.463 529.137 178.433 528.499 180.235C527.861 182.037 525.853 183.542 523.957 182.99C522.486 182.562 521.636 181.14 520.591 180.056C514.781 174.03 501.673 177.519 498.083 170.063C496.619 167.02 497.614 163.375 496.615 160.163C495.985 158.306 494.73 156.703 493.049 155.606C491.368 154.509 489.355 153.979 487.327 154.1C485.476 154.357 483.675 154.873 481.982 155.633C470.634 160 458.72 162.863 446.569 164.143C444.259 164.278 441.975 164.678 439.764 165.333C434.775 167.071 431.365 171.515 428.939 176.05C426.513 180.585 424.722 185.495 421.469 189.525C418.051 193.759 413.26 196.724 408.792 199.932C407.071 200.998 405.637 202.441 404.61 204.143C403.641 206.054 403.696 208.277 403.771 210.401L404.684 236.201C404.802 239.519 404.949 242.957 406.495 245.926C408.425 249.635 412.239 252.064 414.884 255.34C417.584 258.706 418.99 262.866 418.865 267.114C418.809 268.822 418.632 270.842 420.017 271.915C420.859 272.439 421.845 272.712 422.848 272.697L459.172 275.553C465.562 276.056 472.643 276.882 476.814 281.559C478.783 283.767 480.365 286.941 483.38 287.178C484.674 287.28 485.933 286.769 487.226 286.671C490.491 286.423 493.358 288.803 495.168 291.425C497.907 295.421 499.15 300.193 498.693 304.958C498.397 307.949 497.432 310.856 497.224 313.854C496.432 325.26 506.496 335.17 506.691 346.6C506.806 353.324 503.484 359.606 500.245 365.567C505.472 373.175 501.192 383.306 503.273 392.2C505.247 400.639 512.57 407.245 514.395 415.714C515.23 419.591 515.278 424.362 518.837 426.359C520.398 427.091 522.129 427.424 523.863 427.326C534.323 427.445 544.663 425.184 554.038 420.726C558.439 418.628 562.999 415.496 563.767 410.835C564.387 407.076 562.403 402.871 564.422 399.596C566.802 395.737 572.898 396.043 576.4 393.076C582.08 388.263 577.651 379.082 579.952 372.149C582.021 365.917 589.143 362.606 592.673 357.013C594.062 354.608 595.059 352.012 595.629 349.316C597.246 342.872 598.253 336.301 598.636 329.683C598.73 325.663 599.039 321.649 599.561 317.658C603.367 294.94 626.743 279.727 634.333 257.902C635.058 255.817 635.398 253.041 633.468 251.862C632.323 251.337 631.026 251.206 629.793 251.492L613.048 253.52C610.968 253.772 608.764 254.008 606.854 253.178C604.944 252.348 603.575 250.026 604.588 248.263C607.432 243.314 601.582 237.059 598.983 231.987C591.984 218.329 583.648 205.341 574.09 193.199C573.478 192.574 573.095 191.775 572.999 190.922L577.751 191.074C576.147 185.544 573.499 179.491 567.907 177.468C564.756 176.328 561.266 176.722 557.904 176.899C548.273 177.405 537.949 176.007 528.417 174.591Z" fill="#3F3D56"/>
<path class="part" d="M443.51 93.1764C444.07 92.6665 444.474 92.0178 444.676 91.3019C444.878 90.5859 444.871 89.8302 444.655 89.118C443.291 88.6121 441.806 88.4822 440.369 88.7429C438.932 89.0037 437.599 89.6447 436.52 90.5938C435.67 91.4202 434.937 92.351 434.341 93.362C432.455 96.3184 430.787 99.8497 431.88 103.154C431.969 103.515 432.132 103.855 432.36 104.154C432.587 104.453 432.875 104.705 433.205 104.896C433.695 105.085 434.223 105.164 434.749 105.128C436.827 105.126 438.903 105.003 440.965 104.761C442.232 104.612 443.703 104.268 444.192 103.136C444.836 101.648 443.278 99.9637 443.732 98.4124C444.031 97.7186 444.484 97.0959 445.059 96.5875C445.344 96.3315 445.563 96.0152 445.699 95.6636C445.835 95.3121 445.883 94.9349 445.841 94.5621C445.657 93.8342 444.497 93.4213 444.08 94.0537" fill="#3F3D56"/>
<path class="part" d="M454.284 79.756C452.438 79.3488 450.535 79.234 448.651 79.4161C448.234 79.4042 447.821 79.4944 447.451 79.6782C447.092 79.9325 446.832 80.2947 446.711 80.7072C446.313 81.9345 446.411 83.2607 446.985 84.4218C447.559 85.5829 448.567 86.4936 449.809 86.9725C450.486 87.1219 451.134 87.3722 451.73 87.7142C453.323 88.9017 452.308 91.3291 452.609 93.2446C452.948 95.3955 455.115 97.201 454.718 99.3426C454.405 101.03 452.529 102.366 452.831 104.055C453.147 105.824 455.484 106.356 457.346 106.497C458.425 106.679 459.536 106.557 460.545 106.145C461.556 105.481 462.275 104.48 462.563 103.337C463.326 101.156 463.646 98.8554 463.507 96.5589C463.499 95.5145 463.226 94.4876 462.712 93.5674C462.151 92.8383 461.529 92.1544 460.853 91.5223C457.285 87.5344 461.042 81.5859 454.284 79.756Z" fill="#3F3D56"/>
<path class="part" d="M241.836 47.5284C241.462 44.6898 240.706 41.9099 239.587 39.2584C239.445 38.7569 239.195 38.2896 238.854 37.886C238.513 37.4825 238.088 37.1515 237.607 36.9144C236.963 36.7536 236.288 36.7464 235.641 36.8933L225.55 38.3767C224.706 38.4138 223.897 38.7157 223.248 39.2363C221.934 40.5642 223.228 42.7026 223.188 44.5347C223.143 46.5948 221.237 48.2671 219.171 48.8203C217.063 49.2297 214.887 49.2038 212.79 48.7443L198.68 46.6376C202.835 45.3629 206.534 42.9914 209.354 39.7937C211.211 37.6803 212.199 33.7346 209.515 32.7338C208.718 32.5236 207.887 32.4594 207.065 32.5447C200.672 32.5925 195.641 27.4642 189.657 25.3044C185.826 24.0114 181.669 23.9152 177.778 25.0295C173.887 26.1439 170.463 28.4118 167.995 31.5088L175.511 31.857C176.218 31.8195 176.92 31.9992 177.513 32.37C179.161 33.6704 177.113 36.1681 177.345 38.2043C177.646 40.8497 181.302 41.4146 184.058 41.6821C186.814 41.9496 190.31 44.1009 188.984 46.4376C175.133 51.0216 161.038 37.4769 146.491 39.1443C142.809 39.5662 139.333 40.9559 135.738 41.8297C113.78 47.1676 91.0795 32.9255 68.6481 35.9417C63.6613 36.7585 58.7602 38.0005 54.0027 39.6528C50.9498 40.6159 47.7654 41.6568 45.5471 43.8904C43.3289 46.1241 42.4846 49.944 44.5861 52.2796C38.7939 52.7379 32.9631 52.2054 27.3645 50.7068C28.8785 51.5153 30.138 52.7006 31.0108 54.1381C31.8836 55.5756 32.3375 57.2124 32.3249 58.8766C23.2811 60.2935 14.4768 62.8728 6.14885 66.5451C7.70317 69.0285 9.51862 71.3521 11.5667 73.4794L0.117493 80.5465C3.98557 81.4829 5.98546 86.5506 3.73604 89.7157C7.74679 88.0013 10.2325 83.5665 14.5213 82.6674C17.3311 82.0783 20.1901 83.1827 22.8555 84.2201C25.521 85.2576 28.4506 86.2635 31.21 85.4849C33.9693 84.7063 36.0046 81.2687 34.2512 79.0784C46.0454 75.7722 58.2344 73.9425 70.5161 73.6347C71.4636 73.5205 72.4245 73.6957 73.2626 74.1355C74.8614 75.2012 74.4407 77.5031 74.3546 79.3708C74.2685 81.2386 75.7836 83.6933 77.521 82.8514C75.4769 84.5545 77.2244 87.7605 79.1854 89.5514C81.1465 91.3422 83.5102 93.8133 82.3096 96.1428C81.9962 96.7508 81.4647 97.2373 81.1632 97.8508C80.2733 99.6617 81.6863 101.773 83.353 102.976C85.0196 104.178 87.0611 105.019 88.2189 106.684C89.3766 108.349 88.8509 111.264 86.7806 111.497L80.8963 104.318C78.8859 106.321 77.5076 108.831 76.9213 111.556C83.1612 116.457 84.0997 126.432 78.8758 132.329C76.2062 135.342 72.4099 137.173 69.0965 139.524C65.7832 141.874 62.7172 145.221 62.7256 149.178C62.74 156.015 62.1586 162.366 64.8249 168.705C69.7417 180.392 75.4182 191.771 81.821 202.774C83.5024 205.663 85.6755 208.83 89.0817 209.327C84.7769 199.259 80.9018 189.033 77.4563 178.651C79.7004 178.659 82.2938 178.831 83.6094 180.577C84.6987 182.024 84.4647 183.991 84.8032 185.746C85.2337 187.447 85.9517 189.069 86.9284 190.546L107.485 225.728C109.189 228.645 111.144 231.775 114.4 232.956C116.483 233.711 118.892 233.569 120.808 234.656C122.311 235.508 123.322 237.021 124.854 237.824C129.184 240.093 135.206 235.741 139.253 238.45C140.41 239.225 141.146 240.456 142.212 241.343C145.95 244.453 152.081 242.373 156.395 244.693C159.176 246.188 160.617 249.178 162.1 251.888C165.816 258.675 171.827 265.325 179.789 265.865C182.29 266.035 184.845 265.579 187.289 266.114C189.734 266.648 192.141 268.698 191.748 271.078C191.075 275.157 193.173 279.623 192.61 283.717C191.583 291.175 180.573 294.453 179.628 301.92C179.421 303.555 179.745 305.243 179.34 306.843C178.843 308.805 177.31 310.402 176.765 312.351C175.732 316.046 178.488 319.723 181.514 322.209C184.541 324.695 188.151 326.838 189.806 330.318C191.555 333.996 190.696 338.284 191.264 342.29C192.506 351.037 200.369 357.521 208.461 361.702C210.926 362.976 213.574 364.209 215.169 366.419C217.252 369.303 217.045 373.105 217.74 376.552C219.443 384.992 226.839 391.946 227.048 400.541C227.198 406.65 223.663 412.192 221.552 417.956C219.573 423.479 218.856 429.347 219.452 435.16C220.048 440.973 221.941 446.594 225.004 451.639C226.583 454.202 228.472 456.618 229.589 459.395C231.583 464.352 230.936 469.987 232.775 475C235.205 481.626 241.883 487.1 241.244 494.099C244.276 500.148 250.971 503.12 257.703 504.921L269.769 508.148C272.079 508.766 274.493 509.388 276.846 508.941C279.198 508.494 281.443 506.617 281.383 504.313C275.466 503.031 269.359 501.668 264.482 498.204C259.604 494.74 256.263 488.571 258.114 483.021C258.972 480.448 260.797 477.476 259.062 475.35C258.068 474.132 256.251 473.814 255.13 472.703C253.382 470.971 253.982 468.06 255.239 465.971C256.496 463.881 258.313 462.014 258.82 459.651C259.076 458.329 258.905 456.963 258.33 455.737C257.755 454.51 256.803 453.482 255.603 452.79C257.84 451.979 259.875 450.725 261.575 449.109C263.145 447.386 263.871 444.729 262.635 442.77C266.304 443.217 270.635 443.436 273.044 440.74C274.967 438.586 274.835 435.367 274.075 432.625C273.315 429.884 272.031 427.22 271.991 424.383C280.454 424.769 288.936 424.492 297.352 423.557C296.135 419.619 293.369 416.291 289.641 414.279C293.453 413.659 296.926 409.274 298.13 405.745C299.335 402.215 299.027 398.37 298.283 394.725C297.997 393.787 297.958 392.795 298.169 391.838C298.598 390.524 299.942 389.722 301.185 389.036L320.106 378.596C321.235 378.052 322.259 377.326 323.132 376.45C325.114 374.212 324.82 370.835 323.805 368.064C322.79 365.292 321.165 362.686 320.774 359.772C319.604 351.057 329.314 344.804 332.591 336.6C333.877 333.381 334.139 329.881 334.388 326.441C334.655 322.746 334.675 318.454 331.722 316.073C328.892 313.791 324.469 314.3 321.508 312.177C318.792 310.231 317.855 306.45 314.889 304.878C312.195 303.451 308.817 304.359 305.821 303.687C300.546 302.505 297.226 296.663 291.838 296.122C288.798 295.817 285.358 297.245 282.867 295.544C280.671 294.045 280.583 291.033 280.165 288.476C279.433 284.504 277.451 280.842 274.487 277.985C271.522 275.127 267.718 273.211 263.585 272.495C260.451 272.012 257.039 272.195 254.373 270.54C251.673 268.865 250.435 265.727 248.314 263.407C244.896 259.667 239.513 258.338 234.47 257.199L213.958 252.566C210.316 251.743 205.623 251.307 203.669 254.372C203.09 255.538 202.681 256.776 202.452 258.049C201.719 260.353 200.246 262.375 198.243 263.823C196.24 265.272 193.81 266.073 191.303 266.112C189.584 263.294 186.799 261.224 183.529 260.332C181.449 259.775 179.223 259.713 177.239 258.894C176.159 258.387 175.197 257.674 174.414 256.798C173.63 255.922 173.041 254.901 172.682 253.799C172.323 252.697 172.202 251.535 172.327 250.387C172.451 249.238 172.818 248.125 173.405 247.117C174.588 245.094 175.045 242.754 174.705 240.456C174.365 238.159 173.248 236.033 171.526 234.407C168.038 231.398 162.992 230.671 158.314 230.972C157.089 228.403 159.137 225.506 161.345 223.639C163.552 221.773 166.232 219.938 166.713 217.151C167.469 212.767 161.647 209.437 157.226 210.744C152.806 212.051 149.984 216.177 148.119 220.243C147.049 222.577 146.139 225.034 144.451 227.001C142.763 228.969 140.045 230.377 137.474 229.746C133.834 228.852 132.428 224.697 131.623 221.171C130.542 216.441 129.455 211.645 129.681 206.807C129.908 201.968 131.605 197.001 135.318 193.725C141.369 188.388 150.652 188.911 158.818 189.763C156.888 187.674 157.365 184.154 159.429 182.189C160.519 181.258 161.828 180.598 163.244 180.263C164.66 179.929 166.139 179.932 167.553 180.271C170.014 180.763 172.23 182.037 173.846 183.886C176.167 186.605 176.827 190.275 178.581 193.36C180.335 196.446 184.279 199.078 187.507 197.422C190.295 195.993 190.738 192.278 190.044 189.315C189.35 186.353 187.876 183.472 188.127 180.445C188.607 174.669 194.839 171.192 200.338 168.813C205.837 166.434 212.134 163.235 213.005 157.502C213.035 156.379 213.255 155.269 213.658 154.214C214.267 153.283 215.115 152.517 216.12 151.99C232.169 141.799 248.485 131.484 266.829 125.916C267.783 125.626 267.895 125.948 268.868 125.721C270.229 124.965 269.327 122.874 268.022 122.032C266.717 121.189 264.973 120.543 264.641 119.067C264.398 117.981 265.064 116.915 265.237 115.817C265.662 113.12 262.302 110.629 259.694 111.707C258.22 109.832 261.136 107.654 263.493 107.03C270.573 105.158 277.84 104.018 285.171 103.628C286.017 103.498 286.884 103.64 287.638 104.031C288.869 104.85 288.712 106.73 287.839 107.9C286.967 109.069 285.609 109.804 284.522 110.794C283.333 111.906 282.486 113.31 282.072 114.853C281.658 116.396 281.693 118.019 282.173 119.545C286 121.415 290.161 123.341 294.4 122.682C298.639 122.023 302.401 117.447 300.409 113.792C298.553 110.389 292.98 109.621 292.021 105.891C290.899 101.524 297.334 97.64 295.884 93.3627C295.249 91.4891 293.306 90.3865 291.815 89.0338C290.054 87.3754 288.856 85.2439 288.378 82.9194C287.901 80.5949 288.166 78.1861 289.139 76.0091C286.71 76.4197 284.214 76.2646 281.861 75.5569C279.507 74.8492 277.364 73.6096 275.612 71.9419C272.377 68.8046 269.795 63.8555 265.201 63.9959C260.985 64.1247 257.353 68.8508 253.411 67.4089C252.441 67.0542 251.418 66.3322 250.478 66.7553C250.17 66.9474 249.912 67.2043 249.722 67.5065C249.533 67.8087 249.417 68.1483 249.384 68.4997C248.383 73.1019 250.106 78.3456 247.495 82.3225C244.655 86.6501 238.084 87.2501 234.639 91.1525C232.77 93.2709 232.046 96.1254 230.327 98.3588C228.609 100.592 224.961 102.012 222.899 100.066C223.913 98.0639 224.19 95.7908 223.684 93.6181C223.179 91.4455 221.922 89.5017 220.118 88.1046C218.203 86.9044 216.139 85.9398 213.975 85.2336C211.556 84.2498 209.255 83.0176 207.112 81.5585C206.038 80.9363 205.166 80.0395 204.592 78.9684C204.138 77.6271 204.2 76.1741 204.764 74.8724C205.81 71.9917 207.655 69.4403 210.1 67.4934C212.544 65.5466 215.496 64.2783 218.636 63.8255C221.382 63.4666 224.578 63.5931 226.395 61.583C227.356 60.5194 227.861 58.9113 229.256 58.4794C230.149 58.307 231.076 58.4167 231.898 58.792L242.147 62.258C243.291 62.754 244.549 62.954 245.798 62.8381C246.417 62.758 246.982 62.4558 247.379 61.9922C247.776 61.5287 247.976 60.938 247.938 60.3388C247.611 58.7035 244.992 57.9188 245.23 56.2694C245.364 55.7349 245.663 55.2518 246.088 54.884C249.787 51.1017 254.31 48.1518 259.334 46.2456C264.358 44.3394 269.759 43.524 275.149 43.8578C276.443 45.8991 274.397 48.3162 272.695 50.0588C270.992 51.8013 269.625 54.9148 271.683 56.2562C272.527 56.6698 273.465 56.8729 274.412 56.8466C276.935 57.1748 279.387 57.8894 281.675 58.9633C285.217 60.4441 288.69 62.0643 292.096 63.8239C291.795 61.6665 291.508 59.3936 292.359 57.3764C293.21 55.3591 295.629 53.7769 297.742 54.5625C299.778 55.3196 300.822 57.91 302.992 58.1474C305.885 58.464 307.027 54.3565 305.818 51.8106C304.61 49.2646 302.217 47.1328 302.017 44.3411C301.882 42.4577 302.628 40.1219 301.062 38.9814C300.505 38.639 299.873 38.426 299.215 38.359L260.118 31.4465C257.796 31.036 254.442 31.3506 254.339 33.6166C254.282 34.8814 255.457 36.1327 254.937 37.2956C254.381 38.5368 252.555 38.4234 251.225 38.8624C249.161 39.5435 248.125 41.898 248.323 43.9859C248.686 46.0606 249.523 48.0324 250.772 49.7599C248.229 48.738 244.379 48.5502 241.836 47.5284Z" fill="#3F3D56"/>
<path class="part" d="M557.911 49.9573C560.431 52.5285 563.255 55.2547 566.902 55.7028C573.342 56.4945 577.972 50.0958 580.92 44.5379C581.029 45.9548 581.71 47.2749 582.816 48.2175C583.923 49.16 585.368 49.6506 586.845 49.5849C588.435 49.3279 589.952 48.758 591.302 47.9109C604.062 41.2112 618.354 37.6613 632.895 37.5803C632.755 36.522 633.028 35.4515 633.662 34.5754C634.295 33.6992 635.244 33.0795 636.325 32.8359C639.281 32.2727 641.944 34.7286 643.371 37.2796C644.797 39.8307 645.686 42.7876 647.952 44.6972C650.218 46.6067 654.605 46.5235 655.5 43.7583C656.359 41.1036 653.48 38.8397 651.089 37.2746C648.697 35.7095 646.177 32.8127 647.787 30.5029C660.005 27.9045 672.298 25.2963 684.799 24.7798C686.928 24.851 689.049 24.5 691.03 23.7486C692.936 22.8497 694.452 20.8092 693.939 18.8291C691.211 19.4453 688.353 19.2669 685.731 18.3166C683.109 17.3663 680.841 15.6872 679.216 13.4934C696.563 12.118 715.013 10.9457 730.386 18.7881C732.231 22.5932 722.828 25.759 725.344 29.191C726.146 30.2856 727.754 30.414 729.147 30.4388C739.83 30.6294 750.575 30.8163 761.137 29.2666C764.997 28.7003 768.896 27.9008 772.772 28.3601C779.227 29.1249 784.747 33.263 791.098 34.6122C793.682 35.1613 796.581 35.1799 798.759 33.7355C800.938 32.2911 801.875 29.0022 800.089 27.1245C806.068 21.4941 815.992 22.8896 823.88 25.5851C831.768 28.2807 839.24 32.6277 847.589 33.2285C853.576 33.6594 859.646 32.1122 865.561 33.0956C869.279 33.7136 872.738 35.3025 876.372 36.2787C883.243 38.125 890.512 37.7353 897.647 37.8242C915.851 38.0598 933.856 41.4973 950.771 47.9664C952.971 48.6547 954.987 49.7992 956.676 51.3188C958.25 52.9381 959.053 55.4545 957.995 57.4233L940.517 54.9696C942.163 58.0844 946.424 58.6152 949.884 59.6897C953.344 60.7643 956.931 64.4353 954.852 67.3014C951.103 66.1546 947.706 69.7557 945.812 73.0691C943.918 76.3824 941.611 80.3505 937.682 80.5524C934.164 80.7331 929.909 77.855 927.616 80.4247C930.784 84.2646 933.497 88.4316 935.704 92.8488C937.97 97.3835 939.583 103.097 936.521 107.177C936.04 107.906 935.309 108.45 934.455 108.717C931.954 109.325 930.329 106.386 928.536 104.604C926.276 102.359 922.858 101.723 919.798 100.671C916.738 99.6177 913.514 97.5465 913.274 94.4318C913.125 92.4938 914.19 90.6924 914.975 88.9013C916.293 85.8823 916.87 82.612 916.66 79.3443C916.488 76.7154 915.721 73.9807 913.756 72.1439C911.791 70.3071 908.398 69.7244 906.288 71.4067C905.304 72.1917 904.515 73.4473 903.237 73.4943C900.978 73.5773 899.244 69.794 897.427 71.0855C897.64 72.4615 897.343 73.8658 896.588 75.0529C891.166 79.584 882.836 77.667 875.845 79.2677C872.521 80.1817 869.338 81.5171 866.381 83.2386C865.275 83.6931 864.334 84.4522 863.676 85.4202C862.804 87.0495 863.766 89.1361 865.304 90.2194C866.935 91.1806 868.768 91.7817 870.67 91.9793C879.192 93.5301 887.839 95.9308 894.567 101.19C901.296 106.45 905.708 115.144 903.579 123.222L886.773 107.793C887.411 114.271 887.773 120.768 887.859 127.282C887.968 128.554 887.786 129.833 887.327 131.031C886.128 133.573 882.881 134.429 880.036 134.99C879.244 135.135 878.493 135.438 877.833 135.881C877.172 136.324 876.617 136.897 876.202 137.561C875.788 138.225 875.525 138.965 875.43 139.734C875.335 140.503 875.411 141.282 875.651 142.021C876.662 145.187 879.183 147.655 881.491 150.115C883.8 152.575 886.071 155.37 886.373 158.67C886.675 161.969 884.085 165.687 880.646 165.458C878.039 165.284 876.105 163.042 874.993 160.77C873.881 158.498 873.22 155.967 871.549 154.036C866.493 148.193 855.135 150.697 850.605 144.467C849.45 145.726 848.649 147.247 848.279 148.886C847.908 150.526 847.979 152.229 848.486 153.834C850.594 152.567 853.479 153.745 855.062 155.586C856.645 157.428 857.392 159.789 858.636 161.858C860.314 164.649 862.984 167.124 863.218 170.34C863.156 171.556 863.178 172.774 863.282 173.987C863.698 175.936 865.412 177.335 866.601 178.963C869.366 182.753 869.229 187.959 867.447 192.258C865.665 196.558 862.463 200.151 859.291 203.634C853.751 209.718 848.099 215.766 841.531 220.818C839.657 222.26 837.657 223.677 836.49 225.693C835.323 227.709 835.263 230.538 837.057 232.071C835.773 232.133 833.472 232.739 832.189 232.801C831.738 227.855 831.639 222.884 831.895 217.925C826.831 215.589 821.378 221.846 822.032 227.207C822.685 232.568 826.721 236.87 829.594 241.508C831.695 244.9 833.257 248.855 832.555 252.744C831.854 256.633 828.241 260.221 824.148 259.878C817.638 259.333 814.915 250.353 808.469 249.326C807.9 249.198 807.303 249.254 806.772 249.488C805.815 249.992 805.649 251.222 805.595 252.27C805.331 257.411 805.103 262.757 807.192 267.497C810.248 274.431 818.142 280.255 816.486 287.616C807.565 283.631 802.927 274.019 800.821 264.787C798.715 255.554 798.364 245.861 794.589 237.133C791.723 240.663 785.698 237.745 783.079 234.042C780.596 230.531 779.067 226.469 776.658 222.911C774.249 219.353 770.559 216.167 766.146 215.971C761.519 215.766 757.506 218.817 753.977 221.7C751.075 224.07 748.095 226.534 746.399 229.81C743.931 234.578 744.576 240.199 744.458 245.523C744.329 251.279 743.059 257.352 738.976 261.565C734.893 265.779 727.357 267.247 722.854 263.449C720.503 261.467 719.364 258.504 718.35 255.661C713.462 241.955 709.392 227.993 706.158 213.842C705.401 217.072 702.449 221.234 699.63 219.332C698.997 218.82 698.484 218.186 698.125 217.47C692.865 208.904 683.124 203.767 673.282 200.686C663.44 197.605 653.085 196.168 643.352 192.783C637.897 190.885 632.688 188.391 627.825 185.352C626.586 187.102 625.862 189.141 625.731 191.254C625.599 193.367 626.065 195.474 627.079 197.353C629.238 201.026 634.124 203.151 638.306 201.868C640.467 201.204 642.292 199.763 644.437 199.051C646.581 198.339 649.459 198.688 650.397 200.673C651.294 202.573 649.938 204.872 650.611 206.856C651.636 209.877 656.379 210.11 658.037 212.859C659.271 214.905 658.256 217.622 656.494 219.272C654.732 220.923 652.381 221.829 650.231 222.978C643.252 226.706 638.289 233.071 632.191 238.023C626.092 242.975 617.487 246.59 610.219 243.414C611.951 234.985 601.501 228.796 599.578 220.405C598.945 217.643 599.273 214.709 598.37 212.018C597.062 208.121 593.464 205.442 590.512 202.489C586.931 198.868 584.142 194.595 582.308 189.922C580.475 185.248 579.634 180.27 579.835 175.279C579.995 171.811 580.658 168.287 579.836 164.907C579.013 161.526 576.101 158.255 572.491 158.408C564.247 158.758 553.862 159.347 549.537 152.595C547.993 150.185 547.321 146.656 549.553 144.809C551.128 143.507 553.452 143.63 555.519 143.825L574.094 145.581C578.438 145.991 583.134 146.33 586.862 144.148C590.59 141.966 592.205 136.173 588.754 133.606C586.231 131.73 581.712 131.832 580.979 128.85C580.369 126.366 583.23 123.547 581.685 121.472C580.577 119.983 578.085 120.396 576.575 121.512C575.066 122.628 573.97 124.259 572.281 125.104C569.317 126.586 565.775 125.176 562.587 124.217C559.398 123.259 555.123 123.177 553.576 126.023C551.846 129.205 555.111 133.375 553.394 136.564C551.124 140.781 543.438 138.38 540.25 142.007C536.593 146.168 542.739 152.374 541.506 157.69C539.931 158.44 538.181 158.784 536.426 158.689C534.672 158.594 532.973 158.064 531.495 157.15C530.042 156.2 528.884 154.89 528.144 153.358C527.404 151.826 527.11 150.131 527.293 148.451C527.598 146.06 528.896 143.618 528.027 141.358C527.324 139.531 525.414 138.443 523.639 137.501L505.589 127.918C503.913 130.904 506.032 134.607 508.682 136.851C511.331 139.094 514.65 140.784 516.391 143.737C517.492 145.782 517.739 148.154 517.081 150.369C516.423 152.584 514.91 154.473 512.851 155.652C512.593 155.823 512.299 155.939 511.991 155.991C511.682 156.042 511.365 156.029 511.062 155.952C510.774 155.79 510.523 155.573 510.323 155.316C510.124 155.058 509.981 154.765 509.901 154.453C506.717 146.622 501.935 138.902 494.29 134.811C486.646 130.72 475.661 131.561 470.648 138.452C469.457 140.089 468.658 141.955 467.621 143.685C462.11 152.878 450.296 157.232 439.258 156.948C438.178 157.005 437.104 156.762 436.163 156.249C434.38 155.065 434.46 152.553 434.733 150.487L435.892 141.717C436.124 139.956 436.461 138.01 437.912 136.911C439.957 135.361 442.907 136.339 445.511 136.303C447.484 136.214 449.381 135.545 450.944 134.385C452.508 133.226 453.662 131.633 454.252 129.821C454.778 127.992 454.774 126.06 454.242 124.233C453.71 122.405 452.668 120.752 451.23 119.452C450.037 118.375 448.435 117.022 449.065 115.57C449.317 115.168 449.657 114.824 450.061 114.562C450.466 114.3 450.926 114.127 451.408 114.054C456.085 112.749 461.028 112.407 465.627 110.867C470.227 109.327 474.688 106.176 475.777 101.615C476.111 100.217 476.263 98.5236 477.57 97.8306C478.225 97.5646 478.93 97.4264 479.641 97.4239C482.135 97.083 484.406 95.8576 486.006 93.9888C487.606 92.12 488.421 89.7433 488.289 87.3266C490.493 85.8467 493.581 86.9353 495.714 88.5094C497.846 90.0834 499.729 92.1631 502.324 92.8416C507.16 94.1061 511.833 89.9924 516.845 89.9733C518.952 89.9653 521.134 90.6813 523.117 89.9948C525.127 89.2988 526.327 87.3764 527.87 85.9562C529.412 84.5359 532.119 83.6696 533.544 85.1996L532.331 76.5668C534.773 77.1598 537.32 77.2437 539.8 76.813C542.279 76.3823 544.634 75.4469 546.706 74.0697L531.029 68.9803C530.483 68.8493 529.979 68.5906 529.563 68.2272C528.423 67.048 529.555 65.2104 530.482 63.8699C532.699 60.6632 533.071 55.381 529.425 53.7846C526.936 52.6949 524.08 54.0029 521.691 55.2826L510.249 61.4126C509.885 63.5023 512.545 64.6866 514.193 66.0943C515.19 66.9459 515.896 68.0674 516.217 69.3115C516.539 70.5556 516.462 71.8641 515.995 73.065C515.529 74.266 514.695 75.3033 513.604 76.0407C512.512 76.7782 511.214 77.1812 509.88 77.1969C510.634 78.1381 511.157 79.2301 511.412 80.392C511.667 81.554 511.646 82.7561 511.352 83.9094L503.653 84.4414C502.789 84.6084 501.891 84.44 501.156 83.9731C500.333 83.2705 500.444 82.0392 500.254 80.9971C499.793 78.482 497.23 76.7191 494.614 76.2671C491.998 75.8151 489.321 76.3945 486.731 76.9666C485.631 77.3469 484.423 77.3201 483.342 76.8914C482.723 76.5047 482.252 75.9337 482.002 75.2658C480.866 72.62 481.928 69.5102 483.752 67.2477C485.576 64.9851 488.073 63.3311 490.315 61.4475C495.678 56.9265 499.618 51.0548 501.691 44.4956C505.929 42.7895 510.316 40.4714 514.555 38.7652C521.089 35.5867 528.416 34.2226 535.713 34.8264L550.066 35.0899C554.315 35.1678 558.68 35.2678 562.609 36.8243C566.538 38.3808 569.991 41.7474 570.262 45.8226C570.344 46.284 570.303 46.7578 570.142 47.1995C569.981 47.6412 569.705 48.0364 569.342 48.3479C568.787 48.6389 568.158 48.775 567.527 48.7409C563.564 48.8747 561.874 49.8235 557.911 49.9573Z" fill="#3F3D56"/>
</g>
<g id="mapLines">
<path id="line2" opacity="0.8" d="M923.502 392.155C923.502 392.155 650.209 241.429 532.553 269.988C532.553 269.988 283.204 295.77 254.306 352.49C254.306 352.49 175.043 114.502 146.145 106.569" stroke="#6C63FF" stroke-width="2" stroke-miterlimit="10"/>
<path id="line1" opacity="0.8" d="M254.306 352.49C300.13 235.083 712.959 104.983 712.959 104.983C654.338 119.262 532.553 269.988 532.553 269.988C532.553 269.988 274.948 89.9102 146.145 106.569C146.145 106.569 713.372 124.418 923.502 392.155" stroke="#6C63FF" stroke-width="2" stroke-miterlimit="10"/>
</g>
<g id="mapDots">
<path class="dot2" d="M146.145 118.072C152.757 118.072 158.117 112.922 158.117 106.569C158.117 100.217 152.757 95.0666 146.145 95.0666C139.533 95.0666 134.173 100.217 134.173 106.569C134.173 112.922 139.533 118.072 146.145 118.072Z" fill="#D5C6B6"/>
<path class="dot2" d="M254.306 363.993C260.918 363.993 266.278 358.843 266.278 352.49C266.278 346.137 260.918 340.987 254.306 340.987C247.694 340.987 242.334 346.137 242.334 352.49C242.334 358.843 247.694 363.993 254.306 363.993Z" fill="#D5C6B6"/>
<path class="dot1" d="M712.959 116.486C719.571 116.486 724.931 111.336 724.931 104.983C724.931 98.63 719.571 93.48 712.959 93.48C706.347 93.48 700.987 98.63 700.987 104.983C700.987 111.336 706.347 116.486 712.959 116.486Z" fill="#D5C6B6"/>
<path class="dot2" d="M923.502 403.658C930.114 403.658 935.474 398.508 935.474 392.155C935.474 385.802 930.114 380.652 923.502 380.652C916.89 380.652 911.53 385.802 911.53 392.155C911.53 398.508 916.89 403.658 923.502 403.658Z" fill="#D5C6B6"/>
<path class="dot1" d="M532.553 281.49C539.165 281.49 544.525 276.34 544.525 269.988C544.525 263.635 539.165 258.485 532.553 258.485C525.941 258.485 520.581 263.635 520.581 269.988C520.581 276.34 525.941 281.49 532.553 281.49Z" fill="#D5C6B6"/>
</g>
</g>
<defs>
<clipPath id="clip0_2_46">
<rect width="1040" height="510" fill="white"/>
</clipPath>
</defs>
</svg>