<svg xmlns="http://www.w3.org/2000/svg" version="1.1" xmlns:xlink="http://www.w3.org/1999/xlink" xmlns:svgjs="http://svgjs.dev/svgjs" width="1000" height="1000" viewBox="0 0 1000 1000"><rect width="1000" height="1000" fill="#000000"></rect><g transform="matrix(0.7,0,0,0.7,149.57575757575756,380.2716597926254)"><svg viewBox="0 0 396 136" data-background-color="#fafafa" preserveAspectRatio="xMidYMid meet" height="343" width="1000" xmlns="http://www.w3.org/2000/svg" xmlns:xlink="http://www.w3.org/1999/xlink"><g id="tight-bounds" transform="matrix(1,0,0,1,0.2400000000000091,-0.18219796666832622)"><svg viewBox="0 0 395.52 136.36438473847423" height="136.36438473847423" width="395.52"><g><svg viewBox="0 0 632.0429766882412 217.91098211055277" height="136.36438473847423" width="395.52"><g transform="matrix(1,0,0,1,236.5229766882412,69.5359935678392)"><svg viewBox="0 0 395.52 78.83899497487437" height="78.83899497487437" width="395.52"><g id="textblocktransform"><svg viewBox="0 0 395.52 78.83899497487437" height="78.83899497487437" width="395.52" id="textblock"><g><svg viewBox="0 0 395.52 78.83899497487437" height="78.83899497487437" width="395.52"><g transform="matrix(1,0,0,1,0,0)"><svg width="395.52" viewBox="1.9500000476837158 -35.63999938964844 181.07000732421875 36.099998474121094" height="78.83899497487437" data-palette-color="#162527"><path d="M18.63-12.93Q18.63-16.35 17.75-17.99 16.86-19.62 14.83-19.62 12.79-19.62 11.89-17.97 11-16.33 11-12.93 11-9.53 11.91-7.84 12.82-6.14 14.85-6.14 16.89-6.14 17.76-7.82 18.63-9.5 18.63-12.93ZM27.68-12.94L27.68-12.94Q27.68-6.62 24.28-3.08 20.88 0.46 14.89 0.46 8.9 0.46 5.41-3.16L5.41-3.16Q1.95-6.77 1.95-12.99 1.95-19.21 5.33-22.72L5.33-22.72Q8.75-26.24 14.89-26.24L14.89-26.24Q20.63-26.31 24.19-22.64 27.76-18.96 27.68-12.94ZM70.57-25.78L63.5 0 53.99 0 51.08-12.29 50.4-16 49.95-18.98 49.8-18.98Q48.73-12.84 48.3-10.95L48.3-10.95 45.67 0 36.35 0 29.29-25.78 38.07-25.78 40.16-15.87Q41.12-10.89 41.33-7.41L41.33-7.41 41.45-7.41Q41.53-9.4 42.72-15.37L42.72-15.37 45.09-25.78 54.93-25.78 57.1-15.24Q58.14-10.29 58.42-7.41L58.42-7.41 58.57-7.41Q58.67-8.9 59-11.73L59-11.73Q59.38-14.51 59.73-15.87L59.73-15.87 62-25.78 70.57-25.78ZM74.21-35.39L83.11-35.39 83.11 0 74.21 0 74.21-35.39ZM99.54-25.78L105.02-25.78 105.02-19.11 99.54-19.11 99.54 0 90.64 0 90.64-19.11 87.23-19.11 87.23-23.48 90.84-25.66 90.84-26.09Q90.84-31.19 92.91-33.42 94.99-35.64 99.59-35.64L99.59-35.64Q102.92-35.64 106.62-34.43L106.62-34.43 104.72-28.67Q103.08-29.12 101.51-29.12L101.51-29.12Q100.47-29.12 100.01-28.49 99.54-27.86 99.54-26.47L99.54-26.47 99.54-25.78ZM124.21-16.08Q124.18-17.95 123.17-19.06 122.16-20.17 120.48-20.17 118.8-20.17 117.77-19.15 116.75-18.12 116.57-16.08L116.57-16.08 124.21-16.08ZM120.97 0.46L120.97 0.46Q114.52 0.46 110.96-2.96L110.96-2.96Q107.4-6.42 107.4-12.84 107.4-19.26 110.68-22.75 113.97-26.24 119.96-26.24 125.95-26.24 129.12-23.18 132.3-20.12 132.3-14.43L132.3-14.43 132.3-10.49 116.4-10.49Q116.47-8.32 117.96-7.09 119.45-5.86 121.89-5.86 124.33-5.86 126.33-6.31 128.33-6.75 130.6-7.84L130.6-7.84 130.6-1.44Q128.58-0.38 126.34 0.04 124.11 0.46 120.97 0.46ZM153-16.08Q152.97-17.95 151.96-19.06 150.95-20.17 149.27-20.17 147.59-20.17 146.56-19.15 145.54-18.12 145.36-16.08L145.36-16.08 153-16.08ZM149.76 0.46L149.76 0.46Q143.31 0.46 139.75-2.96L139.75-2.96Q136.19-6.42 136.19-12.84 136.19-19.26 139.47-22.75 142.76-26.24 148.75-26.24 154.74-26.24 157.91-23.18 161.08-20.12 161.08-14.43L161.08-14.43 161.08-10.49 145.18-10.49Q145.26-8.32 146.75-7.09 148.24-5.86 150.68-5.86 153.12-5.86 155.12-6.31 157.12-6.75 159.39-7.84L159.39-7.84 159.39-1.44Q157.37-0.38 155.13 0.04 152.89 0.46 149.76 0.46ZM176.32-19.11L176.32-9.07Q176.32-6.57 178.73-6.57L178.73-6.57Q180.5-6.57 183.02-7.46L183.02-7.46 183.02-0.99Q181.38-0.25 179.7 0.1 178.02 0.46 175.79 0.46L175.79 0.46Q171.37 0.46 169.36-1.72 167.35-3.89 167.35-8.49L167.35-8.49 167.35-19.11 164.24-19.11 164.24-22.72 168.19-25.53 170.49-30.94 176.32-30.94 176.32-25.78 182.64-25.78 182.64-19.11 176.32-19.11Z" opacity="1" transform="matrix(1,0,0,1,0,0)" fill="#ffffff" class="wordmark-text-0" data-fill-palette-color="primary" id="text-0"></path></svg></g></svg></g></svg></g></svg></g><g><svg viewBox="0 0 217.91098211055274 217.91098211055277" height="217.91098211055277" width="217.91098211055274"><g><svg></svg></g><g id="icon-0"><svg viewBox="0 0 217.91098211055274 217.91098211055277" height="217.91098211055277" width="217.91098211055274"><g><path xmlns="http://www.w3.org/2000/svg" d="M65.373 217.911c-36.105 0-65.373-29.269-65.373-65.373v-87.165c0-36.105 29.269-65.373 65.373-65.373h87.165c36.105 0 65.373 29.269 65.373 65.373v87.165c0 36.105-29.269 65.373-65.373 65.373z" fill="#ffffff" fill-rule="nonzero" stroke="none" stroke-width="1" stroke-linecap="butt" stroke-linejoin="miter" stroke-miterlimit="10" stroke-dasharray="" stroke-dashoffset="0" font-family="none" font-weight="none" font-size="none" text-anchor="none" style="mix-blend-mode: normal" data-fill-palette-color="accent"></path></g><g transform="matrix(1,0,0,1,43.58219642211054,46.695297342186265)"><svg viewBox="0 0 130.74658926633165 124.52038742618024" height="124.52038742618024" width="130.74658926633165"><g><svg xmlns="http://www.w3.org/2000/svg" xmlns:xlink="http://www.w3.org/1999/xlink" version="1.1" x="0" y="0" viewBox="7.632227420806885 9.700000762939453 84.73511505126953 80.69999694824219" style="enable-background:new 0 0 100 100;" xml:space="preserve" height="124.52038742618024" width="130.74658926633165" class="icon-s-0" data-fill-palette-color="quaternary" id="s-0"><g fill="#fafafa" data-fill-palette-color="quaternary"><path d="M89.6 28.7c0-0.1 0.1-0.2 0-0.2 1.1-3.7 2.9-6.4 2.3-11.9-0.4-4.3-2.6-6.9-4.5-6.9 0 0 0 0-0.1 0 0 0 0 0 0 0 0 0 0 0-0.1 0 0 0 0 0 0 0-0.1 0-0.3 0-0.4 0-2.1 0.4-31.4 11-36.9 12.2-5.5-1.2-34.7-11.7-36.9-12.2-0.1 0-0.3 0-0.4 0 0 0 0 0 0 0 0 0 0 0-0.1 0 0 0 0 0 0 0 0 0 0 0-0.1 0-1.9 0-4.1 2.6-4.5 6.9-0.5 5.5 1.2 8.2 2.3 11.9 0 0 0 0.1 0 0.2C9.9 30.4 6.9 44 7.8 52c4.3 32 35.5 37.8 41.7 38.4 0 0 0.1 0 0.1 0 0.1 0 0.2 0 0.3 0 0 0 0 0 0 0 0 0 0 0 0 0 0 0 0 0 0 0 0 0 0 0 0 0 0 0 0 0 0 0 0 0 0 0 0 0 0.1 0 0.2 0 0.3 0 0 0 0.1 0 0.1 0C56.7 89.7 87.9 84 92.2 52 93.1 44 90.1 30.4 89.6 28.7zM30.8 55.3c-8.2 0-14.8-6.6-14.8-14.8 0-8.2 6.6-14.8 14.8-14.8 8.2 0 14.8 6.6 14.8 14.8C45.5 48.7 38.9 55.3 30.8 55.3zM50 65.6c-2.3 0-4.1-3.4-4.1-7.6 0-4.2 1.8-7.6 4.1-7.6s4.1 3.4 4.1 7.6C54.1 62.2 52.3 65.6 50 65.6zM69.2 55.3c-8.2 0-14.8-6.6-14.8-14.8 0-8.2 6.6-14.8 14.8-14.8 8.2 0 14.8 6.6 14.8 14.8C84 48.7 77.4 55.3 69.2 55.3z" fill="#000000" data-fill-palette-color="quaternary"></path><path d="M69.2 32.2c-4.6 0-8.4 3.8-8.4 8.4 0 4.6 3.8 8.4 8.4 8.4s8.4-3.8 8.4-8.4C77.6 35.9 73.9 32.2 69.2 32.2z" fill="#000000" data-fill-palette-color="quaternary"></path><path d="M30.8 32.2c-4.6 0-8.4 3.8-8.4 8.4 0 4.6 3.8 8.4 8.4 8.4s8.4-3.8 8.4-8.4C39.1 35.9 35.4 32.2 30.8 32.2z" fill="#000000" data-fill-palette-color="quaternary"></path></g></svg></g></svg></g></svg></g></svg></g></svg></g><defs></defs></svg><rect width="395.52" height="136.36438473847423" fill="none" stroke="none" visibility="hidden"></rect></g></svg></g></svg>