
<svg xmlns="http://www.w3.org/2000/svg" xmlns:xlink="http://www.w3.org/1999/xlink" viewBox="0 0 95.481 90.93415880715993" height="90.93415880715993" width="95.481" data-background-color="#fafafa" preserveAspectRatio="xMidYMid meet" id="tight-bounds"><g><svg viewBox="0 0 95.481 90.93415880715993" height="90.93415880715993" width="95.481"><g><svg viewBox="0 0 95.481 90.93415880715993" height="90.93415880715993" width="95.481"><g id="textblocktransform"><svg viewBox="0 0 95.481 90.93415880715993" height="90.93415880715993" width="95.481" id="textblock"><g><svg viewBox="0 0 95.481 90.93415880715993" height="90.93415880715993" width="95.481"><g><svg viewBox="0 0 95.481 90.93415880715993" height="90.93415880715993" width="95.481"><g><svg xmlns="http://www.w3.org/2000/svg" xmlns:xlink="http://www.w3.org/1999/xlink" version="1.1" x="0" y="0" viewBox="7.632227420806885 9.700000762939453 84.73511505126953 80.69999694824219" style="enable-background:new 0 0 100 100;" xml:space="preserve" height="90.93415880715993" width="95.481" class="icon-icon-0" data-fill-palette-color="accent" id="icon-0"><g fill="#162527" data-fill-palette-color="accent"><path d="M89.6 28.7c0-0.1 0.1-0.2 0-0.2 1.1-3.7 2.9-6.4 2.3-11.9-0.4-4.3-2.6-6.9-4.5-6.9 0 0 0 0-0.1 0 0 0 0 0 0 0 0 0 0 0-0.1 0 0 0 0 0 0 0-0.1 0-0.3 0-0.4 0-2.1 0.4-31.4 11-36.9 12.2-5.5-1.2-34.7-11.7-36.9-12.2-0.1 0-0.3 0-0.4 0 0 0 0 0 0 0 0 0 0 0-0.1 0 0 0 0 0 0 0 0 0 0 0-0.1 0-1.9 0-4.1 2.6-4.5 6.9-0.5 5.5 1.2 8.2 2.3 11.9 0 0 0 0.1 0 0.2C9.9 30.4 6.9 44 7.8 52c4.3 32 35.5 37.8 41.7 38.4 0 0 0.1 0 0.1 0 0.1 0 0.2 0 0.3 0 0 0 0 0 0 0 0 0 0 0 0 0 0 0 0 0 0 0 0 0 0 0 0 0 0 0 0 0 0 0 0 0 0 0 0 0 0.1 0 0.2 0 0.3 0 0 0 0.1 0 0.1 0C56.7 89.7 87.9 84 92.2 52 93.1 44 90.1 30.4 89.6 28.7zM30.8 55.3c-8.2 0-14.8-6.6-14.8-14.8 0-8.2 6.6-14.8 14.8-14.8 8.2 0 14.8 6.6 14.8 14.8C45.5 48.7 38.9 55.3 30.8 55.3zM50 65.6c-2.3 0-4.1-3.4-4.1-7.6 0-4.2 1.8-7.6 4.1-7.6s4.1 3.4 4.1 7.6C54.1 62.2 52.3 65.6 50 65.6zM69.2 55.3c-8.2 0-14.8-6.6-14.8-14.8 0-8.2 6.6-14.8 14.8-14.8 8.2 0 14.8 6.6 14.8 14.8C84 48.7 77.4 55.3 69.2 55.3z" fill="#162527" data-fill-palette-color="accent"/><path d="M69.2 32.2c-4.6 0-8.4 3.8-8.4 8.4 0 4.6 3.8 8.4 8.4 8.4s8.4-3.8 8.4-8.4C77.6 35.9 73.9 32.2 69.2 32.2z" fill="#162527" data-fill-palette-color="accent"/><path d="M30.8 32.2c-4.6 0-8.4 3.8-8.4 8.4 0 4.6 3.8 8.4 8.4 8.4s8.4-3.8 8.4-8.4C39.1 35.9 35.4 32.2 30.8 32.2z" fill="#162527" data-fill-palette-color="accent"/></g></svg></g></svg></g></svg></g></svg></g></svg></g></svg></g><defs/></svg>