<svg width="100" height="95" viewBox="0 0 100 95" fill="none" xmlns="http://www.w3.org/2000/svg">
<path d="M96.7341 22.3668C96.7341 22.2491 96.8521 22.1313 96.7341 22.1313C98.0323 17.7757 100.157 14.5973 99.4485 8.12268C98.9764 3.06072 96.3801 0 94.1378 0C94.1378 0 94.1378 0 94.0198 0C94.0198 0 94.0198 0 93.9018 0C93.7838 0 93.5477 0 93.4297 0C90.9514 0.47088 56.3731 12.9492 49.8822 14.3618C43.3914 12.9492 8.93109 0.5886 6.33477 0C6.21675 0 5.98072 0 5.86271 0C5.86271 0 5.86271 0 5.74469 0C5.74469 0 5.74469 0 5.62668 0C3.3844 0 0.788071 3.06072 0.316012 8.12268C-0.274062 14.5973 1.73219 17.7757 3.03035 22.1313C3.03035 22.1313 3.03035 22.2491 3.03035 22.3668C2.67631 24.368 -0.864136 40.3779 0.197997 49.7955C5.27264 87.4659 42.0933 94.2937 49.4102 95H49.5282C49.6462 95 49.7642 95 49.8822 95C50.0003 95 50.1183 95 50.2363 95H50.3543C57.9072 94.176 94.7279 87.4659 99.8025 49.7955C100.865 40.3779 97.3242 24.368 96.7341 22.3668ZM27.3414 53.6803C17.6642 53.6803 9.87521 45.9108 9.87521 36.2577C9.87521 26.6047 17.6642 18.8352 27.3414 18.8352C37.0186 18.8352 44.8076 26.6047 44.8076 36.2577C44.6896 45.9108 36.9006 53.6803 27.3414 53.6803ZM50.0003 65.8054C47.2859 65.8054 45.1616 61.803 45.1616 56.8587C45.1616 51.9145 47.2859 47.912 50.0003 47.912C52.7146 47.912 54.8389 51.9145 54.8389 56.8587C54.8389 61.803 52.7146 65.8054 50.0003 65.8054ZM72.6591 53.6803C62.9819 53.6803 55.1929 45.9108 55.1929 36.2577C55.1929 26.6047 62.9819 18.8352 72.6591 18.8352C82.3363 18.8352 90.1253 26.6047 90.1253 36.2577C90.1253 45.9108 82.3363 53.6803 72.6591 53.6803Z" fill="white"/>
<path d="M72.6591 26.487C67.2304 26.487 62.7458 30.9603 62.7458 36.3755C62.7458 41.7906 67.2304 46.264 72.6591 46.264C78.0878 46.264 82.5723 41.7906 82.5723 36.3755C82.5723 30.8426 78.2058 26.487 72.6591 26.487Z" fill="white"/>
<path d="M27.3414 26.487C21.9127 26.487 17.4282 30.9603 17.4282 36.3755C17.4282 41.7906 21.9127 46.264 27.3414 46.264C32.7701 46.264 37.2547 41.7906 37.2547 36.3755C37.1366 30.8426 32.7701 26.487 27.3414 26.487Z" fill="white"/>
</svg>
