<svg width="100" height="20" viewBox="0 0 100 20" fill="none" xmlns="http://www.w3.org/2000/svg">
<path d="M9.21191 12.3867C9.21191 11.1431 9.04991 10.2232 8.72591 9.62683C8.39822 9.03413 7.86068 8.73778 7.11327 8.73778C6.36218 8.73778 5.82095 9.03777 5.48959 9.63774C5.16191 10.2341 4.99807 11.1504 4.99807 12.3867C4.99807 13.623 5.16559 14.5484 5.50063 15.1629C5.83568 15.7811 6.37691 16.0902 7.12432 16.0902C7.87541 16.0902 8.41111 15.7847 8.73143 15.1738C9.05175 14.563 9.21191 13.6339 9.21191 12.3867ZM14.21 12.3812C14.21 14.6793 13.5841 16.472 12.3322 17.7592C11.0804 19.0464 9.35182 19.69 7.14641 19.69C4.941 19.69 3.19582 19.0318 1.91086 17.7155C0.636954 16.4029 0 14.6157 0 12.354C0 10.0923 0.622227 8.32325 1.86668 7.04695C3.12586 5.76701 4.88577 5.12704 7.14641 5.12704C9.25977 5.10158 10.9718 5.7561 12.2825 7.09058C13.597 8.4287 14.2394 10.1923 14.21 12.3812ZM37.8969 5.37793L33.9924 19.4391H28.7403L27.1332 12.7358L26.7576 10.7122L26.5091 9.08685H26.4262C26.0323 11.3195 25.7562 12.7794 25.5978 13.4667L24.1454 19.4391H18.9982L15.0991 5.37793H19.9481L21.1023 10.7831C21.4558 12.594 21.6712 14.1321 21.7485 15.3975H21.8148C21.8442 14.6739 22.078 13.2267 22.5162 11.0559L23.825 5.37793H29.2594L30.4578 11.1268C30.8407 12.9267 31.0837 14.3502 31.1868 15.3975H31.2697C31.3065 14.8557 31.3856 14.0703 31.5071 13.0412C31.6471 12.0304 31.7814 11.2777 31.9103 10.7831L33.164 5.37793H37.8969ZM39.9072 0.136357H44.8224V19.4391H39.9072V0.136357ZM53.8963 5.37793H56.9227V9.01595H53.8963V19.4391H48.9811V9.01595H47.0978V6.63242L49.0915 5.44339V5.20885C49.0915 3.35439 49.4726 2.02173 50.2347 1.21085C51.0005 0.403618 52.2303 0 53.9239 0C55.1499 0 56.4441 0.219989 57.8064 0.659969L56.7571 3.80164C56.1532 3.63801 55.5623 3.5562 54.9843 3.5562C54.6013 3.5562 54.3252 3.67074 54.1558 3.89982C53.9828 4.1289 53.8963 4.49616 53.8963 5.00159V5.37793ZM67.5208 10.6686C67.5098 9.98863 67.3183 9.44684 66.9465 9.04322C66.5746 8.6396 66.0794 8.43779 65.4609 8.43779C64.8423 8.43779 64.3434 8.62324 63.9642 8.99413C63.5887 9.36866 63.3678 9.92681 63.3015 10.6686H67.5208ZM65.7315 19.69C63.3567 19.69 61.514 19.0682 60.2032 17.8246C58.8925 16.5665 58.2371 14.7702 58.2371 12.4358C58.2371 10.1014 58.841 8.29962 60.0486 7.03058C61.2599 5.76155 62.9683 5.12704 65.1737 5.12704C67.3791 5.12704 69.0654 5.68337 70.2325 6.79605C71.4033 7.90873 71.9887 9.49956 71.9887 11.5686V13.7175H63.2076C63.2334 14.5066 63.5205 15.1248 64.0691 15.572C64.6177 16.0193 65.3412 16.2429 66.2396 16.2429C67.1379 16.2429 67.9553 16.1611 68.6917 15.9974C69.428 15.8375 70.2141 15.5593 71.0499 15.1629V18.6537C70.3061 19.0391 69.5219 19.3082 68.6972 19.4609C67.8761 19.6136 66.8876 19.69 65.7315 19.69ZM83.4208 10.6686C83.4097 9.98863 83.2183 9.44684 82.8464 9.04322C82.4745 8.6396 81.9793 8.43779 81.3608 8.43779C80.7423 8.43779 80.2434 8.62324 79.8641 8.99413C79.4886 9.36866 79.2677 9.92681 79.2014 10.6686H83.4208ZM81.6314 19.69C79.2566 19.69 77.4139 19.0682 76.1032 17.8246C74.7924 16.5665 74.1371 14.7702 74.1371 12.4358C74.1371 10.1014 74.7409 8.29962 75.9485 7.03058C77.1598 5.76155 78.8682 5.12704 81.0736 5.12704C83.279 5.12704 84.9653 5.68337 86.1324 6.79605C87.2996 7.90873 87.8831 9.49956 87.8831 11.5686V13.7175H79.102C79.1315 14.5066 79.4205 15.1248 79.9691 15.572C80.5177 16.0193 81.2411 16.2429 82.1395 16.2429C83.0379 16.2429 83.8552 16.1611 84.5916 15.9974C85.328 15.8375 86.114 15.5593 86.9498 15.1629V18.6537C86.2061 19.0391 85.4218 19.3082 84.5971 19.4609C83.7724 19.6136 82.7838 19.69 81.6314 19.69ZM96.2998 9.01595V14.4921C96.2998 15.4011 96.7434 15.8556 97.6307 15.8556C98.2824 15.8556 99.0722 15.6938 100 15.3702V18.8991C99.3962 19.1682 98.785 19.3664 98.1664 19.4936C97.5479 19.6245 96.8281 19.69 96.0071 19.69C94.3797 19.69 93.196 19.2937 92.456 18.501C91.7159 17.7119 91.3459 16.4811 91.3459 14.8084V9.01595H89.6283V7.04695L91.8098 5.51429L93.08 2.56352H96.2998V5.37793H99.7901V9.01595H96.2998Z" fill="black"/>
</svg>
