<svg width="100" height="100" viewBox="0 0 100 100"  xmlns="http://www.w3.org/2000/svg">
<path fill-rule="evenodd" clip-rule="evenodd" d="M100 61.5389V19.2323C100 8.61885 91.9982 0.000610352 82.1429 0.000610352H17.8571C8.00179 0.000610352 0 8.61885 0 19.2323V80.7689C0 91.3824 8.00179 100.001 17.8571 100.001H82.1429C91.9982 100.001 100 91.3824 100 80.7689V76.924C100 74.8009 98.4 73.0773 96.4286 73.0773C94.4571 73.0773 92.8571 74.8009 92.8571 76.924V80.7689C92.8571 87.138 88.0554 92.3072 82.1429 92.3072H17.8571C11.9446 92.3072 7.14286 87.138 7.14286 80.7689V19.2323C7.14286 12.8632 11.9446 7.69401 17.8571 7.69401H82.1429C88.0554 7.69401 92.8571 12.8632 92.8571 19.2323V61.5389C92.8571 63.662 94.4571 65.3856 96.4286 65.3856C98.4 65.3856 100 63.662 100 61.5389Z" />
<path d="M46.6589 56.2245V63.6013C46.6589 64.5705 46.5589 65.3782 46.4089 65.9705C46.2089 66.5628 45.8589 67.1013 45.4089 67.532C44.9089 68.0166 44.3089 68.5012 43.5589 68.932C41.4089 70.1704 39.3089 71.0858 37.3089 71.6781C35.3089 72.2704 33.1089 72.5396 30.7589 72.5396C28.0089 72.5396 25.5089 72.1089 23.2589 71.1935C20.9589 70.2781 19.0589 68.932 17.4589 67.209C15.8589 65.4859 14.6589 63.3859 13.7589 60.909C12.9089 58.4322 12.5089 55.686 12.5089 52.6169C12.5089 49.6015 12.9089 46.8554 13.7589 44.3785C14.5589 41.9016 15.8089 39.8017 17.4089 38.0786C19.0089 36.3017 20.9589 35.0094 23.3089 34.0941C25.6089 33.1787 28.2089 32.6941 31.1589 32.6941C33.5589 32.6941 35.7089 33.0172 37.5589 33.7172C39.4089 34.4171 40.9089 35.2787 42.0589 36.3556C43.2089 37.3786 44.1089 38.5094 44.6589 39.694C45.2589 40.8786 45.5589 41.9016 45.5589 42.817C45.5589 43.7862 45.2089 44.6478 44.5589 45.3477C43.8589 45.9939 43.0589 46.3708 42.1089 46.3708C41.6089 46.3708 41.1089 46.2093 40.6089 45.9939C40.1089 45.7247 39.7089 45.3477 39.4089 44.8631C38.5089 43.3555 37.7589 42.2247 37.1589 41.4709C36.5089 40.6632 35.6589 40.0171 34.6089 39.4786C33.5589 38.994 32.2589 38.7248 30.6089 38.7248C28.9589 38.7248 27.4589 39.0478 26.1089 39.6401C24.8089 40.2863 23.6589 41.1478 22.7589 42.3324C21.8089 43.517 21.1089 44.9708 20.6089 46.6939C20.1089 48.4169 19.8589 50.3015 19.8589 52.4015C19.8589 56.9245 20.8089 60.4244 22.7589 62.8475C24.6589 65.2705 27.3589 66.509 30.8089 66.509C32.5089 66.509 34.0589 66.2936 35.5589 65.809C37.0089 65.3244 38.5089 64.6244 40.0089 63.7629V57.5168H34.4089C33.0589 57.5168 32.0089 57.3014 31.3589 56.8706C30.6589 56.4399 30.3089 55.686 30.3089 54.6091C30.3089 53.7476 30.6089 53.0476 31.1589 52.5092C31.7589 51.9169 32.5089 51.6477 33.5089 51.6477H41.7589C42.7589 51.6477 43.6089 51.7553 44.3089 51.9169C45.0089 52.1323 45.5589 52.563 46.0089 53.2092C46.4589 53.9092 46.6589 54.8784 46.6589 56.2245Z" />
<path d="M50 67.8013V37.4325C50 35.871 50.35 34.6864 51 33.8787C51.65 33.071 52.55 32.6941 53.6 32.6941C54.7 32.6941 55.55 33.071 56.25 33.8787C56.9 34.6325 57.25 35.8171 57.25 37.4325V67.8013C57.25 69.3628 56.9 70.6012 56.25 71.355C55.55 72.1627 54.7 72.5396 53.6 72.5396C52.55 72.5396 51.7 72.1627 51 71.355C50.35 70.5474 50 69.3628 50 67.8013Z" />
<path d="M82.3036 39.3709H68.0036V49.2246H79.9536C81.0536 49.2246 81.9036 49.4938 82.4536 50.0323C82.9536 50.5707 83.2536 51.2707 83.2536 52.1861C83.2536 53.0476 82.9536 53.8014 82.4036 54.286C81.8536 54.8245 81.0536 55.0937 79.9536 55.0937H68.0036V67.8012C68.0036 69.4166 67.6536 70.6012 67.0036 71.355C66.3036 72.1627 65.4536 72.5396 64.4036 72.5396C63.3036 72.5396 62.4536 72.1627 61.7536 71.355C61.1036 70.6012 60.7536 69.3627 60.7536 67.8012V38.1324C60.7536 37.0017 60.9036 36.0863 61.2036 35.3863C61.5536 34.6863 62.0036 34.1479 62.7036 33.8248C63.3536 33.5017 64.2036 33.3402 65.2036 33.3402H82.3036C83.4536 33.3402 84.3036 33.6094 84.8536 34.2017C85.4536 34.7402 85.7036 35.4402 85.7036 36.3555C85.7036 37.2709 85.4536 37.9709 84.8536 38.5632C84.3036 39.1017 83.4536 39.3709 82.3036 39.3709Z" />
</svg>
