<svg width="100" height="100" viewBox="0 0 100 100"  xmlns="http://www.w3.org/2000/svg">
<path d="M83.2384 0H16.7616C12.3162 0 8.05279 2.19493 4.90937 6.10194C1.76595 10.0089 0 15.308 0 20.8333V79.1667C0 84.692 1.76595 89.991 4.90937 93.8981C8.05279 97.8051 12.3162 100 16.7616 100H83.2384C87.6838 100 91.9472 97.8051 95.0906 93.8981C98.234 89.991 100 84.692 100 79.1667V20.8333C100 15.308 98.234 10.0089 95.0906 6.10194C91.9472 2.19493 87.6838 0 83.2384 0ZM67.9517 55.5L40.4459 73.8333C39.7145 74.3239 38.8968 74.5816 38.0657 74.5833C36.7321 74.5833 35.453 73.9249 34.51 72.7528C33.567 71.5806 33.0372 69.9909 33.0372 68.3333V31.6667C33.038 30.5862 33.2641 29.5244 33.6935 28.585C34.1229 27.6455 34.7409 26.8605 35.4872 26.3064C36.2335 25.7524 37.0826 25.4483 37.9517 25.4238C38.8208 25.3993 39.6801 25.6552 40.4459 26.1667L67.9517 44.5C68.75 45.0355 69.4169 45.8295 69.8816 46.7977C70.3464 47.766 70.5918 48.8725 70.5918 50C70.5918 51.1275 70.3464 52.234 69.8816 53.2023C69.4169 54.1705 68.75 54.9645 67.9517 55.5ZM39.7419 35.1458L62.0181 50L39.7419 64.8542V35.1458Z" />
</svg>
