<svg width="70" height="100" viewBox="0 0 70 100"  xmlns="http://www.w3.org/2000/svg">
<path d="M35 65C40.3043 65 45.3914 62.8929 49.1421 59.1421C52.8929 55.3914 55 50.3043 55 45V20C55 14.6957 52.8929 9.60859 49.1421 5.85786C45.3914 2.10714 40.3043 0 35 0C29.6957 0 24.6086 2.10714 20.8579 5.85786C17.1071 9.60859 15 14.6957 15 20V45C15 50.3043 17.1071 55.3914 20.8579 59.1421C24.6086 62.8929 29.6957 65 35 65Z" />
<path d="M70 45C70 43.6739 69.4732 42.4021 68.5355 41.4645C67.5979 40.5268 66.3261 40 65 40C63.6739 40 62.4021 40.5268 61.4645 41.4645C60.5268 42.4021 60 43.6739 60 45C60 51.6304 57.3661 57.9893 52.6777 62.6777C47.9893 67.3661 41.6304 70 35 70C28.3696 70 22.0107 67.3661 17.3223 62.6777C12.6339 57.9893 10 51.6304 10 45C10 43.6739 9.47321 42.4021 8.53553 41.4645C7.59785 40.5268 6.32608 40 5 40C3.67392 40 2.40215 40.5268 1.46447 41.4645C0.526785 42.4021 0 43.6739 0 45C0.00985554 53.4092 3.04704 61.5338 8.5559 67.8874C14.0648 74.2409 21.677 78.3987 30 79.6V90H19.45C18.2698 90 17.1379 90.4688 16.3034 91.3034C15.4688 92.1379 15 93.2698 15 94.45V95.55C15 96.7302 15.4688 97.8621 16.3034 98.6966C17.1379 99.5312 18.2698 100 19.45 100H50.55C51.7302 100 52.8621 99.5312 53.6966 98.6966C54.5312 97.8621 55 96.7302 55 95.55V94.45C55 93.2698 54.5312 92.1379 53.6966 91.3034C52.8621 90.4688 51.7302 90 50.55 90H40V79.6C48.323 78.3987 55.9352 74.2409 61.4441 67.8874C66.953 61.5338 69.9901 53.4092 70 45Z" />
</svg>
