<svg width="100" height="68" viewBox="0 0 100 68"  xmlns="http://www.w3.org/2000/svg">
<path d="M99.977 23.9653C100.202 17.6732 98.7797 11.4282 95.8432 5.81006C93.8509 3.50481 91.0858 1.94914 88.03 1.4141C75.3903 0.304237 62.6984 -0.150661 50.0085 0.0513592C37.3649 -0.15983 24.7186 0.280389 12.1233 1.37015C9.63317 1.80849 7.32871 2.9388 5.49115 4.62315C1.40282 8.27179 0.948564 14.514 0.494306 19.7892C-0.164769 29.2737 -0.164769 38.7904 0.494306 48.2749C0.625724 51.244 1.08254 54.1911 1.85708 57.0668C2.4048 59.2871 3.51296 61.3412 5.08232 63.0453C6.93237 64.8189 9.2905 66.0135 11.8508 66.4742C21.6442 67.644 31.5121 68.1288 41.3776 67.9248C57.2766 68.1446 71.2224 67.9248 87.712 66.694C90.3351 66.2616 92.7597 65.0655 94.6621 63.2651C95.9339 62.0339 96.8838 60.5269 97.4331 58.8692C99.0577 54.0451 99.8556 48.9964 99.7953 43.923C99.977 41.4612 99.977 26.6029 99.977 23.9653ZM39.7423 46.5605V19.3496L66.6344 33.021C59.0937 37.0653 49.1454 41.6371 39.7423 46.5605Z" />
</svg>
