<svg width="100" height="100" viewBox="0 0 100 100"  xmlns="http://www.w3.org/2000/svg">
<path d="M50 0C40.111 0 30.444 2.93245 22.2215 8.42652C13.999 13.9206 7.59043 21.7295 3.80605 30.8658C0.0216642 40.0021 -0.968502 50.0555 0.960758 59.7545C2.89002 69.4535 7.65206 78.3627 14.6447 85.3553C21.6373 92.3479 30.5465 97.11 40.2455 99.0392C49.9445 100.969 59.9979 99.9783 69.1342 96.194C78.2705 92.4096 86.0794 86.0009 91.5735 77.7785C97.0675 69.556 100 59.889 100 50C100 43.4339 98.7067 36.9321 96.194 30.8658C93.6812 24.7995 89.9983 19.2876 85.3553 14.6447C80.7124 10.0017 75.2005 6.31876 69.1342 3.80602C63.0679 1.29329 56.5661 0 50 0ZM50 90C42.0888 90 34.3552 87.654 27.7772 83.2588C21.1992 78.8635 16.0723 72.6164 13.0448 65.3073C10.0173 57.9983 9.2252 49.9556 10.7686 42.1964C12.312 34.4371 16.1216 27.3098 21.7157 21.7157C27.3098 16.1216 34.4372 12.312 42.1964 10.7686C49.9556 9.22518 57.9983 10.0173 65.3073 13.0448C72.6164 16.0723 78.8635 21.1992 83.2588 27.7772C87.654 34.3551 90 42.0887 90 50C90 60.6086 85.7857 70.7828 78.2843 78.2843C70.7828 85.7857 60.6087 90 50 90Z" />
<path d="M50 20C48.6739 20 47.4022 20.5268 46.4645 21.4645C45.5268 22.4021 45 23.6739 45 25V47.95L31.45 61.45C30.9266 61.8982 30.5015 62.4498 30.2014 63.0701C29.9013 63.6905 29.7326 64.3661 29.706 65.0547C29.6794 65.7433 29.7955 66.43 30.0468 67.0716C30.2982 67.7132 30.6795 68.296 31.1668 68.7832C31.654 69.2705 32.2368 69.6518 32.8784 69.9032C33.52 70.1545 34.2067 70.2706 34.8953 70.244C35.5839 70.2174 36.2595 70.0487 36.8799 69.7486C37.5002 69.4485 38.0518 69.0234 38.5 68.5L53.5 53.5C54.4421 52.5768 54.9812 51.3188 55 50V25C55 23.6739 54.4732 22.4021 53.5355 21.4645C52.5979 20.5268 51.3261 20 50 20Z" />
</svg>
