<svg width="100" height="100" viewBox="0 0 100 100" fill="none" xmlns="http://www.w3.org/2000/svg">
<path d="M50 0C22.3875 0 0 22.3875 0 50C0 77.6125 22.3875 100 50 100C77.6125 100 100 77.6125 100 50C100 22.3875 77.6125 0 50 0ZM50 93.75C25.875 93.75 6.25 74.125 6.25 50C6.25 25.875 25.875 6.25 50 6.25C74.125 6.25 93.75 25.875 93.75 50C93.75 74.125 74.125 93.75 50 93.75ZM50 18.75C48.3424 18.75 46.7527 19.4085 45.5806 20.5806C44.4085 21.7527 43.75 23.3424 43.75 25V56.25C43.75 57.9076 44.4085 59.4973 45.5806 60.6694C46.7527 61.8415 48.3424 62.5 50 62.5C51.6576 62.5 53.2473 61.8415 54.4194 60.6694C55.5915 59.4973 56.25 57.9076 56.25 56.25V25C56.25 23.3424 55.5915 21.7527 54.4194 20.5806C53.2473 19.4085 51.6576 18.75 50 18.75ZM43.75 74.9C43.75 76.5576 44.4085 78.1473 45.5806 79.3194C46.7527 80.4915 48.3424 81.15 50 81.15C51.6576 81.15 53.2473 80.4915 54.4194 79.3194C55.5915 78.1473 56.25 76.5576 56.25 74.9C56.25 74.0792 56.0883 73.2665 55.7742 72.5082C55.4602 71.7499 54.9998 71.061 54.4194 70.4806C53.8391 69.9002 53.1501 69.4398 52.3918 69.1258C51.6335 68.8117 50.8208 68.65 50 68.65C49.1792 68.65 48.3665 68.8117 47.6082 69.1258C46.8499 69.4398 46.1609 69.9002 45.5806 70.4806C45.0002 71.061 44.5398 71.7499 44.2258 72.5082C43.9117 73.2665 43.75 74.0792 43.75 74.9Z" />
</svg>
