<svg width="318" height="80" viewBox="0 0 318 80" xmlns="http://www.w3.org/2000/svg">
<path d="M112.846 54.5455C111.826 54.5455 110.848 54.1623 110.127 53.4804C109.405 52.7984 109 51.8735 109 50.9091V29.0909C109 28.1265 109.405 27.2016 110.127 26.5196C110.848 25.8377 111.826 25.4545 112.846 25.4545C113.866 25.4545 114.845 25.8377 115.566 26.5196C116.287 27.2016 116.692 28.1265 116.692 29.0909V50.9091C116.692 51.8735 116.287 52.7984 115.566 53.4804C114.845 54.1623 113.866 54.5455 112.846 54.5455ZM128.231 65.4545C127.211 65.4545 126.232 65.0714 125.511 64.3895C124.79 63.7075 124.385 62.7826 124.385 61.8182V18.1818C124.385 17.2174 124.79 16.2925 125.511 15.6105C126.232 14.9286 127.211 14.5455 128.231 14.5455C129.251 14.5455 130.229 14.9286 130.95 15.6105C131.672 16.2925 132.077 17.2174 132.077 18.1818V61.8182C132.077 62.7826 131.672 63.7075 130.95 64.3895C130.229 65.0714 129.251 65.4545 128.231 65.4545ZM143.615 54.5455C142.595 54.5455 141.617 54.1623 140.896 53.4804C140.174 52.7984 139.769 51.8735 139.769 50.9091V29.0909C139.769 28.1265 140.174 27.2016 140.896 26.5196C141.617 25.8377 142.595 25.4545 143.615 25.4545C144.635 25.4545 145.614 25.8377 146.335 26.5196C147.056 27.2016 147.462 28.1265 147.462 29.0909V50.9091C147.462 51.8735 147.056 52.7984 146.335 53.4804C145.614 54.1623 144.635 54.5455 143.615 54.5455ZM159 69.0909C157.98 69.0909 157.002 68.7078 156.28 68.0258C155.559 67.3439 155.154 66.419 155.154 65.4545V14.5455C155.154 13.581 155.559 12.6561 156.28 11.9742C157.002 11.2922 157.98 10.9091 159 10.9091C160.02 10.9091 160.998 11.2922 161.72 11.9742C162.441 12.6561 162.846 13.581 162.846 14.5455V65.4545C162.846 66.419 162.441 67.3439 161.72 68.0258C160.998 68.7078 160.02 69.0909 159 69.0909ZM174.385 80C173.365 80 172.386 79.6169 171.665 78.9349C170.944 78.253 170.538 77.3281 170.538 76.3636V3.63636C170.538 2.67194 170.944 1.74702 171.665 1.06507C172.386 0.383117 173.365 0 174.385 0C175.405 0 176.383 0.383117 177.104 1.06507C177.826 1.74702 178.231 2.67194 178.231 3.63636V76.3636C178.231 77.3281 177.826 78.253 177.104 78.9349C176.383 79.6169 175.405 80 174.385 80ZM189.769 65.4545C188.749 65.4545 187.771 65.0714 187.05 64.3895C186.328 63.7075 185.923 62.7826 185.923 61.8182V18.1818C185.923 17.2174 186.328 16.2925 187.05 15.6105C187.771 14.9286 188.749 14.5455 189.769 14.5455C190.789 14.5455 191.768 14.9286 192.489 15.6105C193.21 16.2925 193.615 17.2174 193.615 18.1818V61.8182C193.615 62.7826 193.21 63.7075 192.489 64.3895C191.768 65.0714 190.789 65.4545 189.769 65.4545ZM205.154 50.9091C204.134 50.9091 203.155 50.526 202.434 49.844C201.713 49.1621 201.308 48.2372 201.308 47.2727V32.7273C201.308 31.7629 201.713 30.8379 202.434 30.156C203.155 29.474 204.134 29.0909 205.154 29.0909C206.174 29.0909 207.152 29.474 207.873 30.156C208.595 30.8379 209 31.7629 209 32.7273V47.2727C209 48.2372 208.595 49.1621 207.873 49.844C207.152 50.526 206.174 50.9091 205.154 50.9091Z" />
<path d="M221.846 54.5455C220.826 54.5455 219.848 54.1623 219.127 53.4804C218.405 52.7984 218 51.8735 218 50.9091V29.0909C218 28.1265 218.405 27.2016 219.127 26.5196C219.848 25.8377 220.826 25.4545 221.846 25.4545C222.866 25.4545 223.845 25.8377 224.566 26.5196C225.287 27.2016 225.692 28.1265 225.692 29.0909V50.9091C225.692 51.8735 225.287 52.7984 224.566 53.4804C223.845 54.1623 222.866 54.5455 221.846 54.5455ZM237.231 65.4545C236.211 65.4545 235.232 65.0714 234.511 64.3895C233.79 63.7075 233.385 62.7826 233.385 61.8182V18.1818C233.385 17.2174 233.79 16.2925 234.511 15.6105C235.232 14.9286 236.211 14.5455 237.231 14.5455C238.251 14.5455 239.229 14.9286 239.95 15.6105C240.672 16.2925 241.077 17.2174 241.077 18.1818V61.8182C241.077 62.7826 240.672 63.7075 239.95 64.3895C239.229 65.0714 238.251 65.4545 237.231 65.4545ZM252.615 54.5455C251.595 54.5455 250.617 54.1623 249.896 53.4804C249.174 52.7984 248.769 51.8735 248.769 50.9091V29.0909C248.769 28.1265 249.174 27.2016 249.896 26.5196C250.617 25.8377 251.595 25.4545 252.615 25.4545C253.635 25.4545 254.614 25.8377 255.335 26.5196C256.056 27.2016 256.462 28.1265 256.462 29.0909V50.9091C256.462 51.8735 256.056 52.7984 255.335 53.4804C254.614 54.1623 253.635 54.5455 252.615 54.5455ZM268 69.0909C266.98 69.0909 266.002 68.7078 265.28 68.0258C264.559 67.3439 264.154 66.419 264.154 65.4545V14.5455C264.154 13.581 264.559 12.6561 265.28 11.9742C266.002 11.2922 266.98 10.9091 268 10.9091C269.02 10.9091 269.998 11.2922 270.72 11.9742C271.441 12.6561 271.846 13.581 271.846 14.5455V65.4545C271.846 66.419 271.441 67.3439 270.72 68.0258C269.998 68.7078 269.02 69.0909 268 69.0909ZM283.385 80C282.365 80 281.386 79.6169 280.665 78.9349C279.944 78.253 279.538 77.3281 279.538 76.3636V3.63636C279.538 2.67194 279.944 1.74702 280.665 1.06507C281.386 0.383117 282.365 0 283.385 0C284.405 0 285.383 0.383117 286.104 1.06507C286.826 1.74702 287.231 2.67194 287.231 3.63636V76.3636C287.231 77.3281 286.826 78.253 286.104 78.9349C285.383 79.6169 284.405 80 283.385 80ZM298.769 65.4545C297.749 65.4545 296.771 65.0714 296.05 64.3895C295.328 63.7075 294.923 62.7826 294.923 61.8182V18.1818C294.923 17.2174 295.328 16.2925 296.05 15.6105C296.771 14.9286 297.749 14.5455 298.769 14.5455C299.789 14.5455 300.768 14.9286 301.489 15.6105C302.21 16.2925 302.615 17.2174 302.615 18.1818V61.8182C302.615 62.7826 302.21 63.7075 301.489 64.3895C300.768 65.0714 299.789 65.4545 298.769 65.4545ZM314.154 50.9091C313.134 50.9091 312.155 50.526 311.434 49.844C310.713 49.1621 310.308 48.2372 310.308 47.2727V32.7273C310.308 31.7629 310.713 30.8379 311.434 30.156C312.155 29.474 313.134 29.0909 314.154 29.0909C315.174 29.0909 316.152 29.474 316.873 30.156C317.595 30.8379 318 31.7629 318 32.7273V47.2727C318 48.2372 317.595 49.1621 316.873 49.844C316.152 50.526 315.174 50.9091 314.154 50.9091Z" />
<path d="M3.84615 54.5455C2.82609 54.5455 1.84781 54.1623 1.12651 53.4804C0.405218 52.7984 0 51.8735 0 50.9091V29.0909C0 28.1265 0.405218 27.2016 1.12651 26.5196C1.84781 25.8377 2.82609 25.4545 3.84615 25.4545C4.86622 25.4545 5.8445 25.8377 6.56579 26.5196C7.28709 27.2016 7.69231 28.1265 7.69231 29.0909V50.9091C7.69231 51.8735 7.28709 52.7984 6.56579 53.4804C5.8445 54.1623 4.86622 54.5455 3.84615 54.5455ZM19.2308 65.4545C18.2107 65.4545 17.2324 65.0714 16.5111 64.3895C15.7898 63.7075 15.3846 62.7826 15.3846 61.8182V18.1818C15.3846 17.2174 15.7898 16.2925 16.5111 15.6105C17.2324 14.9286 18.2107 14.5455 19.2308 14.5455C20.2508 14.5455 21.2291 14.9286 21.9504 15.6105C22.6717 16.2925 23.0769 17.2174 23.0769 18.1818V61.8182C23.0769 62.7826 22.6717 63.7075 21.9504 64.3895C21.2291 65.0714 20.2508 65.4545 19.2308 65.4545ZM34.6154 54.5455C33.5953 54.5455 32.617 54.1623 31.8957 53.4804C31.1744 52.7984 30.7692 51.8735 30.7692 50.9091V29.0909C30.7692 28.1265 31.1744 27.2016 31.8957 26.5196C32.617 25.8377 33.5953 25.4545 34.6154 25.4545C35.6354 25.4545 36.6137 25.8377 37.335 26.5196C38.0563 27.2016 38.4615 28.1265 38.4615 29.0909V50.9091C38.4615 51.8735 38.0563 52.7984 37.335 53.4804C36.6137 54.1623 35.6354 54.5455 34.6154 54.5455ZM50 69.0909C48.9799 69.0909 48.0017 68.7078 47.2804 68.0258C46.5591 67.3439 46.1538 66.419 46.1538 65.4545V14.5455C46.1538 13.581 46.5591 12.6561 47.2804 11.9742C48.0017 11.2922 48.9799 10.9091 50 10.9091C51.0201 10.9091 51.9983 11.2922 52.7196 11.9742C53.4409 12.6561 53.8462 13.581 53.8462 14.5455V65.4545C53.8462 66.419 53.4409 67.3439 52.7196 68.0258C51.9983 68.7078 51.0201 69.0909 50 69.0909ZM65.3846 80C64.3646 80 63.3863 79.6169 62.665 78.9349C61.9437 78.253 61.5385 77.3281 61.5385 76.3636V3.63636C61.5385 2.67194 61.9437 1.74702 62.665 1.06507C63.3863 0.383117 64.3646 0 65.3846 0C66.4047 0 67.383 0.383117 68.1043 1.06507C68.8256 1.74702 69.2308 2.67194 69.2308 3.63636V76.3636C69.2308 77.3281 68.8256 78.253 68.1043 78.9349C67.383 79.6169 66.4047 80 65.3846 80ZM80.7692 65.4545C79.7492 65.4545 78.7709 65.0714 78.0496 64.3895C77.3283 63.7075 76.9231 62.7826 76.9231 61.8182V18.1818C76.9231 17.2174 77.3283 16.2925 78.0496 15.6105C78.7709 14.9286 79.7492 14.5455 80.7692 14.5455C81.7893 14.5455 82.7676 14.9286 83.4889 15.6105C84.2102 16.2925 84.6154 17.2174 84.6154 18.1818V61.8182C84.6154 62.7826 84.2102 63.7075 83.4889 64.3895C82.7676 65.0714 81.7893 65.4545 80.7692 65.4545ZM96.1538 50.9091C95.1338 50.9091 94.1555 50.526 93.4342 49.844C92.7129 49.1621 92.3077 48.2372 92.3077 47.2727V32.7273C92.3077 31.7629 92.7129 30.8379 93.4342 30.156C94.1555 29.474 95.1338 29.0909 96.1538 29.0909C97.1739 29.0909 98.1522 29.474 98.8735 30.156C99.5948 30.8379 100 31.7629 100 32.7273V47.2727C100 48.2372 99.5948 49.1621 98.8735 49.844C98.1522 50.526 97.1739 50.9091 96.1538 50.9091Z" />
</svg>
