<svg width="100" height="100" viewBox="0 0 100 100"  xmlns="http://www.w3.org/2000/svg">
<path d="M31.6667 4.7619C31.6667 6.02484 31.165 7.23605 30.2719 8.12908C29.3789 9.02211 28.1677 9.52381 26.9048 9.52381H14.2857C13.0228 9.52381 11.8116 10.0255 10.9185 10.9185C10.0255 11.8116 9.52381 13.0228 9.52381 14.2857V26.9048C9.52381 28.1677 9.02211 29.3789 8.12908 30.2719C7.23605 31.165 6.02484 31.6667 4.7619 31.6667C3.49897 31.6667 2.28776 31.165 1.39473 30.2719C0.5017 29.3789 0 28.1677 0 26.9048V14.2857C0 10.4969 1.5051 6.86328 4.18419 4.18419C6.86328 1.5051 10.4969 0 14.2857 0H26.9048C28.1677 0 29.3789 0.5017 30.2719 1.39473C31.165 2.28776 31.6667 3.49897 31.6667 4.7619ZM85.7143 0H73.0952C71.8323 0 70.6211 0.5017 69.7281 1.39473C68.835 2.28776 68.3333 3.49897 68.3333 4.7619C68.3333 6.02484 68.835 7.23605 69.7281 8.12908C70.6211 9.02211 71.8323 9.52381 73.0952 9.52381H85.7143C86.9772 9.52381 88.1884 10.0255 89.0815 10.9185C89.9745 11.8116 90.4762 13.0228 90.4762 14.2857V26.9048C90.4762 28.1677 90.9779 29.3789 91.8709 30.2719C92.7639 31.165 93.9752 31.6667 95.2381 31.6667C96.501 31.6667 97.7122 31.165 98.6053 30.2719C99.4983 29.3789 100 28.1677 100 26.9048V14.2857C100 10.4969 98.4949 6.86328 95.8158 4.18419C93.1367 1.5051 89.5031 0 85.7143 0ZM95.2381 68.2857C93.9752 68.2857 92.7639 68.7874 91.8709 69.6804C90.9779 70.5735 90.4762 71.7847 90.4762 73.0476V85.6667C90.4762 86.9296 89.9745 88.1408 89.0815 89.0338C88.1884 89.9269 86.9772 90.4286 85.7143 90.4286H73.0952C71.8323 90.4286 70.6211 90.9303 69.7281 91.8233C68.835 92.7163 68.3333 93.9275 68.3333 95.1905C68.3333 96.4534 68.835 97.6646 69.7281 98.5577C70.6211 99.4507 71.8323 99.9524 73.0952 99.9524H85.7143C89.5031 99.9524 93.1367 98.4473 95.8158 95.7682C98.4949 93.0891 100 89.4555 100 85.6667V73.0476C100 71.7847 99.4983 70.5735 98.6053 69.6804C97.7122 68.7874 96.501 68.2857 95.2381 68.2857ZM26.9048 90.4762H14.2857C13.0228 90.4762 11.8116 89.9745 10.9185 89.0815C10.0255 88.1884 9.52381 86.9772 9.52381 85.7143V73.0952C9.52381 71.8323 9.02211 70.6211 8.12908 69.7281C7.23605 68.835 6.02484 68.3333 4.7619 68.3333C3.49897 68.3333 2.28776 68.835 1.39473 69.7281C0.5017 70.6211 0 71.8323 0 73.0952V85.7143C0 89.5031 1.5051 93.1367 4.18419 95.8158C6.86328 98.4949 10.4969 100 14.2857 100H26.9048C28.1677 100 29.3789 99.4983 30.2719 98.6053C31.165 97.7122 31.6667 96.501 31.6667 95.2381C31.6667 93.9752 31.165 92.7639 30.2719 91.8709C29.3789 90.9779 28.1677 90.4762 26.9048 90.4762Z" />
</svg>
