<svg width="109" height="100" viewBox="0 0 109 100"  xmlns="http://www.w3.org/2000/svg">
<path fill-rule="evenodd" clip-rule="evenodd" d="M49.6686 10.2083C46.5542 12.1555 42.6074 15.4942 36.9831 20.2668L36.0285 21.077C35.9557 21.1386 35.8842 21.1995 35.8131 21.2596C34.1552 22.6671 33.007 23.6418 31.749 24.3565C30.5088 25.0608 29.2059 25.564 27.8693 25.8544C26.5132 26.1492 25.1374 26.1488 23.1514 26.1483C23.0667 26.1483 22.9808 26.1482 22.8937 26.1482C16.5984 26.1482 14.4735 26.2396 12.6668 27.3154C10.921 28.3549 9.0616 30.6065 8.14917 32.786C7.19733 35.0595 7.0226 37.3897 6.68661 44.4847C6.59439 46.4315 6.54097 48.2981 6.54097 49.9997C6.54097 51.7019 6.59439 53.5679 6.68661 55.5154C7.0226 62.6102 7.19733 64.9404 8.14917 67.2139C9.0616 69.3931 10.921 71.6447 12.6668 72.6846C14.4735 73.7605 16.5984 73.8514 22.8937 73.8514C22.9808 73.8514 23.0666 73.8514 23.1514 73.8514C25.1374 73.8508 26.5132 73.8508 27.8693 74.1455C29.2059 74.4356 30.5088 74.939 31.749 75.6434C33.007 76.3578 34.1552 77.3326 35.8131 78.7401C35.8837 78.8002 35.9557 78.8614 36.0285 78.9231L36.9831 79.7329C42.6074 84.5055 46.5542 87.8442 49.6686 89.7916C52.7747 91.7334 54.328 91.8114 55.4142 91.3338C56.0134 91.0712 56.5999 90.6868 57.1179 90.2187C58.0624 89.364 58.9237 87.7106 59.5293 83.382C60.1377 79.0331 60.3618 73.0174 60.6718 64.4263C60.899 58.143 61.049 52.872 61.049 49.9997C61.049 47.128 60.899 41.8565 60.6718 35.5734C60.3618 26.9826 60.1377 20.9667 59.5293 16.6179C58.9237 12.2889 58.0624 10.6358 57.1179 9.78132C56.5999 9.31287 56.0134 8.92889 55.4142 8.66573C54.328 8.18853 52.7747 8.26637 49.6686 10.2083ZM46.8107 2.6362C50.4125 0.384206 53.9591 -0.868314 57.5269 0.698656C58.7126 1.21935 59.8538 1.96684 60.8785 2.89385C63.9576 5.67861 65.261 10.0786 65.967 15.1264C66.6612 20.0896 66.8984 26.6668 67.1941 34.8599L67.2058 35.1827C67.4317 41.4401 67.59 46.9018 67.59 49.9997C67.59 53.0976 67.4317 58.5599 67.2058 64.8169L67.1941 65.1396C66.8984 73.3328 66.6612 79.9103 65.967 84.8731C65.261 89.9213 63.9576 94.3212 60.8785 97.1059C59.8538 98.0331 58.7126 98.7806 57.5269 99.3014C53.9591 100.868 50.4125 99.6157 46.8107 97.3635C43.2628 95.1456 38.9584 91.4927 33.5914 86.9384L32.4279 85.9506C30.4748 84.2934 29.8028 83.7395 29.1077 83.3449C28.3638 82.9223 27.582 82.6204 26.78 82.4459C26.0313 82.2831 25.2333 82.2696 22.8937 82.2696C22.6566 82.2696 22.4226 82.2702 22.1916 82.2702C16.8851 82.2736 13.1979 82.2764 9.92029 80.3245C6.89052 78.5207 3.97433 74.989 2.39085 71.207C0.678777 67.1174 0.477882 62.8409 0.19226 56.7596C0.180922 56.5182 0.169455 56.2747 0.157768 56.0277C0.0598717 53.9608 0 51.9168 0 49.9997C0 48.0832 0.0598717 46.0392 0.157768 43.9723C0.169455 43.7253 0.180922 43.4812 0.19226 43.2399C0.477882 37.1591 0.678777 32.8824 2.39085 28.793C3.97433 25.0106 6.89052 21.4793 9.92029 19.6752C13.1979 17.7236 16.8851 17.7261 22.1916 17.7297C22.4226 17.7298 22.6566 17.73 22.8937 17.73C25.2333 17.73 26.0313 17.7165 26.78 17.5537C27.582 17.3794 28.3638 17.0775 29.1077 16.655C29.8028 16.2603 30.4748 15.7064 32.4279 14.0489L33.5914 13.0616C38.9584 8.50691 43.2628 4.85418 46.8107 2.6362Z" />
<path d="M80.1867 35.9227C78.5745 34.3121 76.4443 33.8307 75.4288 34.8473C74.4132 35.8639 74.8969 37.9936 76.5091 39.6041L101.993 65.0615C103.605 66.6721 105.736 67.1535 106.751 66.1369C107.767 65.1203 107.283 62.9906 105.671 61.3801L80.1867 35.9227Z" />
<path d="M101.978 35.9191L76.5206 61.4032C74.9101 63.0154 74.4286 65.1456 75.4452 66.1612C76.4618 67.1767 78.5915 66.693 80.202 65.0808L105.66 39.5967C107.27 37.9845 107.751 35.8543 106.735 34.8387C105.718 33.8232 103.589 34.3069 101.978 35.9191Z" />
</svg>
