<svg width="100" height="100" viewBox="0 0 100 100"  xmlns="http://www.w3.org/2000/svg">
<path fill-rule="evenodd" clip-rule="evenodd" d="M49.6705 10.2083C46.556 12.1555 42.6091 15.4942 36.9845 20.2668L36.0299 21.077C35.9571 21.1386 35.8856 21.1995 35.8145 21.2596C34.1565 22.6671 33.0083 23.6418 31.7502 24.3565C30.51 25.0608 29.207 25.564 27.8704 25.8544C26.5142 26.1492 25.1383 26.1488 23.1523 26.1483C23.0676 26.1483 22.9817 26.1482 22.8946 26.1482C16.599 26.1482 14.474 26.2396 12.6673 27.3154C10.9214 28.3549 9.06194 30.6065 8.14949 32.786C7.19761 35.0595 7.02287 37.3897 6.68687 44.4847C6.59464 46.4315 6.54122 48.2981 6.54122 49.9997C6.54122 51.7019 6.59464 53.5679 6.68687 55.5154C7.02287 62.6102 7.19761 64.9404 8.14949 67.2139C9.06194 69.3931 10.9214 71.6447 12.6673 72.6846C14.474 73.7605 16.599 73.8514 22.8946 73.8514C22.9817 73.8514 23.0675 73.8514 23.1523 73.8514C25.1383 73.8508 26.5142 73.8508 27.8704 74.1455C29.207 74.4356 30.51 74.939 31.7502 75.6434C33.0083 76.3578 34.1565 77.3326 35.8145 78.7401C35.8851 78.8002 35.9571 78.8614 36.0299 78.9231L36.9845 79.7329C42.6091 84.5055 46.556 87.8442 49.6705 89.7916C52.7767 91.7334 54.3301 91.8114 55.4163 91.3338C56.0155 91.0712 56.602 90.6868 57.1201 90.2187C58.0646 89.364 58.9259 87.7106 59.5316 83.382C60.14 79.0331 60.3641 73.0174 60.6742 64.4263C60.9014 58.143 61.0514 52.872 61.0514 49.9997C61.0514 47.128 60.9014 41.8565 60.6742 35.5734C60.3641 26.9826 60.14 20.9667 59.5316 16.6179C58.9259 12.2889 58.0646 10.6358 57.1201 9.78132C56.602 9.31287 56.0155 8.92889 55.4163 8.66573C54.3301 8.18853 52.7767 8.26637 49.6705 10.2083ZM46.8124 2.6362C50.4145 0.384206 53.9611 -0.868314 57.5291 0.698656C58.7149 1.21935 59.8561 1.96684 60.8809 2.89385C63.96 5.67861 65.2635 10.0786 65.9695 15.1264C66.6637 20.0896 66.901 26.6668 67.1966 34.8599L67.2084 35.1827C67.4343 41.4401 67.5926 46.9018 67.5926 49.9997C67.5926 53.0976 67.4343 58.5599 67.2084 64.8169L67.1966 65.1396C66.901 73.3328 66.6637 79.9103 65.9695 84.8731C65.2635 89.9213 63.96 94.3212 60.8809 97.1059C59.8561 98.0331 58.7149 98.7806 57.5291 99.3014C53.9611 100.868 50.4145 99.6157 46.8124 97.3635C43.2645 95.1456 38.9599 91.4927 33.5926 86.9384L32.4292 85.9506C30.476 84.2934 29.804 83.7395 29.1089 83.3449C28.3649 82.9223 27.583 82.6204 26.7811 82.4459C26.0323 82.2831 25.2343 82.2696 22.8946 82.2696C22.6574 82.2696 22.4234 82.2702 22.1925 82.2702C16.8857 82.2736 13.1984 82.2764 9.92067 80.3245C6.89078 78.5207 3.97449 74.989 2.39095 71.207C0.678803 67.1174 0.477901 62.8409 0.192267 56.7596C0.180929 56.5182 0.169461 56.2747 0.157774 56.0277C0.059874 53.9608 0 51.9168 0 49.9997C0 48.0832 0.059874 46.0392 0.157774 43.9723C0.169461 43.7253 0.180929 43.4812 0.192267 43.2399C0.477901 37.1591 0.678803 32.8824 2.39095 28.793C3.97449 25.0106 6.89078 21.4793 9.92067 19.6752C13.1984 17.7236 16.8857 17.7261 22.1924 17.7297C22.4234 17.7298 22.6574 17.73 22.8946 17.73C25.2343 17.73 26.0323 17.7165 26.7811 17.5537C27.583 17.3794 28.3649 17.0775 29.1089 16.655C29.804 16.2603 30.476 15.7064 32.4292 14.0489L33.5926 13.0616C38.9599 8.50691 43.2645 4.85418 46.8124 2.6362Z" />
<path d="M79.3481 28.0522C78.2679 26.7606 76.4546 26.6356 75.2586 27.8022C74.0626 28.9689 73.9855 30.9272 75.0271 32.2189C78.9237 36.8856 81.0457 43.0106 81.0457 49.3856C81.0457 55.7606 78.8466 62.0522 74.8342 66.8022C73.754 68.0939 73.8312 70.0522 75.0271 71.2189C75.5673 71.7606 76.2617 72.0522 76.9947 72.0522C77.7663 72.0522 78.5765 71.7189 79.1166 71.0522C84.0935 65.1356 86.8713 57.4689 86.8713 49.3856C86.8713 41.3022 84.2092 33.8856 79.3867 28.0522H79.3481Z" />
<path d="M92.3794 17.6115C91.2852 15.6333 89.4484 15.4418 88.2369 17.2287C87.0254 19.0155 86.9473 22.0148 88.0024 23.993C91.9495 31.1403 94.0989 40.5211 94.0989 50.2847C94.0989 60.0484 91.8714 69.6844 87.807 76.9593C86.7128 78.9376 86.791 81.9369 88.0024 83.7237C88.5496 84.5533 89.253 85 89.9955 85C90.7771 85 91.5978 84.4895 92.1449 83.4684C97.1862 74.4067 100 62.6648 100 50.2847C100 37.9047 97.3035 26.5456 92.4185 17.6115H92.3794Z" />
</svg>
