<svg width="100" height="80" viewBox="0 0 100 80" fill="none" xmlns="http://www.w3.org/2000/svg">
<g clip-path="url(#clip0_57_2)">
<g clip-path="url(#clip1_57_2)">
<g clip-path="url(#clip2_57_2)">
<g clip-path="url(#clip3_57_2)">
<g clip-path="url(#clip4_57_2)">
<g clip-path="url(#clip5_57_2)">
<path d="M9.22017 72.5819C9.22017 71.3187 9.05821 70.3843 8.73427 69.7786C8.40666 69.1766 7.86922 68.8756 7.12196 68.8756C6.37102 68.8756 5.82991 69.1803 5.49861 69.7897C5.17099 70.3954 5.00719 71.3261 5.00719 72.5819C5.00719 73.8376 5.17467 74.7776 5.50965 75.4017C5.84463 76.0296 6.38575 76.3436 7.13301 76.3436C7.88394 76.3436 8.41954 76.0333 8.73979 75.4128C9.06005 74.7923 9.22017 73.8487 9.22017 72.5819ZM14.2172 72.5763C14.2172 74.9105 13.5914 76.7314 12.3399 78.0388C11.0883 79.3463 9.36005 80 7.15509 80C4.95013 80 3.2053 79.3315 1.92061 77.9945C0.646957 76.6612 0.010132 74.8459 0.010132 72.5486C0.010132 70.2513 0.632233 68.4545 1.87644 67.1581C3.13536 65.8581 4.89491 65.208 7.15509 65.208C9.26803 65.1822 10.9797 65.847 12.2902 67.2025C13.6043 68.5616 14.2467 70.3529 14.2172 72.5763ZM37.8994 65.4629L33.9956 79.7452H28.7446L27.1378 72.9364L26.7623 70.8811L26.5138 69.2301H26.431C26.0371 71.4979 25.7611 72.9807 25.6028 73.6788L24.1506 79.7452H19.0045L15.1062 65.4629H19.9542L21.1082 70.9531C21.4616 72.7924 21.6769 74.3547 21.7542 75.64H21.8205C21.8499 74.905 22.0837 73.435 22.5217 71.2301L23.8303 65.4629H29.2636L30.4618 71.3021C30.8446 73.1303 31.0876 74.5763 31.1906 75.64H31.2735C31.3103 75.0897 31.3894 74.2919 31.5109 73.2467C31.6508 72.2199 31.7851 71.4554 31.914 70.9531L33.1674 65.4629H37.8994ZM39.9093 60.1389H44.8235V79.7452H39.9093V60.1389ZM53.8955 65.4629H56.9213V69.1581H53.8955V79.7452H48.9813V69.1581H47.0984V66.7371L49.0917 65.5294V65.2911C49.0917 63.4075 49.4727 62.0539 50.2347 61.2303C51.0003 60.4103 52.2298 60.0004 53.9231 60.0004C55.1489 60.0004 56.4428 60.2238 57.8048 60.6707L56.7557 63.8618C56.152 63.6956 55.5612 63.6125 54.9833 63.6125C54.6004 63.6125 54.3243 63.7288 54.155 63.9615C53.982 64.1942 53.8955 64.5672 53.8955 65.0806V65.4629ZM67.5173 70.8367C67.5063 70.1461 67.3148 69.5958 66.9431 69.1858C66.5713 68.7758 66.0762 68.5709 65.4577 68.5709C64.8393 68.5709 64.3405 68.7592 63.9614 69.1359C63.5859 69.5164 63.3651 70.0833 63.2988 70.8367H67.5173ZM65.7283 80C63.354 80 61.5116 79.3684 60.2012 78.1053C58.8907 76.8274 58.2355 75.0029 58.2355 72.6317C58.2355 70.2606 58.8392 68.4305 60.0466 67.1415C61.2576 65.8525 62.9657 65.208 65.1706 65.208C67.3756 65.208 69.0615 65.7731 70.2284 66.9033C71.399 68.0335 71.9843 69.6493 71.9843 71.7508V73.9336H63.2049C63.2307 74.7351 63.5178 75.363 64.0663 75.8173C64.6148 76.2715 65.3381 76.4987 66.2363 76.4987C67.1345 76.4987 67.9517 76.4156 68.6879 76.2494C69.4241 76.0869 70.21 75.8043 71.0456 75.4017V78.9474C70.302 79.3389 69.518 79.6122 68.6934 79.7673C67.8725 79.9224 66.8842 80 65.7283 80ZM83.414 70.8367C83.403 70.1461 83.2115 69.5958 82.8398 69.1858C82.468 68.7758 81.9729 68.5709 81.3544 68.5709C80.736 68.5709 80.2372 68.7592 79.8581 69.1359C79.4826 69.5164 79.2618 70.0833 79.1955 70.8367H83.414ZM81.625 80C79.2507 80 77.4083 79.3684 76.0979 78.1053C74.7874 76.8274 74.1322 75.0029 74.1322 72.6317C74.1322 70.2606 74.7359 68.4305 75.9433 67.1415C77.1543 65.8525 78.8624 65.208 81.0673 65.208C83.2723 65.208 84.9582 65.7731 86.1251 66.9033C87.292 68.0335 87.8755 69.6493 87.8755 71.7508V73.9336H79.0961C79.1256 74.7351 79.4145 75.363 79.963 75.8173C80.5115 76.2715 81.2348 76.4987 82.133 76.4987C83.0312 76.4987 83.8484 76.4156 84.5846 76.2494C85.3208 76.0869 86.1067 75.8043 86.9423 75.4017V78.9474C86.1987 79.3389 85.4147 79.6122 84.5901 79.7673C83.7655 79.9224 82.7772 80 81.625 80ZM96.2904 69.1581V74.7203C96.2904 75.6437 96.734 76.1053 97.6211 76.1053C98.2726 76.1053 99.0622 75.941 99.9899 75.6123V79.1967C99.3862 79.47 98.7751 79.6713 98.1567 79.8006C97.5383 79.9335 96.8186 80 95.9977 80C94.3707 80 93.1872 79.5974 92.4474 78.7923C91.7075 77.9908 91.3375 76.7406 91.3375 75.0416V69.1581H89.6203V67.1581L91.8013 65.6014L93.0713 62.6042H96.2904V65.4629H99.78V69.1581H96.2904Z" fill="#162527"/>
</g>
</g>
</g>
</g>
<g clip-path="url(#clip6_57_2)">
<g clip-path="url(#clip7_57_2)">
<path d="M38.981 55.279C29.8525 55.279 22.4526 47.8541 22.4526 38.6953V16.5836C22.4526 7.42461 29.8527 -5.07754e-07 38.981 -5.07754e-07H61.019C70.1475 -5.07754e-07 77.5474 7.42486 77.5474 16.5836V38.6953C77.5474 47.8543 70.1473 55.279 61.019 55.279H38.981Z" fill="#162527"/>
<g clip-path="url(#clip8_57_2)">
<g clip-path="url(#clip9_57_2)">
<path d="M65.4488 19.2826C65.4488 19.2434 65.4878 19.2043 65.4488 19.2043C65.878 17.756 66.5802 16.6992 66.3461 14.5463C66.1901 12.8632 65.3318 11.8455 64.5906 11.8455C64.5906 11.8455 64.5906 11.8455 64.5516 11.8455C64.5516 11.8455 64.5516 11.8455 64.5125 11.8455C64.4735 11.8455 64.3955 11.8455 64.3565 11.8455C63.5372 12.0021 52.1067 16.1512 49.9611 16.6209C47.8154 16.1512 36.4239 12.0412 35.5656 11.8455C35.5266 11.8455 35.4486 11.8455 35.4096 11.8455C35.4096 11.8455 35.4096 11.8455 35.3706 11.8455C35.3706 11.8455 35.3706 11.8455 35.3316 11.8455C34.5903 11.8455 33.7321 12.8632 33.576 14.5463C33.381 16.6992 34.0442 17.756 34.4733 19.2043C34.4733 19.2043 34.4733 19.2434 34.4733 19.2826C34.3563 19.948 33.1859 25.2714 33.537 28.4027C35.2145 40.9283 47.3863 43.1986 49.805 43.4334H49.844C49.883 43.4334 49.9221 43.4334 49.9611 43.4334C50.0001 43.4334 50.0391 43.4334 50.0781 43.4334H50.1171C52.6139 43.1594 64.7856 40.9283 66.4631 28.4027C66.8143 25.2714 65.6439 19.948 65.4488 19.2826ZM42.5098 29.6944C39.3108 29.6944 36.736 27.111 36.736 23.9014C36.736 20.6917 39.3108 18.1083 42.5098 18.1083C45.7088 18.1083 48.2835 20.6917 48.2835 23.9014C48.2445 27.111 45.6697 29.6944 42.5098 29.6944ZM50.0001 33.7261C49.1028 33.7261 48.4006 32.3953 48.4006 30.7513C48.4006 29.1073 49.1028 27.7765 50.0001 27.7765C50.8974 27.7765 51.5996 29.1073 51.5996 30.7513C51.5996 32.3953 50.8974 33.7261 50.0001 33.7261ZM57.4904 29.6944C54.2914 29.6944 51.7166 27.111 51.7166 23.9014C51.7166 20.6917 54.2914 18.1083 57.4904 18.1083C60.6894 18.1083 63.2642 20.6917 63.2642 23.9014C63.2642 27.111 60.6894 29.6944 57.4904 29.6944Z" fill="#FAFAFA"/>
<path d="M57.4904 20.6526C55.6958 20.6526 54.2134 22.14 54.2134 23.9405C54.2134 25.7411 55.6958 27.2285 57.4904 27.2285C59.2849 27.2285 60.7674 25.7411 60.7674 23.9405C60.7674 22.1008 59.324 20.6526 57.4904 20.6526Z" fill="#FAFAFA"/>
<path d="M42.5098 20.6526C40.7152 20.6526 39.2328 22.14 39.2328 23.9405C39.2328 25.7411 40.7152 27.2285 42.5098 27.2285C44.3043 27.2285 45.7868 25.7411 45.7868 23.9405C45.7478 22.1008 44.3043 20.6526 42.5098 20.6526Z" fill="#FAFAFA"/>
</g>
</g>
</g>
</g>
</g>
</g>
<defs>
<clipPath id="clip0_57_2">
<rect width="100" height="80" fill="white"/>
</clipPath>
<clipPath id="clip1_57_2">
<rect width="100" height="80" fill="white"/>
</clipPath>
<clipPath id="clip2_57_2">
<rect width="100" height="19.9996" fill="white" transform="translate(-6.36814e-07 60.0004)"/>
</clipPath>
<clipPath id="clip3_57_2">
<rect width="100" height="19.9996" fill="white" transform="translate(-6.36814e-07 60.0004)"/>
</clipPath>
<clipPath id="clip4_57_2">
<rect width="100" height="19.9996" fill="white" transform="translate(-6.36814e-07 60.0004)"/>
</clipPath>
<clipPath id="clip5_57_2">
<rect width="100" height="19.9996" fill="white" transform="translate(-6.36814e-07 60.0004)"/>
</clipPath>
<clipPath id="clip6_57_2">
<rect width="55.0948" height="55.2789" fill="white" transform="translate(22.4526)"/>
</clipPath>
<clipPath id="clip7_57_2">
<rect width="55.0948" height="55.2789" fill="white" transform="translate(22.4526)"/>
</clipPath>
<clipPath id="clip8_57_2">
<rect width="33.0569" height="31.5879" fill="white" transform="translate(33.4716 11.8455)"/>
</clipPath>
<clipPath id="clip9_57_2">
<rect width="33.0569" height="31.5879" fill="white" transform="translate(33.4716 11.8455)"/>
</clipPath>
</defs>
</svg>
