<svg width="102" height="22" viewBox="0 0 102 22" fill="none" xmlns="http://www.w3.org/2000/svg">
<path d="M10.2119 13.5566C10.2119 12.2959 10.0499 11.3633 9.72591 10.7588C9.39822 10.158 8.86068 9.85759 8.11327 9.85759C7.36218 9.85759 6.82095 10.1617 6.48959 10.7699C6.16191 11.3744 5.99807 12.3033 5.99807 13.5566C5.99807 14.8098 6.16559 15.7479 6.50063 16.3709C6.83568 16.9975 7.37691 17.3108 8.12432 17.3108C8.87541 17.3108 9.41111 17.0012 9.73143 16.3819C10.0517 15.7627 10.2119 14.8209 10.2119 13.5566ZM15.21 13.551C15.21 15.8806 14.5841 17.6978 13.3322 19.0027C12.0804 20.3076 10.3518 20.96 8.14641 20.96C5.941 20.96 4.19582 20.2928 2.91086 18.9585C1.63695 17.6278 1 15.8161 1 13.5234C1 11.2307 1.62223 9.43739 2.86668 8.14358C4.12586 6.84609 5.88577 6.19734 8.14641 6.19734C10.2598 6.17154 11.9718 6.83503 13.2825 8.18781C14.597 9.54428 15.2394 11.332 15.21 13.551ZM38.8969 6.45168L34.9924 20.7057H29.7403L28.1332 13.9104L27.7576 11.8591L27.5091 10.2115H27.4262C27.0323 12.4747 26.7562 13.9546 26.5978 14.6513L25.1454 20.7057H19.9982L16.0991 6.45168H20.9481L22.1023 11.931C22.4558 13.7667 22.6712 15.3259 22.7485 16.6086H22.8148C22.8442 15.8751 23.078 14.408 23.5162 12.2075L24.825 6.45168H30.2594L31.4578 12.2793C31.8407 14.1039 32.0837 15.547 32.1868 16.6086H32.2697C32.3065 16.0594 32.3856 15.2632 32.5071 14.22C32.6471 13.1953 32.7814 12.4323 32.9103 11.931L34.164 6.45168H38.8969ZM40.9072 1.13823H45.8224V20.7057H40.9072V1.13823ZM54.8963 6.45168H57.9227V10.1396H54.8963V20.7057H49.9811V10.1396H48.0978V7.72337L50.0915 6.51803V6.28028C50.0915 4.40039 50.4726 3.04945 51.2347 2.22746C52.0005 1.40915 53.2303 1 54.9239 1C56.1499 1 57.4441 1.22301 58.8064 1.66902L57.7571 4.85377C57.1532 4.6879 56.5623 4.60496 55.9843 4.60496C55.6013 4.60496 55.3252 4.72107 55.1558 4.9533C54.9828 5.18552 54.8963 5.55781 54.8963 6.07017V6.45168ZM68.5208 11.8149C68.5098 11.1256 68.3183 10.5764 67.9465 10.1672C67.5746 9.75807 67.0794 9.5535 66.4609 9.5535C65.8423 9.5535 65.3434 9.74148 64.9642 10.1175C64.5887 10.4971 64.3678 11.0629 64.3015 11.8149H68.5208ZM66.7315 20.96C64.3567 20.96 62.514 20.3297 61.2032 19.0691C59.8925 17.7937 59.2371 15.9728 59.2371 13.6063C59.2371 11.2399 59.841 9.41343 61.0486 8.12699C62.2599 6.84056 63.9683 6.19734 66.1737 6.19734C68.3791 6.19734 70.0654 6.76131 71.2325 7.88924C72.4033 9.01717 72.9887 10.6298 72.9887 12.7272V14.9057H64.2076C64.2334 15.7055 64.5205 16.3322 65.0691 16.7855C65.6177 17.2389 66.3412 17.4656 67.2396 17.4656C68.1379 17.4656 68.9553 17.3827 69.6917 17.2168C70.428 17.0546 71.2141 16.7726 72.0499 16.3709V19.9095C71.3061 20.3002 70.5219 20.573 69.6972 20.7278C68.8761 20.8826 67.8876 20.96 66.7315 20.96ZM84.4208 11.8149C84.4097 11.1256 84.2183 10.5764 83.8464 10.1672C83.4745 9.75807 82.9793 9.5535 82.3608 9.5535C81.7423 9.5535 81.2434 9.74148 80.8641 10.1175C80.4886 10.4971 80.2677 11.0629 80.2014 11.8149H84.4208ZM82.6314 20.96C80.2566 20.96 78.4139 20.3297 77.1032 19.0691C75.7924 17.7937 75.1371 15.9728 75.1371 13.6063C75.1371 11.2399 75.7409 9.41343 76.9485 8.12699C78.1598 6.84056 79.8682 6.19734 82.0736 6.19734C84.279 6.19734 85.9653 6.76131 87.1324 7.88924C88.2996 9.01717 88.8831 10.6298 88.8831 12.7272V14.9057H80.102C80.1315 15.7055 80.4205 16.3322 80.9691 16.7855C81.5177 17.2389 82.2411 17.4656 83.1395 17.4656C84.0379 17.4656 84.8552 17.3827 85.5916 17.2168C86.328 17.0546 87.114 16.7726 87.9498 16.3709V19.9095C87.2061 20.3002 86.4218 20.573 85.5971 20.7278C84.7724 20.8826 83.7838 20.96 82.6314 20.96ZM97.2998 10.1396V15.6908C97.2998 16.6123 97.7434 17.0731 98.6307 17.0731C99.2824 17.0731 100.072 16.909 101 16.581V20.1583C100.396 20.431 99.785 20.6319 99.1664 20.761C98.5479 20.8937 97.8281 20.96 97.0071 20.96C95.3797 20.96 94.196 20.5582 93.456 19.7547C92.7159 18.9548 92.3459 17.7071 92.3459 16.0115V10.1396H90.6283V8.14358L92.8098 6.58991L94.08 3.59867H97.2998V6.45168H100.79V10.1396H97.2998Z" fill="url(#paint0_linear_48_50)" stroke="white" stroke-opacity="0.05"/>
<defs>
<linearGradient id="paint0_linear_48_50" x1="51" y1="21" x2="51" y2="-5.5" gradientUnits="userSpaceOnUse">
<stop stop-color="#162527"/>
<stop offset="1" stop-color="#ECB365" stop-opacity="0"/>
</linearGradient>
</defs>
</svg>
