<svg width="200" height="200" viewBox="0 0 200 200" fill="none" xmlns="http://www.w3.org/2000/svg">
<path d="M59.9997 200C26.8623 200 0 173.137 0 140V59.9997C0 26.8623 26.8633 0 59.9997 0H140C173.138 0 200 26.8633 200 59.9997V140C200 173.138 173.137 200 140 200H59.9997Z" fill="#ECB365"/>
<g clip-path="url(#clip0_66_113)">
<g clip-path="url(#clip1_66_113)">
<path d="M156.081 69.7646C156.081 69.623 156.223 69.4814 156.081 69.4814C157.639 64.2415 160.188 60.4178 159.338 52.6289C158.772 46.5393 155.656 42.8572 152.965 42.8572C152.965 42.8572 152.965 42.8572 152.824 42.8572C152.824 42.8572 152.824 42.8572 152.682 42.8572C152.541 42.8572 152.257 42.8572 152.116 42.8572C149.142 43.4237 107.648 58.4352 99.8587 60.1346C92.0697 58.4352 50.7173 43.5653 47.6017 42.8572C47.4601 42.8572 47.1769 42.8572 47.0353 42.8572C47.0353 42.8572 47.0353 42.8572 46.8936 42.8572C46.8936 42.8572 46.8936 42.8572 46.752 42.8572C44.0613 42.8572 40.9457 46.5393 40.3792 52.6289C39.6711 60.4178 42.0786 64.2415 43.6364 69.4814C43.6364 69.4814 43.6364 69.623 43.6364 69.7646C43.2116 72.1721 38.963 91.4321 40.2376 102.762C46.3272 148.079 90.5119 156.293 99.2922 157.143H99.4338C99.5755 157.143 99.7171 157.143 99.8587 157.143C100 157.143 100.142 157.143 100.284 157.143H100.425C109.489 156.151 153.673 148.079 159.763 102.762C161.038 91.4321 156.789 72.1721 156.081 69.7646ZM72.8097 107.435C61.197 107.435 51.8503 98.0882 51.8503 86.4755C51.8503 74.8628 61.197 65.5161 72.8097 65.5161C84.4224 65.5161 93.7691 74.8628 93.7691 86.4755C93.6275 98.0882 84.2807 107.435 72.8097 107.435ZM100 122.022C96.7431 122.022 94.194 117.207 94.194 111.259C94.194 105.311 96.7431 100.496 100 100.496C103.258 100.496 105.807 105.311 105.807 111.259C105.807 117.207 103.258 122.022 100 122.022ZM127.191 107.435C115.578 107.435 106.231 98.0882 106.231 86.4755C106.231 74.8628 115.578 65.5161 127.191 65.5161C138.804 65.5161 148.15 74.8628 148.15 86.4755C148.15 98.0882 138.804 107.435 127.191 107.435Z" fill="#FAFAFA"/>
<path d="M127.191 74.7212C120.677 74.7212 115.295 80.1027 115.295 86.6171C115.295 93.1315 120.677 98.513 127.191 98.513C133.705 98.513 139.087 93.1315 139.087 86.6171C139.087 79.9611 133.847 74.7212 127.191 74.7212Z" fill="#FAFAFA"/>
<path d="M72.8097 74.7212C66.2953 74.7212 60.9138 80.1027 60.9138 86.6171C60.9138 93.1315 66.2953 98.513 72.8097 98.513C79.3241 98.513 84.7056 93.1315 84.7056 86.6171C84.564 79.9611 79.3241 74.7212 72.8097 74.7212Z" fill="#FAFAFA"/>
</g>
</g>
<defs>
<clipPath id="clip0_66_113">
<rect width="120" height="114.286" fill="white" transform="translate(40 42.8572)"/>
</clipPath>
<clipPath id="clip1_66_113">
<rect width="120" height="114.286" fill="white" transform="translate(40 42.8572)"/>
</clipPath>
</defs>
</svg>
