<svg width="100" height="60" viewBox="0 0 100 60"  xmlns="http://www.w3.org/2000/svg">
<path d="M97.194 2.79313C95.4166 1.00415 93.0123 0 90.5062 0C88.0001 0 85.5958 1.00415 83.8184 2.79313L49.7628 36.7957L16.1816 2.79313C14.4042 1.00415 11.9999 0 9.4938 0C6.98767 0 4.58337 1.00415 2.80601 2.79313C1.91688 3.68606 1.21116 4.74841 0.729554 5.9189C0.247951 7.08939 0 8.34485 0 9.61285C0 10.8809 0.247951 12.1363 0.729554 13.3068C1.21116 14.4773 1.91688 15.5396 2.80601 16.4326L43.0276 57.1588C43.9095 58.0591 44.9587 58.7736 46.1147 59.2613C47.2706 59.7489 48.5105 60 49.7628 60C51.0151 60 52.255 59.7489 53.411 59.2613C54.567 58.7736 55.6162 58.0591 56.4981 57.1588L97.194 16.4326C98.0831 15.5396 98.7888 14.4773 99.2704 13.3068C99.752 12.1363 100 10.8809 100 9.61285C100 8.34485 99.752 7.08939 99.2704 5.9189C98.7888 4.74841 98.0831 3.68606 97.194 2.79313Z" />
</svg>
