<svg width="100" height="100" viewBox="0 0 100 100"  xmlns="http://www.w3.org/2000/svg">
<path d="M97.9319 55.572L92.3442 49.9844C91.016 48.6623 89.2182 47.9201 87.3441 47.9201C85.47 47.9201 83.6722 48.6623 82.3439 49.9844L51.6264 80.7018C51.1909 81.1381 50.8938 81.6932 50.7722 82.2976L47.9805 96.2604C47.8793 96.7648 47.9043 97.2864 48.0531 97.7789C48.2019 98.2714 48.47 98.7195 48.8335 99.0834C49.1971 99.4474 49.6449 99.716 50.1372 99.8654C50.6295 100.015 51.1511 100.04 51.6556 99.9397L65.6185 97.148C66.2231 97.0271 66.7785 96.7299 67.2144 96.2938L97.9319 65.5764C99.2563 64.2486 100 62.4497 100 60.5742C100 58.6988 99.2563 56.8999 97.9319 55.572ZM51.0431 62.5014H19.7922C18.9634 62.5014 18.1685 62.1721 17.5824 61.5861C16.9964 61 16.6671 60.2051 16.6671 59.3763C16.6671 58.5475 16.9964 57.7526 17.5824 57.1665C18.1685 56.5805 18.9634 56.2512 19.7922 56.2512H51.0431C51.8719 56.2512 52.6668 56.5805 53.2528 57.1665C53.8389 57.7526 54.1682 58.5475 54.1682 59.3763C54.1682 60.2051 53.8389 61 53.2528 61.5861C52.6668 62.1721 51.8719 62.5014 51.0431 62.5014ZM46.8763 75.0016H19.7922C18.9634 75.0016 18.1685 74.6724 17.5824 74.0863C16.9964 73.5003 16.6671 72.7054 16.6671 71.8766C16.6671 71.0477 16.9964 70.2529 17.5824 69.6668C18.1685 69.0807 18.9634 68.7515 19.7922 68.7515H46.8763C47.7051 68.7515 48.5 69.0807 49.0861 69.6668C49.6721 70.2529 50.0014 71.0477 50.0014 71.8766C50.0014 72.7054 49.6721 73.5003 49.0861 74.0863C48.5 74.6724 47.7051 75.0016 46.8763 75.0016Z" />
<path d="M38.5427 87.5019H11.4587C8.4203 87.4997 5.50703 86.2918 3.3586 84.1433C1.21016 81.9949 0.0022073 79.0817 0 76.0433L0 11.4586C0.0022073 8.42026 1.21016 5.507 3.3586 3.35858C5.50703 1.21016 8.4203 0.00220729 11.4587 0L59.3766 0C62.415 0.00220729 65.3283 1.21016 67.4767 3.35858C69.6251 5.507 70.8331 8.42026 70.8353 11.4586V46.876C70.8353 47.7048 70.506 48.4997 69.92 49.0858C69.3339 49.6718 68.539 50.0011 67.7102 50.0011C66.8814 50.0011 66.0865 49.6718 65.5004 49.0858C64.9144 48.4997 64.5851 47.7048 64.5851 46.876V11.4586C64.5851 8.58769 62.2476 6.25014 59.3766 6.25014H11.4587C8.58774 6.25014 6.25017 8.58769 6.25017 11.4586V76.0433C6.25017 78.9142 8.58774 81.2518 11.4587 81.2518H38.5427C39.3716 81.2518 40.1664 81.581 40.7525 82.1671C41.3386 82.7531 41.6678 83.548 41.6678 84.3768C41.6678 85.2057 41.3386 86.0005 40.7525 86.5866C40.1664 87.1727 39.3716 87.5019 38.5427 87.5019Z" />
<path d="M35.4176 29.1673C40.0201 29.1673 43.7512 25.4363 43.7512 20.8338C43.7512 16.2313 40.0201 12.5003 35.4176 12.5003C30.8151 12.5003 27.0841 16.2313 27.0841 20.8338C27.0841 25.4363 30.8151 29.1673 35.4176 29.1673Z" />
<path d="M48.9597 50.0011H21.8756C21.0468 50.0011 20.2519 49.6718 19.6658 49.0858C19.0798 48.4997 18.7505 47.7048 18.7505 46.876V44.7926C18.7527 41.7543 19.9607 38.8411 22.1091 36.6926C24.2575 34.5442 27.1708 33.3363 30.2092 33.3341H40.6261C43.6645 33.3363 46.5777 34.5442 48.7262 36.6926C50.8746 38.8411 52.0826 41.7543 52.0848 44.7926V46.876C52.0848 47.7048 51.7555 48.4997 51.1695 49.0858C50.5834 49.6718 49.7885 50.0011 48.9597 50.0011Z" />
</svg>
