<svg width="100" height="100" viewBox="0 0 100 100"  xmlns="http://www.w3.org/2000/svg">
<path fill-rule="evenodd" clip-rule="evenodd" d="M97.9388 44.1599L91.193 35.7901C90.1312 34.416 89.4441 32.792 89.2567 30.9806L88.07 20.3623C87.8292 18.242 86.8766 16.2661 85.3677 14.7572C83.8588 13.2483 81.8829 12.2957 79.7627 12.055L69.1443 10.8682C67.2705 10.6808 65.6465 9.86883 64.2723 8.807L55.9026 2.06121C52.4672 -0.687071 47.5953 -0.687071 44.1599 2.06121L35.7901 8.807C34.416 9.86883 32.792 10.5559 30.9806 10.7433L20.3623 11.93C15.99 12.4297 12.5547 15.8651 12.055 20.2374L10.8682 30.8557C10.6808 32.7295 9.86883 34.3535 8.807 35.7277L2.06121 44.0974C-0.687071 47.5328 -0.687071 52.4047 2.06121 55.8401L8.807 64.2099C9.86883 65.584 10.5559 67.208 10.7433 69.0194L11.93 79.6377C12.4297 84.01 15.8651 87.4453 20.2374 87.945L30.8557 89.1318C32.7295 89.3192 34.3535 90.1312 35.7277 91.193L44.0974 97.9388C47.5328 100.687 52.4047 100.687 55.8401 97.9388L64.2099 91.193C65.584 90.1312 67.208 89.4441 69.0194 89.2567L79.6377 88.07C84.01 87.5703 87.4453 84.1349 87.945 79.7627L89.1318 69.1443C89.3192 67.2705 90.1312 65.6465 91.193 64.2723L97.9388 55.9026C100.687 52.4672 100.687 47.5953 97.9388 44.1599ZM40.6621 75.0156L18.8007 53.1543L28.1699 43.7851L40.6621 56.2773L71.8926 25.0468L81.2617 34.7283L40.6621 75.0156Z" />
</svg>
