<svg width="100" height="84" viewBox="0 0 100 84"  xmlns="http://www.w3.org/2000/svg">
<path d="M40 84C39.4529 83.9973 38.9148 83.8642 38.4333 83.6123C37.9011 83.3376 37.4557 82.9281 37.1445 82.4274C36.8334 81.9268 36.6683 81.3537 36.6667 80.7692V71.0769H16.6667C14.478 71.0769 12.3107 70.6591 10.2886 69.8473C8.26652 69.0355 6.4292 67.8456 4.88155 66.3456C1.75595 63.3161 0 59.2073 0 54.9231V16.1538C0 11.8696 1.75595 7.76079 4.88155 4.73135C8.00716 1.70192 12.2464 0 16.6667 0H83.3333C87.7536 0 91.9928 1.70192 95.1184 4.73135C98.2441 7.76079 100 11.8696 100 16.1538V54.9231C100 59.2073 98.2441 63.3161 95.1184 66.3456C91.9928 69.375 87.7536 71.0769 83.3333 71.0769H61L41.8333 83.4508C41.291 83.8041 40.6534 83.9951 40 84ZM30 29.0769C28.6815 29.0769 27.3925 29.4559 26.2962 30.1659C25.1999 30.8759 24.3454 31.885 23.8408 33.0657C23.3362 34.2464 23.2042 35.5456 23.4614 36.799C23.7187 38.0525 24.3536 39.2038 25.286 40.1075C26.2183 41.0111 27.4062 41.6265 28.6994 41.8758C29.9926 42.1252 31.333 41.9972 32.5512 41.5081C33.7694 41.0191 34.8106 40.1909 35.5431 39.1283C36.2757 38.0657 36.6667 36.8164 36.6667 35.5385C36.6667 33.8248 35.9643 32.1812 34.714 30.9695C33.4638 29.7577 31.7681 29.0769 30 29.0769ZM50 29.0769C48.6815 29.0769 47.3925 29.4559 46.2962 30.1659C45.1999 30.8759 44.3454 31.885 43.8408 33.0657C43.3362 34.2464 43.2042 35.5456 43.4614 36.799C43.7187 38.0525 44.3536 39.2038 45.286 40.1075C46.2183 41.0111 47.4062 41.6265 48.6994 41.8758C49.9926 42.1252 51.333 41.9972 52.5512 41.5081C53.7694 41.0191 54.8106 40.1909 55.5431 39.1283C56.2757 38.0657 56.6667 36.8164 56.6667 35.5385C56.6667 33.8248 55.9643 32.1812 54.714 30.9695C53.4638 29.7577 51.7681 29.0769 50 29.0769ZM70 29.0769C68.6815 29.0769 67.3925 29.4559 66.2962 30.1659C65.1999 30.8759 64.3454 31.885 63.8408 33.0657C63.3362 34.2464 63.2042 35.5456 63.4614 36.799C63.7187 38.0525 64.3536 39.2038 65.286 40.1075C66.2183 41.0111 67.4062 41.6265 68.6994 41.8758C69.9926 42.1252 71.333 41.9972 72.5512 41.5081C73.7694 41.0191 74.8106 40.1909 75.5431 39.1283C76.2757 38.0657 76.6667 36.8164 76.6667 35.5385C76.6667 33.8248 75.9643 32.1812 74.714 30.9695C73.4638 29.7577 71.7681 29.0769 70 29.0769Z" />
</svg>
