<svg width="100" height="100" viewBox="0 0 100 100"  xmlns="http://www.w3.org/2000/svg">
<path d="M37.5 12.5H20.8333C18.6232 12.5 16.5036 13.378 14.9408 14.9408C13.378 16.5036 12.5 18.6232 12.5 20.8333V37.5C12.5 39.7101 13.378 41.8298 14.9408 43.3926C16.5036 44.9554 18.6232 45.8333 20.8333 45.8333H37.5C39.7101 45.8333 41.8298 44.9554 43.3926 43.3926C44.9554 41.8298 45.8333 39.7101 45.8333 37.5V20.8333C45.8333 18.6232 44.9554 16.5036 43.3926 14.9408C41.8298 13.378 39.7101 12.5 37.5 12.5ZM79.1667 12.5H62.5C60.2899 12.5 58.1702 13.378 56.6074 14.9408C55.0446 16.5036 54.1667 18.6232 54.1667 20.8333V37.5C54.1667 39.7101 55.0446 41.8298 56.6074 43.3926C58.1702 44.9554 60.2899 45.8333 62.5 45.8333H79.1667C81.3768 45.8333 83.4964 44.9554 85.0592 43.3926C86.622 41.8298 87.5 39.7101 87.5 37.5V20.8333C87.5 18.6232 86.622 16.5036 85.0592 14.9408C83.4964 13.378 81.3768 12.5 79.1667 12.5ZM37.5 54.1667H20.8333C18.6232 54.1667 16.5036 55.0446 14.9408 56.6074C13.378 58.1702 12.5 60.2899 12.5 62.5V79.1667C12.5 81.3768 13.378 83.4964 14.9408 85.0592C16.5036 86.622 18.6232 87.5 20.8333 87.5H37.5C39.7101 87.5 41.8298 86.622 43.3926 85.0592C44.9554 83.4964 45.8333 81.3768 45.8333 79.1667V62.5C45.8333 60.2899 44.9554 58.1702 43.3926 56.6074C41.8298 55.0446 39.7101 54.1667 37.5 54.1667ZM79.1667 54.1667H62.5C60.2899 54.1667 58.1702 55.0446 56.6074 56.6074C55.0446 58.1702 54.1667 60.2899 54.1667 62.5V79.1667C54.1667 81.3768 55.0446 83.4964 56.6074 85.0592C58.1702 86.622 60.2899 87.5 62.5 87.5H79.1667C81.3768 87.5 83.4964 86.622 85.0592 85.0592C86.622 83.4964 87.5 81.3768 87.5 79.1667V62.5C87.5 60.2899 86.622 58.1702 85.0592 56.6074C83.4964 55.0446 81.3768 54.1667 79.1667 54.1667Z" />
</svg>
