<svg width="100" height="60" viewBox="0 0 100 60"  xmlns="http://www.w3.org/2000/svg">
<path fill-rule="evenodd" clip-rule="evenodd" d="M2.18389 57.7053C2.87584 58.4327 3.69759 59.0098 4.60214 59.4036C5.5067 59.7973 6.47631 60 7.45552 60C8.43474 60 9.40435 59.7973 10.3089 59.4036C11.2134 59.0098 12.0352 58.4327 12.7272 57.7053L50 18.5268L87.2729 57.7053C87.9648 58.4327 88.7866 59.0098 89.6911 59.4036C90.5957 59.7973 91.5653 60 92.5445 60C93.5237 60 94.4933 59.7973 95.3979 59.4036C96.3024 59.0098 97.1242 58.4327 97.8161 57.7053C99.2146 56.2345 100 54.2412 100 52.163C100 50.0848 99.2146 48.0915 97.8161 46.6207L55.6431 2.29749C54.9079 1.52197 54.0255 0.917534 53.0533 0.52345C52.0811 0.129365 51.0408 -0.045543 50 0.0100883C48.9592 -0.045543 47.9189 0.129365 46.9467 0.52345C45.9745 0.917534 45.0921 1.52197 44.3569 2.29749L2.18389 46.6207C0.785441 48.0915 0 50.0848 0 52.163C0 54.2412 0.785441 56.2345 2.18389 57.7053Z" />
</svg>
