<svg width="100" height="100" viewBox="0 0 100 100"  xmlns="http://www.w3.org/2000/svg">
<path d="M86.3636 13.6461H65.5L53.2273 1.32932C52.3691 0.477817 51.209 0 50 0C48.791 0 47.6309 0.477817 46.7727 1.32932L34.5 13.6461H13.6364C10.0231 13.6569 6.5609 15.0969 4.00592 17.6516C1.45094 20.2063 0.0107913 23.6681 0 27.2809L0 86.3652C0.0107913 89.978 1.45094 93.4398 4.00592 95.9945C6.5609 98.5492 10.0231 99.9892 13.6364 100H86.3636C89.9769 99.9892 93.4391 98.5492 95.9941 95.9945C98.5491 93.4398 99.9892 89.978 100 86.3652V27.2809C99.9892 23.6681 98.5491 20.2063 95.9941 17.6516C93.4391 15.0969 89.9769 13.6569 86.3636 13.6461ZM81.8182 86.3652H18.1818C16.9774 86.3616 15.8233 85.8816 14.9717 85.03C14.12 84.1785 13.64 83.0245 13.6364 81.8202C13.6388 75.794 16.034 70.0153 20.2957 65.7541C24.5574 61.4929 30.3367 59.0979 36.3636 59.0955H50C46.404 59.0955 42.8887 58.0293 39.8987 56.0317C36.9087 54.0341 34.5783 51.1948 33.2022 47.8729C31.8261 44.5509 31.466 40.8956 32.1675 37.3691C32.8691 33.8425 34.6007 30.6032 37.1435 28.0607C39.6863 25.5182 42.926 23.7868 46.4529 23.0853C49.9798 22.3838 53.6356 22.7439 56.9579 24.1198C60.2802 25.4958 63.1198 27.826 65.1176 30.8156C67.1155 33.8053 68.1818 37.3201 68.1818 40.9158C68.1824 43.3033 67.7125 45.6676 66.799 47.8736C65.8855 50.0795 64.5463 52.0839 62.8578 53.7721C61.1694 55.4604 59.1648 56.7995 56.9586 57.7129C54.7524 58.6263 52.3878 59.0961 50 59.0955H63.6364C69.6633 59.0979 75.4426 61.4929 79.7043 65.7541C83.966 70.0153 86.3612 75.794 86.3636 81.8202C86.36 83.0245 85.88 84.1785 85.0283 85.03C84.1767 85.8816 83.0226 86.3616 81.8182 86.3652Z" />
</svg>
