<svg width="100" height="100" viewBox="0 0 100 100"  xmlns="http://www.w3.org/2000/svg">
<path d="M92.6056 0.000699144H7.39437C6.43651 -0.0125238 5.48542 0.161934 4.5954 0.514111C3.70538 0.866287 2.89388 1.38928 2.20723 2.05323C1.52058 2.71718 0.972241 3.50907 0.593521 4.38369C0.214801 5.2583 0.0131207 6.1985 0 7.1506V92.8494C0.0131207 93.8015 0.214801 94.7417 0.593521 95.6163C0.972241 96.4909 1.52058 97.2828 2.20723 97.9468C2.89388 98.6107 3.70538 99.1337 4.5954 99.4859C5.48542 99.8381 6.43651 100.013 7.39437 99.9993H92.6056C93.5635 100.013 94.5146 99.8381 95.4046 99.4859C96.2946 99.1337 97.1061 98.6107 97.7928 97.9468C98.4794 97.2828 99.0278 96.4909 99.4065 95.6163C99.7852 94.7417 99.9869 93.8015 100 92.8494V7.1506C99.9869 6.1985 99.7852 5.2583 99.4065 4.38369C99.0278 3.50907 98.4794 2.71718 97.7928 2.05323C97.1061 1.38928 96.2946 0.866287 95.4046 0.514111C94.5146 0.161934 93.5635 -0.0125238 92.6056 0.000699144ZM30.332 83.6995H15.2414V38.7002H30.332V83.6995ZM22.7867 32.4002C20.7055 32.4002 18.7096 31.5785 17.238 30.1157C15.7664 28.6529 14.9396 26.669 14.9396 24.6004C14.9396 22.5317 15.7664 20.5478 17.238 19.085C18.7096 17.6222 20.7055 16.8005 22.7867 16.8005C23.8918 16.6759 25.0109 16.7847 26.0708 17.1199C27.1307 17.455 28.1073 18.0089 28.9369 18.7452C29.7665 19.4816 30.4302 20.3838 30.8847 21.3928C31.3391 22.4018 31.574 23.4949 31.574 24.6004C31.574 25.7059 31.3391 26.7989 30.8847 27.8079C30.4302 28.8169 29.7665 29.7191 28.9369 30.4555C28.1073 31.1918 27.1307 31.7457 26.0708 32.0808C25.0109 32.416 23.8918 32.5248 22.7867 32.4002ZM84.7586 83.6995H69.668V59.5499C69.668 53.4999 67.505 49.55 62.0221 49.55C60.3253 49.5624 58.673 50.0914 57.2879 51.0658C55.9028 52.0403 54.8515 53.4133 54.2757 54.9999C53.882 56.1751 53.7114 57.4128 53.7726 58.6499V83.6495H38.6821C38.6821 83.6495 38.6821 42.7501 38.6821 38.6502H53.7726V45.0001C55.1435 42.6356 57.1374 40.6877 59.5394 39.3662C61.9415 38.0446 64.6608 37.3994 67.4044 37.5002C77.4648 37.5002 84.7586 43.9501 84.7586 57.7999V83.6995Z" />
</svg>
