<svg width="100" height="100" viewBox="0 0 100 100"  xmlns="http://www.w3.org/2000/svg">
<path d="M73.3437 60.0499C72.339 59.5506 65.8084 56.5543 64.8036 56.0549C63.7989 55.5556 62.7942 55.5556 61.7895 56.5543C60.7848 57.5531 58.7754 60.5493 57.7707 61.5481C57.2683 62.5468 56.2636 62.5468 55.2589 62.0474C51.7424 60.5493 48.226 58.5518 45.2118 56.0549C42.7001 53.558 40.1883 50.5618 38.1789 47.5655C37.6765 46.5668 38.1789 45.568 38.6812 45.0687C39.1836 44.5693 39.686 43.5705 40.6907 43.0712C41.193 42.5718 41.6954 41.573 41.6954 41.0737C42.1977 40.5743 42.1977 39.5755 41.6954 39.0762C41.193 38.5768 38.6812 32.5843 37.6765 30.0874C37.1742 26.5918 36.1695 26.5918 35.1648 26.5918H32.653C31.6483 26.5918 30.1412 27.5905 29.6389 28.0899C26.6248 31.0861 25.1177 34.5818 25.1177 38.5768C25.62 43.0712 27.1271 47.5655 30.1412 51.5605C35.6671 59.5506 42.7001 66.0424 51.2401 70.0375C53.7519 71.0362 55.7613 72.035 58.273 72.5343C60.7848 73.5331 63.2966 73.5331 66.3107 73.0337C69.8272 72.5343 72.8413 70.0374 74.8507 67.0412C75.8554 65.0437 75.8554 63.0462 75.3531 61.0487L73.3437 60.0499ZM85.9025 14.6067C66.3107 -4.86891 34.6624 -4.86891 15.0706 14.6067C-1.00471 30.5868 -4.01883 55.0562 7.03295 74.5318L0 100L26.6248 93.0087C34.1601 97.0037 42.1977 99.0012 50.2354 99.0012C77.8648 99.0012 99.9684 77.0287 99.9684 49.563C100.471 36.5793 94.9449 24.0949 85.9025 14.6067ZM72.339 84.5193C65.8084 88.5144 58.273 91.0112 50.2354 91.0112C42.7001 91.0112 35.6671 89.0137 29.1365 85.5181L27.6295 84.5193L12.0565 88.5144L16.0753 73.5331L15.0706 72.035C3.01412 52.0599 9.04237 27.0911 28.6342 14.6067C48.226 2.12235 73.3437 8.61423 85.4002 27.5905C97.4566 47.0662 91.9308 72.5343 72.339 84.5193Z" />
</svg>
