<svg width="550" height="334" viewBox="0 0 550 334" fill="none" xmlns="http://www.w3.org/2000/svg">
<g clip-path="url(#clip0_76_202)">
<path d="M235 200C201.862 200 175 173.137 175 140V59.9997C175 26.8623 201.863 0 235 0H315C348.138 0 375 26.8633 375 59.9997V140C375 173.138 348.137 200 315 200H235Z" fill="#ECB365"/>
<mask id="mask0_76_202" style="mask-type:luminance" maskUnits="userSpaceOnUse" x="215" y="42" width="120" height="116">
<path d="M335 42.8572H215V157.143H335V42.8572Z" fill="white"/>
</mask>
<g mask="url(#mask0_76_202)">
<mask id="mask1_76_202" style="mask-type:luminance" maskUnits="userSpaceOnUse" x="215" y="42" width="120" height="116">
<path d="M335 42.8572H215V157.143H335V42.8572Z" fill="white"/>
</mask>
<g mask="url(#mask1_76_202)">
<path d="M331.081 69.7646C331.081 69.623 331.223 69.4814 331.081 69.4814C332.639 64.2415 335.188 60.4178 334.338 52.6289C333.772 46.5393 330.656 42.8572 327.965 42.8572C327.965 42.8572 327.965 42.8572 327.824 42.8572C327.824 42.8572 327.824 42.8572 327.682 42.8572C327.541 42.8572 327.257 42.8572 327.116 42.8572C324.142 43.4237 282.648 58.4352 274.859 60.1346C267.07 58.4352 225.717 43.5653 222.602 42.8572C222.46 42.8572 222.177 42.8572 222.035 42.8572C222.035 42.8572 222.035 42.8572 221.894 42.8572C221.894 42.8572 221.894 42.8572 221.752 42.8572C219.061 42.8572 215.946 46.5393 215.379 52.6289C214.671 60.4178 217.079 64.2415 218.636 69.4814C218.636 69.4814 218.636 69.623 218.636 69.7646C218.212 72.1721 213.963 91.4321 215.238 102.762C221.327 148.079 265.512 156.293 274.292 157.143H274.434C274.575 157.143 274.717 157.143 274.859 157.143C275 157.143 275.142 157.143 275.284 157.143H275.425C284.489 156.151 328.673 148.079 334.763 102.762C336.038 91.4321 331.789 72.1721 331.081 69.7646ZM247.81 107.435C236.197 107.435 226.85 98.0882 226.85 86.4755C226.85 74.8628 236.197 65.5161 247.81 65.5161C259.422 65.5161 268.769 74.8628 268.769 86.4755C268.627 98.0882 259.281 107.435 247.81 107.435ZM275 122.022C271.743 122.022 269.194 117.207 269.194 111.259C269.194 105.311 271.743 100.496 275 100.496C278.258 100.496 280.807 105.311 280.807 111.259C280.807 117.207 278.258 122.022 275 122.022ZM302.191 107.435C290.578 107.435 281.231 98.0882 281.231 86.4755C281.231 74.8628 290.578 65.5161 302.191 65.5161C313.804 65.5161 323.15 74.8628 323.15 86.4755C323.15 98.0882 313.804 107.435 302.191 107.435Z" fill="#FAFAFA"/>
<path d="M302.191 74.7212C295.677 74.7212 290.295 80.1027 290.295 86.6171C290.295 93.1315 295.677 98.513 302.191 98.513C308.705 98.513 314.087 93.1315 314.087 86.6171C314.087 79.9611 308.847 74.7212 302.191 74.7212Z" fill="#FAFAFA"/>
<path d="M247.81 74.7212C241.295 74.7212 235.914 80.1027 235.914 86.6171C235.914 93.1315 241.295 98.513 247.81 98.513C254.324 98.513 259.706 93.1315 259.706 86.6171C259.564 79.9611 254.324 74.7212 247.81 74.7212Z" fill="#FAFAFA"/>
</g>
</g>
</g>
<path d="M50.6654 293.2C50.6654 286.252 49.7745 281.112 47.9925 277.781C46.1902 274.47 43.2337 272.814 39.123 272.814C34.992 272.814 32.0152 274.49 30.1927 277.842C28.3905 281.174 27.4894 286.293 27.4894 293.2C27.4894 300.106 28.4107 305.276 30.2535 308.709C32.0962 312.163 35.073 313.889 39.1838 313.889C43.3148 313.889 46.2611 312.183 48.0229 308.77C49.7844 305.358 50.6654 300.167 50.6654 293.2ZM78.155 293.169C78.155 306.007 74.7126 316.022 67.8271 323.213C60.9422 330.405 51.4349 334 39.3053 334C27.1755 334 17.577 330.323 10.5097 322.97C3.50323 315.636 0 305.652 0 293.017C0 280.382 3.42226 270.499 10.2667 263.368C17.1922 256.218 26.8717 252.643 39.3053 252.643C50.9289 252.5 60.3449 256.157 67.5538 263.612C74.7835 271.088 78.3167 280.94 78.155 293.169ZM208.433 254.044L186.958 332.599H158.072L149.233 295.15L147.167 283.845L145.8 274.765H145.344C143.178 287.237 141.659 295.393 140.788 299.233L132.8 332.599H104.49L83.0451 254.044H109.715L116.063 284.241C118.007 294.358 119.192 302.95 119.617 310.019H119.981C120.143 305.977 121.429 297.892 123.839 285.765L131.038 254.044H160.927L167.518 286.16C169.624 296.216 170.96 304.169 171.527 310.019H171.983C172.186 306.993 172.621 302.605 173.289 296.856C174.059 291.209 174.798 287.004 175.507 284.241L182.402 254.044H208.433ZM219.49 224.762H246.523V332.599H219.49V224.762ZM296.43 254.044H313.075V274.369H296.43V332.599H269.396V274.369H259.038V261.053L270.003 254.41V253.1C270.003 242.74 272.099 235.295 276.291 230.765C280.503 226.255 287.267 224 296.581 224C303.324 224 310.443 225.229 317.935 227.687L312.164 245.238C308.843 244.324 305.593 243.867 302.414 243.867C300.307 243.867 298.789 244.507 297.857 245.787C296.905 247.066 296.43 249.118 296.43 251.942V254.044ZM371.364 283.601C371.304 279.802 370.251 276.776 368.206 274.521C366.16 272.266 363.437 271.139 360.035 271.139C356.633 271.139 353.889 272.174 351.803 274.247C349.738 276.339 348.523 279.457 348.158 283.601H371.364ZM361.523 334C348.462 334 338.327 330.526 331.118 323.579C323.909 316.55 320.304 306.515 320.304 293.474C320.304 280.432 323.625 270.367 330.267 263.277C336.929 256.187 346.326 252.643 358.455 252.643C370.585 252.643 379.86 255.751 386.279 261.967C392.718 268.183 395.938 277.07 395.938 288.629V300.635H347.642C347.784 305.042 349.363 308.496 352.38 310.994C355.397 313.493 359.377 314.742 364.318 314.742C369.258 314.742 373.754 314.285 377.804 313.371C381.854 312.477 386.178 310.923 390.774 308.709V328.211C386.684 330.364 382.37 331.867 377.835 332.72C373.319 333.573 367.882 334 361.523 334ZM458.814 283.601C458.753 279.802 457.701 276.776 455.655 274.521C453.61 272.266 450.886 271.139 447.484 271.139C444.083 271.139 441.339 272.174 439.253 274.247C437.187 276.339 435.972 279.457 435.608 283.601H458.814ZM448.973 334C435.911 334 425.776 330.526 418.568 323.579C411.358 316.55 407.754 306.515 407.754 293.474C407.754 280.432 411.075 270.367 417.717 263.277C424.379 256.187 433.775 252.643 445.905 252.643C458.035 252.643 467.309 255.751 473.728 261.967C480.148 268.183 483.357 277.07 483.357 288.629V300.635H435.061C435.223 305.042 436.813 308.496 439.83 310.994C442.847 313.493 446.826 314.742 451.767 314.742C456.708 314.742 461.204 314.285 465.254 313.371C469.304 312.477 473.627 310.923 478.224 308.709V328.211C474.134 330.364 469.82 331.867 465.284 332.72C460.748 333.573 455.311 334 448.973 334ZM529.649 274.369V304.961C529.649 310.04 532.089 312.579 536.969 312.579C540.553 312.579 544.896 311.675 550 309.867V329.582C546.678 331.085 543.317 332.192 539.915 332.903C536.513 333.635 532.555 334 528.039 334C519.088 334 512.578 331.786 508.508 327.358C504.437 322.949 502.402 316.073 502.402 306.729V274.369H492.956V263.368L504.954 254.806L511.94 238.321H529.649V254.044H548.845V274.369H529.649Z" fill="#ECB365"/>
<defs>
<clipPath id="clip0_76_202">
<rect width="200" height="200" fill="white" transform="translate(175)"/>
</clipPath>
</defs>
</svg>
