<svg width="102" height="97" viewBox="0 0 102 97" fill="none" xmlns="http://www.w3.org/2000/svg">
<g clip-path="url(#clip0_204_54)">
<path d="M97.7341 23.3668C97.7341 23.2491 97.8521 23.1313 97.7341 23.1313C99.0323 18.7757 101.157 15.5973 100.448 9.12268C99.9764 4.06072 97.3801 1 95.1378 1C95.1378 1 95.1378 1 95.0198 1C95.0198 1 95.0198 1 94.9018 1C94.7838 1 94.5477 1 94.4297 1C91.9514 1.47088 57.3731 13.9492 50.8822 15.3618C44.3914 13.9492 9.93109 1.5886 7.33477 1C7.21675 1 6.98072 1 6.86271 1C6.86271 1 6.86271 1 6.74469 1C6.74469 1 6.74469 1 6.62668 1C4.3844 1 1.78807 4.06072 1.31601 9.12268C0.725931 15.5973 2.73219 18.7757 4.03035 23.1313C4.03035 23.1313 4.03035 23.2491 4.03035 23.3668C3.67631 25.368 0.135857 41.3779 1.198 50.7955C6.27263 88.4659 43.0933 95.2937 50.4102 96H50.5282C50.6462 96 50.7642 96 50.8822 96C51.0003 96 51.1183 96 51.2363 96H51.3543C58.9072 95.176 95.7279 88.4659 100.803 50.7955C101.865 41.3779 98.3242 25.368 97.7341 23.3668ZM28.3414 54.6803C18.6642 54.6803 10.8752 46.9108 10.8752 37.2577C10.8752 27.6047 18.6642 19.8352 28.3414 19.8352C38.0186 19.8352 45.8076 27.6047 45.8076 37.2577C45.6896 46.9108 37.9006 54.6803 28.3414 54.6803ZM51.0003 66.8054C48.2859 66.8054 46.1616 62.803 46.1616 57.8587C46.1616 52.9145 48.2859 48.912 51.0003 48.912C53.7146 48.912 55.8389 52.9145 55.8389 57.8587C55.8389 62.803 53.7146 66.8054 51.0003 66.8054ZM73.6591 54.6803C63.9819 54.6803 56.1929 46.9108 56.1929 37.2577C56.1929 27.6047 63.9819 19.8352 73.6591 19.8352C83.3363 19.8352 91.1253 27.6047 91.1253 37.2577C91.1253 46.9108 83.3363 54.6803 73.6591 54.6803Z" fill="#162527" stroke="white" stroke-opacity="0.05"/>
<path d="M73.6591 27.487C68.2304 27.487 63.7458 31.9604 63.7458 37.3755C63.7458 42.7906 68.2304 47.264 73.6591 47.264C79.0878 47.264 83.5723 42.7906 83.5723 37.3755C83.5723 31.8426 79.2058 27.487 73.6591 27.487Z" fill="#ECB365" stroke="white" stroke-opacity="0.05"/>
<path d="M28.3414 27.487C22.9127 27.487 18.4282 31.9604 18.4282 37.3755C18.4282 42.7906 22.9127 47.264 28.3414 47.264C33.7701 47.264 38.2547 42.7906 38.2547 37.3755C38.1366 31.8426 33.7701 27.487 28.3414 27.487Z" fill="#ECB365" stroke="white" stroke-opacity="0.05"/>
</g>
<defs>
<clipPath id="clip0_204_54">
<rect width="102" height="97" fill="white"/>
</clipPath>
</defs>
</svg>
