<svg width="100" height="90" viewBox="0 0 100 90"  xmlns="http://www.w3.org/2000/svg">
<path d="M100 39.8118V80.4706C100 85.7647 95.8071 90 90.566 90H9.22432C4.19287 90 0 85.7647 0 80.4706V39.8118L45.4927 66.7059C46.7505 67.5529 48.4277 67.9765 49.8952 67.9765C51.5723 67.9765 53.0398 67.5529 54.5073 66.7059L100 39.8118Z" />
<path d="M99.5807 35.1529L52.4109 62.8941C50.9434 63.7412 49.0566 63.7412 47.5891 62.8941L0.20964 35.1529C1.25786 31.1294 4.8218 27.9529 9.22432 27.9529H24.7379C25.5765 33.6706 28.0922 38.3294 31.8658 42.1412C34.1719 44.4706 37.1069 46.3765 40.2516 47.4353C43.3962 48.7059 46.7505 49.1294 50.3145 49.1294C53.8784 49.1294 57.4423 48.4941 61.0063 47.4353C63.522 46.8 64.9895 44.4706 64.9895 41.9294C64.9895 40.8706 64.5702 39.8118 64.1509 38.7529C65.1992 38.3294 66.2474 37.6941 67.2956 36.8471C69.8113 34.9412 72.1174 32.1882 73.5849 29.2235C73.7945 28.8 74.0042 28.1647 74.2138 27.7412H90.566C94.9686 27.9529 98.5325 31.1294 99.5807 35.1529Z" />
<path d="M57.652 31.3412C57.652 32.4 58.2809 32.8235 59.3291 32.8235C60.3774 32.8235 61.6352 32.4 62.6834 31.5529C63.7317 30.7059 64.7799 29.6471 65.6184 28.3765C67.5052 25.4118 68.3438 22.4471 68.3438 19.4824C68.3438 16.5176 67.9245 13.9765 67.086 12.0706C66.2474 10.1647 64.9895 8.47059 63.7317 7.2C61.0063 4.65882 57.4423 3.38824 53.0398 3.38824C49.8952 3.38824 46.5409 4.23529 43.3962 5.71765C38.3648 8.25883 35.0105 12.0706 33.3333 17.3647C32.7044 19.0588 32.4948 21.3882 32.4948 23.9294C32.4948 26.4706 32.914 29.0118 33.9623 31.5529C35.0105 33.8824 36.2683 36 37.9455 37.4824C41.2998 40.6588 45.7023 42.1412 50.9434 42.1412C53.4591 42.1412 55.9748 41.7177 58.4906 41.0824C58.7002 41.0824 59.1195 40.8706 59.5388 40.8706C59.9581 40.8706 60.1677 41.0824 60.587 41.2941C60.7966 41.5059 61.0063 41.9294 61.0063 42.3529C61.0063 43.2 60.587 43.6235 59.9581 43.8353C56.8134 44.8941 53.4591 45.3177 50.5241 45.3177C47.3795 45.3177 44.4444 44.8941 41.9287 43.8353C39.2034 42.7765 36.8973 41.2941 35.0105 39.3882C30.8176 35.1529 28.7212 29.6471 28.7212 22.8706C28.7212 18.4235 29.979 14.1882 32.4948 10.3765C34.5912 7.2 37.7359 4.65882 41.5094 2.75294C45.283 1.05882 49.0566 0 53.0398 0C58.4906 0 62.8931 1.48235 66.457 4.44706C70.4403 7.8353 72.327 12.7059 72.327 18.8471C72.327 21.8118 71.4885 24.7765 70.021 27.5294C68.5535 30.0706 66.6667 32.1882 64.5702 33.8824C62.4738 35.5765 60.3774 36.4235 58.2809 36.4235C56.6038 36.4235 55.1363 35.7882 54.0881 34.7294C53.6688 34.3059 53.4591 33.8824 53.2495 33.2471C52.4109 34.3059 51.153 34.9412 49.8952 35.5765C48.6373 36.2118 47.1698 36.4235 45.912 36.4235C43.3962 36.4235 41.2998 35.5765 39.8323 33.6706C38.3648 31.9765 37.5262 29.8588 37.5262 27.1059C37.5262 24.3529 38.1551 21.8118 39.413 18.8471C41.5094 14.4 44.2348 11.6471 48.0084 10.1647C49.2662 9.74118 50.5241 9.31765 51.5723 9.31765C52.6205 9.31765 53.4591 9.31765 54.0881 9.52941C54.717 9.74118 55.3459 9.95294 55.9748 10.1647C57.2327 11.0118 58.0713 11.8588 58.7002 13.1294L58.9099 12.2824C59.1195 11.8588 59.3291 11.4353 59.7484 11.2235C60.1677 11.0118 60.587 10.8 61.0063 10.8C61.4256 10.8 61.8449 11.0118 62.2642 11.2235C62.6834 11.4353 62.8931 11.8588 62.8931 12.2824C62.8931 12.7059 62.8931 12.9176 62.6834 13.3412L58.2809 27.9529C57.8616 29.4353 57.652 30.4941 57.652 31.3412ZM43.8155 20.9647C43.3962 22.0235 43.1866 22.8706 42.9769 23.9294C42.7673 24.9882 42.7673 25.8353 42.7673 26.6824C42.7673 27.5294 42.7673 28.1647 42.9769 28.8C43.1866 29.4353 43.3962 30.0706 43.8155 30.4941C44.6541 31.5529 45.7023 32.1882 47.1698 32.1882C48.6373 32.1882 49.8952 31.7647 51.153 31.1294C53.0398 29.8588 54.2977 28.5882 54.9266 26.6824L57.2327 19.2706C57.4423 18.6353 57.4423 18.2118 57.4423 17.5765C57.4423 16.9412 57.2327 16.3059 57.0231 15.8824C56.8134 15.2471 56.3941 14.8235 55.9748 14.4C54.9266 13.5529 53.8784 13.1294 52.8302 13.1294C51.782 13.1294 50.7338 13.3412 49.8952 13.7647C49.0566 14.1882 48.218 14.8235 47.5891 15.4588C46.9602 16.0941 46.1216 16.9412 45.7023 18C44.6541 18.8471 44.2348 19.9059 43.8155 20.9647Z" />
<path d="M57.652 31.3412C57.652 32.4 58.2809 32.8235 59.3291 32.8235C60.3774 32.8235 61.6352 32.4 62.6834 31.5529C63.7317 30.7059 64.7799 29.6471 65.6184 28.3765C67.5052 25.4118 68.3438 22.4471 68.3438 19.4824C68.3438 16.5176 67.9245 13.9765 67.086 12.0706C66.2474 10.1647 64.9895 8.47059 63.7317 7.2C61.0063 4.65882 57.4423 3.38824 53.0398 3.38824C49.8952 3.38824 46.5409 4.23529 43.3962 5.71765C38.3648 8.25883 35.0105 12.0706 33.3333 17.3647C32.7044 19.0588 32.4948 21.3882 32.4948 23.9294C32.4948 26.4706 32.914 29.0118 33.9623 31.5529C35.0105 33.8824 36.2683 36 37.9455 37.4824C41.2998 40.6588 45.7023 42.1412 50.9434 42.1412C53.4591 42.1412 55.9748 41.7177 58.4906 41.0824C58.7002 41.0824 59.1195 40.8706 59.5388 40.8706C59.9581 40.8706 60.1677 41.0824 60.587 41.2941C60.7966 41.5059 61.0063 41.9294 61.0063 42.3529C61.0063 43.2 60.587 43.6235 59.9581 43.8353C56.8134 44.8941 53.4591 45.3177 50.5241 45.3177C47.3795 45.3177 44.4444 44.8941 41.9287 43.8353C39.2034 42.7765 36.8973 41.2941 35.0105 39.3882C30.8176 35.1529 28.7212 29.6471 28.7212 22.8706C28.7212 18.4235 29.979 14.1882 32.4948 10.3765C34.5912 7.2 37.7359 4.65882 41.5094 2.75294C45.283 1.05882 49.0566 0 53.0398 0C58.4906 0 62.8931 1.48235 66.457 4.44706C70.4403 7.8353 72.327 12.7059 72.327 18.8471C72.327 21.8118 71.4885 24.7765 70.021 27.5294C68.5535 30.0706 66.6667 32.1882 64.5702 33.8824C62.4738 35.5765 60.3774 36.4235 58.2809 36.4235C56.6038 36.4235 55.1363 35.7882 54.0881 34.7294C53.6688 34.3059 53.4591 33.8824 53.2495 33.2471C52.4109 34.3059 51.153 34.9412 49.8952 35.5765C48.6373 36.2118 47.1698 36.4235 45.912 36.4235C43.3962 36.4235 41.2998 35.5765 39.8323 33.6706C38.3648 31.9765 37.5262 29.8588 37.5262 27.1059C37.5262 24.3529 38.1551 21.8118 39.413 18.8471C41.5094 14.4 44.2348 11.6471 48.0084 10.1647C49.2662 9.74118 50.5241 9.31765 51.5723 9.31765C52.6205 9.31765 53.4591 9.31765 54.0881 9.52941C54.717 9.74118 55.3459 9.95294 55.9748 10.1647C57.2327 11.0118 58.0713 11.8588 58.7002 13.1294L58.9099 12.2824C59.1195 11.8588 59.3291 11.4353 59.7484 11.2235C60.1677 11.0118 60.587 10.8 61.0063 10.8C61.4256 10.8 61.8449 11.0118 62.2642 11.2235C62.6834 11.4353 62.8931 11.8588 62.8931 12.2824C62.8931 12.7059 62.8931 12.9176 62.6834 13.3412L58.2809 27.9529C57.8616 29.4353 57.652 30.4941 57.652 31.3412ZM43.8155 20.9647C43.3962 22.0235 43.1866 22.8706 42.9769 23.9294C42.7673 24.9882 42.7673 25.8353 42.7673 26.6824C42.7673 27.5294 42.7673 28.1647 42.9769 28.8C43.1866 29.4353 43.3962 30.0706 43.8155 30.4941C44.6541 31.5529 45.7023 32.1882 47.1698 32.1882C48.6373 32.1882 49.8952 31.7647 51.153 31.1294C53.0398 29.8588 54.2977 28.5882 54.9266 26.6824L57.2327 19.2706C57.4423 18.6353 57.4423 18.2118 57.4423 17.5765C57.4423 16.9412 57.2327 16.3059 57.0231 15.8824C56.8134 15.2471 56.3941 14.8235 55.9748 14.4C54.9266 13.5529 53.8784 13.1294 52.8302 13.1294C51.782 13.1294 50.7338 13.3412 49.8952 13.7647C49.0566 14.1882 48.218 14.8235 47.5891 15.4588C46.9602 16.0941 46.1216 16.9412 45.7023 18C44.6541 18.8471 44.2348 19.9059 43.8155 20.9647Z" />
</svg>
