<svg width="500" height="500" viewBox="0 0 500 500" fill="none" xmlns="http://www.w3.org/2000/svg">
<circle cx="250" cy="250" r="250" fill="#141615" fill-opacity="0.2"/>
<circle cx="250" cy="244" r="200" fill="#141615" fill-opacity="0.4"/>
<path d="M399.843 250.5C399.843 333.343 332.686 400.5 249.843 400.5C167.001 400.5 99.8433 333.343 99.8433 250.5C99.8433 167.657 167.001 100.5 249.843 100.5C332.686 100.5 399.843 167.657 399.843 250.5Z" fill="#141615" fill-opacity="0.6"/>
<path fill-rule="evenodd" clip-rule="evenodd" d="M249.995 152.232C249.907 152.327 249.826 152.429 249.754 152.537C240.066 162.123 233.043 172.955 228.19 184.385C228.157 184.448 228.127 184.512 228.1 184.577C228.063 184.682 227.996 184.783 227.949 184.891C227.86 185.105 227.801 185.33 227.774 185.56C227.414 186.536 227.045 187.637 226.674 188.838C226.646 188.903 226.621 188.969 226.598 189.037C226.554 189.163 226.528 189.292 226.484 189.418C226.323 189.943 226.224 190.233 226.076 190.737C220.431 208.118 218.968 226.24 220.385 243.58C218.287 244.378 216.306 245.466 214.499 246.811C207.848 251.897 203.458 260.426 201.508 270.588C198.91 284.145 200.48 300.872 206.811 317.724C207.005 318.237 207.362 318.672 207.825 318.958C208.288 319.243 208.832 319.366 209.37 319.304C209.909 319.245 210.413 319.004 210.803 318.621C211.193 318.239 211.447 317.736 211.525 317.193C213.351 304.336 216.073 295.7 219.338 291.096C220.979 288.796 222.662 287.499 224.503 286.87C226.094 286.328 227.904 286.29 230.052 286.771C230.337 287.529 230.569 288.339 230.861 289.09C231.04 289.547 231.349 289.939 231.748 290.218C232.146 290.497 232.617 290.65 233.101 290.657L240.546 290.788C242.043 299.045 244.106 308.088 246.551 318.1C246.548 318.103 246.534 318.11 246.561 318.152C246.571 318.191 246.582 318.228 246.593 318.266C246.602 318.29 246.611 318.313 246.62 318.337C246.626 318.354 246.633 318.37 246.64 318.387C246.663 318.452 246.688 318.518 246.716 318.581C246.723 318.598 246.729 318.615 246.736 318.631C246.764 318.688 246.795 318.743 246.827 318.798C246.867 318.87 246.911 318.94 246.959 319.007C246.987 319.046 247.016 319.085 247.047 319.122C247.066 319.148 247.087 319.175 247.108 319.2C247.12 319.213 247.133 319.227 247.145 319.24C247.201 319.3 247.261 319.357 247.323 319.412C247.371 319.457 247.421 319.5 247.473 319.542C247.486 319.551 247.5 319.561 247.514 319.57C247.581 319.618 247.651 319.663 247.723 319.704C247.789 319.742 247.857 319.778 247.926 319.809C247.987 319.839 248.049 319.866 248.112 319.89C248.181 319.916 248.251 319.94 248.322 319.961C248.324 319.958 248.326 319.957 248.329 319.954C248.347 319.96 248.366 319.964 248.384 319.969C248.448 319.982 248.513 319.993 248.578 320C248.595 320.007 248.612 320.013 248.629 320.019C248.696 320.025 248.763 320.028 248.83 320.03C248.887 320.031 248.944 320.031 249 320.028C249.025 320.033 249.051 320.034 249.076 320.037C249.097 320.04 249.118 320.043 249.139 320.045C249.201 320.04 249.264 320.031 249.326 320.021C249.347 320.024 249.368 320.027 249.388 320.028C249.456 320.019 249.524 320.006 249.59 319.99C249.671 319.972 249.752 319.948 249.831 319.921C249.869 319.907 249.908 319.893 249.946 319.876C249.983 319.864 250.02 319.851 250.057 319.837C250.069 319.825 250.081 319.813 250.093 319.801C250.15 319.77 250.206 319.736 250.261 319.7C250.314 319.673 250.367 319.645 250.418 319.615C250.446 319.588 250.473 319.561 250.499 319.534C250.549 319.49 250.598 319.442 250.644 319.393C250.653 319.384 250.663 319.375 250.672 319.366C250.791 319.249 250.897 319.122 250.991 318.984C251.036 318.918 251.077 318.849 251.116 318.779C251.156 318.704 251.194 318.63 251.227 318.552C251.266 318.457 251.299 318.36 251.326 318.261C251.334 318.185 251.355 318.149 251.367 318.084C254.133 308.213 256.496 299.272 258.269 291.102L265.457 291.229C265.942 291.239 266.42 291.103 266.828 290.838C267.237 290.573 267.559 290.19 267.754 289.739C268.064 289.02 268.317 288.226 268.621 287.492C273.251 286.599 276.353 287.812 279.294 292.177C282.471 296.899 284.967 305.609 286.349 318.515C286.409 319.061 286.645 319.573 287.022 319.969C287.398 320.366 287.893 320.624 288.43 320.703C288.966 320.784 289.513 320.681 289.986 320.41C290.459 320.142 290.83 319.721 291.042 319.213C297.95 302.596 300.091 285.93 297.965 272.294C295.933 259.278 289.796 248.86 279.923 244.594C282.007 227.496 281.331 209.546 276.52 192.207C276.352 191.528 276.227 191.097 276.042 190.365C275.666 188.838 275.275 187.445 274.863 186.196C274.836 186.047 274.795 185.902 274.742 185.761C274.739 185.757 274.728 185.747 274.732 185.736C274.692 185.637 274.667 185.489 274.634 185.397C274.561 185.208 274.467 185.029 274.352 184.864C269.583 172.707 262.503 161.621 253.517 152.238C253.293 152.002 253.025 151.814 252.729 151.684C252.433 151.553 252.115 151.484 251.792 151.479C251.469 151.474 251.149 151.533 250.849 151.654C250.549 151.775 250.276 151.955 250.044 152.183C250.042 152.186 250.04 152.188 250.037 152.19C250.023 152.204 250.009 152.218 249.995 152.232ZM251.694 157.877C258.581 165.512 264.185 174.245 268.28 183.726L234.441 183.134C238.772 173.803 244.603 165.267 251.694 157.877ZM232.035 188.383L270.6 189.108C270.735 189.564 270.875 190.091 271.015 190.589C271.015 190.594 271.015 190.599 271.015 190.603C271.035 190.747 271.067 190.889 271.112 191.027C271.38 191.926 271.594 192.837 271.845 193.739C272.075 194.668 272.32 195.714 272.534 196.411C272.566 196.514 272.605 196.614 272.65 196.712C280.25 227.633 274.452 260.746 263.779 286.228L259.249 286.144C260.202 281.144 260.978 276.358 261.271 272.032C262.139 259.486 259.769 249.367 251.949 242.847C251.811 242.728 251.66 242.625 251.5 242.54L251.386 242.492C250.877 242.229 250.294 242.156 249.736 242.283L249.521 242.336C249.177 242.413 248.854 242.564 248.574 242.78L248.539 242.744C240.496 248.988 237.775 259.027 238.204 271.596C238.351 275.94 238.954 280.757 239.737 285.799L234.948 285.714C225.183 259.909 220.79 226.951 229.46 196.364C229.511 196.26 229.555 196.152 229.591 196.042C230.259 194.094 231.275 190.657 232.035 188.383ZM242.26 208.183C240.025 210.375 238.599 213.432 238.541 216.808C238.496 220.068 239.724 223.213 241.956 225.557C244.189 227.9 247.244 229.252 250.456 229.316C253.664 229.363 256.761 228.12 259.07 225.857C261.378 223.594 262.711 220.497 262.777 217.24C262.824 213.982 261.6 210.837 259.371 208.492C257.142 206.146 254.089 204.791 250.879 204.722C249.289 204.696 247.71 204.988 246.231 205.583C244.753 206.177 243.401 207.059 242.26 208.183ZM245.645 211.741C246.971 210.441 248.787 209.657 250.794 209.696C251.743 209.709 252.68 209.913 253.55 210.295C254.421 210.678 255.209 211.232 255.868 211.926C256.526 212.619 257.043 213.438 257.387 214.336C257.732 215.233 257.898 216.191 257.876 217.154C257.865 218.116 257.665 219.067 257.289 219.95C256.914 220.834 256.369 221.633 255.687 222.301C255.005 222.97 254.199 223.495 253.315 223.845C252.432 224.195 251.489 224.364 250.541 224.343C249.592 224.331 248.655 224.13 247.783 223.748C246.912 223.367 246.123 222.815 245.463 222.123C244.804 221.431 244.285 220.612 243.939 219.716C243.593 218.819 243.425 217.861 243.445 216.899C243.48 214.859 244.319 213.04 245.645 211.741ZM214.297 253.897C216.239 252.028 218.549 250.788 220.874 249.609C221.059 250.97 221.298 252.36 221.517 253.737L221.571 254.044C222.106 257.399 222.727 260.795 223.483 264.225C224.095 267.089 224.81 269.867 225.56 272.639L225.964 274.11C226.726 276.823 227.558 279.515 228.46 282.183C226.594 282.055 224.65 281.56 222.941 282.149C219.991 283.159 217.445 285.254 215.363 288.186C212.531 292.172 210.57 298.376 208.905 305.672C205.731 293.276 204.451 281.252 206.314 271.542C207.503 265.328 209.604 260.06 212.486 255.998C213.036 255.216 213.645 254.516 214.297 253.897ZM250.128 248.711C255.017 253.942 257.077 261.1 256.351 271.653C255.692 281.131 252.784 293.373 249.119 307.097C245.915 293.251 243.42 280.91 243.095 271.422C242.736 260.839 245.056 253.766 250.128 248.711ZM279.3 250.606C286.316 254.471 291.393 261.991 293.123 273.07C294.653 282.858 292.949 294.854 289.333 307.146C287.893 299.761 286.098 293.462 283.34 289.367C280.163 284.638 275.446 282.947 270.366 282.988C271.398 280.264 272.357 277.514 273.244 274.738L273.372 274.329C274.16 271.834 274.976 269.368 275.662 266.787C277.143 261.459 278.357 256.059 279.3 250.606ZM240.932 305.016L240.466 332.46L243.751 332.525L243.998 317.973C242.941 313.663 241.917 309.346 240.932 305.016ZM257.348 305.554C256.272 309.666 255.085 313.955 253.844 318.401L253.54 336.03L256.822 336.085L257.348 305.554ZM247.211 322.231L246.857 342.581L250.143 342.631L250.49 322.282C250.448 322.324 250.368 322.333 250.309 322.357C250.284 322.358 250.26 322.358 250.236 322.36L249.968 322.413L250.023 322.43C249.791 322.481 249.555 322.513 249.318 322.525C249.291 322.527 249.264 322.527 249.238 322.528C249.185 322.531 249.132 322.533 249.078 322.531C249.071 322.539 249.064 322.546 249.057 322.552C249.055 322.555 249.053 322.557 249.05 322.56C249.033 322.554 249.016 322.548 248.998 322.542C248.94 322.53 248.911 322.557 248.853 322.546C248.832 322.543 248.811 322.54 248.79 322.537C248.728 322.53 248.683 322.546 248.621 322.537C248.513 322.531 248.406 322.521 248.299 322.507C248.283 322.5 248.267 322.493 248.251 322.485C248.109 322.466 247.981 322.425 247.843 322.394C247.659 322.37 247.478 322.324 247.305 322.258C247.26 322.233 247.239 322.239 247.211 322.231ZM240.408 335.801L240.344 339.13L243.633 339.191L243.683 335.857L240.408 335.801ZM246.796 345.91L246.743 349.242L250.021 349.3L250.082 345.969L246.796 345.91ZM253.475 339.364L253.425 342.693L256.7 342.754L256.764 339.419L253.475 339.364Z" fill="white" fill-opacity="0.3"/>
</svg>
