<svg width="500" height="500" viewBox="0 0 500 500" fill="none" xmlns="http://www.w3.org/2000/svg">
<circle cx="250" cy="250" r="250" fill="#141615" fill-opacity="0.2"/>
<circle cx="250" cy="244" r="200" fill="#141615" fill-opacity="0.4"/>
<path d="M399.843 250.5C399.843 333.343 332.686 400.5 249.843 400.5C167.001 400.5 99.8433 333.343 99.8433 250.5C99.8433 167.657 167.001 100.5 249.843 100.5C332.686 100.5 399.843 167.657 399.843 250.5Z" fill="#141615" fill-opacity="0.6"/>
<g clip-path="url(#clip0_75_173)">
<path d="M350 229.624V310.941C350 321.529 341.614 330 331.132 330H168.449C158.386 330 150 321.529 150 310.941V229.624L240.985 283.412C243.501 285.106 246.855 285.953 249.79 285.953C253.145 285.953 256.08 285.106 259.015 283.412L350 229.624Z" fill="white" fill-opacity="0.3"/>
<path d="M349.161 220.306L254.822 275.788C251.887 277.482 248.113 277.482 245.178 275.788L150.419 220.306C152.516 212.259 159.644 205.906 168.449 205.906H199.476C201.153 217.341 206.184 226.659 213.732 234.282C218.344 238.941 224.214 242.753 230.503 244.871C236.792 247.412 243.501 248.259 250.629 248.259C257.757 248.259 264.885 246.988 272.013 244.871C277.044 243.6 279.979 238.941 279.979 233.859C279.979 231.741 279.14 229.624 278.302 227.506C280.398 226.659 282.495 225.388 284.591 223.694C289.623 219.882 294.235 214.376 297.17 208.447C297.589 207.6 298.008 206.329 298.428 205.482H331.132C339.937 205.906 347.065 212.259 349.161 220.306Z" fill="white" fill-opacity="0.3"/>
<path d="M265.304 212.682C265.304 214.8 266.562 215.647 268.658 215.647C270.755 215.647 273.27 214.8 275.367 213.106C277.463 211.412 279.56 209.294 281.237 206.753C285.01 200.824 286.688 194.894 286.688 188.965C286.688 183.035 285.849 177.953 284.172 174.141C282.495 170.329 279.979 166.941 277.463 164.4C272.013 159.318 264.885 156.776 256.08 156.776C249.79 156.776 243.082 158.471 236.792 161.435C226.73 166.518 220.021 174.141 216.667 184.729C215.409 188.118 214.99 192.776 214.99 197.859C214.99 202.941 215.828 208.024 217.925 213.106C220.021 217.765 222.537 222 225.891 224.965C232.6 231.318 241.405 234.282 251.887 234.282C256.918 234.282 261.95 233.435 266.981 232.165C267.4 232.165 268.239 231.741 269.078 231.741C269.916 231.741 270.335 232.165 271.174 232.588C271.593 233.012 272.013 233.859 272.013 234.706C272.013 236.4 271.174 237.247 269.916 237.671C263.627 239.788 256.918 240.635 251.048 240.635C244.759 240.635 238.889 239.788 233.857 237.671C228.407 235.553 223.795 232.588 220.021 228.776C211.635 220.306 207.442 209.294 207.442 195.741C207.442 186.847 209.958 178.376 214.99 170.753C219.182 164.4 225.472 159.318 233.019 155.506C240.566 152.118 248.113 150 256.08 150C266.981 150 275.786 152.965 282.914 158.894C290.881 165.671 294.654 175.412 294.654 187.694C294.654 193.624 292.977 199.553 290.042 205.059C287.107 210.141 283.333 214.376 279.14 217.765C274.948 221.153 270.755 222.847 266.562 222.847C263.208 222.847 260.273 221.576 258.176 219.459C257.338 218.612 256.918 217.765 256.499 216.494C254.822 218.612 252.306 219.882 249.79 221.153C247.275 222.424 244.34 222.847 241.824 222.847C236.792 222.847 232.6 221.153 229.665 217.341C226.73 213.953 225.052 209.718 225.052 204.212C225.052 198.706 226.31 193.624 228.826 187.694C233.019 178.8 238.47 173.294 246.017 170.329C248.532 169.482 251.048 168.635 253.145 168.635C255.241 168.635 256.918 168.635 258.176 169.059C259.434 169.482 260.692 169.906 261.95 170.329C264.465 172.024 266.143 173.718 267.4 176.259L267.82 174.565C268.239 173.718 268.658 172.871 269.497 172.447C270.335 172.024 271.174 171.6 272.013 171.6C272.851 171.6 273.69 172.024 274.528 172.447C275.367 172.871 275.786 173.718 275.786 174.565C275.786 175.412 275.786 175.835 275.367 176.682L266.562 205.906C265.723 208.871 265.304 210.988 265.304 212.682ZM237.631 191.929C236.792 194.047 236.373 195.741 235.954 197.859C235.535 199.976 235.535 201.671 235.535 203.365C235.535 205.059 235.535 206.329 235.954 207.6C236.373 208.871 236.792 210.141 237.631 210.988C239.308 213.106 241.405 214.376 244.34 214.376C247.275 214.376 249.79 213.529 252.306 212.259C256.08 209.718 258.595 207.176 259.853 203.365L264.465 188.541C264.885 187.271 264.885 186.424 264.885 185.153C264.885 183.882 264.465 182.612 264.046 181.765C263.627 180.494 262.788 179.647 261.95 178.8C259.853 177.106 257.757 176.259 255.66 176.259C253.564 176.259 251.468 176.682 249.79 177.529C248.113 178.376 246.436 179.647 245.178 180.918C243.92 182.188 242.243 183.882 241.405 186C239.308 187.694 238.47 189.812 237.631 191.929Z" fill="white" fill-opacity="0.3"/>
<path d="M265.304 212.682C265.304 214.8 266.562 215.647 268.658 215.647C270.755 215.647 273.27 214.8 275.367 213.106C277.463 211.412 279.56 209.294 281.237 206.753C285.01 200.824 286.688 194.894 286.688 188.965C286.688 183.035 285.849 177.953 284.172 174.141C282.495 170.329 279.979 166.941 277.463 164.4C272.013 159.318 264.885 156.776 256.08 156.776C249.79 156.776 243.082 158.471 236.792 161.435C226.73 166.518 220.021 174.141 216.667 184.729C215.409 188.118 214.99 192.776 214.99 197.859C214.99 202.941 215.828 208.024 217.925 213.106C220.021 217.765 222.537 222 225.891 224.965C232.6 231.318 241.405 234.282 251.887 234.282C256.918 234.282 261.95 233.435 266.981 232.165C267.4 232.165 268.239 231.741 269.078 231.741C269.916 231.741 270.335 232.165 271.174 232.588C271.593 233.012 272.013 233.859 272.013 234.706C272.013 236.4 271.174 237.247 269.916 237.671C263.627 239.788 256.918 240.635 251.048 240.635C244.759 240.635 238.889 239.788 233.857 237.671C228.407 235.553 223.795 232.588 220.021 228.776C211.635 220.306 207.442 209.294 207.442 195.741C207.442 186.847 209.958 178.376 214.99 170.753C219.182 164.4 225.472 159.318 233.019 155.506C240.566 152.118 248.113 150 256.08 150C266.981 150 275.786 152.965 282.914 158.894C290.881 165.671 294.654 175.412 294.654 187.694C294.654 193.624 292.977 199.553 290.042 205.059C287.107 210.141 283.333 214.376 279.14 217.765C274.948 221.153 270.755 222.847 266.562 222.847C263.208 222.847 260.273 221.576 258.176 219.459C257.338 218.612 256.918 217.765 256.499 216.494C254.822 218.612 252.306 219.882 249.79 221.153C247.275 222.424 244.34 222.847 241.824 222.847C236.792 222.847 232.6 221.153 229.665 217.341C226.73 213.953 225.052 209.718 225.052 204.212C225.052 198.706 226.31 193.624 228.826 187.694C233.019 178.8 238.47 173.294 246.017 170.329C248.532 169.482 251.048 168.635 253.145 168.635C255.241 168.635 256.918 168.635 258.176 169.059C259.434 169.482 260.692 169.906 261.95 170.329C264.465 172.024 266.143 173.718 267.4 176.259L267.82 174.565C268.239 173.718 268.658 172.871 269.497 172.447C270.335 172.024 271.174 171.6 272.013 171.6C272.851 171.6 273.69 172.024 274.528 172.447C275.367 172.871 275.786 173.718 275.786 174.565C275.786 175.412 275.786 175.835 275.367 176.682L266.562 205.906C265.723 208.871 265.304 210.988 265.304 212.682ZM237.631 191.929C236.792 194.047 236.373 195.741 235.954 197.859C235.535 199.976 235.535 201.671 235.535 203.365C235.535 205.059 235.535 206.329 235.954 207.6C236.373 208.871 236.792 210.141 237.631 210.988C239.308 213.106 241.405 214.376 244.34 214.376C247.275 214.376 249.79 213.529 252.306 212.259C256.08 209.718 258.595 207.176 259.853 203.365L264.465 188.541C264.885 187.271 264.885 186.424 264.885 185.153C264.885 183.882 264.465 182.612 264.046 181.765C263.627 180.494 262.788 179.647 261.95 178.8C259.853 177.106 257.757 176.259 255.66 176.259C253.564 176.259 251.468 176.682 249.79 177.529C248.113 178.376 246.436 179.647 245.178 180.918C243.92 182.188 242.243 183.882 241.405 186C239.308 187.694 238.47 189.812 237.631 191.929Z" fill="white" fill-opacity="0.3"/>
</g>
<defs>
<clipPath id="clip0_75_173">
<rect width="200" height="180" fill="white" transform="translate(150 150)"/>
</clipPath>
</defs>
</svg>
