<svg width="100" height="80" viewBox="0 0 100 80"  xmlns="http://www.w3.org/2000/svg">
<path d="M100 9.58454C96.2417 11.1868 92.2671 12.2461 88.2 12.7293C92.4909 10.2101 95.7064 6.24711 97.25 1.57531C93.2178 3.93417 88.8038 5.59613 84.2 6.48895C81.1227 3.20945 77.0248 1.02644 72.549 0.282297C68.0733 -0.461848 63.4727 0.274961 59.469 2.37717C55.4652 4.47937 52.2847 7.82807 50.4262 11.8981C48.5677 15.968 48.1365 20.5291 49.2 24.8659C41.0471 24.4607 33.0722 22.3745 25.7933 18.7429C18.5143 15.1112 12.0942 10.0154 6.95 3.78645C5.14569 6.88287 4.1976 10.3895 4.2 13.9577C4.1936 17.2713 5.02109 20.5351 6.60878 23.4585C8.19647 26.3819 10.4951 28.874 13.3 30.7132C10.0399 30.626 6.84943 29.7663 4 28.2072V28.4529C4.02443 33.0957 5.67997 37.5878 8.68657 41.1692C11.6932 44.7506 15.8663 47.2016 20.5 48.1074C18.7163 48.6409 16.8644 48.9222 15 48.9428C13.7095 48.9279 12.4221 48.8129 11.15 48.5988C12.4695 52.5927 15.0231 56.083 18.4554 58.5841C21.8876 61.0852 26.0279 62.4727 30.3 62.5535C23.086 68.1318 14.1794 71.1762 5 71.2015C3.32868 71.2069 1.65868 71.1084 0 70.9067C9.37214 76.8535 20.2941 80.0103 31.45 79.9969C39.1485 80.0755 46.7857 78.6458 53.9156 75.7913C61.0455 72.9367 67.5251 68.7147 72.976 63.3716C78.4269 58.0286 82.7398 51.6717 85.6628 44.6723C88.5858 37.6729 90.0602 30.1713 90 22.6057C90 21.7704 90 20.8859 90 20.0014C93.9235 17.126 97.3074 13.6011 100 9.58454Z" />
</svg>
