<svg viewBox="0 0 100 100" fill="none" xmlns="http://www.w3.org/2000/svg">
<path d="M50 0C40.1109 0 30.444 2.93245 22.2215 8.42652C13.999 13.9206 7.59042 21.7295 3.80604 30.8658C0.0216639 40.0021 -0.968502 50.0555 0.960758 59.7545C2.89002 69.4535 7.65206 78.3627 14.6447 85.3553C21.6373 92.3479 30.5464 97.11 40.2455 99.0392C49.9445 100.969 59.9979 99.9783 69.1342 96.194C78.2705 92.4096 86.0794 86.0009 91.5735 77.7785C97.0675 69.556 100 59.8891 100 50C99.9866 36.7433 94.7145 24.0333 85.3406 14.6594C75.9667 5.28548 63.2567 0.0133535 50 0ZM69.525 53.1526H53.1526V69.525C53.1526 70.3611 52.8204 71.163 52.2292 71.7542C51.638 72.3454 50.8361 72.6776 50 72.6776C49.1639 72.6776 48.362 72.3454 47.7708 71.7542C47.1796 71.163 46.8474 70.3611 46.8474 69.525V53.1526H30.475C29.6389 53.1526 28.837 52.8204 28.2458 52.2292C27.6546 51.638 27.3224 50.8361 27.3224 50C27.3224 49.1639 27.6546 48.362 28.2458 47.7708C28.837 47.1796 29.6389 46.8474 30.475 46.8474H46.8474V30.475C46.8474 29.6389 47.1796 28.837 47.7708 28.2458C48.362 27.6545 49.1639 27.3224 50 27.3224C50.8361 27.3224 51.638 27.6545 52.2292 28.2458C52.8204 28.837 53.1526 29.6389 53.1526 30.475V46.8474H69.525C70.3611 46.8474 71.163 47.1796 71.7542 47.7708C72.3454 48.362 72.6776 49.1639 72.6776 50C72.6776 50.8361 72.3454 51.638 71.7542 52.2292C71.163 52.8204 70.3611 53.1526 69.525 53.1526V53.1526Z" />
</svg>
