<svg width="102" height="102" viewBox="0 0 102 102"  xmlns="http://www.w3.org/2000/svg">
<path d="M25.2853 1C18.8469 1.00815 12.6746 3.55954 8.12202 8.09461C3.56942 12.6297 1.00818 18.7782 1 25.1918V69.1727C1.00818 75.5863 3.56942 81.7348 8.12202 86.2699C12.6746 90.805 18.8469 93.3564 25.2853 93.3645H57.7609C56.5955 90.9311 55.8062 88.336 55.4197 85.6675H25.2853C22.5191 85.6675 19.9383 84.9286 17.6435 83.7278C19.0047 79.5413 21.2538 75.6953 24.2384 72.4508C27.223 69.2063 30.8731 66.6392 34.9413 64.9236C39.0094 63.208 43.4003 62.3841 47.8163 62.5076C52.2322 62.6312 56.5698 63.6994 60.5348 65.6398C63.0317 62.2915 66.2785 59.5697 70.0169 57.691C73.7553 55.8123 77.8822 54.8285 82.0694 54.8177C86.2573 54.8177 90.1825 55.8568 93.7214 57.5425V25.1918C93.7132 18.7782 91.1519 12.6297 86.5993 8.09461C82.0467 3.55954 75.8744 1.00815 69.4361 1H25.2853ZM47.237 23.8833C50.2347 23.8848 53.1647 24.7716 55.6566 26.4316C58.1484 28.0916 60.0903 30.4502 61.2368 33.2093C62.3832 35.9685 62.6828 39.0043 62.0976 41.933C61.5124 44.8617 60.0687 47.5518 57.949 49.6634C55.8293 51.7749 53.1288 53.213 50.1888 53.796C47.2488 54.3789 44.2012 54.0805 41.4314 52.9384C38.6616 51.7964 36.2939 49.862 34.6275 47.3797C32.9611 44.8974 32.0709 41.9788 32.0694 38.9926C32.0694 30.6644 38.8767 23.8833 47.237 23.8833ZM82.0694 62.5225C79.4877 62.4497 76.9176 62.8934 74.511 63.8273C72.1045 64.7612 69.9104 66.1664 68.0584 67.9597C66.2065 69.7531 64.7345 71.8981 63.7292 74.268C62.724 76.6379 62.2061 79.1846 62.2061 81.7574C62.2061 84.3302 62.724 86.8768 63.7292 89.2467C64.7345 91.6167 66.2065 93.7617 68.0584 95.555C69.9104 97.3483 72.1045 98.7535 74.511 99.6874C76.9176 100.621 79.4877 101.065 82.0694 100.992C87.1246 100.892 91.9387 98.8204 95.4781 95.2234C99.0175 91.6264 101 86.7903 101 81.7535C101 76.7167 99.0175 71.8807 95.4781 68.2837C91.9387 64.6867 87.1246 62.6155 82.0694 62.5148V62.5225ZM78.0514 70.2195H85.7782V77.8935H93.4973V85.5905H85.7859V93.2568H78.0592V85.5905H70.3633V77.8935H78.0592V70.2118L78.0514 70.2195Z" />
</svg>
