<svg width="100" height="100" viewBox="0 0 100 100" fill="none" xmlns="http://www.w3.org/2000/svg">
<path d="M98.4 39.8189V59.9679H82.54L82.5 60.0477C79.6493 56.9482 76.0811 55.2556 72.4 55.2567C71.5966 55.255 70.7942 55.3351 70 55.4963C69.9395 53.6711 69.587 51.8841 68.9662 50.2547C68.3454 48.6253 67.4705 47.1909 66.4 46.0472V46.0472V39.8189C66.4 37.0986 67.2106 34.4894 68.6541 32.5634C70.0975 30.6374 72.056 29.5518 74.1 29.5448C75.0571 31.2775 76.3071 32.6864 77.7489 33.6574C79.1908 34.6284 80.7841 35.1343 82.4 35.1343C84.0159 35.1343 85.6092 34.6284 87.0511 33.6574C88.4929 32.6864 89.7429 31.2775 90.7 29.5448C92.744 29.5518 94.7025 30.6374 96.1459 32.5634C97.5894 34.4894 98.4 37.0986 98.4 39.8189V39.8189Z" fill="white"/>
<path d="M82.4 24.94C87.1386 24.94 90.98 19.8277 90.98 13.5214C90.98 7.21504 87.1386 2.10273 82.4 2.10273C77.6614 2.10273 73.82 7.21504 73.82 13.5214C73.82 19.8277 77.6614 24.94 82.4 24.94Z" fill="#F5F5F5"/>
<path d="M56.8 81.2614C56.0666 76.9573 56.3564 72.4562 57.6293 68.3808C58.9022 64.3054 61.0952 60.8572 63.9051 58.5132C66.7149 56.1691 70.0027 55.0451 73.3136 55.2966C76.6245 55.5481 79.7948 57.1628 82.386 59.9171C84.9772 62.6715 86.8611 66.4294 87.7773 70.6711C88.6934 74.9128 88.5965 79.4285 87.4998 83.5936C86.4031 87.7587 84.361 91.3674 81.6558 93.9203C78.9507 96.4732 75.7163 97.8443 72.4 97.8437C71.7315 97.8444 71.0636 97.7911 70.4 97.684C67.1403 97.1366 64.0863 95.2666 61.653 92.3284C59.2198 89.3902 57.5254 85.5261 56.8 81.2614V81.2614Z" fill="black"/>
<path d="M66.4 46.0739C67.4706 47.2173 68.3456 48.6517 68.9664 50.2812C69.5872 51.9107 69.9396 53.6977 70 55.5229C67.8253 55.9596 65.7417 56.9889 63.8796 58.5464C62.0174 60.1038 60.4168 62.1559 59.1778 64.5743C57.9389 66.9926 57.0882 69.7252 56.6791 72.6011C56.2699 75.477 56.3111 78.4343 56.8 81.288H30V56.1084C29.9983 54.423 30.2465 52.7537 30.7303 51.1962C31.2142 49.6386 31.9242 48.2234 32.8197 47.0316C33.7152 45.8399 34.7786 44.895 35.9489 44.251C37.1193 43.6071 38.3736 43.2768 39.64 43.2791C40.8351 45.4411 42.3955 47.1987 44.1951 48.4101C45.9948 49.6215 47.9833 50.2527 50 50.2527C52.0168 50.2527 54.0052 49.6215 55.8049 48.4101C57.6045 47.1987 59.1649 45.4411 60.36 43.2791C62.5579 43.2341 64.6971 44.224 66.4 46.0739Z" fill="#A38768"/>
<path d="M50 37.4766C55.9205 37.4766 60.72 31.0892 60.72 23.2099C60.72 15.3307 55.9205 8.94328 50 8.94328C44.0795 8.94328 39.28 15.3307 39.28 23.2099C39.28 31.0892 44.0795 37.4766 50 37.4766Z" fill="white"/>
<path d="M33.6 39.8189V46.0739C32.4735 47.2749 31.5649 48.7983 30.9416 50.5309C30.3183 52.2636 29.9965 54.1609 30 56.0818V59.9679H1.60001V39.8189C1.6 37.0986 2.41061 34.4894 3.85407 32.5634C5.29752 30.6374 7.256 29.5518 9.30001 29.5448C10.2565 31.2783 11.5064 32.6877 12.9484 33.6588C14.3904 34.6299 15.9839 35.1354 17.6 35.1343C19.2144 35.144 20.8074 34.6422 22.2472 33.6702C23.687 32.6983 24.9322 31.2841 25.88 29.5448C27.9271 29.5464 29.89 30.6294 31.3375 32.5558C32.785 34.4822 33.5988 37.0945 33.6 39.8189V39.8189Z" fill="#F1F1F1"/>
<path d="M17.6 24.94C22.3386 24.94 26.18 19.8277 26.18 13.5214C26.18 7.21504 22.3386 2.10273 17.6 2.10273C12.8614 2.10273 9.01999 7.21504 9.01999 13.5214C9.01999 19.8277 12.8614 24.94 17.6 24.94Z" fill="white"/>
<path d="M50 39.606C52.4367 39.606 54.8186 38.6443 56.8446 36.8427C58.8706 35.0411 60.4497 32.4804 61.3822 29.4844C62.3147 26.4884 62.5586 23.1918 62.0833 20.0112C61.6079 16.8307 60.4345 13.9092 58.7116 11.6162C56.9886 9.32319 54.7934 7.76162 52.4035 7.12897C50.0137 6.49633 47.5365 6.82102 45.2853 8.062C43.0342 9.30298 41.11 11.4045 39.7563 14.1008C38.4026 16.7971 37.68 19.9671 37.68 23.2099C37.6848 27.5565 38.9844 31.7231 41.2938 34.7966C43.6032 37.8701 46.734 39.5996 50 39.606V39.606ZM50 11.0992C51.8018 11.1019 53.5625 11.8155 55.0596 13.1499C56.5566 14.4843 57.7227 16.3795 58.4104 18.5959C59.098 20.8123 59.2764 23.2503 58.923 25.6016C58.5695 27.9529 57.7001 30.1119 56.4247 31.8056C55.1492 33.4993 53.525 34.6517 51.7575 35.1169C49.9899 35.5821 48.1584 35.3393 46.4945 34.4193C44.8306 33.4992 43.4091 31.9432 42.4098 29.9479C41.4104 27.9527 40.878 25.6078 40.88 23.2099C40.8876 19.9965 41.8516 16.918 43.5608 14.6482C45.2701 12.3784 47.5854 11.1023 50 11.0992ZM82.4 27.0694C84.4106 27.0668 86.3755 26.2711 88.0464 24.7828C89.7173 23.2946 91.0193 21.1807 91.7878 18.7081C92.5563 16.2355 92.7568 13.5152 92.3641 10.8909C91.9714 8.26672 91.003 5.85629 89.5813 3.96423C88.1596 2.07217 86.3484 0.783385 84.3765 0.260721C82.4047 -0.261942 80.3606 0.00496876 78.5027 1.02773C76.6448 2.05049 75.0564 3.7832 73.9381 6.00693C72.8199 8.23066 72.222 10.8456 72.22 13.5214C72.2242 17.1128 73.298 20.5556 75.2063 23.0951C77.1145 25.6347 79.7014 27.0638 82.4 27.0694V27.0694ZM82.4 4.2587C83.7805 4.2587 85.13 4.80351 86.2779 5.82423C87.4257 6.84496 88.3204 8.29574 88.8487 9.99314C89.377 11.6905 89.5152 13.5583 89.2459 15.3603C88.9765 17.1622 88.3118 18.8174 87.3356 20.1165C86.3594 21.4157 85.1157 22.3004 83.7617 22.6588C82.4077 23.0172 81.0043 22.8333 79.7289 22.1302C78.4534 21.4271 77.3633 20.2365 76.5963 18.7089C75.8294 17.1812 75.42 15.3853 75.42 13.548C75.4217 11.085 76.1576 8.72356 77.4663 6.98197C78.7749 5.24037 80.5493 4.26096 82.4 4.2587Z" fill="#ECB365"/>
<path d="M90.7 27.4154H89.88L89.4 28.2938C88.5924 29.7544 87.5381 30.9418 86.3221 31.7601C85.1061 32.5785 83.7626 33.0049 82.4 33.0049C81.0374 33.0049 79.6939 32.5785 78.4779 31.7601C77.2619 30.9418 76.2076 29.7544 75.4 28.2938L74.92 27.4154H74.1C71.631 27.4197 69.2644 28.7287 67.5204 31.0547C65.7764 33.3806 64.7979 36.533 64.8 39.8189V42.3209C63.3978 41.5157 61.8871 41.0991 60.36 41.0965H59.54L59.06 41.9749C58.014 43.8724 56.6468 45.4154 55.0694 46.4789C53.4919 47.5425 51.7484 48.0967 49.98 48.0967C48.2116 48.0967 46.4681 47.5425 44.8906 46.4789C43.3132 45.4154 41.946 43.8724 40.9 41.9749L40.42 41.0965H39.6C38.0729 41.0991 36.5622 41.5157 35.16 42.3209V39.8189C35.1586 36.5344 34.179 33.3847 32.4358 31.0597C30.6926 28.7348 28.3279 27.4243 25.86 27.4154H25.04L24.56 28.2938C23.7524 29.7544 22.6981 30.9418 21.4821 31.7601C20.2661 32.5785 18.9226 33.0049 17.56 33.0049C16.1974 33.0049 14.8539 32.5785 13.6379 31.7601C12.4219 30.9418 11.3676 29.7544 10.56 28.2938L10.08 27.4154H9.26C6.79833 27.4354 4.44265 28.7511 2.70759 31.0752C0.972524 33.3992 -0.00089065 36.5427 6.11492e-07 39.8189V62.0972H28.4V83.3908H55.56C56.553 87.7135 58.4627 91.5628 61.0597 94.4761C63.6568 97.3893 66.8306 99.2427 70.2 99.8134C70.9293 99.9425 71.6643 100.005 72.4 99.9997C75.7024 99.9984 78.938 98.7609 81.7371 96.4287C84.5362 94.0964 86.7859 90.7634 88.2294 86.8104C89.6728 82.8575 90.2517 78.4439 89.8999 74.0738C89.5481 69.7038 88.2799 65.5536 86.24 62.0972H100V39.8189C99.9986 36.5344 99.019 33.3847 97.2758 31.0597C95.5326 28.7348 93.1679 27.4243 90.7 27.4154V27.4154ZM3.2 57.8385V39.8189C3.2058 37.8308 3.75491 35.9135 4.74486 34.4246C5.7348 32.9357 7.09797 31.977 8.58 31.7273C9.69329 33.4632 11.0762 34.8571 12.6335 35.813C14.1907 36.7688 15.8851 37.2637 17.6 37.2637C19.3149 37.2637 21.0093 36.7688 22.5665 35.813C24.1238 34.8571 25.5067 33.4632 26.62 31.7273C28.1033 31.9729 29.4683 32.9304 30.4589 34.4202C31.4494 35.91 31.9974 37.8296 32 39.8189V45.1157C30.8608 46.5108 29.9524 48.2064 29.3327 50.0944C28.7129 51.9824 28.3952 54.0215 28.4 56.0818V57.8385H3.2ZM31.6 56.0552C31.601 53.3934 32.3474 50.8277 33.6936 48.859C35.0397 46.8903 36.8889 45.6601 38.88 45.4084C40.2399 47.5749 41.9407 49.3175 43.8621 50.5133C45.7836 51.7091 47.8788 52.3289 50 52.3289C52.1212 52.3289 54.2164 51.7091 56.1379 50.5133C58.0593 49.3175 59.7601 47.5749 61.12 45.4084C62.6887 45.5929 64.1796 46.3996 65.4 47.7241L66.4 46.0739L65.4 47.7241C66.8343 49.2577 67.8298 51.3999 68.22 53.7928C64.3936 55.044 60.9926 57.9654 58.5601 62.0905C56.1275 66.2156 54.8037 71.3065 54.8 76.5502C54.8 77.402 54.84 78.2537 54.9 79.1054H31.6V56.0552ZM72.4 95.7144C71.798 95.7142 71.1967 95.6609 70.6 95.5547C67.6669 95.0629 64.9187 93.3813 62.7289 90.7383C60.539 88.0954 59.0136 84.6193 58.36 80.7823C58.1197 79.3944 57.9989 77.9745 58 76.5502C58 67.1544 63.26 59.0097 70.22 57.599C70.9421 57.4609 71.6705 57.3898 72.4 57.386C75.7068 57.3833 78.9133 58.8966 81.48 61.6714V61.6714C83.7888 64.168 85.4599 67.5549 86.264 71.3666C87.068 75.1783 86.9654 79.2278 85.9703 82.9588C84.9751 86.6898 83.1363 89.9191 80.7064 92.2031C78.2765 94.4871 75.3748 95.7137 72.4 95.7144V95.7144ZM96.8 57.8385H82.98C79.9263 54.7966 76.2144 53.153 72.4 53.154C72.06 53.154 71.72 53.1806 71.38 53.2072C70.9141 50.1073 69.7325 47.2784 68 45.1157V39.8189C68.0058 37.8308 68.5549 35.9135 69.5449 34.4246C70.5348 32.9357 71.898 31.977 73.38 31.7273C74.4933 33.4632 75.8762 34.8571 77.4335 35.813C78.9907 36.7688 80.6851 37.2637 82.4 37.2637C84.1149 37.2637 85.8093 36.7688 87.3665 35.813C88.9238 34.8571 90.3067 33.4632 91.42 31.7273C92.9033 31.9729 94.2683 32.9304 95.2589 34.4202C96.2494 35.91 96.7974 37.8296 96.8 39.8189V57.8385ZM17.6 27.0694C19.6106 27.0668 21.5755 26.2711 23.2464 24.7828C24.9173 23.2946 26.2193 21.1807 26.9878 18.7081C27.7563 16.2355 27.9568 13.5152 27.5641 10.8909C27.1714 8.26672 26.203 5.85629 24.7813 3.96423C23.3596 2.07217 21.5484 0.783384 19.5765 0.260721C17.6047 -0.261942 15.5606 0.00496876 13.7027 1.02773C11.8448 2.05049 10.2564 3.7832 9.13812 6.00693C8.01987 8.23065 7.42198 10.8456 7.42 13.5214C7.42418 17.1128 8.49805 20.5556 10.4063 23.0951C12.3145 25.6347 14.9014 27.0638 17.6 27.0694V27.0694ZM17.6 4.2587C18.9814 4.25871 20.3317 4.8042 21.48 5.8261C22.6282 6.848 23.5229 8.30037 24.0506 9.99932C24.5783 11.6983 24.7153 13.5674 24.4444 15.3701C24.1734 17.1727 23.5067 18.8279 22.5285 20.1259C21.5503 21.424 20.3047 22.3066 18.9494 22.662C17.5941 23.0175 16.1901 22.8297 14.915 22.1225C13.6399 21.4154 12.5512 20.2206 11.7866 18.6895C11.022 17.1584 10.616 15.3598 10.62 13.5214C10.627 11.063 11.3652 8.70839 12.6733 6.97254C13.9814 5.2367 15.7528 4.26094 17.6 4.2587V4.2587Z" fill="#ECB365"/>
<path d="M79.4 74.4741H74V67.2077C74 66.6429 73.8314 66.1013 73.5314 65.702C73.2313 65.3027 72.8243 65.0783 72.4 65.0783C71.9757 65.0783 71.5687 65.3027 71.2686 65.702C70.9686 66.1013 70.8 66.6429 70.8 67.2077V74.4741H65.4C64.9757 74.4741 64.5687 74.6984 64.2686 75.0978C63.9686 75.4971 63.8 76.0387 63.8 76.6034C63.8 77.1682 63.9686 77.7098 64.2686 78.1091C64.5687 78.5085 64.9757 78.7328 65.4 78.7328H70.8V85.9726C70.8 86.5373 70.9686 87.0789 71.2686 87.4783C71.5687 87.8776 71.9757 88.102 72.4 88.102C72.8243 88.102 73.2313 87.8776 73.5314 87.4783C73.8314 87.0789 74 86.5373 74 85.9726V78.7328H79.4C79.8243 78.7328 80.2313 78.5085 80.5314 78.1091C80.8314 77.7098 81 77.1682 81 76.6034C81 76.0387 80.8314 75.4971 80.5314 75.0978C80.2313 74.6984 79.8243 74.4741 79.4 74.4741Z" fill="white"/>
</svg>
