<svg width="102" height="102" viewBox="0 0 102 102"  xmlns="http://www.w3.org/2000/svg">
<path d="M51 1C41.111 1 31.444 3.93245 23.2215 9.42652C14.999 14.9206 8.59043 22.7295 4.80605 31.8658C1.02166 41.0021 0.0314976 51.0555 1.96076 60.7545C3.89002 70.4535 8.65206 79.3627 15.6447 86.3553C22.6373 93.3479 31.5465 98.11 41.2455 100.039C50.9445 101.969 60.9979 100.978 70.1342 97.194C79.2705 93.4096 87.0794 87.0009 92.5735 78.7785C98.0675 70.556 101 60.889 101 51C101 44.4339 99.7067 37.9321 97.194 31.8658C94.6812 25.7995 90.9983 20.2876 86.3553 15.6447C81.7124 11.0017 76.2005 7.31876 70.1342 4.80602C64.0679 2.29329 57.5661 1 51 1V1ZM51 91C43.0888 91 35.3552 88.654 28.7772 84.2588C22.1992 79.8635 17.0723 73.6164 14.0448 66.3073C11.0173 58.9983 10.2252 50.9556 11.7686 43.1964C13.312 35.4371 17.1216 28.3098 22.7157 22.7157C28.3098 17.1216 35.4372 13.312 43.1964 11.7686C50.9556 10.2252 58.9983 11.0173 66.3073 14.0448C73.6164 17.0723 79.8635 22.1992 84.2588 28.7772C88.654 35.3551 91 43.0887 91 51C91 61.6086 86.7857 71.7828 79.2843 79.2843C71.7828 86.7857 61.6087 91 51 91V91ZM71 46H56V31C56 29.6739 55.4732 28.4021 54.5355 27.4645C53.5979 26.5268 52.3261 26 51 26C49.6739 26 48.4022 26.5268 47.4645 27.4645C46.5268 28.4021 46 29.6739 46 31V46H31C29.6739 46 28.4022 46.5268 27.4645 47.4645C26.5268 48.4021 26 49.6739 26 51C26 52.3261 26.5268 53.5978 27.4645 54.5355C28.4022 55.4732 29.6739 56 31 56H46V71C46 72.3261 46.5268 73.5978 47.4645 74.5355C48.4022 75.4732 49.6739 76 51 76C52.3261 76 53.5979 75.4732 54.5355 74.5355C55.4732 73.5978 56 72.3261 56 71V56H71C72.3261 56 73.5979 55.4732 74.5355 54.5355C75.4732 53.5978 76 52.3261 76 51C76 49.6739 75.4732 48.4021 74.5355 47.4645C73.5979 46.5268 72.3261 46 71 46Z"  />
</svg>
