<svg width="100" height="90" viewBox="0 0 100 90"  xmlns="http://www.w3.org/2000/svg">
<path d="M94.7368 52.9412H63.1579C61.762 52.9412 60.4233 52.3834 59.4363 51.3906C58.4492 50.3977 57.8947 49.0511 57.8947 47.6471C57.8947 46.243 58.4492 44.8964 59.4363 43.9036C60.4233 42.9107 61.762 42.3529 63.1579 42.3529H94.7368C96.1327 42.3529 97.4714 42.9107 98.4585 43.9036C99.4455 44.8964 100 46.243 100 47.6471C100 49.0511 99.4455 50.3977 98.4585 51.3906C97.4714 52.3834 96.1327 52.9412 94.7368 52.9412ZM78.9474 68.8235C77.5515 68.8235 76.2128 68.2658 75.2257 67.2729C74.2387 66.2801 73.6842 64.9335 73.6842 63.5294V31.7647C73.6842 30.3606 74.2387 29.014 75.2257 28.0212C76.2128 27.0284 77.5515 26.4706 78.9474 26.4706C80.3432 26.4706 81.682 27.0284 82.669 28.0212C83.656 29.014 84.2105 30.3606 84.2105 31.7647V63.5294C84.2105 64.9335 83.656 66.2801 82.669 67.2729C81.682 68.2658 80.3432 68.8235 78.9474 68.8235ZM31.5789 10.5882C40.2842 10.5882 47.3684 17.7141 47.3684 26.4706C47.3684 35.2271 40.2842 42.3529 31.5789 42.3529C22.8737 42.3529 15.7895 35.2271 15.7895 26.4706C15.7895 17.7141 22.8737 10.5882 31.5789 10.5882ZM31.5789 0C17.0316 0 5.26316 11.8482 5.26316 26.4706C5.26316 41.0929 17.0316 52.9412 31.5789 52.9412C46.1263 52.9412 57.8947 41.0929 57.8947 26.4706C57.8947 11.8482 46.1263 0 31.5789 0ZM31.5789 68.8235C42.2158 68.8235 48.9526 72.9053 51.4895 76.4735C47.8947 77.85 41.1263 79.4118 31.5789 79.4118C21.1368 79.4118 14.7053 77.7971 11.4842 76.5424C13.9 72.7571 20.8368 68.8235 31.5789 68.8235ZM31.5789 58.2353C11.8421 58.2353 0 68.8235 0 79.4118C0 84.7059 11.8421 90 31.5789 90C50.0947 90 63.1579 84.7059 63.1579 79.4118C63.1579 68.8235 50.7684 58.2353 31.5789 58.2353Z" />
</svg>
