<svg width="100" height="90" viewBox="0 0 100 90" xmlns="http://www.w3.org/2000/svg">
<path d="M31.5789 52.9412C38.8474 52.9412 45.4263 49.9765 50.1895 45.1853C54.9474 40.3994 57.8947 33.7818 57.8947 26.4706C57.8947 19.1594 54.9474 12.5418 50.1895 7.75588C45.4263 2.96471 38.8474 0 31.5789 0C24.3105 0 17.7316 2.96471 12.9684 7.75588C8.21053 12.5418 5.26316 19.1594 5.26316 26.4706C5.26316 33.7818 8.21053 40.3994 12.9684 45.1853C15.4095 47.6476 18.3104 49.6004 21.5042 50.9315C24.698 52.2625 28.1219 52.9455 31.5789 52.9412V52.9412ZM31.5789 90C50.0947 90 63.1579 84.7059 63.1579 79.4118C63.1579 68.8235 50.7684 58.2353 31.5789 58.2353C11.8421 58.2353 0 68.8235 0 79.4118C0 84.7059 11.8421 90 31.5789 90ZM94.7368 42.3529H84.2105V31.7647C84.2105 30.3606 83.656 29.014 82.669 28.0212C81.682 27.0284 80.3432 26.4706 78.9474 26.4706C77.5515 26.4706 76.2128 27.0284 75.2257 28.0212C74.2387 29.014 73.6842 30.3606 73.6842 31.7647V42.3529H63.1579C61.762 42.3529 60.4233 42.9107 59.4363 43.9036C58.4492 44.8964 57.8947 46.243 57.8947 47.6471C57.8947 49.0511 58.4492 50.3977 59.4363 51.3906C60.4233 52.3834 61.762 52.9412 63.1579 52.9412H73.6842V63.5294C73.6842 64.9335 74.2387 66.2801 75.2257 67.2729C76.2128 68.2658 77.5515 68.8235 78.9474 68.8235C80.3432 68.8235 81.682 68.2658 82.669 67.2729C83.656 66.2801 84.2105 64.9335 84.2105 63.5294V52.9412H94.7368C96.1327 52.9412 97.4714 52.3834 98.4585 51.3906C99.4455 50.3977 100 49.0511 100 47.6471C100 46.243 99.4455 44.8964 98.4585 43.9036C97.4714 42.9107 96.1327 42.3529 94.7368 42.3529Z"/>
</svg>
