<svg width="102" height="102" viewBox="0 0 102 102"  xmlns="http://www.w3.org/2000/svg">
<path d="M68.8571 36.7143C86.6093 36.7143 101 51.1051 101 68.8571C101 86.6093 86.6093 101 68.8571 101C51.1051 101 36.7143 86.6093 36.7143 68.8571C36.7143 51.1051 51.1051 36.7143 68.8571 36.7143ZM68.8571 51C66.885 51 65.2857 52.599 65.2857 54.5714V65.2857H54.5714C52.599 65.2857 51 66.885 51 68.8571C51 70.8293 52.599 72.4286 54.5714 72.4286H65.2857V83.1429C65.2857 85.115 66.885 86.7143 68.8571 86.7143C70.8293 86.7143 72.4286 85.115 72.4286 83.1429V72.4286H83.1429C85.115 72.4286 86.7143 70.8293 86.7143 68.8571C86.7143 66.885 85.115 65.2857 83.1429 65.2857H72.4286V54.5714C72.4286 52.599 70.8293 51 68.8571 51ZM38.5511 43.8571C32.9416 50.6496 29.5714 59.36 29.5714 68.8571C29.5714 72.5714 30.0868 76.165 31.0499 79.57L30.0014 79.5771C11.9477 79.5771 1.69762 73.544 1.03434 61.3841L1 60.1043V54.5714C1 49.0022 5.24918 44.4254 10.6824 43.9062L11.7143 43.8571H38.5511ZM29.5714 1C39.4353 1 47.4315 8.99622 47.4315 18.86C47.4315 28.7239 39.4353 36.7201 29.5714 36.7201C19.7076 36.7201 11.7114 28.7239 11.7114 18.86C11.7114 8.99622 19.7076 1 29.5714 1ZM65.2857 8.14286C73.1757 8.14286 79.5714 14.5388 79.5714 22.4286C79.5714 25.398 78.6657 28.1559 77.115 30.4408C74.4521 29.8712 71.69 29.5714 68.8571 29.5714C63.9114 29.5714 59.18 30.4852 54.8208 32.1532C52.45 29.6031 51 26.1851 51 22.4286C51 14.5388 57.3959 8.14286 65.2857 8.14286Z"  />
</svg>
