<svg width="100" height="100" viewBox="0 0 100 100" xmlns="http://www.w3.org/2000/svg">
<path d="M35.0082 100C30.4191 99.9791 25.8802 99.0936 21.6558 97.395C17.4313 95.6964 13.6056 93.2186 10.4014 90.1059C7.22116 87.25 4.66653 83.828 2.88367 80.0358C1.1008 76.2435 0.124687 72.1553 0.0111844 68.0052C-0.102318 63.8551 0.649018 59.7245 2.2222 55.8498C3.79538 51.9751 6.15952 48.4324 9.17934 45.4243L50.0611 6.32137C52.2443 4.25664 54.8465 2.63252 57.7105 1.54707C60.5746 0.461624 63.6411 -0.0626307 66.7249 0.00595757C70.0283 0.0166156 73.2963 0.650335 76.3385 1.87016C79.3807 3.08998 82.1361 4.87149 84.444 7.1108C89.0376 11.3013 91.7015 17.0392 91.8575 23.0792C92.0135 29.1192 89.649 34.9737 85.2772 39.372L44.1733 78.475C42.8567 79.7308 41.2901 80.7264 39.5642 81.404C37.8383 82.0815 35.9876 82.4276 34.1195 82.4221C32.1013 82.4246 30.1031 82.0441 28.2428 81.3029C26.3825 80.5617 24.6977 79.4749 23.288 78.1066C20.4703 75.5218 18.8431 71.9878 18.7599 68.2727C18.6767 64.5575 20.1442 60.9614 22.8436 58.2656L60.7815 22.1625C61.8612 21.4831 63.1577 21.1828 64.4464 21.3137C65.7352 21.4446 66.9351 21.9984 67.8383 22.8791C68.7415 23.7599 69.2912 24.9122 69.3922 26.1365C69.4932 27.3609 69.1391 28.5801 68.3913 29.5831L30.4534 65.6863C29.8208 66.4084 29.5129 67.3371 29.596 68.2723C29.6791 69.2074 30.1466 70.0742 30.8978 70.686C31.6794 71.4316 32.7331 71.8648 33.8417 71.8964C34.2524 71.902 34.6602 71.8305 35.0415 71.6859C35.4229 71.5414 35.7702 71.3267 36.0636 71.0544L77.112 31.9514C79.4161 29.5262 80.6203 26.3393 80.4644 23.0796C80.3085 19.8199 78.805 16.7492 76.2788 14.5314C73.9325 12.2233 70.7417 10.8551 67.363 10.7083C63.9843 10.5614 60.6748 11.6471 58.1153 13.742L17.0669 52.6344C15.0708 54.6657 13.5184 57.051 12.4989 59.6529C11.4795 62.2548 11.0131 65.0221 11.1267 67.7954C11.2403 70.5687 11.9315 73.2934 13.1607 75.8127C14.3899 78.332 16.1327 80.5961 18.2889 82.4747C20.4511 84.5985 23.0384 86.2927 25.8996 87.4584C28.7607 88.624 31.8383 89.2378 34.9526 89.2638C37.6378 89.2845 40.3009 88.8023 42.7888 87.8449C45.2767 86.8876 47.5405 85.4739 49.4501 83.6852L90.4985 44.5823C91.0128 44.0916 91.624 43.7016 92.2973 43.4347C92.9706 43.1679 93.6928 43.0292 94.4226 43.0268C95.1525 43.0243 95.8757 43.1581 96.551 43.4205C97.2262 43.6829 97.8404 44.0687 98.3583 44.5559C98.8762 45.0432 99.2877 45.6223 99.5694 46.2602C99.8511 46.8982 99.9974 47.5824 100 48.274C100.003 48.9655 99.8613 49.6507 99.5844 50.2905C99.3075 50.9303 98.9003 51.5122 98.3861 52.0029L57.3376 91.1058C54.4232 93.916 50.9484 96.1494 47.1151 97.6763C43.2818 99.2032 39.1664 99.993 35.0082 100V100Z" />
</svg>
