<svg width="102" height="102" viewBox="0 0 102 102" xmlns="http://www.w3.org/2000/svg">
<path fill-rule="evenodd" clip-rule="evenodd" d="M99.2028 87.6366C96.1161 97.0163 84.0226 101.696 75.3826 100.916C63.5825 99.8495 50.7424 93.5898 40.9956 86.6967C26.6688 76.5637 13.2487 60.8909 5.42868 44.2582C-0.0980315 32.5053 -1.33804 18.0524 6.88202 7.33949C9.92205 3.37963 13.2154 1.26638 18.1488 1.01972C25.0022 0.686396 25.9622 4.60626 28.3155 10.7127C30.0689 15.2792 32.4089 19.939 33.7156 24.6722C36.1623 33.5052 27.6089 33.8719 26.5288 41.0916C25.8622 45.6448 31.3755 51.7512 33.8689 54.9978C38.6748 61.3207 44.5611 66.744 51.2557 71.0172C55.0557 73.4105 61.1758 77.7237 65.5225 75.3437C72.2159 71.6772 71.5892 60.3909 80.9426 64.2108C85.7893 66.1841 90.4827 69.0306 95.1094 71.5239C102.263 75.3704 101.929 79.3569 99.2028 87.6366C97.1627 93.8231 101.243 81.4502 99.2028 87.6366" />
<path d="M99.2028 87.6366C96.1161 97.0163 84.0226 101.696 75.3826 100.916C63.5825 99.8495 50.7424 93.5898 40.9956 86.6967C26.6688 76.5637 13.2487 60.8909 5.42868 44.2582C-0.0980315 32.5053 -1.33804 18.0524 6.88202 7.33949C9.92205 3.37963 13.2154 1.26638 18.1488 1.01972C25.0022 0.686396 25.9622 4.60626 28.3155 10.7127C30.0689 15.2792 32.4089 19.939 33.7156 24.6722C36.1623 33.5052 27.6089 33.8719 26.5288 41.0916C25.8622 45.6448 31.3755 51.7512 33.8689 54.9978C38.6748 61.3207 44.5611 66.744 51.2557 71.0172C55.0557 73.4105 61.1758 77.7237 65.5225 75.3437C72.2159 71.6772 71.5892 60.3909 80.9426 64.2108C85.7893 66.1841 90.4827 69.0306 95.1094 71.5239C102.263 75.3704 101.929 79.3569 99.2028 87.6366C97.1627 93.8231 101.243 81.4502 99.2028 87.6366"  />
</svg>
