<svg width="100" height="65" viewBox="0 0 100 65"  xmlns="http://www.w3.org/2000/svg">
<path d="M99.6828 31.0126C95.2153 21.5728 88.1561 13.6308 79.3471 8.1337C70.538 2.63662 60.3508 -0.183618 50 0.00927217C39.6492 -0.183618 29.462 2.63662 20.6529 8.1337C11.8439 13.6308 4.78473 21.5728 0.317205 31.0126C0.108136 31.48 0 31.9871 0 32.5C0 33.0129 0.108136 33.52 0.317205 33.9874C4.78473 43.4272 11.8439 51.3692 20.6529 56.8663C29.462 62.3634 39.6492 65.1836 50 64.9907C60.3508 65.1836 70.538 62.3634 79.3471 56.8663C88.1561 51.3692 95.2153 43.4272 99.6828 33.9874C99.8919 33.52 100 33.0129 100 32.5C100 31.9871 99.8919 31.48 99.6828 31.0126ZM50 50.5504C46.4681 50.5504 43.0156 49.4918 40.079 47.5084C37.1423 45.525 34.8535 42.7059 33.5019 39.4076C32.1503 36.1093 31.7967 32.48 32.4857 28.9785C33.1748 25.4771 34.8755 22.2608 37.3729 19.7364C39.8703 17.212 43.0522 15.4929 46.5162 14.7964C49.9802 14.0999 53.5707 14.4574 56.8337 15.8236C60.0967 17.1898 62.8857 19.5034 64.8479 22.4717C66.8101 25.4401 67.8574 28.93 67.8574 32.5C67.8517 37.2855 65.9685 41.8734 62.6208 45.2572C59.2731 48.6411 54.7343 50.5447 50 50.5504Z" />
<path d="M50 43.3302C55.9174 43.3302 60.7144 38.4814 60.7144 32.5C60.7144 26.5186 55.9174 21.6697 50 21.6697C44.0826 21.6697 39.2856 26.5186 39.2856 32.5C39.2856 38.4814 44.0826 43.3302 50 43.3302Z" />
</svg>
