<svg width="100" height="100" viewBox="0 0 100 100"  xmlns="http://www.w3.org/2000/svg">
<path d="M50 0C40.1109 0 30.444 2.93245 22.2215 8.42652C13.999 13.9206 7.59043 21.7295 3.80604 30.8658C0.0216643 40.0021 -0.968502 50.0555 0.960758 59.7545C2.89002 69.4536 7.65206 78.3627 14.6447 85.3553C21.6373 92.3479 30.5465 97.11 40.2455 99.0392C49.9445 100.969 59.9979 99.9783 69.1342 96.194C78.2705 92.4096 86.0794 86.001 91.5735 77.7785C97.0675 69.556 100 59.8891 100 50C99.989 36.7426 94.7176 24.0313 85.3432 14.6568C75.9687 5.28242 63.2574 0.0110341 50 0ZM69.3375 53.2L44.3375 74.0333C43.9173 74.3841 43.4321 74.6486 42.9096 74.8118C42.3872 74.975 41.8377 75.0338 41.2925 74.9846C40.7473 74.9355 40.2172 74.7795 39.7324 74.5254C39.2475 74.2714 38.8174 73.9244 38.4667 73.5042C38.1159 73.0839 37.8514 72.5987 37.6882 72.0763C37.525 71.5538 37.4662 71.0043 37.5154 70.4591C37.5645 69.914 37.7205 69.3838 37.9746 68.899C38.2286 68.4141 38.5756 67.9841 38.9958 67.6333L60.1542 50L38.9958 32.3667C38.5756 32.0159 38.2286 31.5858 37.9746 31.101C37.7205 30.6161 37.5645 30.086 37.5154 29.5408C37.4662 28.9957 37.525 28.4462 37.6882 27.9237C37.8514 27.4013 38.1159 26.9161 38.4667 26.4958C38.8174 26.0756 39.2475 25.7286 39.7324 25.4745C40.2172 25.2205 40.7473 25.0645 41.2925 25.0154C41.8377 24.9662 42.3872 25.0249 42.9096 25.1882C43.4321 25.3514 43.9173 25.6159 44.3375 25.9667L69.3375 46.8C69.8064 47.191 70.1837 47.6804 70.4426 48.2333C70.7014 48.7863 70.8356 49.3894 70.8356 50C70.8356 50.6106 70.7014 51.2137 70.4426 51.7667C70.1837 52.3196 69.8064 52.8089 69.3375 53.2Z" />
</svg>
