<svg width="100" height="100" viewBox="0 0 100 100"  xmlns="http://www.w3.org/2000/svg">
<path fill-rule="evenodd" clip-rule="evenodd" d="M36.3086 59.3359L75.1562 20.5078C75.4674 20.1977 75.8888 20.0236 76.3281 20.0236C76.7674 20.0236 77.1888 20.1977 77.5 20.5078L84.1797 27.168C84.3362 27.3224 84.4604 27.5064 84.5452 27.7093C84.6301 27.9121 84.6737 28.1298 84.6737 28.3496C84.6737 28.5695 84.6301 28.7872 84.5452 28.99C84.4604 29.1929 84.3362 29.3768 84.1797 29.5313L37.5 76.2109C37.1888 76.521 36.7675 76.6952 36.3281 76.6952C35.8888 76.6952 35.4674 76.521 35.1563 76.2109V76.1719L13.8282 54.8438C13.6643 54.683 13.5357 54.4899 13.4502 54.2769C13.3648 54.0638 13.3245 53.8354 13.3318 53.6059C13.3392 53.3765 13.394 53.1511 13.4929 52.9439C13.5918 52.7368 13.7325 52.5524 13.9063 52.4024L20.4492 45.8399C20.7604 45.5298 21.1818 45.3556 21.6211 45.3556C22.0604 45.3556 22.4818 45.5298 22.793 45.8399L36.3086 59.3359ZM100 50C100 36.1914 94.3945 23.6914 85.3516 14.6485C80.7145 9.99838 75.2043 6.31045 69.1375 3.79659C63.0707 1.28273 56.567 -0.00750396 50 3.28292e-05C36.1914 3.28292e-05 23.6914 5.6055 14.6485 14.6485C9.99838 19.2855 6.31045 24.7957 3.79659 30.8625C1.28273 36.9293 -0.00750396 43.433 3.28292e-05 50C3.28292e-05 63.8086 5.6055 76.3086 14.6485 85.3516C23.6914 94.3945 36.1914 100 50 100C63.8086 100 76.3086 94.3945 85.3516 85.3516C94.3945 76.3086 100 63.8086 100 50Z" />
</svg>
