<svg width="100" height="70" viewBox="0 0 100 70"  xmlns="http://www.w3.org/2000/svg">
<path d="M42.568 46.1215L90.7709 5.99636C91.5616 5.33762 92.0058 4.44418 92.0058 3.51258C92.0058 2.58099 91.5616 1.68755 90.7709 1.02881C89.9803 0.370075 88.9079 0 87.7897 0C86.6716 0 85.5992 0.370075 84.8085 1.02881L74.0595 10.0194C61.2298 4.68398 46.3866 3.79749 32.7747 7.55369C19.1628 11.3099 7.88948 19.4032 1.4192 30.0645C0.486282 31.5925 0 33.2826 0 34.997C0 36.7114 0.486282 38.4015 1.4192 39.9296C5.42095 46.4692 11.2715 52.1 18.4666 56.3365L9.22908 63.9977C8.83553 64.3229 8.52316 64.7098 8.30999 65.1361C8.09682 65.5624 7.98706 66.0196 7.98706 66.4814C7.98706 66.9433 8.09682 67.4005 8.30999 67.8268C8.52316 68.2531 8.83553 68.64 9.22908 68.9652C9.61942 69.2931 10.0838 69.5534 10.5955 69.731C11.1072 69.9086 11.656 70 12.2103 70C12.7646 70 13.3134 69.9086 13.8251 69.731C14.3367 69.5534 14.8011 69.2931 15.1915 68.9652L28.04 58.2255L42.568 46.1215ZM34.1703 43.3579C32.211 40.8721 31.1473 37.9707 31.1051 34.997C31.1162 30.8248 33.1105 26.826 36.6516 23.8758C40.1926 20.9256 44.9922 19.264 50 19.2548C53.5566 19.2587 57.0381 20.1082 60.0353 21.7036L53.821 26.846C52.602 26.4537 51.3067 26.2521 50 26.2513C47.216 26.2513 44.546 27.1728 42.5774 28.8129C40.6088 30.453 39.5029 32.6775 39.5029 34.997C39.5038 36.0857 39.7457 37.1649 40.2167 38.1804L34.1703 43.3579ZM98.5808 30.0645C96.7575 27.0412 94.5472 24.1911 91.9886 21.5637C91.8169 21.4469 91.6344 21.3416 91.4427 21.2488L90.7289 20.864C90.4893 20.7737 90.2344 20.7147 89.9731 20.6891C89.709 20.6526 89.4395 20.6526 89.1753 20.6891H88.4196H87.6218L86.866 21.0039C86.6749 21.0843 86.4923 21.1779 86.3201 21.2838L41.0984 58.4704C41.0984 58.4704 41.0984 58.7153 40.8045 58.8202C40.6035 59.0104 40.434 59.2222 40.3006 59.4499C40.1977 59.6662 40.1135 59.8883 40.0487 60.1146C40.0487 60.1146 40.0487 60.3945 40.0487 60.5344C40.0446 60.5926 40.0446 60.651 40.0487 60.7093C40.0056 60.9646 40.0056 61.2236 40.0487 61.4789C40.0284 61.6768 40.0284 61.8758 40.0487 62.0736C40.1433 62.2784 40.2556 62.4771 40.3846 62.6683L40.8465 63.2281C40.8465 63.2281 40.8465 63.2281 40.8465 63.403C40.8465 63.5779 41.1404 63.5779 41.2664 63.6828L41.9802 64.0676C42.252 64.1583 42.5331 64.2286 42.8199 64.2775C42.8199 64.2775 43.1139 64.2775 43.3238 64.2775H43.7857C45.8456 64.5239 47.9201 64.6757 50 64.7323C60.0538 64.7265 69.9105 62.4075 78.4828 58.0309C87.0552 53.6543 94.0102 47.3903 98.5808 39.9296C99.5137 38.4015 100 36.7114 100 34.997C100 33.2826 99.5137 31.5925 98.5808 30.0645Z" />
</svg>
