<svg width="85" height="100" viewBox="0 0 85 100" fill="none" xmlns="http://www.w3.org/2000/svg">
<path d="M31.07 67.7491C38.7182 67.169 46.4016 67.169 54.0499 67.7491C58.2147 67.9776 62.3599 68.468 66.459 69.2171C75.3293 70.9075 81.1202 73.6655 83.602 78.1139C85.466 81.5857 85.466 85.7186 83.602 89.1904C81.1202 93.6388 75.5591 96.5747 66.3671 98.0872C62.2712 98.8645 58.1251 99.3699 53.9579 99.5996C50.0973 100 46.2367 100 42.3301 100H35.2983C33.8276 99.8221 32.4028 99.7331 31.024 99.7331C26.8567 99.5313 22.7097 99.0408 18.6149 98.2651C9.74462 96.6637 3.95368 93.8167 1.47185 89.3683C0.513778 87.6451 0.00868106 85.7202 0.000553657 83.7633C-0.0188291 81.7946 0.470993 79.8523 1.42589 78.1139C3.86176 73.6655 9.6527 70.774 18.6149 69.2171C22.7277 68.4573 26.8889 67.9668 31.07 67.7491ZM42.514 0C57.9214 0 70.4116 12.0891 70.4116 27.0018C70.4116 41.9144 57.9214 54.0036 42.514 54.0036C27.1065 54.0036 14.6164 41.9144 14.6164 27.0018C14.6164 12.0891 27.1065 0 42.514 0Z" />
</svg>
