<svg width="100" height="100" viewBox="0 0 100 100"  xmlns="http://www.w3.org/2000/svg">
<path d="M50 100C59.8891 100 69.556 97.0676 77.7785 91.5735C86.001 86.0794 92.4096 78.2705 96.194 69.1343C99.9783 59.998 100.969 49.9446 99.0392 40.2456C97.11 30.5465 92.3479 21.6375 85.3553 14.6449C78.3627 7.65229 69.4535 2.8902 59.7545 0.961007C50.0555 -0.968789 40.0021 0.0219082 30.8658 3.8062C21.7295 7.59059 13.9206 13.9992 8.4265 22.2217C2.9325 30.4441 0 40.111 0 50.0001C0.011 63.2575 5.2824 75.9687 14.6568 85.3432C24.0313 94.7176 36.7426 99.989 50 100ZM30.6625 46.8001L55.6625 25.9669C56.0827 25.6161 56.5679 25.3516 57.0904 25.1884C57.6128 25.0252 58.1623 24.9664 58.7075 25.0156C59.2527 25.0647 59.7828 25.2207 60.2676 25.4748C60.7525 25.7288 61.1826 26.0758 61.5333 26.4959C61.8841 26.9162 62.1486 27.4014 62.3118 27.9238C62.475 28.4463 62.5338 28.9958 62.4846 29.541C62.4355 30.0861 62.2795 30.6163 62.0254 31.1011C61.7714 31.586 61.4244 32.016 61.0042 32.3668L39.8458 50.0001L61.0042 67.6334C61.4244 67.9842 61.7714 68.4143 62.0254 68.8991C62.2795 69.384 62.4355 69.9141 62.4846 70.4593C62.5338 71.0044 62.475 71.5539 62.3118 72.0764C62.1486 72.5988 61.8841 73.084 61.5333 73.5043C61.1826 73.9245 60.7525 74.2715 60.2676 74.5256C59.7828 74.7796 59.2527 74.9356 58.7075 74.9847C58.1623 75.0339 57.6128 74.9752 57.0904 74.8119C56.5679 74.6487 56.0827 74.3842 55.6625 74.0334L30.6625 53.2001C30.1936 52.8091 29.8163 52.3197 29.5574 51.7668C29.2986 51.2138 29.1644 50.6107 29.1644 50.0001C29.1644 49.3895 29.2986 48.7864 29.5574 48.2334C29.8163 47.6805 30.1936 47.1912 30.6625 46.8001Z" />
</svg>
