<svg width="100" height="100" viewBox="0 0 100 100"  xmlns="http://www.w3.org/2000/svg">
<path d="M95.8916 58.006C94.495 57.5705 92.983 57.705 91.6851 58.3804C90.3873 59.0557 89.4088 60.2171 88.9631 61.6114C86.3444 69.6233 81.2394 76.5902 74.3907 81.4983C67.5419 86.4064 59.3068 88.9996 50.8835 88.9008C40.4649 89.0193 30.4245 84.9985 22.964 77.7201C15.5035 70.4417 11.2318 60.4997 11.0857 50.0744C11.2318 39.649 15.5035 29.7071 22.964 22.4286C30.4245 15.1502 40.4649 11.1294 50.8835 11.248C60.293 11.2252 69.4129 14.5028 76.6579 20.5108L64.6299 18.514C63.909 18.3953 63.1718 18.4204 62.4606 18.5878C61.7495 18.7552 61.0784 19.0617 60.4861 19.4895C59.8937 19.9173 59.3917 20.4581 59.0089 21.0808C58.6261 21.7035 58.3701 22.3957 58.2556 23.1177C58.1369 23.8391 58.162 24.5768 58.3293 25.2884C58.4966 26.0001 58.8028 26.6716 59.2304 27.2644C59.6579 27.8571 60.1983 28.3595 60.8206 28.7426C61.4428 29.1256 62.1346 29.3818 62.8561 29.4964L86.3579 33.379H87.3002C87.9429 33.3782 88.5806 33.2656 89.1848 33.0462C89.3878 32.9691 89.5755 32.8564 89.7391 32.7134C90.1365 32.5655 90.51 32.36 90.8476 32.1033L91.3465 31.4932C91.3465 31.2158 91.8454 30.994 92.0671 30.6612C92.2888 30.3284 92.0671 30.1065 92.3442 29.8846C92.4974 29.5616 92.627 29.2279 92.7322 28.8862L96.8894 6.69972C97.0277 5.97132 97.0212 5.2228 96.8705 4.49689C96.7197 3.77098 96.4275 3.0819 96.0106 2.46899C95.5937 1.85608 95.0602 1.33134 94.4406 0.924736C93.8211 0.518132 93.1275 0.237624 92.3996 0.0992292C91.6717 -0.0391657 90.9237 -0.0327377 90.1983 0.118146C89.4729 0.26903 88.7843 0.561415 88.1718 0.978608C86.9348 1.82117 86.0829 3.12094 85.8036 4.592L84.307 12.6346C75.0282 4.58779 63.162 0.157085 50.8835 0.154695C37.5249 0.0363707 24.6649 5.22595 15.1254 14.5847C5.58596 23.9434 0.146281 36.7069 0 50.0744C0.146281 63.4418 5.58596 76.2053 15.1254 85.564C24.6649 94.9228 37.5249 100.112 50.8835 99.994C61.7095 100.16 72.3029 96.8442 81.104 90.5335C89.9051 84.2228 96.4488 75.2511 99.7717 64.9393C99.9819 64.2292 100.048 63.4841 99.9657 62.748C99.8836 62.012 99.655 61.2998 99.2933 60.6536C98.9317 60.0074 98.4444 59.4402 97.8601 58.9855C97.2759 58.5307 96.6066 58.1977 95.8916 58.006Z" />
</svg>
