<svg width="102" height="90" viewBox="0 0 102 90" xmlns="http://www.w3.org/2000/svg">
<path d="M94.7501 38.7187H20.625L43.3125 11.3156C44.3733 10.0321 44.8837 8.37732 44.7313 6.71532C44.5789 5.05333 43.7763 3.52031 42.4999 2.45354C41.2236 1.38663 39.5781 0.873454 37.9254 1.02656C36.2728 1.17982 34.7484 1.98698 33.6874 3.27051L2.43745 40.9814C2.22715 41.2814 2.0392 41.5965 1.87495 41.9242C1.87495 42.2385 1.87495 42.4271 1.4374 42.7413C1.1542 43.4618 1.00585 44.229 1 45.0039C1.00585 45.7788 1.1542 46.546 1.4374 47.2666C1.4374 47.5808 1.4374 47.7693 1.87495 48.0837C2.0392 48.4113 2.22715 48.7264 2.43745 49.0265L33.6874 86.7373C34.2751 87.4468 35.011 88.0174 35.8428 88.4084C36.6745 88.7995 37.5817 89.0015 38.5 89C39.9603 89.0029 41.3755 88.4913 42.4999 87.5543C43.1328 87.0266 43.656 86.3788 44.0394 85.6475C44.4229 84.9162 44.6592 84.1161 44.7346 83.2928C44.8101 82.4697 44.7232 81.6396 44.4793 80.8501C44.2353 80.0607 43.8387 79.3274 43.3125 78.6922L20.625 51.2891H94.7501C96.4076 51.2891 97.9973 50.6269 99.1694 49.4482C100.341 48.2695 101 46.6709 101 45.0039C101 43.337 100.341 41.7383 99.1694 40.5596C97.9973 39.3809 96.4076 38.7187 94.7501 38.7187Z"   stroke-width="2"/>
</svg>
