<svg width="125" height="52" viewBox="0 0 125 52" xmlns="http://www.w3.org/2000/svg">
<path fill-rule="evenodd" clip-rule="evenodd" d="M1.76063 40.0798C-2.37882 31.1149 3.27411 19.4446 10.125 14.1225C19.4825 6.85492 33.1423 2.67611 44.9717 1.07013C62.3603 -1.28992 82.8639 1.01993 99.9267 7.85108C111.984 12.6774 122.748 22.4018 124.042 35.8429C124.52 40.8122 123.552 44.6038 120.112 48.1488C115.327 53.0665 111.952 50.8545 106.066 47.9935C101.67 45.8495 96.7802 44.0374 92.5965 41.467C84.783 36.6755 90.7886 30.574 86.6546 24.5572C84.0369 20.7726 75.8401 20.0667 71.8024 19.3928C63.9753 18.0461 55.9717 18.0942 48.1613 19.5347C43.7499 20.376 36.3324 21.3954 34.7765 26.1004C32.3819 33.3468 40.5374 41.1737 31.0916 44.759C26.2012 46.6213 20.8273 47.7403 15.7432 49.0723C7.88821 51.1377 5.4132 47.9948 1.76063 40.0798C4.4878 45.9956 -0.966543 34.1641 1.76063 40.0798Z" />
</svg>
