<svg width="50" height="100" viewBox="0 0 50 100"  xmlns="http://www.w3.org/2000/svg">
<path d="M19.3369 49.7901L47.6724 16.1905C49.1632 14.4121 50 12.0065 50 9.49901C50 6.99151 49.1632 4.58589 47.6724 2.80755C46.9283 1.91793 46.043 1.21182 45.0676 0.729955C44.0922 0.248087 43.046 0 41.9893 0C40.9326 0 39.8864 0.248087 38.911 0.729955C37.9356 1.21182 37.0503 1.91793 36.3062 2.80755L2.36768 43.0512C1.61744 43.9336 1.02196 44.9833 0.615593 46.14C0.209222 47.2966 0 48.5372 0 49.7901C0 51.0431 0.209222 52.2837 0.615593 53.4403C1.02196 54.5969 1.61744 55.6467 2.36768 56.5291L36.3062 97.2473C37.0541 98.127 37.9411 98.8229 38.9164 99.2953C39.8916 99.7676 40.9359 100.007 41.9893 99.9998C43.0427 100.007 44.087 99.7676 45.0622 99.2953C46.0374 98.8229 46.9245 98.127 47.6724 97.2473C49.1632 95.469 50 93.0633 50 90.5558C50 88.0483 49.1632 85.6427 47.6724 83.8644L19.3369 49.7901Z" />
</svg>
