<svg width="100" height="100" viewBox="0 0 100 100" fill="none" xmlns="http://www.w3.org/2000/svg">
<g clip-path="url(#clip0_5_30)">
<path d="M0 50C0 22.3902 22.3902 0 50 0C77.6098 0 100 22.3902 100 50C100 77.6098 77.6098 100 50 100C22.3902 100 0 77.6098 0 50Z" fill="#EF8355"/>
<path d="M23.4752 61.3724C28.8415 61.6476 33.3259 60.847 34.5957 55.1502C35.8674 49.4251 33.7091 46.1743 33.7091 46.1743C33.7091 46.1743 28.5089 40.8679 52.5661 41.2645C76.4596 44.2067 70.5715 48.7376 70.5715 48.7376C70.5715 48.7376 67.9817 51.6564 68.4443 57.5029C68.8957 63.3057 73.2482 64.5957 78.5906 65.2121C95.6506 67.2051 91.4769 51.7137 91.4769 51.7137C88.6085 35.9422 67.5755 32.543 53.2367 32.0831C38.9298 30.5542 17.6264 31.0216 12.6061 46.2271C12.6061 46.2271 5.62485 60.467 23.4752 61.3724Z" fill="#454545"/>
</g>
<defs>
<clipPath id="clip0_5_30">
<rect width="100" height="100" fill="white"/>
</clipPath>
</defs>
</svg>
