<svg width="50" height="100" viewBox="0 0 50 100"  xmlns="http://www.w3.org/2000/svg">
<path d="M47.6323 43.2565L13.6938 2.82094C12.9497 1.92708 12.0644 1.2176 11.089 0.733435C10.1136 0.24927 9.06738 0 8.01071 0C6.95404 0 5.90782 0.24927 4.93242 0.733435C3.95701 1.2176 3.07172 1.92708 2.32761 2.82094C0.836789 4.60776 0 7.02485 0 9.54431C0 12.0638 0.836789 14.4809 2.32761 16.2677L30.6631 50.0276L2.32761 83.7875C0.836789 85.5743 0 87.9914 0 90.5108C0 93.0303 0.836789 95.4474 2.32761 97.2342C3.07554 98.1181 3.96255 98.8174 4.93778 99.2919C5.91301 99.7665 6.95728 100.007 8.01071 99.9998C9.06414 100.007 10.1084 99.7665 11.0836 99.2919C12.0589 98.8174 12.9459 98.1181 13.6938 97.2342L47.6323 56.7986C48.3826 55.9121 48.978 54.8573 49.3844 53.6952C49.7908 52.533 50 51.2865 50 50.0276C50 48.7686 49.7908 47.5221 49.3844 46.36C48.978 45.1978 48.3826 44.1431 47.6323 43.2565Z" />
</svg>
