<svg width="90" height="100" viewBox="0 0 90 100"  xmlns="http://www.w3.org/2000/svg">
<path opacity="0.4" d="M44.9994 55.56C60.5321 55.56 73.124 43.1225 73.124 27.78C73.124 12.4375 60.5321 0 44.9994 0C29.4666 0 16.8748 12.4375 16.8748 27.78C16.8748 43.1225 29.4666 55.56 44.9994 55.56Z" />
<path d="M89.9499 83.379C89.9753 82.9836 89.9753 82.5872 89.9499 82.1918C89.8386 80.7306 89.424 79.3037 88.7293 77.9909C85.9953 72.6484 78.3302 70.2283 71.9344 68.8584C67.3713 67.9085 62.735 67.2978 58.0689 67.032L53.1866 66.6667H50.9896H48.2556H41.7134H38.9793H36.7823L31.9001 67.032C27.2339 67.2978 22.5976 67.9085 18.0345 68.8584C11.6388 70.0457 3.97364 72.5114 1.23959 77.9909C0.544908 79.3037 0.130334 80.7306 0.0190286 82.1918C-0.00634286 82.5872 -0.00634286 82.9836 0.0190286 83.379C-0.00439641 83.7744 -0.00439641 84.1708 0.0190286 84.5662C0.151826 86.0149 0.582864 87.4258 1.28841 88.7215C4.02247 94.0639 11.6876 96.484 18.0833 97.8539C22.6549 98.7594 27.2877 99.3696 31.9489 99.6804L36.8311 100H38.0029H39.0281H51.0384H52.0637H53.2354L58.1177 99.6804C62.7789 99.3696 67.4116 98.7594 71.9832 97.8539C78.379 96.621 86.0441 94.2009 88.7782 88.7215C89.4508 87.3848 89.8641 85.9469 89.9987 84.4749C90.0049 84.109 89.9886 83.7431 89.9499 83.379Z" />
</svg>
