<svg width="100" height="100" viewBox="0 0 100 100"  xmlns="http://www.w3.org/2000/svg">
<path d="M94.8421 15.7895H84.2105V5.15789C84.2105 2.31579 81.8947 0 79.0526 0H78.8947C76 0 73.6842 2.31579 73.6842 5.15789V15.7895H63.1053C60.2632 15.7895 57.9474 18.1053 57.8947 20.9474V21.1053C57.8947 24 60.2105 26.3158 63.1053 26.3158H73.6842V36.8947C73.6842 39.7368 76 42.1053 78.8947 42.0526H79.0526C81.8947 42.0526 84.2105 39.7368 84.2105 36.8947V26.3158H94.8421C97.6842 26.3158 100 24 100 21.1579V20.9474C100 18.1053 97.6842 15.7895 94.8421 15.7895ZM68.4211 36.8947V31.5789H63.1053C60.3158 31.5789 57.6842 30.4737 55.6842 28.5263C53.7368 26.5263 52.6316 23.8947 52.6316 20.9474C52.6316 19.0526 53.1579 17.3158 54.0526 15.7895H10.5263C4.73684 15.7895 0 20.5263 0 26.3158V89.4737C0 95.2632 4.73684 100 10.5263 100H73.6842C79.4737 100 84.2105 95.2632 84.2105 89.4737V45.8947C82.6316 46.7895 80.8421 47.3684 78.8421 47.3684C73.1053 47.3158 68.4211 42.6316 68.4211 36.8947ZM68.2105 89.4737H15.7895C13.6316 89.4737 12.3684 87 13.6842 85.2632L24.1053 71.4211C25.2105 69.9474 27.3684 70.0526 28.4211 71.5263L36.8421 84.2105L50.5789 65.8947C51.6316 64.5263 53.6842 64.4737 54.7368 65.8421L70.2632 85.2105C71.6316 86.9474 70.4211 89.4737 68.2105 89.4737Z" />
</svg>
