<svg width="50" height="100" viewBox="0 0 50 100"  xmlns="http://www.w3.org/2000/svg">
<path d="M38.2174 0C45.5 0 49.1413 4.56 49.1413 9.785C49.1413 16.31 42.8152 22.345 34.5815 22.345C27.6848 22.345 23.663 18.595 23.8533 12.395C23.8533 7.18 28.6413 0 38.2174 0ZM15.8098 100C10.0598 100 5.84783 96.74 9.86956 82.38L16.4674 56.92C17.6141 52.85 17.8043 51.215 16.4674 51.215C14.7446 51.215 7.28804 54.025 2.86956 56.8L0 52.4C13.9783 41.47 30.0598 35.065 36.962 35.065C42.7065 35.065 43.663 41.43 40.7935 51.215L33.2337 77.975C31.8967 82.7 32.4674 84.33 33.8098 84.33C35.5326 84.33 41.1848 82.37 46.7391 78.295L50 82.365C36.4022 95.1 21.5489 100 15.8098 100Z" />
</svg>
