<svg width="100" height="70" viewBox="0 0 100 70"  xmlns="http://www.w3.org/2000/svg">
<path d="M94.9525 10.75C93.4341 10.066 91.7483 9.8435 90.1046 10.1102C88.4608 10.3769 86.9317 11.121 85.7071 12.25L74.9625 22.25V15C74.9625 11.0218 73.383 7.20644 70.5713 4.3934C67.7597 1.58035 63.9463 0 59.97 0H14.9925C11.0162 0 7.20284 1.58035 4.3912 4.3934C1.57956 7.20644 0 11.0218 0 15V55C0 58.9782 1.57956 62.7936 4.3912 65.6066C7.20284 68.4196 11.0162 70 14.9925 70H59.97C63.9463 70 67.7597 68.4196 70.5713 65.6066C73.383 62.7936 74.9625 58.9782 74.9625 55V47.75L85.7571 57.75C87.3463 59.1892 89.4107 59.9905 91.5542 60C92.7438 59.9972 93.9192 59.7416 95.0025 59.25C96.4765 58.6535 97.7392 57.6308 98.6294 56.3127C99.5196 54.9945 99.9968 53.4408 100 51.85V18.15C99.9928 16.5534 99.5082 14.9956 98.6087 13.6768C97.7092 12.358 96.4359 11.3387 94.9525 10.75Z" />
</svg>
