<svg width="100" height="100" viewBox="0 0 100 100"  xmlns="http://www.w3.org/2000/svg">
<path d="M80.0065 60.0646C77.0533 60.0841 74.1411 60.7567 71.4793 62.0341C68.8174 63.3116 66.472 65.1621 64.6115 67.4526L39.1198 55.7216C40.3183 52.0563 40.3183 48.1052 39.1198 44.4398L64.6115 32.7088C67.6186 36.3328 71.8109 38.7794 76.4484 39.6168C81.0859 40.4543 85.8706 39.6288 89.958 37.2859C94.0454 34.9431 97.1727 31.2336 98.7881 26.8121C100.403 22.3905 100.403 17.5412 98.7869 13.12C97.1707 8.6988 94.0427 4.98985 89.9548 2.64776C85.867 0.305678 81.0822 -0.518988 76.4448 0.319307C71.8074 1.1576 67.6156 3.60497 64.6092 7.22948C61.6027 10.854 59.9749 15.4227 60.013 20.1292C60.028 21.3184 60.1451 22.5041 60.3629 23.6734L33.9714 35.8038C31.1578 33.0561 27.5947 31.1988 23.7288 30.4646C19.8629 29.7303 15.8659 30.1518 12.2388 31.6761C8.6116 33.2005 5.51551 35.76 3.3384 39.0339C1.1613 42.3078 0 46.1506 0 50.0807C0 54.0109 1.1613 57.8536 3.3384 61.1275C5.51551 64.4015 8.6116 66.9609 12.2388 68.4853C15.8659 70.0097 19.8629 70.4311 23.7288 69.6969C27.5947 68.9626 31.1578 67.1053 33.9714 64.3576L60.3629 76.488C60.1451 77.6573 60.028 78.843 60.013 80.0323C60.013 83.9815 61.1856 87.8421 63.3825 91.1257C65.5794 94.4094 68.702 96.9687 72.3553 98.48C76.0086 99.9913 80.0287 100.387 83.907 99.6163C87.7854 98.8459 91.3479 96.9441 94.144 94.1516C96.9402 91.359 98.8444 87.8011 99.6158 83.9278C100.387 80.0544 99.9913 76.0396 98.4781 72.391C96.9648 68.7423 94.4022 65.6238 91.1143 63.4297C87.8264 61.2357 83.9608 60.0646 80.0065 60.0646ZM80.0065 10.1453C81.9837 10.1453 83.9164 10.7308 85.5604 11.8279C87.2043 12.9249 88.4857 14.4842 89.2423 16.3085C89.9989 18.1328 90.1969 20.1402 89.8112 22.0769C89.4254 24.0136 88.4733 25.7925 87.0753 27.1888C85.6772 28.5851 83.8959 29.5359 81.9568 29.9212C80.0176 30.3064 78.0076 30.1087 76.1809 29.353C74.3542 28.5974 72.793 27.3177 71.6945 25.6759C70.596 24.034 70.0097 22.1038 70.0097 20.1292C70.0097 17.4813 71.063 14.9418 72.9377 13.0695C74.8125 11.1972 77.3552 10.1453 80.0065 10.1453ZM20.026 60.0646C18.0488 60.0646 16.116 59.479 14.4721 58.382C12.8281 57.2849 11.5468 55.7257 10.7902 53.9014C10.0336 52.0771 9.83559 50.0696 10.2213 48.133C10.607 46.1963 11.5591 44.4173 12.9572 43.0211C14.3553 41.6248 16.1365 40.6739 18.0757 40.2887C20.0149 39.9035 22.0249 40.1012 23.8516 40.8568C25.6782 41.6125 27.2395 42.8921 28.338 44.534C29.4364 46.1758 30.0227 48.1061 30.0227 50.0807C30.0227 52.7286 28.9695 55.268 27.0948 57.1404C25.22 59.0127 22.6773 60.0646 20.026 60.0646ZM80.0065 90.0161C78.0293 90.0161 76.0965 89.4306 74.4526 88.3335C72.8086 87.2365 71.5273 85.6772 70.7707 83.8529C70.0141 82.0286 69.8161 80.0212 70.2018 78.0845C70.5875 76.1478 71.5396 74.3689 72.9377 72.9726C74.3358 71.5764 76.117 70.6255 78.0562 70.2403C79.9954 69.855 82.0054 70.0527 83.8321 70.8084C85.6587 71.5641 87.22 72.8437 88.3185 74.4855C89.4169 76.1274 90.0032 78.0577 90.0032 80.0323C90.0032 82.6802 88.95 85.2196 87.0753 87.0919C85.2005 88.9643 82.6578 90.0161 80.0065 90.0161Z" />
</svg>
