<svg width="100" height="100" viewBox="0 0 100 100" xmlns="http://www.w3.org/2000/svg">
<path fill-rule="evenodd" clip-rule="evenodd" d="M50.055 52.93L82.91 20.075C83.945 19.04 85.385 18.51 86.845 18.63C88.305 18.745 89.64 19.495 90.5 20.685C90.5 20.685 90.625 20.865 90.635 20.875C96.525 29.08 100 39.135 100 50C100 77.595 77.595 100 50 100C22.405 100 0 77.595 0 50C0 22.405 22.405 0 50 0C57.98 0 65.53 1.875 72.225 5.21C74.7 6.435 75.705 9.44 74.475 11.91C73.245 14.38 70.245 15.39 67.775 14.16C62.42 11.495 56.38 10 50 10C27.925 10 10 27.925 10 50C10 72.075 27.925 90 50 90C72.075 90 90 72.075 90 50C90 43.37 88.385 37.11 85.52 31.605L53.595 63.535C51.64 65.49 48.475 65.49 46.52 63.535L31.52 48.535C29.57 46.585 29.57 43.415 31.52 41.465C33.475 39.515 36.64 39.515 38.595 41.465L50.055 52.93Z" />
</svg>
