<svg width="84" height="100" viewBox="0 0 84 100"  xmlns="http://www.w3.org/2000/svg">
<path d="M8.40245 17.3771L8.4 70.8333C8.4 81.879 17.0649 90.917 28.0192 91.6223L29.4 91.6667L66.4809 91.6725C64.7496 96.5244 60.0839 100 54.6 100H25.2C11.2824 100 0 88.8071 0 75V29.1667C0 23.7232 3.50736 19.0924 8.40245 17.3771ZM71.4 0C78.3588 0 84 5.59644 84 12.5V70.8333C84 77.7369 78.3588 83.3333 71.4 83.3333H29.4C22.4412 83.3333 16.8 77.7369 16.8 70.8333V12.5C16.8 5.59644 22.4412 0 29.4 0H71.4ZM71.4 8.33333H29.4C27.0804 8.33333 25.2 10.1988 25.2 12.5V70.8333C25.2 73.1345 27.0804 75 29.4 75H71.4C73.7196 75 75.6 73.1345 75.6 70.8333V12.5C75.6 10.1988 73.7196 8.33333 71.4 8.33333Z" />
</svg>
