<svg width="100" height="63" viewBox="0 0 100 63"  xmlns="http://www.w3.org/2000/svg">
<path d="M83.3333 55.125C87.9167 55.125 91.6667 51.5813 91.6667 47.25V7.875C91.6667 3.54375 87.9167 0 83.3333 0H16.6667C12.0833 0 8.33333 3.54375 8.33333 7.875V47.25C8.33333 51.5813 12.0417 55.125 16.6667 55.125H4.16667C1.875 55.125 0 56.8969 0 59.0625C0 61.2281 1.875 63 4.16667 63H95.8333C98.125 63 100 61.2281 100 59.0625C100 56.8969 98.125 55.125 95.8333 55.125H83.3333ZM54.1667 41.2256V32.6025C42.5833 32.6025 34.9583 35.9494 29.1667 43.3125C31.5 32.7994 37.9583 22.3256 54.1667 20.1994V11.8125L69.2083 25.0425C70.0833 25.83 70.0833 27.1294 69.2083 27.9169L54.1667 41.2256Z" />
</svg>
