<svg width="100" height="100" viewBox="0 0 100 100"  xmlns="http://www.w3.org/2000/svg">
<path d="M73.0585 2.15144C71.8937 0.981899 70.3115 0.322263 68.6599 0.317597C67.0082 0.31293 65.4223 0.963618 64.2509 2.12656C63.6329 2.75571 63.1553 3.50834 62.8494 4.33498C57.667 15.1345 51.9613 21.2247 44.7607 24.8204C36.6819 28.8018 27.4071 31.5701 12.4578 31.5701C11.2281 31.5759 10.0273 31.9429 9.00496 32.6254C7.98264 33.3079 7.18399 34.2758 6.7085 35.4084C6.23778 36.5455 6.11494 37.7965 6.35551 39.0033C6.59608 40.2102 7.18926 41.3188 8.06017 42.1892L28.2604 62.3635L0 100L37.6847 71.7758L57.8787 91.9439C58.4572 92.5264 59.148 92.9857 59.9094 93.2939C60.6693 93.6111 61.479 93.7791 62.2888 93.7791C63.0985 93.7791 63.9083 93.6111 64.6682 93.2939C65.8073 92.8272 66.7816 92.0326 67.4671 91.0112C68.1526 89.9898 68.5183 88.7878 68.5177 87.5582C68.5177 72.628 71.2833 63.3651 75.2635 55.421C78.8576 48.2297 84.9557 42.5313 95.7752 37.3555C96.6025 37.0528 97.3546 36.5754 97.9803 35.9558C99.1447 34.7859 99.7962 33.2021 99.7915 31.5525C99.7869 29.9029 99.1264 28.3228 97.9553 27.1595L73.0585 2.15144Z" />
<path d="M15.2712 1.40169C14.8701 1.78317 14.5521 2.23667 14.3355 2.73604C14.119 3.2354 14.0081 3.77074 14.0093 4.31118C14.0105 4.85161 14.1238 5.38645 14.3427 5.88483C14.5615 6.38321 14.8815 6.83527 15.2843 7.21494L92.6395 80.73C93.039 81.1128 93.514 81.4163 94.037 81.623C94.56 81.8296 95.1208 81.9354 95.6869 81.9341C96.253 81.9328 96.8132 81.8245 97.3353 81.6155C97.8574 81.4065 98.331 81.1009 98.7288 80.7163C99.1299 80.3348 99.4479 79.8813 99.6645 79.3819C99.881 78.8826 99.9919 78.3472 99.9907 77.8068C99.9895 77.2663 99.8762 76.7315 99.6573 76.2331C99.4385 75.7348 99.1185 75.2827 98.7157 74.903L21.3605 1.38795C20.961 1.00514 20.486 0.701647 19.963 0.494986C19.44 0.288326 18.8792 0.182588 18.3131 0.183865C17.747 0.185142 17.1868 0.293409 16.6647 0.502427C16.1426 0.711445 15.669 1.01708 15.2712 1.40169Z" />
</svg>
