<svg width="125" height="52" viewBox="0 0 125 52"  xmlns="http://www.w3.org/2000/svg">
<path fill-rule="evenodd" clip-rule="evenodd" d="M123.239 11.9201C127.379 20.8851 121.726 32.5554 114.875 37.8775C105.518 45.145 91.8577 49.3239 80.0283 50.9298C62.6397 53.2899 42.1361 50.98 25.0733 44.1489C13.0159 39.3226 2.25221 29.5981 0.957775 16.1571C0.480491 11.1877 1.44786 7.39614 4.88768 3.8512C9.67261 -1.06658 13.0481 1.1455 18.9338 4.0065C23.3304 6.15045 28.2198 7.96254 32.4035 10.533C40.217 15.3244 34.2115 21.426 38.3454 27.4427C40.9631 31.2274 49.1599 31.9333 53.1976 32.6072C61.0247 33.9538 69.0283 33.9058 76.8387 32.4653C81.2501 31.624 88.6676 30.6046 90.2235 25.8996C92.6181 18.6531 84.4626 10.8263 93.9084 7.24094C98.7988 5.37865 104.173 4.25963 109.257 2.92767C117.112 0.862243 119.587 4.00514 123.239 11.9201C120.512 6.00436 125.967 17.8359 123.239 11.9201Z" />
</svg>
