<svg width="100" height="80" viewBox="0 0 100 80"  xmlns="http://www.w3.org/2000/svg">
<path d="M98.7981 64.4325C98.4776 62.5178 97.2756 60.7696 95.5929 59.9372C89.984 57.0236 77.7244 52.778 77.7244 52.778V48.5325L78.0449 48.2827C80.3686 46.4513 82.0513 43.6209 82.5321 40.5408L82.6122 40.1246H82.9327C84.8558 40.1246 86.4583 38.8759 87.0994 37.211C87.5 36.4618 87.7404 35.6293 87.7404 34.7136C87.7404 34.1309 87.6603 33.5482 87.4199 32.9654C87.3397 32.3827 86.9391 31.8 86.5385 31.467L85.4167 30.7178L85.6571 29.4691C87.7404 20.2288 80.7692 11.8209 71.4744 11.6544C71.234 11.6544 70.9936 11.6544 70.8333 11.6544C70.5929 11.6544 70.3526 11.6544 70.1923 11.6544C60.8173 11.7377 53.9263 20.1455 55.9295 29.3859L56.25 30.6346L55.1282 31.3838C54.6474 31.7168 54.3269 32.2995 54.2468 32.8822C54.0064 33.4649 53.9263 34.0476 53.9263 34.6304C53.9263 35.5461 54.1667 36.3785 54.5673 37.1277C55.2083 38.8759 56.891 40.0414 58.734 40.0414H59.0545L59.1346 40.4576C59.6154 43.5377 61.2179 46.3681 63.6218 48.1995L63.9423 48.4492V52.6948C63.9423 52.6948 51.6827 56.9403 46.0737 59.8539C44.391 60.7696 43.1891 62.4346 42.8686 64.3492C41.9071 70.1764 41.7468 79.9995 41.7468 79.9995H100C99.9199 80.0827 99.7596 70.2597 98.7981 64.4325Z" />
<path d="M44.2308 56.1911C47.4359 54.5262 52.484 52.5283 56.4904 51.0298C55.9295 49.8644 54.968 48.8654 53.8462 48.2827C48.2372 45.3691 35.9776 41.1236 35.9776 41.1236V36.878L36.2981 36.6283C38.6218 34.7969 40.3045 31.9665 40.7853 28.8864L40.8654 28.4702H41.1859C43.109 28.4702 44.7115 27.2215 45.3526 25.5565C45.7532 24.8073 45.9936 23.9749 45.9936 23.0592C45.9936 22.4764 45.9135 21.8937 45.6731 21.311C45.5929 20.7283 45.1923 20.1455 44.7917 19.8126L43.6699 19.0634L43.9103 17.8147C45.9936 8.57435 39.0224 0.166492 29.7276 0C29.4872 0 29.2468 0 29.0865 0C28.8462 0 28.6058 0 28.4455 0C19.1506 0.249738 12.2596 8.57435 14.2628 17.8147L14.5833 19.0634L13.4615 19.8126C12.9808 20.1455 12.6603 20.7283 12.5801 21.311C12.3397 21.8937 12.2596 22.4764 12.2596 23.0592C12.2596 23.9749 12.5 24.8073 12.9006 25.5565C13.5417 27.3047 15.2244 28.4702 17.0673 28.4702H17.3878L17.4679 28.8864C17.8686 31.9665 19.4712 34.7136 21.875 36.6283L22.1955 36.878V41.1236C22.1955 41.1236 9.9359 45.3691 4.32692 48.2827C2.64423 49.1984 1.44231 50.8634 1.12179 52.778C0.160256 58.6052 0 68.4283 0 68.4283H38.3013C38.4615 66.7633 38.6218 65.1817 38.8622 63.7665C39.4231 60.4366 41.4263 57.6895 44.2308 56.1911Z" />
</svg>
