<svg width="100" height="100" viewBox="0 0 100 100" fill="none" xmlns="http://www.w3.org/2000/svg">
<path d="M0 50C0 22.3902 22.3902 0 50 0C77.6098 0 100 22.3902 100 50C100 77.6098 77.6098 100 50 100C22.3902 100 0 77.6098 0 50Z" fill="#CBCBCB"/>
<path d="M24.3652 38.5328C28.2346 42.2612 32.1443 44.599 36.84 41.1326C41.5558 37.6461 42.0597 33.7767 42.0597 33.7767C42.0597 33.7767 41.6163 26.3603 59.5123 42.4426C75.6147 60.3386 68.1983 59.8952 68.1983 59.8952C68.1983 59.8952 64.3289 60.399 60.8424 65.1149C57.3761 69.7904 59.8146 73.6195 63.4422 77.5897C75.0101 90.2862 82.0234 75.8565 82.0234 75.8565C90.2056 62.0717 76.5619 45.7074 66.0419 35.9532C56.2475 25.4131 39.863 11.7896 26.0983 19.9718C26.0983 19.9718 11.4873 26.1387 24.3652 38.5328Z" fill="#454545"/>
<path d="M38.7344 74.7884H29.4841C27.8114 74.7884 26.4006 73.3978 26.4006 71.705V62.4748C26.4006 58.5046 32.5474 58.5046 32.5474 62.4748V71.705L29.4639 68.6215H38.7142C42.7046 68.6417 42.7046 74.7884 38.7344 74.7884Z" fill="#7A7A7A"/>
<path d="M44.0548 65.8807H37.505C36.316 65.8807 35.3285 64.8932 35.3285 63.7042V57.1544C35.3285 54.3531 39.6816 54.3531 39.6816 57.1544V63.7042L37.505 61.5276H44.0548C46.8763 61.5276 46.8763 65.8807 44.0548 65.8807ZM49.1133 58.9883H43.9339C42.9867 58.9883 42.2007 58.2023 42.2007 57.2551V52.0959C42.2007 49.8791 45.6469 49.8791 45.6469 52.0959V57.2753L43.9137 55.5421H49.0931C51.3503 55.5421 51.3503 58.9883 49.1133 58.9883ZM53.0633 53.4663H49.073C48.3474 53.4663 47.7428 52.8618 47.7428 52.1362V48.1459C47.7428 46.4329 50.4031 46.4329 50.4031 48.1459V52.1362L49.073 50.8061H53.0633C54.7763 50.8061 54.7763 53.4663 53.0633 53.4663Z" fill="#7A7A7A"/>
</svg>
