<svg width="100" height="100" viewBox="0 0 100 100"  xmlns="http://www.w3.org/2000/svg">
<path d="M73.2111 1.83971C72.0439 0.666444 70.4584 0.00470624 68.8033 2.50056e-05C67.1481 -0.00465623 65.5589 0.648104 64.3851 1.81475C63.7658 2.4459 63.2872 3.20093 62.9807 4.03021C57.7874 14.8641 52.0698 20.9738 44.8542 24.5809C36.7585 28.575 27.4643 31.3521 12.4838 31.3521C11.2515 31.3579 10.0482 31.7261 9.02377 32.4108C7.99931 33.0955 7.19899 34.0664 6.72251 35.2026C6.25081 36.3434 6.12772 37.5983 6.36879 38.809C6.60985 40.0197 7.20428 41.1318 8.077 42.005L28.3194 62.2436L0 100L37.7634 71.6859L57.9996 91.9183C58.5793 92.5026 59.2716 92.9633 60.0345 93.2725C60.796 93.5908 61.6074 93.7593 62.4189 93.7593C63.2303 93.7593 64.0418 93.5908 64.8033 93.2725C65.9447 92.8044 66.9211 92.0072 67.608 90.9826C68.2949 89.9579 68.6614 88.7521 68.6608 87.5186C68.6608 72.5408 71.4322 63.2484 75.4207 55.279C79.0223 48.0647 85.1331 42.3482 95.9753 37.156C96.8043 36.8523 97.558 36.3733 98.1849 35.7518C99.3518 34.5782 100.005 32.9892 100 31.3344C99.9953 29.6796 99.3334 28.0944 98.1599 26.9274L73.2111 1.83971Z" />
</svg>
