<svg width="100" height="90" viewBox="0 0 100 90"  xmlns="http://www.w3.org/2000/svg">
<path d="M61.1 70.2319L14.4 23.5575L5.6 15.0122L5 14.0128C3.44941 15.3986 2.20418 17.0916 1.34341 18.9843C0.482635 20.877 0.0251448 22.9279 0 25.0067V64.9848C0 68.9608 1.58035 72.774 4.3934 75.5855C7.20644 78.397 11.0218 79.9765 15 79.9765H60C62.9603 79.9816 65.8532 79.0933 68.3 77.4279L61.1 70.2319ZM95 20.7591C93.4809 20.0754 91.7942 19.8531 90.1496 20.1196C88.5051 20.3861 86.9751 21.1298 85.75 22.2582L75 32.2527V25.0067C75 21.0307 73.4196 17.2174 70.6066 14.4059C67.7936 11.5944 63.9782 10.015 60 10.015H29.15L35.6 16.4614L68.55 49.3933L78.55 59.3878L88.55 69.3823C89.5095 69.7417 90.5253 69.9278 91.55 69.932C92.7401 69.9293 93.9161 69.6738 95 69.1824C96.4747 68.5862 97.7381 67.5641 98.6287 66.2467C99.5194 64.9293 99.9968 63.3764 100 61.7865V28.155C99.9968 26.5651 99.5194 25.0122 98.6287 23.6948C97.7381 22.3774 96.4747 21.3553 95 20.7591ZM75 62.9359L65 52.9414L32.05 20.0095L22.05 10.015L13.55 1.46965C13.0838 1.00371 12.5304 0.634113 11.9212 0.38195C11.3121 0.129787 10.6593 0 10 0C9.3407 0 8.68786 0.129787 8.07875 0.38195C7.46964 0.634113 6.91619 1.00371 6.45 1.46965C5.50848 2.41065 4.97954 3.68692 4.97954 5.0177C4.97954 6.34848 5.50848 7.62475 6.45 8.56575L9.15 11.2143L17.95 20.0095L64.65 66.6838L71.95 73.9798L86.45 88.5218C86.9148 88.9902 87.4678 89.362 88.0771 89.6157C88.6864 89.8694 89.3399 90 90 90C90.6601 90 91.3136 89.8694 91.9229 89.6157C92.5322 89.362 93.0852 88.9902 93.55 88.5218C94.0186 88.0573 94.3906 87.5046 94.6445 86.8956C94.8983 86.2866 95.029 85.6335 95.029 84.9738C95.029 84.3141 94.8983 83.6609 94.6445 83.0519C94.3906 82.443 94.0186 81.8903 93.55 81.4257L75 62.9359Z" />
</svg>
