<svg width="100" height="80" viewBox="0 0 100 80"  xmlns="http://www.w3.org/2000/svg">
<path d="M95.8333 63.0879H90.8333L98.2917 70.1404C99.2917 69.4312 100 68.328 100 67.0278C100 64.8609 98.125 63.0879 95.8333 63.0879ZM13.4583 1.15243C11.8333 -0.384142 9.16667 -0.384142 7.54167 1.15243C5.91667 2.68899 5.91667 5.17114 7.54167 6.70771L11.0417 10.096C11.0417 10.096 8.29167 12.3418 8.29167 15.8877C8.33333 19.4336 8.33333 55.2081 8.33333 55.2081L8.375 55.2475C8.375 59.542 12.0417 63.0485 16.5833 63.0879H4.16667C1.875 63.0879 0 64.8609 0 67.0278C0 69.1948 1.875 70.9677 4.16667 70.9677H75.5417L83.875 78.8476C85.5 80.3841 88.125 80.3841 89.75 78.8476C91.375 77.311 91.375 74.8289 89.75 73.2923L13.4583 1.15243ZM29.1667 51.2682C30.4583 45.4371 33.0833 39.7242 37.8333 35.3115L44.4583 41.576C38.0417 43.0731 33.1667 46.1857 29.1667 51.2682ZM54.1667 28.1409V24.2797C54.1667 22.5462 56.3333 21.6794 57.6667 22.822L62.5 27.1165L69.2083 33.0263C70.0833 33.8143 70.0833 35.1145 69.2083 35.9025L65.5 39.1726L88.75 61.1573C90.5417 59.6996 91.6667 57.6114 91.6667 55.2081V15.8089C91.6667 11.5144 87.9583 8.00788 83.4167 8.00788H32.5L53.9167 28.2196C54 28.1802 54.0833 28.1409 54.1667 28.1409Z" />
</svg>
