<svg width="101" height="60" viewBox="0 0 101 60" xmlns="http://www.w3.org/2000/svg">
<path d="M50 30C58.0542 30 64.5833 23.4708 64.5833 15.4167C64.5833 7.36252 58.0542 0.833344 50 0.833344C41.9459 0.833344 35.4167 7.36252 35.4167 15.4167C35.4167 23.4708 41.9459 30 50 30Z" />
<path d="M72.4167 40.125C65.5148 36.4092 57.836 34.3682 50 34.1667C42.1782 34.3747 34.5144 36.4155 27.625 40.125C25.5791 41.1752 23.8626 42.7694 22.6644 44.7322C21.4661 46.695 20.8325 48.9504 20.8333 51.25V53.1667C20.8278 53.9526 20.9779 54.7319 21.2749 55.4596C21.5718 56.1874 22.0099 56.8491 22.5637 57.4068C23.1175 57.9645 23.7762 58.4071 24.5018 58.7092C25.2275 59.0112 26.0057 59.1667 26.7917 59.1667H73.2083C73.9943 59.1667 74.7725 59.0112 75.4982 58.7092C76.2238 58.4071 76.8825 57.9645 77.4363 57.4068C77.9901 56.8491 78.4282 56.1874 78.7251 55.4596C79.0221 54.7319 79.1722 53.9526 79.1667 53.1667V51.25C79.1714 48.9547 78.5441 46.7023 77.3534 44.7399C76.1628 42.7775 74.4548 41.1809 72.4167 40.125Z" />
<path d="M18.75 21.6667C24.503 21.6667 29.1667 17.003 29.1667 11.25C29.1667 5.49704 24.503 0.833344 18.75 0.833344C12.997 0.833344 8.33333 5.49704 8.33333 11.25C8.33333 17.003 12.997 21.6667 18.75 21.6667Z" />
<path d="M81.25 21.6667C87.003 21.6667 91.6667 17.003 91.6667 11.25C91.6667 5.49704 87.003 0.833344 81.25 0.833344C75.497 0.833344 70.8333 5.49704 70.8333 11.25C70.8333 17.003 75.497 21.6667 81.25 21.6667Z" />
<path d="M95.5 28.0417C91.1936 25.4363 86.2817 24 81.25 23.875C76.2183 24 71.3064 25.4363 67 28.0417C66.3567 28.4346 65.7683 28.911 65.25 29.4583C65.0062 29.7084 64.8292 30.0157 64.7352 30.352C64.6412 30.6883 64.6332 31.0428 64.712 31.383C64.7909 31.7232 64.9539 32.0381 65.1863 32.2989C65.4186 32.5596 65.7128 32.7577 66.0417 32.875C68.9009 33.8537 71.6859 35.0374 74.375 36.4167C76.7353 37.6547 78.7643 39.4408 80.2917 41.625C80.4854 41.8971 80.7417 42.1187 81.0391 42.271C81.3364 42.4232 81.666 42.5018 82 42.5H95.625C96.8408 42.4247 97.979 41.8771 98.7964 40.974C99.6139 40.0709 100.046 38.8839 100 37.6667V36.3333C100.029 34.6805 99.6295 33.0483 98.841 31.5954C98.0525 30.1425 96.9015 28.9183 95.5 28.0417ZM25.7083 36.4167C28.3968 35.0362 31.1819 33.8525 34.0417 32.875C34.3706 32.7577 34.6647 32.5596 34.897 32.2989C35.1294 32.0381 35.2925 31.7232 35.3713 31.383C35.4501 31.0428 35.4422 30.6883 35.3482 30.352C35.2542 30.0157 35.0771 29.7084 34.8333 29.4583C34.3147 28.9113 33.7263 28.435 33.0833 28.0417C28.7769 25.4363 23.865 24 18.8333 23.875C13.8017 24 8.88976 25.4363 4.58333 28.0417C3.17567 28.9219 2.02084 30.1528 1.23198 31.6136C0.443131 33.0744 0.047319 34.7152 0.0833331 36.375V37.7083C0.0485682 38.9185 0.485481 40.0949 1.30181 40.9889C2.11814 41.883 3.24998 42.4248 4.45833 42.5H18.0833C18.4174 42.5018 18.747 42.4232 19.0443 42.271C19.3416 42.1187 19.5979 41.8971 19.7917 41.625C21.3191 39.4408 23.348 37.6547 25.7083 36.4167Z" />
</svg>
