<svg width="100" height="100" viewBox="0 0 100 100"  xmlns="http://www.w3.org/2000/svg">
<path d="M63.7916 36.2092C75.461 47.8906 75.3008 66.6188 63.862 78.1212C63.8391 78.1458 63.8156 78.1699 63.7916 78.1934L50.6666 91.3184C39.0904 102.895 20.2566 102.893 8.68215 91.3184C-2.89405 79.7442 -2.89405 60.9084 8.68215 49.3342L15.9294 42.087C17.8512 40.1652 21.161 41.4424 21.2602 44.1584C21.3868 47.6198 22.0074 51.0972 23.1528 54.4554C23.5406 55.5926 23.2636 56.8504 22.414 57.7L19.858 60.256C14.3842 65.7298 14.2124 74.6426 19.6324 80.17C25.1058 85.7518 34.1024 85.785 39.6178 80.2696L52.7428 67.1466C58.2488 61.6406 58.2258 52.741 52.7428 47.258C52.02 46.5366 51.2918 45.976 50.723 45.5844C50.3206 45.3081 49.9884 44.9416 49.7528 44.5141C49.5172 44.0866 49.3848 43.6099 49.3662 43.1222C49.2888 41.0584 50.0202 38.9316 51.651 37.3008L55.7632 33.1886C56.8416 32.1102 58.5332 31.9778 59.7836 32.8506C61.2154 33.8505 62.5566 34.9743 63.7916 36.2092Z" />
<path d="M91.318 8.68156C79.7436 -2.89305 60.9098 -2.89465 49.3336 8.68156L36.2086 21.8066C36.1852 21.83 36.1598 21.8554 36.1382 21.8788C24.6996 33.3812 24.5392 52.1094 36.2086 63.7908C37.4435 65.0257 38.7847 66.1496 40.2166 67.1494C41.467 68.022 43.1588 67.8894 44.237 66.8114L48.3492 62.6992C49.98 61.0684 50.7114 58.9416 50.634 56.8778C50.6153 56.3901 50.4829 55.9135 50.2473 55.486C50.0118 55.0586 49.6795 54.6921 49.2772 54.4158C48.7084 54.0242 47.9804 53.4636 47.2574 52.7422C41.7744 47.2592 41.7514 38.3596 47.2574 32.8536L60.3824 19.7306C65.8978 14.2152 74.8942 14.2484 80.3678 19.8302C85.7878 25.3576 85.6162 34.2704 80.1422 39.7442L77.5862 42.3002C76.7366 43.1498 76.4594 44.4076 76.8474 45.5448C77.9928 48.903 78.6134 52.3806 78.74 55.8418C78.8394 58.5578 82.149 59.8352 84.0708 57.9132L91.318 50.666C102.894 39.0916 102.894 20.2558 91.318 8.68156Z"/>
</svg>
