<svg width="100" height="100" viewBox="0 0 100 100"  xmlns="http://www.w3.org/2000/svg">
<path fill-rule="evenodd" clip-rule="evenodd" d="M46.8778 0C43.4222 0 40.6222 2.8 40.6222 6.25L39.8722 11.5C39.7184 12.5739 39.2877 13.5893 38.6225 14.4464C37.9573 15.3034 37.0804 15.9725 36.0782 16.3878C35.0759 16.8032 33.9828 16.9505 32.9064 16.8153C31.83 16.6801 30.8073 16.267 29.9389 15.6167L25.6944 12.4333C25.1141 11.853 24.4251 11.3926 23.6668 11.0785C22.9085 10.7644 22.0958 10.6027 21.275 10.6027C20.4542 10.6027 19.6415 10.7644 18.8832 11.0785C18.1249 11.3926 17.4359 11.853 16.8556 12.4333L12.4333 16.8556C9.98889 19.3 9.98889 23.25 12.4333 25.6889L15.6167 29.9389C16.2669 30.8069 16.6801 31.8292 16.8156 32.9052C16.9511 33.9812 16.8042 35.074 16.3895 36.0761C15.9748 37.0782 15.3064 37.9552 14.4501 38.6208C13.5938 39.2863 12.579 39.7176 11.5056 39.8722L6.25 40.6278C2.8 40.6278 0 43.4222 0 46.8722V53.1278C0 56.5722 2.8 59.3722 6.25 59.3722L11.5 60.1278C12.5739 60.2816 13.5893 60.7123 14.4464 61.3775C15.3034 62.0427 15.9725 62.9196 16.3878 63.9218C16.8032 64.9241 16.9505 66.0172 16.8153 67.0936C16.6801 68.17 16.267 69.1927 15.6167 70.0611L12.4333 74.3056C9.98889 76.75 9.98889 80.7056 12.4333 83.1444L16.8556 87.5667C19.3 90.0111 23.25 90.0111 25.6889 87.5667L29.9389 84.3833C30.8069 83.7331 31.8292 83.3199 32.9052 83.1844C33.9812 83.0489 35.074 83.1958 36.0761 83.6105C37.0782 84.0252 37.9552 84.6936 38.6208 85.5499C39.2863 86.4062 39.7176 87.421 39.8722 88.4944L40.6278 93.75C40.6278 97.2 43.4222 100 46.8722 100H53.1278C56.5722 100 59.3722 97.2 59.3722 93.75L60.1278 88.5C60.2816 87.4261 60.7123 86.4106 61.3775 85.5536C62.0427 84.6966 62.9196 84.0275 63.9218 83.6122C64.9241 83.1968 66.0172 83.0495 67.0936 83.1847C68.17 83.3199 69.1927 83.733 70.0611 84.3833L74.3056 87.5667C76.75 90.0111 80.7056 90.0111 83.1444 87.5667L87.5667 83.1444C90.0055 80.7 90.0055 76.75 87.5667 74.3111L84.3833 70.0611C83.7331 69.1931 83.3199 68.1708 83.1844 67.0948C83.0489 66.0188 83.1958 64.926 83.6105 63.9239C84.0252 62.9218 84.6936 62.0448 85.5499 61.3792C86.4062 60.7137 87.421 60.2824 88.4944 60.1278L93.75 59.3722C97.2 59.3722 100 56.5778 100 53.1278V46.8722C100 43.4278 97.2 40.6278 93.75 40.6278L88.5 39.8722C87.4261 39.7184 86.4106 39.2877 85.5536 38.6225C84.6966 37.9573 84.0275 37.0804 83.6122 36.0782C83.1968 35.0759 83.0495 33.9828 83.1847 32.9064C83.3199 31.83 83.733 30.8073 84.3833 29.9389L87.5667 25.6944C90.0055 23.25 90.0055 19.2944 87.5667 16.8556L83.1444 12.4333C81.9726 11.2629 80.384 10.6055 78.7278 10.6055C77.0715 10.6055 75.483 11.2629 74.3111 12.4333L70.0611 15.6167C69.1931 16.2669 68.1708 16.6801 67.0948 16.8156C66.0188 16.9511 64.926 16.8042 63.9239 16.3895C62.9218 15.9748 62.0448 15.3064 61.3792 14.4501C60.7137 13.5938 60.2824 12.579 60.1278 11.5056L59.3722 6.25C59.3722 2.8 56.5778 0 53.1278 0H46.8778ZM50 62.5C53.3152 62.5 56.4946 61.183 58.8388 58.8388C61.183 56.4946 62.5 53.3152 62.5 50C62.5 46.6848 61.183 43.5054 58.8388 41.1612C56.4946 38.817 53.3152 37.5 50 37.5C46.6848 37.5 43.5054 38.817 41.1612 41.1612C38.817 43.5054 37.5 46.6848 37.5 50C37.5 53.3152 38.817 56.4946 41.1612 58.8388C43.5054 61.183 46.6848 62.5 50 62.5Z" />
</svg>
