<svg width="100" height="90" viewBox="0 0 100 90"  xmlns="http://www.w3.org/2000/svg">
<path d="M82.2562 4.75573e-07C79.9255 4.24627e-07 77.6176 0.476164 75.4644 1.40131C73.3111 2.32645 71.3546 3.68246 69.7066 5.3919C68.0585 7.10134 66.7512 9.13073 65.8593 11.3642C64.9674 13.5977 64.5083 15.9916 64.5083 18.4091C64.5083 20.8266 64.9674 23.2204 65.8593 25.4539C66.7512 27.6874 68.0585 29.7168 69.7066 31.4263C71.3546 33.1357 73.3111 34.4917 75.4644 35.4169C77.6176 36.342 79.9255 36.8182 82.2562 36.8182C86.9632 36.8171 91.477 34.8765 94.8046 31.4233C98.1322 27.9702 100.001 23.2873 100 18.4049C99.9989 13.5225 98.128 8.84053 94.7989 5.38894C91.4698 1.93735 86.9551 -0.00110851 82.2481 4.75573e-07H82.2562ZM17.7479 4.75573e-07C15.4172 4.24627e-07 13.1093 0.476164 10.956 1.40131C8.80278 2.32645 6.84627 3.68246 5.19822 5.3919C3.55018 7.10134 2.24289 9.13073 1.35098 11.3642C0.459063 13.5977 0 15.9916 0 18.4091C0 20.8266 0.459063 23.2204 1.35098 25.4539C2.24289 27.6874 3.55018 29.7168 5.19822 31.4263C6.84627 33.1357 8.80278 34.4917 10.956 35.4169C13.1093 36.342 15.4172 36.8182 17.7479 36.8182C22.4549 36.8171 26.9687 34.8765 30.2963 31.4233C33.6239 27.9702 35.4927 23.2873 35.4917 18.4049C35.4906 13.5225 33.6197 8.84053 30.2906 5.38894C26.9615 1.93735 22.4549 -0.00110851 17.7479 4.75573e-07Z" />
<path d="M82.2562 53.1818C79.9255 53.1818 77.6176 53.658 75.4644 54.5831C73.3111 55.5083 71.3546 56.8643 69.7066 58.5737C68.0585 60.2831 66.7512 62.3125 65.8593 64.546C64.9674 66.7795 64.5083 69.1734 64.5083 71.5909C64.5083 74.0084 64.9674 76.4022 65.8593 78.6357C66.7512 80.8692 68.0585 82.8986 69.7066 84.6081C71.3546 86.3175 73.3111 87.6735 75.4644 88.5987C77.6176 89.5238 79.9255 90 82.2562 90C86.9632 89.9989 91.477 88.0583 94.8046 84.6051C98.1322 81.152 100.001 76.4691 100 71.5867C99.9989 66.7043 98.128 62.0223 94.7989 58.5707C91.4698 55.1192 86.9551 53.1807 82.2481 53.1818H82.2562ZM17.7479 53.1818C15.4172 53.1818 13.1093 53.658 10.956 54.5831C8.80278 55.5083 6.84627 56.8643 5.19822 58.5737C3.55018 60.2831 2.24289 62.3125 1.35098 64.546C0.459063 66.7795 0 69.1734 0 71.5909C0 74.0084 0.459063 76.4022 1.35098 78.6357C2.24289 80.8692 3.55018 82.8986 5.19822 84.6081C6.84627 86.3175 8.80278 87.6735 10.956 88.5987C13.1093 89.5238 15.4172 90 17.7479 90C22.4549 89.9989 26.9687 88.0583 30.2963 84.6051C33.6239 81.152 35.4927 76.4691 35.4917 71.5867C35.4906 66.7043 33.6197 62.0223 30.2906 58.5707C26.9615 55.1192 22.4549 53.1807 17.7479 53.1818Z" />
</svg>
