<svg width="100" height="100" viewBox="0 0 100 100" fill="none" xmlns="http://www.w3.org/2000/svg">
<g clip-path="url(#clip0_4_24)">
<path d="M0 50C0 22.3902 22.3902 0 50 0C77.6098 0 100 22.3902 100 50C100 77.6098 77.6098 100 50 100C22.3902 100 0 77.6098 0 50Z" fill="#60C558"/>
<path d="M79.216 61.7537C75.3465 58.0254 71.4368 55.6876 66.7411 59.1539C62.0253 62.6404 61.5215 66.5098 61.5215 66.5098C61.5215 66.5098 61.9648 73.9262 44.0688 57.844C27.9665 39.948 35.3828 40.3913 35.3828 40.3913C35.3828 40.3913 39.2522 39.8875 42.7387 35.1717C46.2051 30.4961 43.7665 26.667 40.139 22.6969C28.5711 10.0004 21.5578 24.43 21.5578 24.43C13.3756 38.2148 27.0193 54.5792 37.5392 64.3333C47.3337 74.8734 63.7182 88.4969 77.4828 80.3148C77.4828 80.3148 92.0938 74.1479 79.216 61.7537Z" fill="#454545"/>
</g>
<defs>
<clipPath id="clip0_4_24">
<rect width="100" height="100" fill="white"/>
</clipPath>
</defs>
</svg>
