<svg width="90" height="100" viewBox="0 0 90 100"  xmlns="http://www.w3.org/2000/svg">
<path d="M45 99.9988C43.2528 100.027 41.5289 99.5894 40 98.7309L38.5001 97.8687C26.8165 91.1641 17.0966 81.4344 10.3327 69.6734C3.5688 57.9124 0.00335021 44.5413 0.000400756 30.9255V30.2155C-0.0154488 28.4196 0.439089 26.6517 1.31756 25.0924C2.19603 23.5331 3.46692 22.2383 5.00036 21.3404L40 1.35889C41.5202 0.468667 43.2447 0 45 0C46.7554 0 48.4798 0.468667 50 1.35889L84.9996 21.3404C86.5331 22.2383 87.804 23.5331 88.6824 25.0924C89.5609 26.6517 90.0155 28.4196 89.9996 30.2155V30.9255C89.9866 44.5513 86.4061 57.9292 79.6241 69.6912C72.8422 81.4531 63.1021 91.1771 51.3999 97.8687L49.9 98.7309C48.4007 99.5723 46.7134 100.009 45 99.9988Z" />
</svg>
