<svg width="100" height="100" viewBox="0 0 100 100"  xmlns="http://www.w3.org/2000/svg">
<path d="M84.9982 17.5954H78.5984L76.9984 11.7303C75.9612 8.28886 74.0372 5.31099 71.493 3.20928C68.9488 1.10757 65.9104 -0.0139407 62.7987 0.000130813H37.1992C34.057 0.00702647 30.996 1.17129 28.4482 3.3286C25.9005 5.48592 23.9945 8.52733 22.9995 12.0236L21.3996 17.8887H14.9997C11.0215 17.8887 7.20629 19.7425 4.39331 23.0422C1.58032 26.342 0 30.8174 0 35.484V82.4047C0 87.0713 1.58032 91.5467 4.39331 94.8465C7.20629 98.1462 11.0215 100 14.9997 100H84.9982C88.9764 100 92.7916 98.1462 95.6046 94.8465C98.4176 91.5467 99.9979 87.0713 99.9979 82.4047V35.484C100.031 33.1488 99.6676 30.8292 98.9287 28.6604C98.1898 26.4917 97.0902 24.5173 95.694 22.8522C94.2978 21.1871 92.633 19.8648 90.7967 18.9623C88.9604 18.0597 86.9892 17.5951 84.9982 17.5954ZM89.9981 82.1115C89.9981 83.667 89.4714 85.1588 88.5337 86.2587C87.596 87.3586 86.3243 87.9766 84.9982 87.9766H14.9997C13.6736 87.9766 12.4019 87.3586 11.4642 86.2587C10.5266 85.1588 9.99979 83.667 9.99979 82.1115V35.1907C9.99979 33.6352 10.5266 32.1434 11.4642 31.0435C12.4019 29.9435 13.6736 29.3256 14.9997 29.3256H24.9995C26.0898 29.3924 27.1688 29.0387 28.0716 28.3185C28.9744 27.5983 29.6515 26.5513 29.9994 25.3373L32.6993 15.7186C33.0347 14.5537 33.6738 13.5418 34.5261 12.8262C35.3785 12.1105 36.401 11.7271 37.4492 11.7303H63.0487C64.0969 11.7271 65.1194 12.1105 65.9718 12.8262C66.8241 13.5418 67.4632 14.5537 67.7986 15.7186L70.4985 25.3373C70.8194 26.4561 71.4205 27.4352 72.2233 28.1468C73.0262 28.8583 73.9934 29.2692 74.9984 29.3256H84.9982C86.3243 29.3256 87.596 29.9435 88.5337 31.0435C89.4714 32.1434 89.9981 33.6352 89.9981 35.1907V82.1115ZM49.999 29.3256C46.0434 29.3256 42.1767 30.7015 38.8878 33.2794C35.5989 35.8573 33.0355 39.5213 31.5218 43.8081C30.008 48.0949 29.612 52.812 30.3837 57.3629C31.1553 61.9137 33.0601 66.094 35.8571 69.375C38.6541 72.656 42.2177 74.8904 46.0972 75.7956C49.9768 76.7008 53.998 76.2362 57.6525 74.4606C61.3069 72.6849 64.4304 69.6779 66.628 65.8199C68.8256 61.9618 69.9985 57.426 69.9985 52.786C69.9985 46.5639 67.8915 40.5967 64.1408 36.197C60.3902 31.7973 55.3032 29.3256 49.999 29.3256V29.3256ZM49.999 64.5162C48.0212 64.5162 46.0878 63.8282 44.4434 62.5393C42.7989 61.2504 41.5172 59.4183 40.7604 57.2749C40.0035 55.1315 39.8055 52.773 40.1913 50.4975C40.5772 48.2221 41.5295 46.132 42.928 44.4915C44.3265 42.851 46.1083 41.7338 48.0481 41.2812C49.9879 40.8286 51.9985 41.0609 53.8257 41.9487C55.6529 42.8365 57.2147 44.34 58.3135 46.269C59.4123 48.1981 59.9988 50.466 59.9988 52.786C59.9988 55.897 58.9452 58.8806 57.0699 61.0805C55.1946 63.2803 52.6511 64.5162 49.999 64.5162Z" />
</svg>
