<svg width="100" height="100" viewBox="0 0 100 100" xmlns="http://www.w3.org/2000/svg">
<path fill-rule="evenodd" clip-rule="evenodd" d="M35.5792 42.6019C27.9236 41.5485 19.8742 43.9622 13.9931 49.843C8.59276 55.243 7.61085 61.5942 7.57506 68.5386C7.53926 75.7284 8.95074 83.8131 1.49456 91.2689C0.00127551 92.7672 -0.418038 95.0323 0.44111 96.9652C1.30537 98.9033 3.27423 100.105 5.3863 99.9927C5.3863 99.9927 16.8825 99.3739 28.522 96.4284C36.9038 94.3113 45.2651 90.8954 50.1541 86.0016C56.0352 80.1209 58.4541 72.0773 57.4006 64.4221L100 36.0207L94.3286 27.5116L81.513 36.0563L63.9465 18.491L72.4919 5.6761L63.9822 0L35.5792 42.6019ZM42.9229 57.0787C48.9114 63.0617 48.9114 72.7828 42.9229 78.7709C39.1334 82.5601 32.5057 84.8765 26.0161 86.5129C22.334 87.4487 18.6622 88.1238 15.4404 88.6096C17.6087 83.2965 17.8593 77.9579 17.8337 72.788C17.7979 66.9993 16.857 61.4458 21.2243 57.0787C27.2128 51.0906 36.9344 51.0906 42.9229 57.0787ZM58.1625 27.1689L45.889 45.5779L54.4243 54.1127L72.8346 41.8401L58.1625 27.1689Z" stroke-width="0" />
</svg>
