<svg width="100" height="100" viewBox="0 0 100 100"  xmlns="http://www.w3.org/2000/svg">
<path d="M73.7288 67.7966C64.8504 67.7966 57.6271 75.0199 57.6271 83.8983C57.6271 92.7767 64.8504 100 73.7288 100C82.6073 100 89.8305 92.7767 89.8305 83.8983C89.8305 75.0199 82.6073 67.7966 73.7288 67.7966ZM80.5085 86.4407H76.2712V90.678C76.2712 92.0816 75.1324 93.2203 73.7288 93.2203C72.3252 93.2203 71.1864 92.0816 71.1864 90.678V86.4407H66.9492C65.5456 86.4407 64.4068 85.3019 64.4068 83.8983C64.4068 82.4947 65.5456 81.3559 66.9492 81.3559H71.1864V77.1186C71.1864 75.715 72.3252 74.5763 73.7288 74.5763C75.1324 74.5763 76.2712 75.715 76.2712 77.1186V81.3559H80.5085C81.9121 81.3559 83.0508 82.4947 83.0508 83.8983C83.0508 85.3019 81.9121 86.4407 80.5085 86.4407Z" />
<path d="M50 38.9831C60.7649 38.9831 69.4915 30.2564 69.4915 19.4915C69.4915 8.72665 60.7649 0 50 0C39.2351 0 30.5085 8.72665 30.5085 19.4915C30.5085 30.2564 39.2351 38.9831 50 38.9831Z" />
<path d="M16.1017 42.3729C23.1223 42.3729 28.8136 36.6816 28.8136 29.661C28.8136 22.6404 23.1223 16.9492 16.1017 16.9492C9.08113 16.9492 3.38983 22.6404 3.38983 29.661C3.38983 36.6816 9.08113 42.3729 16.1017 42.3729Z" />
<path d="M83.8983 42.3729C90.9189 42.3729 96.6102 36.6816 96.6102 29.661C96.6102 22.6404 90.9189 16.9492 83.8983 16.9492C76.8777 16.9492 71.1864 22.6404 71.1864 29.661C71.1864 36.6816 76.8777 42.3729 83.8983 42.3729Z" />
<path d="M80.1696 63.6948C78.1356 63.0508 75.9662 62.7119 73.7288 62.7119C63.4917 62.7119 54.9153 70.0001 52.983 79.661C52.983 79.661 25.1825 79.661 25.1189 79.661C20.3909 79.661 16.6414 75.1551 17.6272 70.5084C20.7458 55.1865 34.339 44.0678 50 44.0678C63.2204 44.0678 74.9831 52.0001 80.1696 63.6948ZM23.8306 49.4238C19.0847 53.8984 15.4576 59.6272 13.4917 66.1017H2.54237C1.15264 66.1017 0 64.949 0 63.5593C0 54.678 7.22034 47.4576 16.1017 47.4576C18.9153 47.4576 21.5593 48.1696 23.8306 49.4238ZM100 63.5593C100 64.949 98.8476 66.1017 97.4576 66.1017H86.8135L84.8136 61.6271C82.7459 56.9491 79.7628 52.8136 76.1696 49.4238C78.4407 48.1696 81.0849 47.4576 83.8983 47.4576C92.7797 47.4576 100 54.678 100 63.5593Z" />
</svg>
