<svg width="100" height="100" viewBox="0 0 100 100"  xmlns="http://www.w3.org/2000/svg">
<path d="M18.3365 82.9443C19.1068 83.6892 20.1519 84.1083 21.241 84.1083H54.1064C55.1954 84.1083 56.2406 83.6892 57.0109 82.9443L96.3914 44.8603C98.7182 42.61 100 39.6168 100 36.4333C100 33.2498 98.7182 30.2566 96.3914 28.0064L71.0366 3.48594C66.2304 -1.16198 58.415 -1.16198 53.6089 3.48594L3.60461 51.8439C-1.20154 56.4898 -1.20154 64.0519 3.60461 68.6978L18.3365 82.9443ZM66.4309 62.5986L35.2667 32.4604L45.89 22.1869L77.0542 52.325L66.4309 62.5986ZM59.4182 9.10404C60.9707 7.60625 63.6747 7.60625 65.2276 9.10404L90.5828 33.6245C92.1834 35.1723 92.1834 37.6924 90.5828 39.2426L82.8636 46.7069L51.6994 16.5688L59.4182 9.10404ZM9.41398 57.462L29.4573 38.0785L60.6215 68.2167L52.4052 76.1625H22.9422L9.41398 63.0797C7.81302 61.5299 7.81302 59.0098 9.41398 57.462ZM97.2422 92.0542H2.75422C1.61996 92.0542 0.700136 92.9437 0.700136 94.0406V98.0135C0.700136 99.1105 1.61996 100 2.75422 100H97.2422C98.3764 100 99.2963 99.1105 99.2963 98.0135V94.0406C99.2963 92.9437 98.3764 92.0542 97.2422 92.0542Z" stroke-width='1'/>
</svg>
