<svg width="102" height="102" viewBox="0 0 102 102"  xmlns="http://www.w3.org/2000/svg">
<path d="M51 1C23.5 1 1 23.5 1 51C1 78.5 23.5 101 51 101C78.5 101 101 78.5 101 51C101 23.5 78.5 1 51 1ZM69.5 62.5C71.5 64.5 71.5 67.5 69.5 69.5C67.5 71.5 64.5 71.5 62.5 69.5L51 58L39.5 69.5C37.5 71.5 34.5 71.5 32.5 69.5C30.5 67.5 30.5 64.5 32.5 62.5L44 51L32.5 39.5C30.5 37.5 30.5 34.5 32.5 32.5C34.5 30.5 37.5 30.5 39.5 32.5L51 44L62.5 32.5C64.5 30.5 67.5 30.5 69.5 32.5C71.5 34.5 71.5 37.5 69.5 39.5L58 51L69.5 62.5Z"/>
</svg>
