<svg width="100" height="100" viewBox="0 0 100 100"  xmlns="http://www.w3.org/2000/svg">
<path d="M50 0C22.4304 0 0 22.4304 0 50C0 77.5696 22.4304 100 50 100C77.5696 100 100 77.5696 100 50C100 22.4304 77.5696 0 50 0ZM12.5 50C12.5 41.9136 15.0986 34.4372 19.4679 28.3058L71.6942 80.5321C65.5628 84.9014 58.0864 87.5 50 87.5C29.3213 87.5 12.5 70.6787 12.5 50ZM80.5319 71.6942L28.3056 19.4679C34.437 15.0986 41.9134 12.5 49.9998 12.5C70.6785 12.5 87.4998 29.3213 87.4998 50C87.4998 58.0864 84.9012 65.5628 80.5319 71.6942Z" />
</svg>
