<svg width="79" height="102" viewBox="0 0 79 102"  xmlns="http://www.w3.org/2000/svg">
<path d="M72.651 36.7197L71.0338 85.4694C70.8961 89.6445 69.1301 93.6019 66.1106 96.5015C63.0912 99.4011 59.056 101.015 54.8616 101H24.1344C19.9426 101.015 15.9098 99.4034 12.8908 96.5073C9.87182 93.6111 8.10401 89.6578 7.96214 85.4855L6.34492 36.7197C6.30953 35.6518 6.70156 34.6137 7.43476 33.8336C8.16796 33.0536 9.18227 32.5955 10.2546 32.5603C11.3268 32.5251 12.3693 32.9155 13.1525 33.6457C13.9357 34.3759 14.3956 35.3861 14.431 36.454L16.0483 85.2158C16.1288 87.2974 17.0161 89.267 18.5239 90.7108C20.0317 92.1546 22.0427 92.9604 24.1344 92.9588H54.8616C56.956 92.9602 58.9692 92.1522 60.4775 90.705C61.9857 89.2577 62.8713 87.2841 62.9477 85.1996L64.5649 36.454C64.6003 35.3861 65.0602 34.3759 65.8435 33.6457C66.6267 32.9155 67.6691 32.5251 68.7414 32.5603C69.8137 32.5955 70.828 33.0536 71.5612 33.8336C72.2944 34.6137 72.6864 35.6518 72.651 36.7197V36.7197ZM78 20.4967C78 21.5646 77.574 22.5888 76.8158 23.3439C76.0576 24.099 75.0292 24.5233 73.9569 24.5233H5.04306C3.97077 24.5233 2.9424 24.099 2.18418 23.3439C1.42596 22.5888 1 21.5646 1 20.4967C1 19.4288 1.42596 18.4046 2.18418 17.6495C2.9424 16.8943 3.97077 16.4701 5.04306 16.4701H17.5765C18.8576 16.4736 20.0941 16.0022 21.0454 15.1478C21.9967 14.2934 22.5948 13.117 22.7233 11.8476C23.0217 8.86991 24.4225 6.10948 26.6528 4.10415C28.8831 2.09883 31.7831 0.992256 34.7878 1.00004H44.2081C47.2129 0.992256 50.1129 2.09883 52.3432 4.10415C54.5735 6.10948 55.9743 8.86991 56.2726 11.8476C56.4011 13.117 56.9992 14.2934 57.9506 15.1478C58.9019 16.0022 60.1384 16.4736 61.4194 16.4701H73.9529C75.0252 16.4701 76.0536 16.8943 76.8118 17.6495C77.57 18.4046 77.996 19.4288 77.996 20.4967H78ZM29.7421 16.4701H49.262C48.7307 15.2611 48.3832 13.98 48.231 12.669C48.1308 11.6765 47.6643 10.7564 46.9218 10.0868C46.1794 9.41733 45.2138 9.04611 44.2122 9.04513H34.7919C33.7903 9.04611 32.8247 9.41733 32.0822 10.0868C31.3397 10.7564 30.8732 11.6765 30.7731 12.669C30.6196 13.9802 30.2707 15.2613 29.738 16.4701H29.7421ZM33.8134 77.4767V43.1904C33.8134 42.1225 33.3875 41.0984 32.6293 40.3432C31.871 39.5881 30.8427 39.1639 29.7704 39.1639C28.6981 39.1639 27.6697 39.5881 26.9115 40.3432C26.1533 41.0984 25.7273 42.1225 25.7273 43.1904V77.4928C25.7273 78.5607 26.1533 79.5849 26.9115 80.34C27.6697 81.0951 28.6981 81.5194 29.7704 81.5194C30.8427 81.5194 31.871 81.0951 32.6293 80.34C33.3875 79.5849 33.8134 78.5607 33.8134 77.4928V77.4767ZM53.2767 77.4767V43.1904C53.2767 42.1225 52.8507 41.0984 52.0925 40.3432C51.3343 39.5881 50.3059 39.1639 49.2337 39.1639C48.1614 39.1639 47.133 39.5881 46.3748 40.3432C45.6166 41.0984 45.1906 42.1225 45.1906 43.1904V77.4928C45.1906 78.5607 45.6166 79.5849 46.3748 80.34C47.133 81.0951 48.1614 81.5194 49.2337 81.5194C50.3059 81.5194 51.3343 81.0951 52.0925 80.34C52.8507 79.5849 53.2767 78.5607 53.2767 77.4928V77.4767Z" stroke-width="2"/>
</svg>
