<svg width="81" height="102" viewBox="0 0 81 102"  xmlns="http://www.w3.org/2000/svg">
<path d="M74.5121 36.7197L72.8529 85.4694C72.7115 89.6445 70.8997 93.6019 67.8018 96.5015C64.704 99.4011 60.564 101.015 56.2606 101H24.7353C20.4346 101.015 16.2971 99.4034 13.1997 96.5073C10.1023 93.6111 8.28853 89.6578 8.14298 85.4855L6.48375 36.7197C6.44744 35.6518 6.84966 34.6137 7.6019 33.8336C8.35414 33.0536 9.3948 32.5955 10.4949 32.5603C11.5951 32.5251 12.6646 32.9155 13.4682 33.6457C14.2717 34.3759 14.7436 35.3861 14.7799 36.454L16.4391 85.2158C16.5217 87.2974 17.4321 89.267 18.9791 90.7108C20.5261 92.1546 22.5892 92.9604 24.7353 92.9588H56.2606C58.4094 92.9602 60.4749 92.1522 62.0223 90.705C63.5697 89.2577 64.4783 87.2841 64.5567 85.1996L66.216 36.454C66.2523 35.3861 66.7241 34.3759 67.5277 33.6457C68.3313 32.9155 69.4008 32.5251 70.5009 32.5603C71.6011 32.5955 72.6417 33.0536 73.3939 33.8336C74.1462 34.6137 74.5484 35.6518 74.5121 36.7197V36.7197ZM80 20.4967C80 21.5646 79.563 22.5888 78.7851 23.3439C78.0071 24.099 76.9521 24.5233 75.8519 24.5233H5.14807C4.04793 24.5233 2.99285 24.099 2.21494 23.3439C1.43703 22.5888 1 21.5646 1 20.4967C1 19.4288 1.43703 18.4046 2.21494 17.6495C2.99285 16.8943 4.04793 16.4701 5.14807 16.4701H18.0071C19.3214 16.4736 20.59 16.0022 21.566 15.1478C22.5421 14.2934 23.1557 13.117 23.2876 11.8476C23.5937 8.86991 25.0309 6.10948 27.3191 4.10415C29.6073 2.09883 32.5826 0.992256 35.6654 1.00004H45.3304C48.4132 0.992256 51.3886 2.09883 53.6768 4.10415C55.965 6.10948 57.4022 8.86991 57.7083 11.8476C57.8401 13.117 58.4538 14.2934 59.4298 15.1478C60.4058 16.0022 61.6745 16.4736 62.9888 16.4701H75.8478C76.9479 16.4701 78.003 16.8943 78.7809 17.6495C79.5588 18.4046 79.9958 19.4288 79.9958 20.4967H80ZM30.4886 16.4701H50.5155C49.9704 15.2611 49.6139 13.98 49.4578 12.669C49.355 11.6765 48.8764 10.7564 48.1146 10.0868C47.3528 9.41733 46.3622 9.04611 45.3346 9.04513H35.6696C34.642 9.04611 33.6513 9.41733 32.8895 10.0868C32.1278 10.7564 31.6492 11.6765 31.5464 12.669C31.3889 13.9802 31.031 15.2613 30.4845 16.4701H30.4886ZM34.6657 77.4767V43.1904C34.6657 42.1225 34.2287 41.0984 33.4508 40.3432C32.6729 39.5881 31.6178 39.1639 30.5177 39.1639C29.4175 39.1639 28.3625 39.5881 27.5845 40.3432C26.8066 41.0984 26.3696 42.1225 26.3696 43.1904V77.4928C26.3696 78.5607 26.8066 79.5849 27.5845 80.34C28.3625 81.0951 29.4175 81.5194 30.5177 81.5194C31.6178 81.5194 32.6729 81.0951 33.4508 80.34C34.2287 79.5849 34.6657 78.5607 34.6657 77.4928V77.4767ZM54.6346 77.4767V43.1904C54.6346 42.1225 54.1975 41.0984 53.4196 40.3432C52.6417 39.5881 51.5866 39.1639 50.4865 39.1639C49.3863 39.1639 48.3313 39.5881 47.5533 40.3432C46.7754 41.0984 46.3384 42.1225 46.3384 43.1904V77.4928C46.3384 78.5607 46.7754 79.5849 47.5533 80.34C48.3313 81.0951 49.3863 81.5194 50.4865 81.5194C51.5866 81.5194 52.6417 81.0951 53.4196 80.34C54.1975 79.5849 54.6346 78.5607 54.6346 77.4928V77.4767Z" stroke-width="2"/>
</svg>
