<svg width="100" height="100" viewBox="0 0 100 100"  xmlns="http://www.w3.org/2000/svg">
<path d="M85.0251 2.75269C83.25 0.976562 80.895 0 78.3926 0C75.8902 0 73.5342 0.978597 71.7601 2.75269L60.7362 13.7756L13.3028 61.2101C13.301 61.2119 13.2985 61.2124 13.2967 61.2142C13.2949 61.216 13.2944 61.2185 13.2926 61.2203C13.2927 61.2202 13.2925 61.2204 13.2926 61.2203C13.0804 61.4342 12.9306 61.6837 12.8302 61.9481C12.8246 61.9628 12.8107 61.9726 12.8054 61.9873L0.123298 97.2107C-0.150342 97.9696 0.0398838 98.82 0.610561 99.3896C1.00831 99.7864 1.54033 100 2.08354 100C2.32056 100 2.5586 99.9593 2.78951 99.8759L38.0128 87.1948C38.0286 87.1891 38.0391 87.1743 38.0548 87.1682C38.2854 87.0801 38.4963 86.9387 38.6898 86.7657C38.7165 86.7415 38.7544 86.7341 38.7798 86.7086L86.2244 39.2639L97.2473 28.241C99.0224 26.4669 100 24.1109 100 21.6085C100 19.104 99.0224 16.7501 97.2473 14.976L85.0251 2.75269ZM13.9294 86.0697C12.6646 84.8049 11.2164 83.8245 9.62556 83.1182L15.6164 66.4799L33.5208 84.3843L16.8816 90.3742C16.1732 88.7805 15.1927 87.3323 13.9294 86.0697ZM17.7166 62.6882L62.2091 18.1946L70.5343 26.5198L26.0408 71.0124L17.7166 62.6882ZM8.21235 87.0431C9.22871 87.5329 10.1586 88.1908 10.9835 89.0157C11.8069 89.8392 12.4655 90.7688 12.9569 91.7871L5.54321 94.456L8.21235 87.0431ZM37.3124 82.284L28.9868 73.9583L73.4803 29.4657L81.8055 37.7909L37.3124 82.284ZM94.3014 25.295L84.7514 34.845L65.1551 15.2486L74.7061 5.69865C76.6795 3.72111 80.1016 3.71908 82.0791 5.69865L94.3014 17.922C95.2891 18.9087 95.8333 20.2189 95.8333 21.6085C95.8333 22.998 95.2891 24.3062 94.3014 25.295Z" />
</svg>
