<svg width="100" height="100" viewBox="0 0 100 100"  xmlns="http://www.w3.org/2000/svg">
<path d="M50 0C77.6142 0 100 22.3857 100 50C100 77.6142 77.6142 100 50 100C22.3857 100 0 77.6142 0 50C0 22.3857 22.3857 0 50 0ZM50 8.33333C26.9882 8.33333 8.33333 26.9882 8.33333 50C8.33333 73.0117 26.9882 91.6667 50 91.6667C73.0117 91.6667 91.6667 73.0117 91.6667 50C91.6667 26.9882 73.0117 8.33333 50 8.33333ZM65.5294 63.8878C67.0642 62.1732 69.6983 62.0272 71.4133 63.5619C73.1275 65.0967 73.2733 67.7308 71.7392 69.4458C66.4042 75.4058 58.6386 79.1666 50 79.1666C41.3614 79.1666 33.5957 75.4058 28.261 69.4458C26.7263 67.7308 26.8722 65.0967 28.5869 63.5619C30.3017 62.0272 32.9357 62.1732 34.4705 63.8878C38.2912 68.1567 43.8302 70.8333 50 70.8333C56.1697 70.8333 61.7087 68.1567 65.5294 63.8878ZM35.4167 35.4167C38.8684 35.4167 41.6667 38.2149 41.6667 41.6667C41.6667 45.1184 38.8684 47.9167 35.4167 47.9167C31.9649 47.9167 29.1667 45.1184 29.1667 41.6667C29.1667 38.2149 31.9649 35.4167 35.4167 35.4167ZM64.5833 35.4167C68.035 35.4167 70.8333 38.2149 70.8333 41.6667C70.8333 45.1184 68.035 47.9167 64.5833 47.9167C61.1316 47.9167 58.3333 45.1184 58.3333 41.6667C58.3333 38.2149 61.1316 35.4167 64.5833 35.4167Z" />
</svg>
