<svg width="100" height="100" viewBox="0 0 100 100"  xmlns="http://www.w3.org/2000/svg">
<path d="M42.8216 14.2859C48.0516 14.2779 53.1827 15.7141 57.6517 18.4367C62.1207 21.1594 65.755 25.0632 68.1556 29.7199C70.5561 34.3765 71.6302 39.606 71.26 44.8342C70.8898 50.0625 69.0895 55.0875 66.0568 59.3577L63.2415 63.322L59.2858 66.1435C55.628 68.7412 51.4103 70.4373 46.9753 71.094C42.5404 71.7506 38.0134 71.3494 33.7623 69.9228C29.5113 68.4961 25.656 66.0844 22.51 62.8837C19.364 59.6829 17.0159 55.7833 15.6566 51.502C14.2973 47.2206 13.9652 42.6782 14.6872 38.244C15.4092 33.8098 17.165 29.6089 19.8118 25.9827C22.4587 22.3565 25.922 19.4073 29.9201 17.3749C33.9183 15.3424 38.3385 14.2841 42.8216 14.2859ZM42.8216 3.86263e-05C36.0893 -0.00901893 29.45 1.57499 23.444 4.62316C17.4379 7.67134 12.2348 12.0976 8.2581 17.5416C4.28136 22.9857 1.64332 29.2938 0.558671 35.9526C-0.52598 42.6115 -0.026602 49.4329 2.01617 55.8617C4.05894 62.2906 7.58738 68.1453 12.3144 72.9494C17.0414 77.7535 22.8333 81.3713 29.219 83.5084C35.6046 85.6454 42.4035 86.2413 49.0624 85.2477C55.7212 84.254 62.0519 81.6988 67.5393 77.79L87.6206 97.9187C90.3932 100.694 94.8905 100.694 97.6595 97.9187L97.7629 97.8152C98.4669 97.1808 99.03 96.4051 99.4154 95.5385C99.8008 94.6718 100 93.7336 100 92.7848C100 91.8359 99.8008 90.8977 99.4154 90.0311C99.03 89.1644 98.4669 88.3887 97.7629 87.7544L77.678 67.6292C82.2252 61.2217 84.9239 53.6829 85.4783 45.8398C86.0326 37.9966 84.4211 30.1519 80.8206 23.166C77.22 16.1801 71.7694 10.3228 65.0665 6.23635C58.3636 2.14995 50.6673 -0.00769784 42.8216 3.86263e-05Z" />
</svg>
