<svg width="108" height="75" viewBox="0 0 108 75"  xmlns="http://www.w3.org/2000/svg">
<path d="M11.1641 64.4429C18.0704 70.9566 27.1247 74.3655 36.6562 74.0386L81.8311 72.502C85.23 72.394 88.5802 71.6125 91.6877 70.2029C94.7952 68.7933 97.5982 66.7836 99.9345 64.29C104.708 59.2291 107.241 52.6414 107.072 45.7399C106.725 31.4671 94.8345 20.2522 80.5682 20.7428L40.3024 22.1191C38.1946 22.1854 36.1169 22.6693 34.1895 23.5427C32.2621 24.4161 30.5234 25.6617 29.0738 27.2073C26.1106 30.3491 24.5392 34.4364 24.6462 38.7189C24.6916 40.8274 25.155 42.902 26.0095 44.8223C26.864 46.7426 28.0926 48.4703 29.6241 49.9055C32.7335 52.8381 36.806 54.3734 41.0872 54.2253L75.3835 53.057C78.8196 52.94 81.5459 50.0493 81.4619 46.6123C81.4192 44.9601 80.7233 43.3986 79.5268 42.2701C78.3302 41.1416 76.7307 40.5381 75.0788 40.5921L40.7849 41.7626C39.8336 41.7906 38.9133 41.4416 38.2242 40.7917C37.5351 40.1418 37.133 39.2435 37.1053 38.2922C37.0848 37.34 37.4418 36.4149 38.0983 35.7188C38.7549 35.0227 39.6576 34.6122 40.6092 34.577L80.875 33.2008C84.4309 33.0838 87.8744 34.3825 90.4503 36.8119C93.0261 39.2413 94.5238 42.603 94.615 46.1597C94.6624 47.9234 94.3597 49.6823 93.7245 51.3348C93.0892 52.9872 92.1339 54.5004 90.9139 55.7867C88.4468 58.4025 85.1159 59.9125 81.5264 60.0371L36.3539 61.5759C33.3021 61.6878 30.2642 61.1932 27.416 60.1208C24.5678 59.0483 21.9659 57.4193 19.7609 55.3279C17.5446 53.2492 15.7666 50.7473 14.5299 47.967C13.2932 45.1868 12.6222 42.1834 12.5559 39.1307C12.4737 36.079 12.9976 33.0354 14.0973 30.1763C15.1969 27.3172 16.8506 24.6994 18.9624 22.4745C23.2485 17.93 29.0214 15.3071 35.2178 15.0983L87.1294 13.3254C90.5654 13.2083 93.2918 10.3177 93.2077 6.8807C93.1237 3.44369 90.2607 0.743453 86.827 0.862714L34.9132 2.63804C30.2251 2.78688 25.6041 3.86435 21.3177 5.80811C17.0313 7.75186 13.1647 10.5233 9.94154 13.962C3.35816 20.9421 -0.13824 30.0324 0.0921933 39.553C0.193046 44.2436 1.22339 48.8587 3.12353 53.1307C5.02367 57.4028 7.75817 61.2492 11.1641 64.4429Z" />
</svg>
