<svg width="82" height="102" viewBox="0 0 82 102"  xmlns="http://www.w3.org/2000/svg">
<path d="M59.6267 1C73.3556 1 81 9.9 81 25.15V76.8C81 92.3 73.3556 101 59.6267 101H22.3778C8.86667 101 1 92.3 1 76.8V25.15C1 9.9 8.86667 1 22.3778 1H59.6267ZM23.5778 69.7C22.2444 69.55 20.9556 70.25 20.2444 71.55C19.5333 72.8 19.5333 74.45 20.2444 75.75C20.9556 77 22.2444 77.75 23.5778 77.55H58.4222C60.1956 77.35 61.5333 75.645 61.5333 73.65C61.5333 71.6 60.1956 69.9 58.4222 69.7H23.5778ZM58.4222 46.895H23.5778C21.6622 46.895 20.1111 48.65 20.1111 50.8C20.1111 52.95 21.6622 54.7 23.5778 54.7H58.4222C60.3333 54.7 61.8889 52.95 61.8889 50.8C61.8889 48.65 60.3333 46.895 58.4222 46.895ZM36.8622 24.25H23.5778V24.3C21.6622 24.3 20.1111 26.05 20.1111 28.2C20.1111 30.35 21.6622 32.1 23.5778 32.1H36.8622C38.7778 32.1 40.3333 30.35 40.3333 28.145C40.3333 26 38.7778 24.25 36.8622 24.25Z"  stroke-width="2"/>
</svg>
