<svg width="102" height="81" viewBox="0 0 102 81"  xmlns="http://www.w3.org/2000/svg">
<path d="M6.40358 79.74C5.99831 79.74 5.45795 79.74 5.05268 79.6042C2.62107 78.9254 1 76.8891 1 74.3097C1 73.4951 1.13509 52.724 16.5353 37.2476C26.3968 27.3372 39.9058 21.9068 56.9271 20.9565V6.43035C56.9271 4.25821 58.2779 2.22183 60.3043 1.40728C62.3306 0.592724 64.6272 1 66.2482 2.6291L99.4802 36.5688C101.507 38.7409 101.507 42.1349 99.4802 44.1712L66.2482 78.1109C64.7622 79.74 62.3306 80.1473 60.3043 79.3327C58.2779 78.5182 56.9271 76.4818 56.9271 74.3097V59.6477C46.1199 59.3762 20.4529 60.4623 11.1317 77.0248C10.1861 78.6539 8.29483 79.74 6.40358 79.74V79.74ZM53.9551 48.6513C58.9534 48.6513 62.4657 49.0586 62.871 49.0586C65.5728 49.3301 67.7342 51.638 67.7342 54.4889V61.0053L87.9976 40.37L67.7342 19.7347V26.2511C67.7342 29.2378 65.3026 31.6814 62.3306 31.6814C45.7146 31.6814 32.8811 36.1615 24.2354 44.9858C20.3178 48.9228 17.616 53.4028 15.7248 57.6113C28.2881 50.0089 44.2286 48.6513 53.9551 48.6513Z"  stroke-width="2"/>
</svg>
