<svg viewBox="0 0 100 100" fill="none" xmlns="http://www.w3.org/2000/svg">
<path d="M34.967 93.9104V78.5761C34.9669 74.6903 38.293 71.5334 42.4128 71.509H57.5401C61.6783 71.509 65.033 74.673 65.033 78.5761V93.866C65.0329 97.2362 67.9159 99.9753 71.4892 99.9998H81.8096C86.6297 100.011 91.2566 98.2138 94.6693 95.0034C98.082 91.7929 100 87.4336 100 82.8875V39.3292C100 35.6569 98.274 32.1735 95.2875 29.8175L60.2262 3.37134C54.0974 -1.25439 45.3441 -1.10496 39.3968 3.72691L5.08954 29.8175C1.96179 32.1041 0.0923805 35.5978 0 39.3292V82.843C0 92.3184 8.14411 99.9998 18.1904 99.9998H28.2752C29.9956 100.012 31.6499 99.3752 32.8709 98.232C34.0919 97.0887 34.7786 95.5331 34.7785 93.9104H34.967Z" />
</svg>
