<svg width="100" height="100" viewBox="0 0 100 100"  xmlns="http://www.w3.org/2000/svg">
<path d="M85 0H15C11.0218 0 7.20644 1.58035 4.3934 4.3934C1.58035 7.20644 0 11.0218 0 15V85C0 88.9782 1.58035 92.7936 4.3934 95.6066C7.20644 98.4196 11.0218 100 15 100H85C85.8224 99.9885 86.6422 99.9049 87.45 99.75L88.95 99.4H89.3H89.55L91.4 98.7L92.05 98.35C92.55 98.05 93.1 97.8 93.6 97.45C94.2676 96.9588 94.9023 96.4243 95.5 95.85L95.85 95.4C96.3409 94.9025 96.7923 94.3676 97.2 93.8L97.65 93.15C97.9992 92.5933 98.3003 92.0079 98.55 91.4C98.6872 91.1601 98.8043 90.9092 98.9 90.65C99.15 90.05 99.3 89.4 99.5 88.75V88C99.7835 87.023 99.9513 86.0161 100 85V15C100 11.0218 98.4196 7.20644 95.6066 4.3934C92.7936 1.58035 88.9782 0 85 0ZM15 90C13.6739 90 12.4021 89.4732 11.4645 88.5355C10.5268 87.5979 10 86.3261 10 85V63.45L26.45 46.95C26.9148 46.4814 27.4678 46.1094 28.0771 45.8555C28.6864 45.6017 29.3399 45.471 30 45.471C30.6601 45.471 31.3136 45.6017 31.9229 45.8555C32.5322 46.1094 33.0852 46.4814 33.55 46.95L76.55 90H15ZM90 85C89.9953 85.6164 89.8766 86.2267 89.65 86.8C89.5357 87.0437 89.402 87.2778 89.25 87.5C89.1162 87.7117 88.9657 87.9123 88.8 88.1L62.05 61.35L66.45 56.95C66.9148 56.4814 67.4678 56.1094 68.0771 55.8555C68.6864 55.6017 69.3399 55.471 70 55.471C70.6601 55.471 71.3136 55.6017 71.9229 55.8555C72.5322 56.1094 73.0852 56.4814 73.55 56.95L90 73.45V85ZM90 59.3L80.6 50C77.7386 47.285 73.9445 45.7714 70 45.7714C66.0555 45.7714 62.2614 47.285 59.4 50L55 54.4L40.6 40C37.7386 37.285 33.9445 35.7714 30 35.7714C26.0555 35.7714 22.2614 37.285 19.4 40L10 49.3V15C10 13.6739 10.5268 12.4021 11.4645 11.4645C12.4021 10.5268 13.6739 10 15 10H85C86.3261 10 87.5979 10.5268 88.5355 11.4645C89.4732 12.4021 90 13.6739 90 15V59.3ZM57.5 20C56.0166 20 54.5666 20.4399 53.3332 21.264C52.0999 22.0881 51.1386 23.2594 50.5709 24.6299C50.0032 26.0003 49.8547 27.5083 50.1441 28.9632C50.4335 30.418 51.1478 31.7544 52.1967 32.8033C53.2456 33.8522 54.582 34.5665 56.0368 34.8559C57.4917 35.1453 58.9997 34.9968 60.3701 34.4291C61.7406 33.8614 62.9119 32.9001 63.736 31.6668C64.5601 30.4334 65 28.9834 65 27.5C65 25.5109 64.2098 23.6032 62.8033 22.1967C61.3968 20.7902 59.4891 20 57.5 20Z" />
</svg>
