 <svg class="signupPasswordShowSvg" width="139" height="147" viewBox="0 0 139 147" fill="none" xmlns="http://www.w3.org/2000/svg">
 <g id="index_account_signupPasswordShow 1">
 <path id="passwordUpLine" fill-rule="evenodd" clip-rule="evenodd" d="M69.5011 32.6693C41.3309 32.6693 17.3103 50.2814 7.42118 75.0871C7.22419 75.5812 6.93712 76.0293 6.57635 76.4061C6.21558 76.7828 5.78818 77.0807 5.31854 77.2828C4.84891 77.4848 4.34625 77.587 3.83925 77.5837C3.33226 77.5803 2.83086 77.4713 2.36368 77.263C1.89651 77.0546 1.47271 76.751 1.11648 76.3695C0.760249 75.988 0.478568 75.536 0.287515 75.0393C0.0964626 74.5427 -0.00021887 74.0111 0.00299185 73.4749C0.00620257 72.9387 0.10924 72.4085 0.306225 71.9144C11.4174 44.0462 38.2613 24.5018 69.5011 24.5018C100.741 24.5018 127.585 44.0462 138.696 71.9144C139.094 72.9122 139.101 74.0363 138.715 75.0393C138.329 76.0424 137.582 76.8422 136.638 77.263C135.695 77.6837 134.632 77.6908 133.684 77.2828C132.735 76.8747 131.979 76.0849 131.581 75.0871C121.692 50.2814 97.6713 32.6693 69.5011 32.6693V32.6693Z" fill="#2B3151"/>
 <path id="passwordDownLine" fill-rule="evenodd" clip-rule="evenodd" d="M69.5011 114.332C41.3309 114.332 17.3103 96.7202 7.42118 71.9144C7.22419 71.4204 6.93712 70.9722 6.57635 70.5954C6.21558 70.2187 5.78818 69.9208 5.31854 69.7188C4.84891 69.5167 4.34625 69.4145 3.83925 69.4179C3.33226 69.4213 2.83086 69.5302 2.36368 69.7386C1.89651 69.9469 1.47271 70.2505 1.11648 70.632C0.760249 71.0135 0.478568 71.4655 0.287515 71.9622C0.0964626 72.4589 -0.00021887 72.9904 0.00299185 73.5266C0.00620257 74.0628 0.10924 74.5931 0.306225 75.0871C11.4174 102.955 38.2613 122.5 69.5011 122.5C100.741 122.5 127.585 102.955 138.696 75.0871C139.094 74.0893 139.101 72.9652 138.715 71.9622C138.329 70.9592 137.582 70.1593 136.638 69.7386C135.695 69.3178 134.632 69.3107 133.684 69.7188C132.735 70.1268 131.979 70.9166 131.581 71.9144C121.692 96.7202 97.6713 114.332 69.5011 114.332V114.332Z" fill="#2B3151"/>
 <path id="passwordMiddleLine" fill-rule="evenodd" clip-rule="evenodd" d="M69.5011 53.0866C66.9461 53.0535 64.4102 53.5571 62.0406 54.5682C59.671 55.5794 57.5148 57.0779 55.6969 58.977C53.8791 60.876 52.4358 63.1378 51.4507 65.6312C50.4657 68.1246 49.9584 70.8 49.9584 73.5023C49.9584 76.2046 50.4657 78.88 51.4507 81.3734C52.4358 83.8668 53.8791 86.1286 55.6969 88.0276C57.5148 89.9267 59.671 91.4252 62.0406 92.4364C64.4102 93.4475 66.9461 93.9511 69.5011 93.918C74.5801 93.8522 79.43 91.6723 82.9995 87.8508C86.5691 84.0293 88.5709 78.874 88.5709 73.5023C88.5709 68.1306 86.5691 62.9753 82.9995 59.1538C79.43 55.3322 74.5801 53.1523 69.5011 53.0866V53.0866ZM42.4747 73.5008C42.4747 69.7474 43.1738 66.0307 44.532 62.563C45.8902 59.0953 47.8809 55.9445 50.3905 53.2904C52.9002 50.6364 55.8795 48.5311 59.1585 47.0947C62.4375 45.6583 65.9519 44.919 69.5011 44.919C73.0502 44.919 76.5646 45.6583 79.8436 47.0947C83.1226 48.5311 86.102 50.6364 88.6116 53.2904C91.1213 55.9445 93.112 59.0953 94.4702 62.563C95.8284 66.0307 96.5275 69.7474 96.5275 73.5008C96.5275 81.0811 93.6801 88.351 88.6116 93.7111C83.5432 99.0712 76.6689 102.082 69.5011 102.082C62.3332 102.082 55.459 99.0712 50.3905 93.7111C45.3221 88.351 42.4747 81.0811 42.4747 73.5008V73.5008Z" fill="#2B3151"/>
 <path id="passwordShowLine" fill-rule="evenodd" clip-rule="evenodd" d="M137.871 1.19665C139.376 2.79218 139.376 5.37687 137.871 6.9724L6.59009 145.805C6.23148 146.184 5.8058 146.485 5.33733 146.69C4.86887 146.895 4.36679 147 3.85979 147C3.35278 147 2.85076 146.894 2.3824 146.689C1.91403 146.483 1.48849 146.183 1.13008 145.803C0.771666 145.424 0.487394 144.974 0.293495 144.479C0.0995951 143.983 -0.000134317 143.452 1.35769e-07 142.916C0.000134589 142.38 0.100131 141.849 0.294279 141.354C0.488427 140.858 0.772926 140.408 1.13153 140.029L132.409 1.19665C133.915 -0.398882 136.362 -0.398882 137.871 1.19665Z" fill="#2B3151"/>
 </g>
 </svg>