<svg width="53" height="104" viewBox="0 0 53 104" xmlns="http://www.w3.org/2000/svg">
<path d="M38.6887 2C45.68 2 49.1756 6.56 49.1756 11.785C49.1756 18.31 43.1026 24.345 35.1983 24.345C28.5774 24.345 24.7165 20.595 24.8991 14.395C24.8991 9.18 29.4957 2 38.6887 2ZM17.1774 102C11.6574 102 7.61391 98.74 11.4748 84.38L17.8087 58.92C18.9096 54.85 19.0922 53.215 17.8087 53.215C16.1548 53.215 8.99652 56.025 4.75478 58.8L2 54.4C15.4191 43.47 30.8574 37.065 37.4835 37.065C42.9983 37.065 43.9165 43.43 41.1617 53.215L33.9043 79.975C32.6209 84.7 33.1687 86.33 34.4574 86.33C36.1113 86.33 41.5374 84.37 46.8696 80.295L50 84.365C36.9461 97.1 22.687 102 17.1774 102Z"/>
</svg>
