<svg width="102" height="102" viewBox="0 0 102 102" xmlns="http://www.w3.org/2000/svg">
<path d="M51.0026 1C23.3843 1 1 23.3843 1 50.9974C0.999316 57.564 2.29221 64.0665 4.80483 70.1334C7.31745 76.2003 11.0006 81.7128 15.6439 86.3561C20.2872 90.9994 25.7997 94.6826 31.8666 97.1952C37.9335 99.7078 44.436 101.001 51.0026 101C78.6105 101 101 78.6158 101 50.9974C101 23.3843 78.6105 1 51.0026 1ZM55.669 19.0511C60.5438 19.0511 61.976 21.8791 61.976 25.1133C61.976 29.1496 58.747 32.8838 53.2317 32.8838C48.6173 32.8838 46.4195 30.5662 46.5549 26.7278C46.5549 23.4936 49.2579 19.0511 55.669 19.0511ZM43.1801 80.9438C39.8469 80.9438 37.4148 78.9178 39.7428 70.0381L43.5603 54.2837C44.2217 51.763 44.3311 50.7526 43.5603 50.7526C42.5655 50.7526 38.2376 52.4921 35.6857 54.2108L34.0243 51.487C42.1229 44.7217 51.4349 40.7531 55.419 40.7531C58.7522 40.7531 59.3043 44.6904 57.6429 50.7526L53.2681 67.3143C52.4921 70.2412 52.8254 71.2516 53.6014 71.2516C54.6014 71.2516 57.872 70.0433 61.0906 67.507L62.9759 70.0381C55.0961 77.9127 46.508 80.9438 43.1801 80.9438Z"  />
</svg>
