<svg width="100" height="100" viewBox="0 0 100 100" xmlns="http://www.w3.org/2000/svg">
<g clip-path="url(#clip0_2_9)">
<path d="M68.75 0H31.25C22.962 0 15.0134 3.2924 9.15291 9.15291C3.2924 15.0134 0 22.962 0 31.25L0 68.75C0 77.038 3.2924 84.9866 9.15291 90.8471C15.0134 96.7076 22.962 100 31.25 100H68.75C77.038 100 84.9866 96.7076 90.8471 90.8471C96.7076 84.9866 100 77.038 100 68.75V31.25C100 22.962 96.7076 15.0134 90.8471 9.15291C84.9866 3.2924 77.038 0 68.75 0V0ZM90.625 68.75C90.625 80.8125 80.8125 90.625 68.75 90.625H31.25C19.1875 90.625 9.375 80.8125 9.375 68.75V31.25C9.375 19.1875 19.1875 9.375 31.25 9.375H68.75C80.8125 9.375 90.625 19.1875 90.625 31.25V68.75Z" fill="url(#paint0_linear_2_9)"/>
<path d="M50 25C43.3696 25 37.0107 27.6339 32.3223 32.3223C27.6339 37.0107 25 43.3696 25 50C25 56.6304 27.6339 62.9893 32.3223 67.6777C37.0107 72.3661 43.3696 75 50 75C56.6304 75 62.9893 72.3661 67.6777 67.6777C72.3661 62.9893 75 56.6304 75 50C75 43.3696 72.3661 37.0107 67.6777 32.3223C62.9893 27.6339 56.6304 25 50 25ZM50 65.625C45.8575 65.62 41.8861 63.9722 38.9569 61.0431C36.0278 58.1139 34.38 54.1425 34.375 50C34.375 41.3813 41.3875 34.375 50 34.375C58.6125 34.375 65.625 41.3813 65.625 50C65.625 58.6125 58.6125 65.625 50 65.625Z" fill="url(#paint1_linear_2_9)"/>
<path d="M76.875 26.4562C78.7148 26.4562 80.2063 24.9648 80.2063 23.125C80.2063 21.2852 78.7148 19.7938 76.875 19.7938C75.0352 19.7938 73.5438 21.2852 73.5438 23.125C73.5438 24.9648 75.0352 26.4562 76.875 26.4562Z" fill="url(#paint2_linear_2_9)"/>
</g>
<defs>
<linearGradient id="paint0_linear_2_9" x1="9.15" y1="90.85" x2="90.85" y2="9.15" gradientUnits="userSpaceOnUse">
<stop stop-color="#FFC107"/>
<stop offset="0.507" stop-color="#F44336"/>
<stop offset="0.99" stop-color="#9C27B0"/>
</linearGradient>
<linearGradient id="paint1_linear_2_9" x1="32.325" y1="67.675" x2="67.675" y2="32.325" gradientUnits="userSpaceOnUse">
<stop stop-color="#FFC107"/>
<stop offset="0.507" stop-color="#F44336"/>
<stop offset="0.99" stop-color="#9C27B0"/>
</linearGradient>
<linearGradient id="paint2_linear_2_9" x1="74.5188" y1="25.4812" x2="79.2313" y2="20.7687" gradientUnits="userSpaceOnUse">
<stop stop-color="#FFC107"/>
<stop offset="0.507" stop-color="#F44336"/>
<stop offset="0.99" stop-color="#9C27B0"/>
</linearGradient>
<clipPath id="clip0_2_9">
<rect width="100" height="100" fill="white"/>
</clipPath>
</defs>
</svg>
