<svg width="84" height="84" viewBox="0 0 84 84"  xmlns="http://www.w3.org/2000/svg">
<path d="M42 82.6187C37.7313 82.6187 33.4625 80.9938 30.2125 77.7438L6.25625 53.7875C3.13428 50.659 1.38093 46.4198 1.38093 42C1.38093 37.5802 3.13428 33.341 6.25625 30.2125L30.2125 6.25625C36.5062 -0.0437508 47.5 -0.0437508 53.7875 6.25625L77.7438 30.2125C80.8657 33.341 82.6191 37.5802 82.6191 42C82.6191 46.4198 80.8657 50.659 77.7438 53.7875L53.7875 77.7438C50.5375 80.9938 46.2688 82.6187 42 82.6187V82.6187ZM42 7.625C39.2188 7.625 36.6 8.70625 34.6313 10.675L10.675 34.6312C8.72472 36.5877 7.62959 39.2375 7.62959 42C7.62959 44.7625 8.72472 47.4123 10.675 49.3687L34.6313 73.325C38.6938 77.3875 45.3063 77.3875 49.3688 73.325L73.325 49.3687C75.2753 47.4123 76.3704 44.7625 76.3704 42C76.3704 39.2375 75.2753 36.5877 73.325 34.6312L49.3688 10.675C48.403 9.70485 47.2545 8.93577 45.9897 8.41226C44.7249 7.88874 43.3689 7.62116 42 7.625V7.625Z"  stroke-width="2"/>
<path d="M43.5625 51.375C42.9449 51.3749 42.3412 51.1917 41.8276 50.8487C41.314 50.5057 40.9136 50.0183 40.6769 49.4478C40.4401 48.8774 40.3777 48.2496 40.4975 47.6438C40.6173 47.0379 40.914 46.4811 41.35 46.0437L48.5188 38.875L41.35 31.7125C40.7808 31.1231 40.4658 30.3337 40.4729 29.5144C40.48 28.695 40.8087 27.9112 41.3881 27.3318C41.9675 26.7524 42.7513 26.4238 43.5706 26.4166C44.39 26.4095 45.1794 26.7245 45.7688 27.2937L55.1438 36.6687C55.7296 37.2548 56.0587 38.0495 56.0587 38.8781C56.0587 39.7068 55.7296 40.5015 55.1438 41.0875L45.7688 50.4625C45.4792 50.7523 45.1352 50.9821 44.7566 51.1387C44.378 51.2953 43.9722 51.3756 43.5625 51.375V51.375Z" stroke-width="2"/>
<path d="M32.625 57.625C31.7962 57.625 31.0013 57.2958 30.4153 56.7097C29.8292 56.1237 29.5 55.3288 29.5 54.5V45.125C29.5 39.9562 33.7063 35.75 38.875 35.75H50.3812C51.2101 35.75 52.0049 36.0792 52.591 36.6653C53.177 37.2513 53.5062 38.0462 53.5062 38.875C53.5062 39.7038 53.177 40.4987 52.591 41.0847C52.0049 41.6708 51.2101 42 50.3812 42H38.875C38.0462 42 37.2513 42.3292 36.6653 42.9153C36.0792 43.5013 35.75 44.2962 35.75 45.125V54.5C35.75 55.3288 35.4208 56.1237 34.8347 56.7097C34.2487 57.2958 33.4538 57.625 32.625 57.625Z" stroke-width="2"/>
</svg>
