<svg width="100" height="100" viewBox="0 0 100 100" xmlns="http://www.w3.org/2000/svg">
<path d="M50 0C22.3875 0 0 22.3875 0 50C0 77.6125 22.3875 100 50 100C77.6125 100 100 77.6125 100 50C100 22.3875 77.6125 0 50 0ZM43.75 43.75C43.75 42.0924 44.4085 40.5027 45.5806 39.3306C46.7527 38.1585 48.3424 37.5 50 37.5C51.6576 37.5 53.2473 38.1585 54.4194 39.3306C55.5915 40.5027 56.25 42.0924 56.25 43.75V75C56.25 76.6576 55.5915 78.2473 54.4194 79.4194C53.2473 80.5915 51.6576 81.25 50 81.25C48.3424 81.25 46.7527 80.5915 45.5806 79.4194C44.4085 78.2473 43.75 76.6576 43.75 75V43.75ZM50 31.35C49.179 31.3498 48.3661 31.1879 47.6077 30.8735C46.8494 30.5592 46.1603 30.0985 45.5799 29.5179C44.9996 28.9372 44.5393 28.2479 44.2253 27.4894C43.9113 26.7308 43.7498 25.9178 43.75 25.0969C43.7502 24.2759 43.9121 23.463 44.2265 22.7046C44.5408 21.9462 45.0015 21.2572 45.5821 20.6768C46.1628 20.0964 46.8521 19.6361 47.6106 19.3221C48.3692 19.0082 49.1822 18.8467 50.0031 18.8469C51.6611 18.8473 53.2511 19.5063 54.4232 20.679C55.5953 21.8517 56.2535 23.442 56.2531 25.1C56.2527 26.758 55.5937 28.348 54.421 29.5201C53.2483 30.6922 51.658 31.3504 50 31.35Z" />
</svg>