<svg width="100" height="100" viewBox="0 0 100 100"  xmlns="http://www.w3.org/2000/svg">
<path fill-rule="evenodd" clip-rule="evenodd" d="M98.2028 86.6366C95.1161 96.0163 83.0226 100.696 74.3826 99.9162C62.5825 98.8495 49.7424 92.5898 39.9956 85.6967C25.6688 75.5637 12.2487 59.8909 4.42868 43.2582C-1.09803 31.5053 -2.33804 17.0524 5.88202 6.33949C8.92205 2.37963 12.2154 0.266376 17.1488 0.0197179C24.0022 -0.313604 24.9622 3.60626 27.3155 9.71271C29.0689 14.2792 31.4089 18.939 32.7156 23.6722C35.1623 32.5052 26.6089 32.8719 25.5288 40.0916C24.8622 44.6448 30.3755 50.7512 32.8689 53.9978C37.6748 60.3207 43.5611 65.744 50.2557 70.0172C54.0557 72.4105 60.1758 76.7237 64.5225 74.3437C71.2159 70.6772 70.5892 59.3909 79.9426 63.2108C84.7893 65.1841 89.4827 68.0306 94.1094 70.5239C101.263 74.3704 100.929 78.3569 98.2028 86.6366C100.243 80.4502 96.1627 92.8231 98.2028 86.6366Z" />
</svg>
