
<svg width="100" height="100" viewBox="0 0 100 100" xmlns="http://www.w3.org/2000/svg">
<path d="M50 0C40.1109 0 30.444 2.93245 22.2215 8.42652C13.9991 13.9206 7.59043 21.7295 3.80604 30.8658C0.0216643 40.0021 -0.968502 50.0555 0.960758 59.7545C2.89002 69.4536 7.65206 78.3627 14.6447 85.3553C21.6373 92.3479 30.5465 97.11 40.2455 99.0392C49.9445 100.969 59.9979 99.9783 69.1342 96.194C78.2705 92.4096 86.0794 86.001 91.5735 77.7785C97.0675 69.556 100 59.8891 100 50C100 36.7392 94.7322 24.0215 85.3553 14.6447C75.9785 5.26784 63.2608 0 50 0ZM73.5833 39.9583L50 63.5C47.6563 65.8408 44.4792 67.1557 41.1667 67.1557C37.8542 67.1557 34.6771 65.8408 32.3333 63.5L26.4167 57.625C26.0282 57.2365 25.72 56.7753 25.5098 56.2677C25.2995 55.7601 25.1913 55.2161 25.1913 54.6667C25.1913 54.1172 25.2995 53.5732 25.5098 53.0656C25.72 52.558 26.0282 52.0968 26.4167 51.7083C26.8052 51.3198 27.2664 51.0117 27.774 50.8014C28.2816 50.5912 28.8256 50.4829 29.375 50.4829C29.9244 50.4829 30.4685 50.5912 30.9761 50.8014C31.4836 51.0117 31.9449 51.3198 32.3333 51.7083L38.2083 57.625C38.5957 58.0155 39.0565 58.3255 39.5643 58.537C40.072 58.7486 40.6166 58.8575 41.1667 58.8575C41.7167 58.8575 42.2613 58.7486 42.7691 58.537C43.2768 58.3255 43.7377 58.0155 44.125 57.625L67.6667 34.0417C68.0552 33.6532 68.5164 33.345 69.024 33.1347C69.5316 32.9245 70.0756 32.8163 70.625 32.8163C71.1744 32.8163 71.7185 32.9245 72.226 33.1347C72.7336 33.345 73.1948 33.6532 73.5833 34.0417C73.9718 34.4302 74.28 34.8914 74.4902 35.399C74.7005 35.9065 74.8087 36.4506 74.8087 37C74.8087 37.5494 74.7005 38.0934 74.4902 38.601C74.28 39.1086 73.9718 39.5698 73.5833 39.9583Z" />
</svg>