<svg width="100" height="90" viewBox="0 0 100 90"  xmlns="http://www.w3.org/2000/svg">
<path d="M6.28356 90H93.7078C94.7941 90.0009 95.8622 89.7331 96.8078 89.2228C97.7534 88.7124 98.5443 87.9769 99.1034 87.088C99.6625 86.1991 99.9708 85.187 99.998 84.1506C100.025 83.1141 99.7707 82.0886 99.259 81.174L55.6412 3.174C55.1061 2.21551 54.3081 1.41386 53.3325 0.854789C52.357 0.295717 51.2405 0.000253689 50.1025 0H50.0962C47.7764 0 45.6515 1.218 44.5576 3.168L0.744896 81.168C0.232394 82.0823 -0.0236231 83.1075 0.00171349 84.1442C0.02705 85.1808 0.332879 86.1935 0.889492 87.084C1.4491 87.9725 2.2398 88.7078 3.18489 89.2187C4.12998 89.7296 5.19739 89.9988 6.28356 90ZM50.0962 66C50.922 66.0002 51.7397 66.1556 52.5026 66.4574C53.2654 66.7592 53.9586 67.2014 54.5423 67.7589C55.1261 68.3163 55.5891 68.978 55.905 69.7062C56.2208 70.4344 56.3832 71.2149 56.383 72.003C56.3828 72.7911 56.22 73.5715 55.9038 74.2996C55.5876 75.0276 55.1242 75.6891 54.5401 76.2463C53.956 76.8034 53.2627 77.2453 52.4997 77.5467C51.7367 77.8482 50.9189 78.0032 50.0931 78.003C48.4253 78.0026 46.826 77.3699 45.647 76.2441C44.468 75.1184 43.8059 73.5917 43.8063 72C43.8067 70.4083 44.4696 68.882 45.6492 67.7567C46.8288 66.6315 48.4285 65.9996 50.0962 66ZM43.8094 54.096V30.096C43.8094 28.5047 44.4718 26.9786 45.6508 25.8534C46.8298 24.7281 48.4289 24.096 50.0962 24.096C51.7636 24.096 53.3627 24.7281 54.5417 25.8534C55.7207 26.9786 56.383 28.5047 56.383 30.096V54.096C56.383 55.6873 55.7207 57.2134 54.5417 58.3386C53.3627 59.4639 51.7636 60.096 50.0962 60.096C48.4289 60.096 46.8298 59.4639 45.6508 58.3386C44.4718 57.2134 43.8094 55.6873 43.8094 54.096Z" />
</svg>