<svg viewBox="0 0 100 100" fill="none" xmlns="http://www.w3.org/2000/svg">
<path d="M50 0C22.5 0 2.6077e-07 22.5 2.6077e-07 50C2.6077e-07 61.5 4 72.5 11.5 81.5L1.5 91.5C-0.5 93.5 -0.5 96.5 1.5 98.5C2.5 99.5 3.5 100 5 100H50C77.5 100 100 77.5 100 50C100 22.5 77.5 0 50 0ZM30 55C27 55 25 53 25 50C25 47 27 45 30 45C33 45 35 47 35 50C35 53 33 55 30 55ZM50 55C47 55 45 53 45 50C45 47 47 45 50 45C53 45 55 47 55 50C55 53 53 55 50 55ZM70 55C67 55 65 53 65 50C65 47 67 45 70 45C73 45 75 47 75 50C75 53 73 55 70 55Z" />
</svg>
