<svg width="23" height="100" viewBox="0 0 23 100" fill="none" xmlns="http://www.w3.org/2000/svg">
<path d="M11.11 22.2222C13.3073 22.2222 15.4554 21.5706 17.2824 20.3497C19.1094 19.1288 20.5334 17.3934 21.3743 15.3632C22.2152 13.3329 22.4352 11.0988 22.0065 8.94344C21.5778 6.7881 20.5197 4.80829 18.9659 3.25437C17.4122 1.70046 15.4326 0.642226 13.2775 0.213502C11.1223 -0.215223 8.88848 0.00481423 6.85839 0.845788C4.8283 1.68676 3.09316 3.1109 1.87238 4.93811C0.651597 6.76533 5.98712e-06 8.91355 5.98712e-06 11.1111C5.98712e-06 14.058 1.17052 16.8841 3.25405 18.9679C5.33758 21.0516 8.16345 22.2222 11.11 22.2222ZM11.11 77.7778C8.91265 77.7778 6.76465 78.4294 4.93762 79.6503C3.11059 80.8712 1.68659 82.6066 0.845703 84.6368C0.00481375 86.6671 -0.215201 88.9012 0.21348 91.0565C0.642162 93.2119 1.70029 95.1917 3.25405 96.7456C4.80781 98.2995 6.78742 99.3578 8.94255 99.7865C11.0977 100.215 13.3315 99.9952 15.3616 99.1542C17.3917 98.3132 19.1268 96.8891 20.3476 95.0619C21.5684 93.2347 22.22 91.0864 22.22 88.8889C22.22 85.942 21.0495 83.1159 18.9659 81.0321C16.8824 78.9484 14.0566 77.7778 11.11 77.7778ZM11.11 38.8889C8.91265 38.8889 6.76465 39.5405 4.93762 40.7614C3.11059 41.9824 1.68659 43.7177 0.845703 45.748C0.00481375 47.7783 -0.215201 50.0123 0.21348 52.1677C0.642162 54.323 1.70029 56.3028 3.25405 57.8567C4.80781 59.4107 6.78742 60.4689 8.94255 60.8976C11.0977 61.3263 13.3315 61.1063 15.3616 60.2653C17.3917 59.4244 19.1268 58.0002 20.3476 56.173C21.5684 54.3458 22.22 52.1976 22.22 50C22.22 47.0531 21.0495 44.227 18.9659 42.1433C16.8824 40.0595 14.0566 38.8889 11.11 38.8889Z" fill="black"/>
</svg>
