<svg width="25" height="100" viewBox="0 0 25 100" fill="none" xmlns="http://www.w3.org/2000/svg">
<path fill-rule="evenodd" clip-rule="evenodd" d="M12.5 36.8421C5.6 36.8421 0 42.7368 0 50C0 57.2632 5.6 63.1579 12.5 63.1579C19.4 63.1579 25 57.2632 25 50C25 42.7368 19.4 36.8421 12.5 36.8421ZM12.5 42.1053C16.64 42.1053 20 45.6421 20 50C20 54.3579 16.64 57.8947 12.5 57.8947C8.36 57.8947 5 54.3579 5 50C5 45.6421 8.36 42.1053 12.5 42.1053ZM12.5 73.6842C5.6 73.6842 0 79.5789 0 86.8421C0 94.1053 5.6 100 12.5 100C19.4 100 25 94.1053 25 86.8421C25 79.5789 19.4 73.6842 12.5 73.6842ZM12.5 78.9474C16.64 78.9474 20 82.4842 20 86.8421C20 91.2 16.64 94.7368 12.5 94.7368C8.36 94.7368 5 91.2 5 86.8421C5 82.4842 8.36 78.9474 12.5 78.9474ZM12.5 0C5.6 0 0 5.89474 0 13.1579C0 20.4211 5.6 26.3158 12.5 26.3158C19.4 26.3158 25 20.4211 25 13.1579C25 5.89474 19.4 0 12.5 0ZM12.5 5.26316C16.64 5.26316 20 8.8 20 13.1579C20 17.5158 16.64 21.0526 12.5 21.0526C8.36 21.0526 5 17.5158 5 13.1579C5 8.8 8.36 5.26316 12.5 5.26316Z" fill="black"/>
</svg>
