<svg width="100" height="100" viewBox="0 0 100 100"  xmlns="http://www.w3.org/2000/svg">
<path d="M25.0018 25.5328L25 65.625C25 73.9093 31.4471 80.6877 39.5977 81.2168L40.625 81.25L68.215 81.2544C66.9268 84.8933 63.4553 87.5 59.375 87.5H37.5C27.1447 87.5 18.75 79.1053 18.75 68.75V34.375C18.75 30.2924 21.3596 26.8193 25.0018 25.5328ZM71.875 12.5C77.0527 12.5 81.25 16.6973 81.25 21.875V65.625C81.25 70.8027 77.0527 75 71.875 75H40.625C35.4473 75 31.25 70.8027 31.25 65.625V21.875C31.25 16.6973 35.4473 12.5 40.625 12.5H71.875ZM71.875 18.75H40.625C38.8991 18.75 37.5 20.1491 37.5 21.875V65.625C37.5 67.3509 38.8991 68.75 40.625 68.75H71.875C73.6009 68.75 75 67.3509 75 65.625V21.875C75 20.1491 73.6009 18.75 71.875 18.75Z"   stroke-width="2"/>
</svg>
