<svg width="100" height="100" viewBox="0 0 100 100" xmlns="http://www.w3.org/2000/svg">
<path d="M83 42.1667C82.8017 41.6552 82.5043 41.1879 82.125 40.7917L69.625 28.2917C69.2365 27.9032 68.7753 27.595 68.2677 27.3848C67.7601 27.1745 67.2161 27.0663 66.6667 27.0663C65.5571 27.0663 64.4929 27.5071 63.7083 28.2917C63.3198 28.6802 63.0117 29.1414 62.8014 29.649C62.5912 30.1566 62.483 30.7006 62.483 31.25C62.483 32.3596 62.9237 33.4237 63.7083 34.2083L69.125 39.5833H29.1667C25.8515 39.5833 22.672 40.9003 20.3278 43.2445C17.9836 45.5887 16.6667 48.7681 16.6667 52.0833V68.75C16.6667 69.8551 17.1057 70.9149 17.8871 71.6963C18.6685 72.4777 19.7283 72.9167 20.8333 72.9167C21.9384 72.9167 22.9982 72.4777 23.7796 71.6963C24.561 70.9149 25 69.8551 25 68.75V52.0833C25 50.9783 25.439 49.9185 26.2204 49.1371C27.0018 48.3557 28.0616 47.9167 29.1667 47.9167H69.125L63.7083 53.2917C63.3178 53.679 63.0078 54.1398 62.7963 54.6476C62.5847 55.1553 62.4758 55.6999 62.4758 56.25C62.4758 56.8 62.5847 57.3447 62.7963 57.8524C63.0078 58.3601 63.3178 58.821 63.7083 59.2083C64.0957 59.5989 64.5565 59.9088 65.0643 60.1204C65.572 60.3319 66.1166 60.4408 66.6667 60.4408C67.2167 60.4408 67.7613 60.3319 68.2691 60.1204C68.7768 59.9088 69.2376 59.5989 69.625 59.2083L82.125 46.7083C82.5043 46.3121 82.8017 45.8448 83 45.3333C83.4167 44.3189 83.4167 43.1811 83 42.1667Z" stroke="#162527" stroke-width="2"/>
</svg>
