<svg width="100" height="72" viewBox="0 0 100 72"  xmlns="http://www.w3.org/2000/svg">
<path d="M83.2384 72H16.7616C12.3162 72 8.05279 70.4196 4.90937 67.6066C1.76595 64.7936 0 60.9782 0 57V15C0 11.0218 1.76595 7.20644 4.90937 4.3934C8.05279 1.58035 12.3162 0 16.7616 0H83.2384C87.6838 0 91.9472 1.58035 95.0906 4.3934C98.234 7.20644 100 11.0218 100 15V57C100 60.9782 98.234 64.7936 95.0906 67.6066C91.9472 70.4196 87.6838 72 83.2384 72ZM16.7616 6C14.0944 6 11.5363 6.94821 9.65028 8.63604C7.76423 10.3239 6.70466 12.6131 6.70466 15V57C6.70466 59.3869 7.76423 61.6761 9.65028 63.364C11.5363 65.0518 14.0944 66 16.7616 66H83.2384C85.9056 66 88.4637 65.0518 90.3497 63.364C92.2358 61.6761 93.2953 59.3869 93.2953 57V15C93.2953 12.6131 92.2358 10.3239 90.3497 8.63604C88.4637 6.94821 85.9056 6 83.2384 6H16.7616Z" />
<path d="M36.3895 54.705C35.5004 54.705 34.6478 54.3889 34.0191 53.8263C33.3904 53.2637 33.0372 52.5006 33.0372 51.705V20.295C33.0387 19.7778 33.1897 19.2697 33.4754 18.8201C33.761 18.3705 34.1718 17.9946 34.6676 17.729C35.1635 17.4633 35.7277 17.3169 36.3055 17.3039C36.8833 17.291 37.455 17.4119 37.9651 17.655L70.7006 33.36C71.2328 33.617 71.6774 33.9981 71.9872 34.4629C72.2971 34.9277 72.4607 35.4588 72.4607 36C72.4607 36.5412 72.2971 37.0723 71.9872 37.5371C71.6774 38.0018 71.2328 38.3829 70.7006 38.64L37.9651 54.345C37.4809 54.5789 36.9398 54.7025 36.3895 54.705ZM39.7419 25.305V46.695L62.0181 36L39.7419 25.305Z" />
</svg>
