<svg width="100" height="100" viewBox="0 0 100 100"  xmlns="http://www.w3.org/2000/svg">
<path d="M50 37.5C48.3354 37.4624 46.68 37.7577 45.1311 38.3686C43.5822 38.9795 42.1709 39.8937 40.9802 41.0575C39.7894 42.2213 38.8432 43.6113 38.197 45.1459C37.5509 46.6805 37.2178 48.3286 37.2174 49.9937C37.217 51.6587 37.5492 53.3071 38.1946 54.8419C38.84 56.3768 39.7855 57.7673 40.9757 58.9317C42.1659 60.0961 43.5767 61.0111 45.1253 61.6227C46.6739 62.2344 48.3291 62.5306 49.9938 62.4937C53.2598 62.4215 56.3677 61.0736 58.6523 58.7385C60.9369 56.4034 62.2166 53.2667 62.2174 49.9999C62.2182 46.7331 60.9401 43.5958 58.6567 41.2596C56.3733 38.9233 53.266 37.5739 50 37.5Z" />
<path d="M50 28.125C69.55 28.125 82.0125 40.2625 88.8625 50C82.0125 59.7375 69.55 71.875 50 71.875C30.45 71.875 17.9875 59.7375 11.1375 50C17.9875 40.2625 30.45 28.125 50 28.125ZM50 18.75C27.5625 18.75 10.4875 32.0812 0 50C10.4875 67.9188 27.5625 81.25 50 81.25C72.4375 81.25 89.5125 67.9188 100 50C89.5125 32.0812 72.4312 18.75 50 18.75Z" />
</svg>
