<svg width="99" height="60" viewBox="0 0 99 60"  xmlns="http://www.w3.org/2000/svg">
<path fill-rule="evenodd" clip-rule="evenodd" d="M96.9561 7.77492C98.5903 5.91613 98.3709 3.12825 96.4661 1.54808C94.5612 -0.032131 91.6919 0.193778 90.0577 2.05257L51.1691 46.2841L47.2994 43.075C45.3941 41.4949 42.5253 41.7211 40.8911 43.5802C39.2571 45.4393 39.4769 48.2268 41.3821 49.8069L48.7009 55.8764C50.6062 57.4561 53.475 57.2303 55.1092 55.3716L96.9561 7.77492ZM69.7675 9.91481C71.4017 8.05602 71.1823 5.26819 69.2774 3.68793C67.3725 2.10771 64.5032 2.33354 62.869 4.19228L23.979 48.4236L7.91635 35.0991C6.01137 33.519 3.14224 33.7448 1.50789 35.6035C-0.126417 37.4622 0.0930049 40.2502 1.99795 41.8303L21.5099 58.016C22.4247 58.7747 23.6138 59.148 24.8156 59.0534C26.0174 58.9589 27.1335 58.4041 27.9183 57.5116L69.7675 9.91481Z" />
</svg>
