<svg width="100" height="100" viewBox="0 0 100 100"  xmlns="http://www.w3.org/2000/svg">
<path d="M7.9875 22.9312C7.9875 24.1745 8.48136 25.3667 9.36044 26.2458C10.2395 27.1249 11.4318 27.6188 12.675 27.6188H15.175V83.0094C15.1791 87.0994 16.8055 91.0207 19.6973 93.913C22.589 96.8054 26.51 98.4325 30.6 98.4375H69.4C73.49 98.4325 77.411 96.8054 80.3027 93.913C83.1945 91.0207 84.8209 87.0994 84.825 83.0094V27.6188H87.325C88.5682 27.6188 89.7605 27.1249 90.6396 26.2458C91.5186 25.3667 92.0125 24.1745 92.0125 22.9312C92.0125 21.688 91.5186 20.4958 90.6396 19.6167C89.7605 18.7376 88.5682 18.2437 87.325 18.2437H70.9188V13.4062C70.9188 6.875 65.6062 1.55938 59.075 1.55938H40.925C34.3938 1.55938 29.0813 6.87187 29.0813 13.4062V18.2406H12.675C11.4318 18.2406 10.2395 18.7345 9.36044 19.6136C8.48136 20.4926 7.9875 21.688 7.9875 22.9312ZM38.4563 13.4094C38.4563 12.0437 39.5625 10.9375 40.925 10.9375H59.075C60.4375 10.9375 61.5438 12.0437 61.5438 13.4094V18.2437H38.4531V13.4062L38.4563 13.4094ZM24.55 27.6188H75.45V83.0094C75.4483 84.6137 74.8105 86.1519 73.6764 87.2866C72.5422 88.4214 71.0043 89.06 69.4 89.0625H30.6C28.9957 89.06 27.4578 88.4214 26.3236 87.2866C25.1895 86.1519 24.5517 84.6137 24.55 83.0094V27.6188Z" />
<path d="M38.35 80.4281C39.5932 80.4281 40.7855 79.9343 41.6646 79.0552C42.5436 78.1761 43.0375 76.9838 43.0375 75.7406V40.9406C43.0375 39.6974 42.5436 38.5051 41.6646 37.6261C40.7855 36.747 39.5932 36.2531 38.35 36.2531C37.1068 36.2531 35.9145 36.747 35.0354 37.6261C34.1564 38.5051 33.6625 39.6974 33.6625 40.9406V75.7406C33.6625 76.9838 34.1564 78.1761 35.0354 79.0552C35.9145 79.9343 37.1068 80.4281 38.35 80.4281ZM61.65 80.4281C62.8932 80.4281 64.0855 79.9343 64.9646 79.0552C65.8436 78.1761 66.3375 76.9838 66.3375 75.7406V40.9406C66.3375 39.6974 65.8436 38.5051 64.9646 37.6261C64.0855 36.747 62.8932 36.2531 61.65 36.2531C60.4068 36.2531 59.2145 36.747 58.3354 37.6261C57.4564 38.5051 56.9625 39.6974 56.9625 40.9406V75.7406C56.9625 76.9838 57.4564 78.1761 58.3354 79.0552C59.2145 79.9343 60.4068 80.4281 61.65 80.4281Z" />
</svg>
