<svg width="100" height="100" viewBox="0 0 100 100"  xmlns="http://www.w3.org/2000/svg">
<path d="M17.0231 58.5209C17.7515 59.5258 19.2083 59.6243 20.0942 58.7377L30.6065 48.2166C31.1971 47.6255 31.3546 46.7192 30.9806 45.9508C30.1538 44.2367 29.4057 42.4635 28.7364 40.5721C27.8111 37.8926 28.5198 34.8978 30.5081 32.9079L37.9888 25.421C39.3275 24.0812 39.3275 21.8943 37.9888 20.5348L18.4799 1.00975C17.1413 -0.330015 14.9561 -0.330015 13.5978 1.00975L5.11306 9.52117C0.467139 14.1709 -1.22586 21.0865 0.919919 27.2927C4.95557 38.9762 10.3692 49.3396 17.0231 58.5209ZM98.996 81.5924L79.4871 62.0674C78.1484 60.7276 75.9633 60.7276 74.6049 62.0674L67.1439 69.5149C65.1359 71.5245 62.1043 72.2338 59.427 71.2684C57.5568 70.5985 55.785 69.8301 54.0724 69.0026C53.3046 68.6283 52.399 68.7859 51.8085 69.3769L41.3551 79.8389C40.489 80.7058 40.5874 82.1835 41.5914 82.9125C50.7257 89.4537 61.0412 94.8915 72.6954 99.029C78.9359 101.255 85.9048 99.561 90.5901 94.8915L98.996 86.4786C100.335 85.1388 100.335 82.9519 98.996 81.5924ZM98.5039 1.4629C96.5549 -0.487633 93.3855 -0.487633 91.4365 1.4629L1.54987 91.4239C-0.399049 93.3744 -0.399049 96.5465 1.54987 98.497C2.53418 99.4822 3.79409 99.955 5.07368 99.955C6.35328 99.955 7.63288 99.4625 8.59749 98.497L98.5039 8.53605C100.453 6.58552 100.453 3.43314 98.5039 1.4629Z"/>
</svg>
