<svg width="100" height="100" viewBox="0 0 100 100"  xmlns="http://www.w3.org/2000/svg">
<path d="M50 8.83032e-07C27.1383 8.83032e-07 7.81718 15.373 1.88079 36.3715C1.77508 36.7245 1.74062 37.0949 1.77943 37.4613C1.81824 37.8276 1.92953 38.1826 2.10683 38.5056C2.28413 38.8285 2.5239 39.113 2.81218 39.3424C3.10046 39.5718 3.43149 39.7416 3.78601 39.8418C4.14052 39.9421 4.51144 39.9708 4.87717 39.9264C5.2429 39.882 5.59614 39.7652 5.91632 39.5829C6.2365 39.4007 6.51723 39.1566 6.74217 38.8648C6.96711 38.573 7.13177 38.2394 7.22656 37.8834C8.80737 32.2917 11.4715 27.1594 14.9523 22.696C17.973 24.9026 21.3239 26.7974 24.9277 28.3456C23.408 34.1209 22.4943 40.4888 22.2946 47.2222H2.77778C2.04109 47.2223 1.33459 47.515 0.813674 48.0359C0.292756 48.5568 7.3658e-05 49.2633 0 50C-5.44555e-05 77.5813 22.4187 100 50 100C77.5813 100 100 77.5813 100 50C100 22.4187 77.5813 8.83032e-07 50 8.83032e-07ZM50 5.55556C55.4857 5.55556 60.9728 9.87808 65.2235 17.9073C66.3445 20.0246 67.3509 22.3893 68.24 24.9385C62.5951 26.7624 56.3923 27.7703 50.0036 27.7778C43.6126 27.7714 37.4046 26.7693 31.7564 24.9457C32.6461 22.3937 33.6545 20.0266 34.7765 17.9073C39.0272 9.87808 44.5143 5.55556 50 5.55556ZM65.502 8.32972C71.5138 10.5617 76.9058 14.0542 81.3621 18.4896C78.9706 20.1881 76.291 21.6544 73.4339 22.9239C72.471 20.2017 71.3694 17.6484 70.1317 15.3103C68.7627 12.7246 67.2118 10.3747 65.502 8.32972ZM34.4727 8.37312C32.7749 10.4099 31.2291 12.7401 29.8683 15.3103C28.6262 17.6566 27.5205 20.2198 26.5553 22.9528C23.7078 21.6891 21.0594 20.2011 18.674 18.5113C23.1175 14.0894 28.4835 10.6071 34.4727 8.37312ZM85.0586 22.678C90.4025 29.5299 93.7826 37.9878 94.3504 47.2222H77.7054C77.5056 40.4832 76.5907 34.1102 75.0687 28.3312C78.6757 26.7793 82.0355 24.889 85.0586 22.678ZM69.8242 30.2915C71.3333 36.2307 72.2222 42.9093 72.2222 50C72.2222 57.09 71.3406 63.7738 69.8315 69.7121C63.644 67.7312 56.915 66.6735 50.0036 66.6667C50.0012 66.6667 49.9988 66.6667 49.9964 66.6667C43.0884 66.6739 36.3624 67.7308 30.1758 69.7085C28.8663 64.5549 28.0488 58.8365 27.8537 52.7778H62.963C63.3311 52.783 63.6965 52.715 64.0381 52.5777C64.3797 52.4405 64.6905 52.2367 64.9527 51.9782C65.2148 51.7198 65.423 51.4118 65.5651 51.0722C65.7071 50.7326 65.7803 50.3681 65.7803 50C65.7803 49.6319 65.7071 49.2674 65.5651 48.9278C65.423 48.5882 65.2148 48.2802 64.9527 48.0218C64.6905 47.7633 64.3797 47.5595 64.0381 47.4223C63.6965 47.285 63.3311 47.217 62.963 47.2222H27.8537C28.0488 41.1649 28.8668 35.4478 30.1758 30.2951C36.3622 32.2725 43.0886 33.3265 49.9964 33.3333C49.9988 33.3333 50.0012 33.3333 50.0036 33.3333C56.9118 33.3261 63.6396 32.2713 69.8242 30.2915ZM5.83406 52.7778H22.2946C22.4943 59.5112 23.408 65.8791 24.9277 71.6544C21.3545 73.1895 18.0324 75.0672 15.0318 77.2497C9.75084 70.4069 6.41035 61.975 5.83406 52.7778ZM77.7091 52.7778H94.3504C93.7828 62.0096 90.4071 70.4675 85.0658 77.3184C82.0461 75.1099 78.6858 73.2231 75.0832 71.6725C76.6039 65.8953 77.5091 59.5132 77.7091 52.7778ZM49.9964 72.2222C56.3855 72.2286 62.5916 73.2327 68.24 75.0543C67.5096 77.1472 66.7031 79.125 65.8131 80.9317C65.6518 81.259 65.5566 81.6148 65.5329 81.9788C65.5091 82.3429 65.5573 82.7081 65.6747 83.0535C65.9118 83.7511 66.4163 84.326 67.0772 84.6517C67.4044 84.8129 67.7603 84.9082 68.1243 84.9319C68.4884 84.9557 68.8535 84.9075 69.199 84.7901C69.8966 84.553 70.4715 84.0485 70.7972 83.3876C71.773 81.4065 72.6445 79.2688 73.4339 77.0327C76.3023 78.3037 78.9628 79.8072 81.3621 81.5104C73.3293 89.5056 62.2516 94.4444 50 94.4444C44.5143 94.4444 39.0272 90.1219 34.7765 82.0927C33.6545 79.9734 32.6461 77.6063 31.7564 75.0543C37.4038 73.2329 43.6084 72.2297 49.9964 72.2222ZM26.5553 77.0399C27.521 79.7753 28.6253 82.3416 29.8683 84.6897C31.227 87.2561 32.7643 89.5951 34.4582 91.6305C28.4821 89.3874 23.1344 85.8875 18.7174 81.4489C21.0925 79.7717 23.7233 78.2953 26.5553 77.0399Z" />
</svg>
