<svg width="92" height="60" viewBox="0 0 92 60"  xmlns="http://www.w3.org/2000/svg">
<path d="M46 0.833334C25.4333 0.833334 9.78333 13.575 0.166667 30C9.78333 46.425 25.4333 59.1667 46 59.1667C66.5667 59.1667 82.2208 46.425 91.8333 30C82.2208 13.575 66.5625 0.833334 46 0.833334ZM46 50.8333C28.0417 50.8333 16.7958 39.5292 10.0667 30C16.7958 20.4708 28.0417 9.16667 46 9.16667C63.9625 9.16667 75.2083 20.4708 81.9333 30C75.2083 39.5292 63.9625 50.8333 46 50.8333Z" />
<path d="M46 42.5C52.9036 42.5 58.5 36.9036 58.5 30C58.5 23.0964 52.9036 17.5 46 17.5C39.0964 17.5 33.5 23.0964 33.5 30C33.5 36.9036 39.0964 42.5 46 42.5Z" />
</svg>
