<svg width="100" height="100" viewBox="0 0 100 100"  xmlns="http://www.w3.org/2000/svg">
<path d="M81.6197 3.66403C76.7476 -1.22134 68.848 -1.22134 63.9762 3.66403L49.6105 18.069C48.3784 12.4594 43.3914 8.2621 37.4268 8.2621H12.4756C5.58558 8.2621 0 13.8629 0 20.7718V87.4736C0 91.7294 2.11927 95.489 5.35736 97.7491C7.38049 99.1677 9.84284 100 12.499 100H79.0356C85.9254 100 91.5112 94.399 91.5112 87.4903V62.4709C91.5112 56.6412 87.534 51.7428 82.1528 50.3548L96.3459 36.1224C101.218 31.2371 101.218 23.3164 96.3459 18.431L81.6197 3.66403ZM49.9024 36.7772L63.0504 49.9611H49.9024V36.7772ZM41.5854 49.9611H8.31707V20.7718C8.31707 18.4689 10.1789 16.6019 12.4756 16.6019H37.4268C39.7235 16.6019 41.5854 18.4689 41.5854 20.7718V49.9611ZM10.1004 90.8971C9.03559 90.1423 8.34044 88.8972 8.34044 87.4903V58.301H41.5854V91.6435H12.4756C11.5926 91.6435 10.7738 91.3675 10.1004 90.8971ZM49.9024 91.6602V58.301H79.0356C81.3319 58.301 83.1941 60.1679 83.1941 62.4709V87.4903C83.1941 89.7929 81.3319 91.6602 79.0356 91.6602H49.9024Z" />
</svg>
