<svg width="100" height="100" viewBox="0 0 100 100"  xmlns="http://www.w3.org/2000/svg">
<path d="M70.8333 39.5833H30.875L36.2917 34.2083C37.0763 33.4237 37.517 32.3596 37.517 31.25C37.517 30.1404 37.0763 29.0763 36.2917 28.2917C35.5071 27.5071 34.4429 27.0663 33.3333 27.0663C32.2237 27.0663 31.1596 27.5071 30.375 28.2917L17.875 40.7917C17.4957 41.1879 17.1983 41.6552 17 42.1667C16.5833 43.1811 16.5833 44.3189 17 45.3333C17.1983 45.8448 17.4957 46.3121 17.875 46.7083L30.375 59.2083C30.7623 59.5989 31.2232 59.9088 31.7309 60.1204C32.2387 60.3319 32.7833 60.4408 33.3333 60.4408C33.8834 60.4408 34.428 60.3319 34.9357 60.1204C35.4435 59.9088 35.9043 59.5989 36.2917 59.2083C36.6822 58.821 36.9922 58.3601 37.2037 57.8524C37.4152 57.3447 37.5242 56.8 37.5242 56.25C37.5242 55.6999 37.4152 55.1553 37.2037 54.6476C36.9922 54.1398 36.6822 53.679 36.2917 53.2917L30.875 47.9167H70.8333C71.9384 47.9167 72.9982 48.3557 73.7796 49.1371C74.561 49.9185 75 50.9783 75 52.0833V68.75C75 69.8551 75.439 70.9149 76.2204 71.6963C77.0018 72.4777 78.0616 72.9167 79.1667 72.9167C80.2717 72.9167 81.3315 72.4777 82.1129 71.6963C82.8943 70.9149 83.3333 69.8551 83.3333 68.75V52.0833C83.3333 48.7681 82.0164 45.5887 79.6722 43.2445C77.328 40.9003 74.1485 39.5833 70.8333 39.5833Z"  stroke="#162527" stroke-width="2"/>
</svg>
