<svg width="100" height="100" viewBox="0 0 100 100"  xmlns="http://www.w3.org/2000/svg">
<path d="M98.1868 80.7796L77.9281 60.517C75.4896 58.0987 71.5504 58.078 69.1327 60.517L66.2356 63.3938C65.1727 64.457 62.4423 64.2484 59.0868 62.8309C55.0016 61.0797 50.4372 57.8277 46.2688 53.6793C37.2233 44.6112 34.4721 35.7932 36.5563 33.7086L39.4326 30.8109C41.8711 28.3927 41.8711 24.4528 39.4326 22.0137L19.1739 1.75109C16.8396 -0.583695 12.7337 -0.583695 10.3785 1.75109L3.91751 8.23428C-6.52446 18.6783 4.58435 46.1329 29.1991 70.7525C40.7248 82.2806 53.376 91.307 64.881 96.1851C70.8627 98.7284 76.2191 100 80.7418 100C85.3479 100 89.0787 98.6867 91.7049 96.0391L98.1868 89.5768C100.604 87.1377 100.604 83.1978 98.1868 80.7796Z" />
</svg>
