<svg width="74" height="100" viewBox="0 0 74 100"  xmlns="http://www.w3.org/2000/svg">
<path d="M37 63.1579C45.7479 63.1579 52.8043 56.0789 52.8043 47.3684L52.8571 15.7895C52.8571 7.05263 45.7743 0 37 0C28.2521 0 21.1429 7.05263 21.1429 15.7895V47.3684C21.1429 56.0789 28.2521 63.1579 37 63.1579ZM65.0143 47.3684C65.0143 63.1579 51.615 74.2105 37 74.2105C22.4114 74.2105 8.98571 63.1579 8.98571 47.3684H0C0 65.3421 14.3771 80.1842 31.7143 82.7368V100H42.2857V82.7368C59.6229 80.1842 74 65.3421 74 47.3684H65.0143Z" />
</svg>
