<svg width="100" height="100" viewBox="0 0 100 100"  xmlns="http://www.w3.org/2000/svg">
<path d="M30.4688 71.875C38.6667 71.875 45.3125 65.2292 45.3125 57.0312C45.3125 48.8333 38.6667 42.1875 30.4688 42.1875C22.2708 42.1875 15.625 48.8333 15.625 57.0312C15.625 65.2292 22.2708 71.875 30.4688 71.875Z" stroke="#010101" stroke-width="4" stroke-miterlimit="10"/>
<path d="M9.375 95.3125C9.375 89.0965 11.8443 83.1351 16.2397 78.7397C20.6351 74.3443 26.5965 71.875 32.8125 71.875M54.6875 95.3125C54.6875 92.2346 54.0813 89.1869 52.9034 86.3434C51.7256 83.4998 49.9992 80.9161 47.8228 78.7397C45.6464 76.5633 43.0627 74.8369 40.2191 73.6591C37.3756 72.4812 34.3279 71.875 31.25 71.875" stroke="#010101" stroke-width="4" stroke-miterlimit="10"/>
<path d="M66.4062 34.375C74.6042 34.375 81.25 27.7292 81.25 19.5312C81.25 11.3333 74.6042 4.6875 66.4062 4.6875C58.2083 4.6875 51.5625 11.3333 51.5625 19.5312C51.5625 27.7292 58.2083 34.375 66.4062 34.375Z" stroke="#010101" stroke-width="4" stroke-miterlimit="10"/>
<path d="M45.3125 56.25C45.3125 44.1563 55.7969 34.375 68.75 34.375M90.625 56.25C90.625 44.1563 80.1406 34.375 67.1875 34.375" stroke="#010101" stroke-width="4" stroke-miterlimit="10"/>
</svg>
