<svg width="100" height="95" viewBox="0 0 100 95"  xmlns="http://www.w3.org/2000/svg">
<path d="M25.3225 43.9352C30.4422 43.9352 35.0389 41.3001 38.058 37.2084C41.3326 40.0866 45.4826 41.8197 50 41.8197C54.5152 41.8197 58.6635 40.0882 61.9377 37.2125C64.9662 41.2993 69.5523 43.9352 74.6775 43.9352C83.7097 43.9352 91.0645 35.8878 91.0645 26.0053C91.0645 16.1227 83.7097 8.07535 74.6775 8.07535C71.7653 8.07535 68.9731 8.94869 66.5397 10.4797C63.2318 4.22661 57.0643 0 50 0C42.9317 0 36.7619 4.23113 33.4557 10.4901C31.0262 8.95882 28.2394 8.07538 25.3225 8.07538C16.2903 8.07538 8.93555 16.1227 8.93555 26.0053C8.93555 35.8878 16.2903 43.9352 25.3225 43.9352ZM74.6775 18.6639C78.387 18.6639 81.387 21.9465 81.387 26.0053C81.387 30.0643 78.3871 33.3467 74.6775 33.3467C71.4599 33.3467 68.7549 30.8245 68.141 27.4502C68.6502 25.7651 68.9563 23.9851 69.0552 22.1423C70.2408 20.0251 72.3538 18.6639 74.6775 18.6639ZM50 10.5885C55.201 10.5885 59.4348 15.2192 59.4348 20.9099C59.4348 26.6005 55.201 31.2312 50 31.2312C44.799 31.2312 40.5667 26.6005 40.5667 20.9099C40.5667 15.2192 44.799 10.5885 50 10.5885ZM25.3225 18.6639C27.6474 18.6639 29.7614 20.026 30.9464 22.1451C31.0455 23.9857 31.351 25.764 31.8594 27.4473C31.2465 30.8232 28.5408 33.3467 25.3225 33.3467C21.613 33.3467 18.613 30.0643 18.613 26.0053C18.613 21.9465 21.6129 18.6639 25.3225 18.6639ZM92.5813 52.0515C87.8024 46.8175 81.4409 43.9352 74.6775 43.9352C70.3684 43.9352 66.2411 45.1555 62.5366 47.3875C58.7131 45.4651 54.4765 44.3634 50 44.3634C45.524 44.3634 41.2875 45.4651 37.4644 47.3875C33.7593 45.1555 29.6304 43.9352 25.3225 43.9352C11.3593 43.9352 0 56.3651 0 71.6412V81.63C0 84.5545 2.16577 86.9242 4.83871 86.9242H19.8447V89.7058C19.8447 92.6303 22.0105 95 24.6834 95H75.3182C77.9896 95 80.1569 92.6303 80.1569 89.7058V86.9242H95.1613C97.8327 86.9242 100 84.5545 100 81.63V71.6412C100 64.241 97.3664 57.2819 92.5813 52.0515ZM9.67742 71.6412C9.67742 62.2022 16.6961 54.5245 25.3229 54.5245C26.2487 54.5245 27.1571 54.6327 28.0512 54.8039C23.1792 60.4767 20.1272 68.0167 19.8921 76.3357H9.67742V71.6412ZM70.4795 84.4115H29.5221V77.3594C29.5221 65.0044 38.7081 54.9519 50 54.9519C61.2935 54.9519 70.4795 65.0044 70.4795 77.3594V84.4115ZM90.3226 76.3357H80.1094C79.8743 68.0165 76.8224 60.4764 71.9502 54.8037C72.8443 54.6324 73.7525 54.5245 74.6787 54.5245C78.8558 54.5245 82.7842 56.3048 85.739 59.5396C88.6939 62.7709 90.3226 67.069 90.3226 71.6412V76.3357Z" />
</svg>
