<svg width="100" height="100" viewBox="0 0 100 100"  xmlns="http://www.w3.org/2000/svg">
<path d="M98.0312 72.9688C97.7187 71.1719 96.5469 69.5312 94.9062 68.75C89.4375 66.0156 77.4844 62.0313 77.4844 62.0313V58.0469L77.7969 57.8125C80.0625 56.0937 81.7031 53.4375 82.1719 50.5469L82.25 50.1562H82.5625C84.4375 50.1562 86 48.9844 86.625 47.4219C87.0156 46.7188 87.25 45.9375 87.25 45.0781C87.25 44.5313 87.1719 43.9844 86.9375 43.4375C86.8594 42.8906 86.4687 42.3437 86.0781 42.0312L84.9844 41.3281L85.2187 40.1563C87.25 31.4844 80.4531 23.5938 71.3906 23.4375C71.1563 23.4375 70.9219 23.4375 70.7656 23.4375C70.5312 23.4375 70.2969 23.4375 70.1406 23.4375C61 23.5156 54.2813 31.4062 56.2344 40.0781L56.5469 41.25L55.4531 41.9531C54.9844 42.2656 54.6719 42.8125 54.5938 43.3594C54.3594 43.9062 54.2813 44.4531 54.2813 45C54.2813 45.8594 54.5156 46.6406 54.9063 47.3437C55.5313 48.9844 57.1719 50.0781 58.9688 50.0781H59.2813L59.3594 50.4687C59.8281 53.3594 61.3906 56.0156 63.7344 57.7344L64.0469 57.9687V61.9531C64.0469 61.9531 52.0938 65.9375 46.625 68.6719C44.9844 69.5313 43.8125 71.0938 43.5 72.8906C42.5625 78.3594 42.4062 87.5781 42.4062 87.5781H99.2031C99.125 87.6562 98.9687 78.4375 98.0312 72.9688Z" />
<path d="M44.4531 65.2344C47.5781 63.6719 52.5 61.7969 56.4062 60.3906C55.8594 59.2969 54.9219 58.3594 53.8281 57.8125C48.3594 55.0781 36.4062 51.0938 36.4062 51.0938V47.1094L36.7187 46.875C38.9844 45.1562 40.625 42.5 41.0937 39.6094L41.1719 39.2188H41.4844C43.3594 39.2188 44.9219 38.0469 45.5469 36.4844C45.9375 35.7813 46.1719 35 46.1719 34.1406C46.1719 33.5938 46.0938 33.0469 45.8594 32.5C45.7812 31.9531 45.3906 31.4062 45 31.0937L43.9062 30.3906L44.1406 29.2188C46.1719 20.5469 39.375 12.6563 30.3125 12.5C30.0781 12.5 29.8437 12.5 29.6875 12.5C29.4531 12.5 29.2188 12.5 29.0625 12.5C20 12.7344 13.2812 20.5469 15.2344 29.2188L15.5469 30.3906L14.4531 31.0937C13.9844 31.4062 13.6719 31.9531 13.5937 32.5C13.3594 33.0469 13.2813 33.5938 13.2813 34.1406C13.2813 35 13.5156 35.7813 13.9062 36.4844C14.5312 38.125 16.1719 39.2188 17.9687 39.2188H18.2812L18.3594 39.6094C18.75 42.5 20.3125 45.0781 22.6562 46.875L22.9687 47.1094V51.0938C22.9687 51.0938 11.0156 55.0781 5.54687 57.8125C3.90625 58.6719 2.73437 60.2344 2.42187 62.0313C1.48437 67.5 1.32812 76.7187 1.32812 76.7187H38.6719C38.8281 75.1562 38.9844 73.6719 39.2188 72.3437C39.7656 69.2187 41.7188 66.6406 44.4531 65.2344Z" />
</svg>
