 <svg xmlns="http://www.w3.org/2000/svg" viewBox="0 0 13 13">
            <path
              style="line-height:normal;text-indent:0;text-align:start;text-decoration-line:none;text-decoration-style:solid;text-decoration-color:#000;text-transform:none;white-space:normal;isolation:auto;mix-blend-mode:normal;"
              fill-rule="evenodd"
              d="M4.484 4a.5.5 0 0 0 .051 1h6.93a.5.5 0 1 0 0-1h-6.93a.5.5 0 0 0-.05 0zm0 3a.5.5 0 0 0 .051 1h6.93a.5.5 0 1 0 0-1h-6.93a.5.5 0 0 0-.05 0zm0 3a.5.5 0 0 0 .051 1h6.93a.5.5 0 1 0 0-1h-6.93a.5.5 0 0 0-.05 0z"
              color="#000" enable-background="accumulate" font-family="sans-serif" font-weight="400"
              overflow="visible" />
          </svg>