<svg width="80" height="100" viewBox="0 0 80 100"  xmlns="http://www.w3.org/2000/svg">
<path fill-rule="evenodd" clip-rule="evenodd" d="M68.2563 29.2201C74.8583 38.8648 80 49.9985 80 61.1099C80 82.5735 62.0764 100 40 100C21.8901 100 6.5754 88.2737 1.65431 72.2103C8.3527 75.8696 15.906 77.7868 23.5862 77.7771C48.3894 77.7771 68.5225 58.1691 68.5225 34.0128C68.5225 32.3942 68.4313 30.7942 68.2563 29.2201ZM0.479181 67.1509C0.159431 65.1523 -0.000774428 63.1326 2.81447e-06 61.1099C2.81447e-06 47.6799 7.52235 34.2202 16.0335 23.3903C16.2531 23.072 16.5723 22.8313 16.9437 22.7038C17.315 22.5764 17.7187 22.569 18.0947 22.6828C18.3894 22.7582 18.6635 22.8958 18.8975 23.086C19.1314 23.2761 19.3196 23.514 19.4486 23.7829C19.692 24.2496 20.0609 25.5866 20.5514 27.4422C21.5212 31.1312 23.1831 37.1944 26.3396 41.5167C29.401 45.7169 33.7174 47.2614 36.6572 47.828C28.0852 31.3275 28.6899 17.8457 38.3381 0.948847C38.4732 0.714493 38.6589 0.511462 38.8824 0.353745C39.1059 0.196027 39.3618 0.0873721 39.6326 0.0352686C39.9033 -0.0168349 40.1824 -0.0111488 40.4507 0.0519354C40.719 0.11502 40.97 0.234002 41.1865 0.400683C41.1865 0.400683 52.451 9.16021 62.818 21.9532C64.054 25.757 64.7195 29.809 64.7195 34.0128C64.7195 56.1246 46.2902 74.0733 23.5862 74.0733C15.0257 74.0733 7.06979 71.5177 0.479181 67.1509Z" />
</svg>
