<svg width="100" height="100" viewBox="0 0 100 100"  xmlns="http://www.w3.org/2000/svg">
<path fill-rule="evenodd" clip-rule="evenodd" d="M50.1066 0.000298389C44.9058 -0.0340697 40.1255 2.90286 37.8087 7.54842L35.6598 11.8464C34.8131 12.1609 33.98 12.5053 33.1559 12.8765L28.6008 11.358C23.6798 9.7152 18.2179 11.0176 14.5714 14.7236C10.9775 18.3766 9.74375 23.7546 11.3659 28.6032L12.8843 33.1499C12.5052 33.9799 12.1505 34.8185 11.8277 35.6718L7.54781 37.8119C2.90751 40.1266 -0.0376776 44.9028 0.000364163 50.1021C0.0378737 55.2281 2.96592 59.9042 7.53894 62.1879L11.8454 64.3547C12.1611 65.2019 12.5044 66.0353 12.8754 66.8589L11.3659 71.4055C9.7249 76.3222 11.0231 81.7798 14.7223 85.4273C18.3722 89.0261 23.7501 90.2608 28.6008 88.6419L33.147 87.1322C33.9759 87.5103 34.8165 87.857 35.6687 88.1801L37.8087 92.4515C40.1255 97.0972 44.9058 100.04 50.1066 99.9996C55.2311 99.9652 59.9086 97.0291 62.1914 92.4515L64.3313 88.1712C65.1887 87.8533 66.0366 87.5086 66.8708 87.1322L71.3992 88.6419C76.25 90.2606 81.6278 89.0268 85.2777 85.4273C88.9791 81.7775 90.2796 76.3154 88.6341 71.3966L87.1246 66.85C87.5018 66.0235 87.8509 65.1865 88.1723 64.3369L92.4522 62.1879C97.0287 59.9054 99.9621 55.2303 99.9996 50.1021C100.038 44.9027 97.0925 40.1266 92.4522 37.8119L88.1546 35.6629C87.8386 34.8106 87.4966 33.9705 87.1246 33.141L88.6341 28.6032V28.5944C90.2519 23.7479 89.0204 18.3743 85.4286 14.7236C81.7821 11.017 76.3202 9.71571 71.3992 11.358L66.8441 12.8765C66.0176 12.5002 65.181 12.15 64.3313 11.8286L62.1914 7.54842C59.9086 2.97091 55.2314 0.0403374 50.1066 0.000298389ZM50.0355 9.09356C51.7454 9.1068 53.2902 10.0765 54.0579 11.6155L56.9437 17.3876C57.2146 17.9305 57.5914 18.4137 58.052 18.8087C58.5125 19.2037 59.0474 19.5025 59.6252 19.6876C61.3381 20.234 63.0015 20.9197 64.5977 21.7478C65.1365 22.0282 65.726 22.1979 66.3315 22.2467C66.9369 22.2955 67.546 22.2225 68.1228 22.0319L74.2673 19.9895H74.2762C75.932 19.4362 77.7306 19.8691 78.9467 21.0995C80.1445 22.3179 80.549 24.095 80.0033 25.7261V25.735L77.97 31.8534C77.7804 32.4251 77.7064 33.0289 77.7521 33.6295C77.7978 34.2301 77.9624 34.8157 78.2363 35.3521C79.0542 36.952 79.733 38.6193 80.2697 40.3339C80.4527 40.9174 80.7514 41.458 81.1481 41.9234C81.5447 42.3888 82.0312 42.7693 82.5783 43.0423L88.3854 45.9462C89.9473 46.7246 90.9199 48.2992 90.9072 50.031C90.8947 51.7374 89.9253 53.2858 88.3854 54.0537H88.3766L82.605 56.9487C82.0638 57.2205 81.5823 57.5978 81.1889 58.0584C80.7955 58.5189 80.4981 59.0534 80.3141 59.6305C79.7644 61.3437 79.076 63.0073 78.2452 64.6033C77.9636 65.1434 77.7933 65.7345 77.7445 66.3416C77.6957 66.9488 77.7693 67.5595 77.9611 68.1376L80.0033 74.2738C80.557 75.9286 80.1367 77.7276 78.9023 78.9448C77.6858 80.1442 75.9078 80.5551 74.2762 80.0104H74.2673L68.1494 77.9768C67.5764 77.786 66.9711 77.7113 66.3689 77.7571C65.7667 77.8028 65.1797 77.9681 64.6421 78.2432C63.0402 79.0646 61.3782 79.7468 59.6607 80.2857C59.0773 80.4686 58.5367 80.7674 58.0714 81.1641C57.6061 81.5608 57.2255 82.0473 56.9525 82.5945L54.0579 88.3843C53.2902 89.924 51.7456 90.8929 50.0355 90.9063C48.2993 90.9199 46.7215 89.9474 45.9421 88.3843L43.0563 82.6211C42.7854 82.0782 42.4086 81.5951 41.9481 81.2001C41.4875 80.8051 40.9526 80.5062 40.3748 80.3212C38.659 79.7713 36.9918 79.0838 35.3935 78.2521C34.8535 77.9704 34.2624 77.8002 33.6553 77.7513C33.0482 77.7025 32.4375 77.7762 31.8595 77.9679L25.7239 80.0104C24.0922 80.5551 22.3142 80.1476 21.0977 78.9448C19.8633 77.7281 19.443 75.9288 19.9967 74.2738V74.2649L22.03 68.1465C22.2194 67.5729 22.2927 66.9672 22.2454 66.365C22.1981 65.7627 22.0313 65.1759 21.7548 64.6389C20.9346 63.0424 20.2522 61.3782 19.7125 59.666C19.5306 59.0857 19.2341 58.5477 18.8406 58.084C18.4471 57.6203 17.9646 57.2403 17.4217 56.9664L11.6234 54.0537H11.6146C10.0747 53.2856 9.10531 51.7383 9.09282 50.031C9.08015 48.2992 10.0528 46.7251 11.6146 45.9462L17.3861 43.0601C17.929 42.7892 18.4121 42.4123 18.8071 41.9517C19.2021 41.4911 19.5009 40.9562 19.6859 40.3783C20.2356 38.665 20.924 37.0015 21.7548 35.4054C22.0352 34.8666 22.2048 34.277 22.2536 33.6715C22.3024 33.066 22.2294 32.4568 22.0389 31.88L19.9967 25.735V25.7261C19.451 24.0953 19.8554 22.317 21.0533 21.0995C22.2694 19.864 24.068 19.4379 25.7239 19.9895L31.8506 22.0319C32.4236 22.2227 33.0289 22.2974 33.6311 22.2517C34.2333 22.2059 34.8203 22.0407 35.3579 21.7655C36.9551 20.9476 38.6185 20.2688 40.3304 19.732C40.9138 19.549 41.4544 19.2503 41.9197 18.8535C42.3851 18.4568 42.7656 17.9703 43.0386 17.4231L45.9421 11.6155C46.7215 10.0518 48.2993 9.07999 50.0355 9.09356ZM50.0178 27.2712C37.5176 27.2712 27.26 37.4942 27.26 49.9955C27.2599 62.4968 37.5175 72.7464 50.0178 72.7464C62.518 72.7464 72.7312 62.4968 72.7311 49.9955C72.7311 37.4942 62.518 27.2712 50.0178 27.2712ZM50.0178 36.3645C57.604 36.3645 63.6387 42.4085 63.6387 49.9955C63.6387 57.5825 57.6041 63.6532 50.0178 63.6532C42.4314 63.6532 36.3524 57.5825 36.3524 49.9955C36.3525 42.4085 42.4315 36.3645 50.0178 36.3645Z" />
</svg>
