<svg width="100" height="100" viewBox="0 0 100 100"  xmlns="http://www.w3.org/2000/svg">
<path d="M85.3559 14.6454C65.8284 -4.8818 34.1731 -4.8818 14.6456 14.6454C-4.88188 34.1726 -4.88188 65.8274 14.6456 85.3546C34.1731 104.882 65.8284 104.882 85.3559 85.3546C104.883 65.8274 104.879 34.1726 85.3559 14.6454ZM71.2122 65.5554C71.9622 66.3054 72.3836 67.3226 72.3836 68.3833C72.3836 69.4439 71.9622 70.4611 71.2122 71.2111C70.4622 71.9611 69.445 72.3825 68.3843 72.3825C67.3236 72.3825 66.3064 71.9611 65.5564 71.2111L50.0007 55.6558L34.4451 71.2111C34.0745 71.5839 33.6339 71.8797 33.1486 72.0815C32.6633 72.2833 32.1428 72.3872 31.6172 72.3872C31.0916 72.3872 30.5712 72.2833 30.0858 72.0815C29.6005 71.8797 29.1599 71.5839 28.7893 71.2111C28.4175 70.84 28.1226 70.3992 27.9213 69.914C27.7201 69.4287 27.6165 68.9086 27.6165 68.3833C27.6165 67.8579 27.7201 67.3378 27.9213 66.8525C28.1226 66.3673 28.4175 65.9265 28.7893 65.5554L44.3449 50L28.7893 34.4446C28.0393 33.6946 27.6179 32.6774 27.6179 31.6167C27.6179 30.5561 28.0393 29.5388 28.7893 28.7888C29.5393 28.0388 30.5565 27.6175 31.6172 27.6175C32.6779 27.6175 33.6951 28.0388 34.4451 28.7888L50.0007 44.3442L65.5564 28.7888C65.9277 28.4175 66.3686 28.1229 66.8538 27.9219C67.339 27.7209 67.8591 27.6175 68.3843 27.6175C68.9095 27.6175 69.4295 27.7209 69.9148 27.9219C70.4 28.1229 70.8408 28.4175 71.2122 28.7888C71.5836 29.1602 71.8782 29.6011 72.0792 30.0863C72.2801 30.5715 72.3836 31.0915 72.3836 31.6167C72.3836 32.1419 72.2801 32.662 72.0792 33.1472C71.8782 33.6324 71.5836 34.0733 71.2122 34.4446L55.6566 50L71.2122 65.5554Z" />
</svg>
