<svg width="94" height="100" viewBox="0 0 94 100"  xmlns="http://www.w3.org/2000/svg">
<path d="M43.6393 50.0018C50.1291 50.0018 55.3901 44.7787 55.3901 38.3356C55.3901 31.8925 50.1291 26.6693 43.6393 26.6693C37.1495 26.6693 31.8884 31.8925 31.8884 38.3356C31.8884 44.7787 37.1495 50.0018 43.6393 50.0018Z" />
<path d="M55.323 60.7348C52.6904 63.2167 50.5945 66.2049 49.163 69.5171C47.7315 72.8294 46.9944 76.3964 46.9967 80.0007C46.9894 82.1813 47.2601 84.3541 47.8024 86.4672C46.4259 86.6005 45.0494 86.6672 43.6393 86.6672C34.6886 86.6732 25.9539 83.9378 18.6268 78.8341C19.4317 74.9996 21.1028 71.3964 23.5142 68.2963C25.9256 65.1962 29.0144 62.6799 32.5477 60.9372C36.081 59.1945 39.9667 58.2708 43.9119 58.2357C47.8571 58.2007 51.7588 59.0551 55.323 60.7348Z" />
<path d="M87.2852 43.3354C87.3029 47.6029 86.6805 51.8493 85.4387 55.9349C81.6547 54.1425 77.5008 53.2541 73.3091 53.3409C69.1174 53.4278 65.0044 54.4873 61.2991 56.4349C59.124 55.0883 56.7897 54.0135 54.3493 53.235C57.5451 50.9711 59.9304 47.7544 61.1586 44.0524C62.3868 40.3504 62.394 36.3559 61.179 32.6496C59.964 28.9433 57.5902 25.7182 54.4025 23.443C51.2149 21.1679 47.3795 19.9611 43.4538 19.9983C39.528 20.0354 35.7165 21.3144 32.573 23.6494C29.4296 25.9845 27.1181 29.2539 25.9744 32.9825C24.8308 36.7111 24.9145 40.7047 26.2136 44.3828C27.5126 48.0609 29.9592 51.2319 33.1978 53.435C28.4462 55.1054 24.1471 57.8424 20.6356 61.4327C17.1241 65.023 14.4948 69.3698 12.9528 74.1343C7.84257 69.1163 4.05978 62.923 1.94042 56.1045C-0.178938 49.286 -0.569245 42.0534 0.804169 35.0491C2.17758 28.0448 5.2722 21.4857 9.81313 15.9544C14.3541 10.4231 20.2007 6.09092 26.8337 3.34259C33.4668 0.594262 40.6808 -0.485095 47.8351 0.2004C54.9894 0.885896 61.8624 3.31502 67.8436 7.272C73.8248 11.229 78.729 16.5913 82.1207 22.8827C85.5123 29.174 87.2864 36.1996 87.2852 43.3354Z" />
<path d="M73.8557 60.0014C69.8715 60.0014 65.9768 61.1744 62.6641 63.3719C59.3514 65.5695 56.7695 68.6929 55.2448 72.3473C53.7201 76.0017 53.3212 80.0229 54.0985 83.9024C54.8757 87.7819 56.7943 91.3454 59.6115 94.1423C62.4288 96.9393 66.0181 98.844 69.9257 99.6157C73.8334 100.387 77.8837 99.9913 81.5646 98.4776C85.2455 96.9639 88.3916 94.4006 90.6051 91.1117C92.8186 87.8229 94 83.9562 94 80.0007C93.9956 74.6979 91.8718 69.6136 88.095 65.864C84.3181 62.1143 79.1969 60.0059 73.8557 60.0014ZM80.5705 83.3339H77.2131V86.6671C77.2131 87.5512 76.8594 88.399 76.2297 89.0241C75.6001 89.6492 74.7461 90.0004 73.8557 90.0004C72.9653 90.0004 72.1113 89.6492 71.4817 89.0241C70.852 88.399 70.4983 87.5512 70.4983 86.6671V83.3339H67.1409C66.2505 83.3339 65.3965 82.9828 64.7669 82.3577C64.1373 81.7326 63.7836 80.8847 63.7836 80.0007C63.7836 79.1167 64.1373 78.2689 64.7669 77.6438C65.3965 77.0187 66.2505 76.6675 67.1409 76.6675H70.4983V73.3343C70.4983 72.4503 70.852 71.6025 71.4817 70.9774C72.1113 70.3523 72.9653 70.0011 73.8557 70.0011C74.7461 70.0011 75.6001 70.3523 76.2297 70.9774C76.8594 71.6025 77.2131 72.4503 77.2131 73.3343V76.6675H80.5705C81.4609 76.6675 82.3149 77.0187 82.9445 77.6438C83.5741 78.2689 83.9279 79.1167 83.9279 80.0007C83.9279 80.8847 83.5741 81.7326 82.9445 82.3577C82.3149 82.9828 81.4609 83.3339 80.5705 83.3339Z" />
</svg>
