<svg width="94" height="100" viewBox="0 0 94 100"  xmlns="http://www.w3.org/2000/svg">
<path d="M43.6252 50.0002C50.1168 50.0002 55.3793 44.7769 55.3793 38.3336C55.3793 31.8903 50.1168 26.667 43.6252 26.667C37.1336 26.667 31.8711 31.8903 31.8711 38.3336C31.8711 44.7769 37.1336 50.0002 43.6252 50.0002Z" />
<path d="M44.2297 57.4335C48.3257 57.4265 52.373 58.3142 56.0846 60.0335C53.2267 62.5297 50.937 65.6013 49.3678 69.044C47.7986 72.4867 46.9858 76.2215 46.9835 80.0001C46.9763 82.1807 47.2471 84.3536 47.7895 86.4667C46.4126 86.6 45.0357 86.6667 43.6252 86.6667C34.1473 86.6679 24.9273 83.6019 17.3632 77.9334C18.9524 72.0626 22.4444 66.8742 27.3001 63.1692C32.1558 59.4642 38.1051 57.4486 44.2297 57.4335Z" />
<path d="M87.2834 43.3335C87.3011 47.6012 86.6785 51.8478 85.4363 55.9335C81.8179 54.2202 77.8592 53.3318 73.8501 53.3335C69.9017 53.3256 66.0011 54.191 62.4318 55.8668C60.1851 54.494 57.7844 53.3864 55.2786 52.5668C58.2696 50.1674 60.4327 46.9022 61.4669 43.2256C62.5012 39.5491 62.3551 35.644 61.0491 32.0537C59.7431 28.4633 57.3421 25.3663 54.1801 23.1935C51.0181 21.0207 47.2524 19.8802 43.407 19.9307C39.5615 19.9811 35.8275 21.22 32.7245 23.475C29.6214 25.7299 27.3037 28.8888 26.0938 32.5122C24.8838 36.1355 24.8418 40.0431 25.9736 43.6912C27.1053 47.3394 29.3546 50.5467 32.4084 52.8668C27.7308 54.5704 23.4773 57.2531 19.9368 60.7328C16.3962 64.2125 13.6515 68.4077 11.8891 73.0334C7.00226 67.8892 3.45836 61.6359 1.56678 54.8193C-0.324786 48.0028 -0.506513 40.8303 1.03747 33.928C2.58145 27.0257 5.8042 20.6035 10.4244 15.2219C15.0445 9.84042 20.9217 5.66322 27.5427 3.05503C34.1637 0.446834 41.3273 -0.513067 48.408 0.259128C55.4888 1.03132 62.2715 3.51214 68.164 7.48499C74.0565 11.4578 78.8797 16.802 82.2124 23.0508C85.5451 29.2996 87.2861 36.2632 87.2834 43.3335Z" />
<path d="M73.8501 60.0002C69.8648 60.0002 65.969 61.1731 62.6554 63.3708C59.3418 65.5684 56.7591 68.6919 55.234 72.3464C53.7089 76.0009 53.3099 80.0223 54.0874 83.9019C54.8648 87.7815 56.7839 91.3451 59.6019 94.1422C62.42 96.9392 66.0103 98.844 69.919 99.6157C73.8277 100.387 77.8792 99.9913 81.5611 98.4776C85.243 96.9638 88.39 94.4004 90.6041 91.1114C92.8182 87.8225 94 83.9557 94 80.0001C94 74.6958 91.8771 69.6087 88.0982 65.858C84.3194 62.1073 79.1942 60.0002 73.8501 60.0002ZM80.5667 83.3334H67.1335C66.2428 83.3334 65.3886 82.9822 64.7588 82.3571C64.129 81.732 63.7751 80.8841 63.7751 80.0001C63.7751 79.116 64.129 78.2682 64.7588 77.6431C65.3886 77.0179 66.2428 76.6668 67.1335 76.6668H80.5667C81.4574 76.6668 82.3116 77.0179 82.9414 77.6431C83.5712 78.2682 83.925 79.116 83.925 80.0001C83.925 80.8841 83.5712 81.732 82.9414 82.3571C82.3116 82.9822 81.4574 83.3334 80.5667 83.3334Z" />
</svg>
