<svg width="77" height="100" viewBox="0 0 77 100"  xmlns="http://www.w3.org/2000/svg">
<path d="M45.2375 54.8077C41.3875 50.9615 35.6125 50.9615 31.7625 54.8077L2.8875 83.6538C-0.9625 87.5 -0.9625 93.2692 2.8875 97.1154C6.7375 100.962 12.5125 100.962 16.3625 97.1154L38.5 75L60.6375 97.1154C62.5625 99.0385 64.4875 100 67.375 100C70.2625 100 72.1875 99.0385 74.1125 97.1154C77.9625 93.2692 77.9625 87.5 74.1125 83.6538L45.2375 54.8077ZM16.3625 45.1923L38.5 23.0769L60.6375 45.1923C62.5625 47.1154 64.4875 48.0769 67.375 48.0769C70.2625 48.0769 72.1875 47.1154 74.1125 45.1923C77.9625 41.3462 77.9625 35.5769 74.1125 31.7308L45.2375 2.88462C41.3875 -0.961538 35.6125 -0.961538 31.7625 2.88462L2.8875 31.7308C-0.9625 35.5769 -0.9625 41.3462 2.8875 45.1923C6.7375 48.0769 12.5125 48.0769 16.3625 45.1923Z" />
</svg>
