<svg width="102" height="81" viewBox="0 0 102 81"  xmlns="http://www.w3.org/2000/svg">
<path d="M85.4936 37.2476C75.6504 27.3372 61.6272 21.9068 45.4465 20.9565V6.43035C45.4465 4.25821 43.8285 2.22183 41.8059 1.40728C39.7833 0.592724 37.3562 1 35.7382 2.6291L2.56791 36.5688C0.545328 38.7409 0.410489 42.1349 2.56791 44.1712L35.7382 78.1109C37.2214 79.74 39.7833 80.1473 41.8059 79.3327C43.8285 78.5182 45.4465 76.4818 45.4465 74.3097V59.6477C56.2336 59.3762 81.5833 60.4623 90.8871 77.0248C91.831 78.7897 93.5839 79.74 95.4716 79.74C95.8761 79.74 96.2807 79.74 96.82 79.6042C99.2471 78.9254 101 76.8891 101 74.3097C100.865 73.4951 100.865 52.724 85.4936 37.2476ZM39.244 49.0586C36.5472 49.3301 34.6595 51.638 34.6595 54.4889V61.0053L14.4337 40.37L34.6595 19.7347V26.2511C34.6595 29.2378 36.8169 31.6814 39.7833 31.6814C68.7736 31.6814 81.0439 45.6646 86.3026 57.6113C67.2904 46.2076 40.5924 48.9228 39.244 49.0586V49.0586Z" stroke-width="2"/>
</svg>
