<svg width="104" height="68" viewBox="0 0 104 68"  xmlns="http://www.w3.org/2000/svg">
<path d="M2 34C22.8078 77.596 80.008 78.4022 102 34C81.1711 -9.59599 23.992 -10.4022 2 34ZM51.9894 46.1341C49.5335 46.1382 47.1316 45.43 45.0875 44.0992C43.0435 42.7684 41.4492 40.8747 40.5065 38.6579C39.5637 36.441 39.3149 34.0006 39.7914 31.6454C40.268 29.2903 41.4485 27.1263 43.1836 25.4272C44.9188 23.7282 47.1305 22.5705 49.5389 22.1006C51.9473 21.6307 54.4442 21.8698 56.7135 22.7876C58.9829 23.7054 60.9228 25.2606 62.2876 27.2565C63.6525 29.2524 64.381 31.5992 64.381 34C64.3811 37.2146 63.0762 40.2978 60.7529 42.5728C58.4296 44.8478 55.2778 46.1286 51.9894 46.1341V46.1341Z"  stroke-width="2"/>
</svg>
