<svg width="100" height="100" viewBox="0 0 100 100" fill="none" xmlns="http://www.w3.org/2000/svg">
<path d="M53.7469 0.00179608C56.641 -0.048203 59.3825 0.946779 61.4294 2.85174C63.4869 4.69671 64.5866 7.25167 64.5866 9.95162C64.5866 15.4515 69.3751 19.9064 75.3264 19.9064C77.1629 19.9064 79.0046 19.4014 80.6411 18.5515C85.74 15.9465 92.107 17.6015 95.0011 22.2514L98.5845 28.1013C99.4791 29.6013 100 31.3012 100 33.0512C100 36.6011 97.9531 39.9061 94.638 41.651C93.0015 42.501 91.6334 43.801 90.6915 45.306C87.8974 50.0009 89.6391 55.9458 94.638 58.6557C99.6843 61.4007 101.421 67.4056 98.5845 72.1505L95.0011 77.8054C93.1068 80.9003 89.5812 82.8053 85.7926 82.8053C83.8982 82.8053 82.0039 82.3503 80.4306 81.4503C78.7415 80.6003 76.905 80.1004 75.0581 80.1004C72.2166 80.1004 69.4803 81.1553 67.486 83.0503C65.4286 84.9053 64.3236 87.4502 64.3236 90.1002C64.3236 95.5501 59.5404 100 53.589 100H46.3853C43.5386 100 40.855 98.9 38.908 97.0501C36.9085 95.1501 35.8613 92.6501 35.8613 90.0502C35.8613 84.5503 31.1202 80.1004 25.1794 80.1004C23.2272 80.1004 21.3329 80.6003 19.7017 81.5553C17.2285 82.8503 14.2818 83.2003 11.5455 82.5503C8.80929 81.8503 6.44138 80.1504 5.02064 77.9004L1.65821 72.2505C0.074346 69.9055 -0.399235 67.1006 0.342709 64.4506C1.07413 61.8007 2.97372 59.5507 5.54684 58.2007C7.18333 57.3508 8.54619 56.1008 9.49335 54.5508C12.2349 49.8509 10.4931 43.951 5.54684 41.2011C0.547927 38.5011 -1.18854 32.5512 1.65821 27.8513L5.02064 22.2514C6.44138 19.9064 8.80929 18.2015 11.5982 17.5015C14.3923 16.8015 17.3338 17.1965 19.8069 18.5515C21.4907 19.4014 23.3325 19.8514 25.1794 19.8514C28.0209 19.8514 30.7519 18.8015 32.7515 16.9515C34.751 15.1015 35.8613 12.5516 35.8613 9.95162C35.8613 4.45172 40.6445 0.00179608 46.5906 0.00179608H53.7469ZM55.857 37.4061C50.3319 35.2512 43.9596 36.4011 39.6973 40.3511C35.4877 44.251 34.1722 50.2009 36.4875 55.3058C38.7554 60.4507 44.1174 63.8006 50.1161 63.8006H50.174C54.1205 63.8506 57.8039 62.4057 60.5875 59.8007C63.3764 57.2508 64.955 53.7508 64.955 50.1009C65.0076 44.551 61.3768 39.5011 55.857 37.4061Z" />
</svg>
