<svg width="102" height="92" viewBox="0 0 102 92"  xmlns="http://www.w3.org/2000/svg">
<path d="M4.64574 90.9999C4.262 91.0021 3.88057 90.9362 3.51691 90.805C2.75642 90.5406 2.09833 90.0155 1.64424 89.3108C1.19014 88.606 0.965275 87.7608 1.00435 86.9056C1.00435 86.3207 4.75498 29.7025 57.7736 25.2572V4.90275C57.773 4.12751 57.9881 3.36967 58.3916 2.72601C58.7951 2.08236 59.3686 1.5821 60.0389 1.28915C60.7092 0.996187 61.4458 0.923822 62.1547 1.08129C62.8635 1.23876 63.5124 1.61892 64.0186 2.17322L99.9591 41.4785C100.626 42.2074 101 43.1873 101 44.208C101 45.2287 100.626 46.2086 99.9591 46.9375L64.0186 86.2428C63.5124 86.7971 62.8635 87.1772 62.1547 87.3347C61.4458 87.4922 60.7092 87.4198 60.0389 87.1268C59.3686 86.8339 58.7951 86.3336 58.3916 85.69C57.9881 85.0463 57.773 84.2885 57.7736 83.5132V63.5487C22.3793 64.9914 7.86837 88.8943 7.72271 89.1868C7.3942 89.7423 6.93983 90.1998 6.40186 90.5168C5.86389 90.8339 5.25979 91 4.64574 90.9999V90.9999ZM65.0564 14.4561V28.9031C65.057 29.9141 64.6909 30.8857 64.0353 31.6132C63.3797 32.3407 62.4859 32.7671 61.5424 32.8024C27.2406 34.1477 14.9691 58.616 10.563 74.3498C19.6665 65.9273 35.8889 55.633 61.1965 55.633H61.3604C62.3261 55.633 63.2523 56.0438 63.9352 56.7751C64.6181 57.5064 65.0018 58.4982 65.0018 59.5324V73.9794L92.3122 44.2275L65.0564 14.4561Z"  />
</svg>
