<svg width="100" height="85" viewBox="0 0 100 85"  xmlns="http://www.w3.org/2000/svg">
<path d="M84.9982 14.9561H78.5984L76.9984 9.97077C75.9612 7.04553 74.0372 4.51434 71.493 2.72789C68.9488 0.941432 65.9104 -0.0118496 62.7987 0.000111191H37.1992C34.057 0.0059725 30.996 0.995598 28.4482 2.82931C25.9005 4.66303 23.9945 7.24823 22.9995 10.22L21.3996 15.2054H14.9997C11.0215 15.2054 7.20629 16.7811 4.39331 19.5859C1.58032 22.3907 0 26.1948 0 30.1614V70.044C0 74.0106 1.58032 77.8147 4.39331 80.6195C7.20629 83.4243 11.0215 85 14.9997 85H84.9982C88.9764 85 92.7916 83.4243 95.6046 80.6195C98.4176 77.8147 99.9979 74.0106 99.9979 70.044V30.1614C100.031 28.1764 99.6676 26.2048 98.9287 24.3614C98.1898 22.518 97.0902 20.8397 95.694 19.4244C94.2978 18.0091 92.633 16.8851 90.7967 16.1179C88.9604 15.3508 86.9892 14.9558 84.9982 14.9561ZM89.9981 69.7947C89.9981 71.1169 89.4714 72.385 88.5337 73.3199C87.596 74.2548 86.3243 74.7801 84.9982 74.7801H14.9997C13.6736 74.7801 12.4019 74.2548 11.4642 73.3199C10.5266 72.385 9.99979 71.1169 9.99979 69.7947V29.9121C9.99979 28.5899 10.5266 27.3219 11.4642 26.3869C12.4019 25.452 13.6736 24.9268 14.9997 24.9268H24.9995C26.0898 24.9835 27.1688 24.6829 28.0716 24.0707C28.9744 23.4586 29.6515 22.5686 29.9994 21.5367L32.6993 13.3608C33.0347 12.3706 33.6738 11.5106 34.5261 10.9022C35.3785 10.2939 36.401 9.96808 37.4492 9.97077H63.0487C64.0969 9.96808 65.1194 10.2939 65.9718 10.9022C66.8241 11.5106 67.4632 12.3706 67.7986 13.3608L70.4985 21.5367C70.8194 22.4877 71.4205 23.3199 72.2233 23.9248C73.0262 24.5296 73.9934 24.8788 74.9984 24.9268H84.9982C86.3243 24.9268 87.596 25.452 88.5337 26.3869C89.4714 27.3219 89.9981 28.5899 89.9981 29.9121V69.7947ZM49.999 24.9268C46.0434 24.9268 42.1767 26.0963 38.8878 28.2875C35.5989 30.4787 33.0355 33.5931 31.5218 37.2369C30.008 40.8807 29.612 44.8902 30.3837 48.7584C31.1553 52.6267 33.0601 56.1799 35.8571 58.9687C38.6541 61.7576 42.2177 63.6568 46.0972 64.4262C49.9768 65.1957 53.998 64.8008 57.6525 63.2915C61.3069 61.7822 64.4304 59.2262 66.628 55.9469C68.8256 52.6676 69.9985 48.8121 69.9985 44.8681C69.9985 39.5793 67.8915 34.5072 64.1408 30.7674C60.3902 27.0277 55.3032 24.9268 49.999 24.9268ZM49.999 54.8387C48.0212 54.8387 46.0878 54.254 44.4434 53.1584C42.7989 52.0628 41.5172 50.5056 40.7604 48.6837C40.0035 46.8618 39.8055 44.857 40.1913 42.9229C40.5772 40.9888 41.5295 39.2122 42.928 37.8178C44.3265 36.4233 46.1083 35.4737 48.0481 35.089C49.9879 34.7043 51.9985 34.9017 53.8257 35.6564C55.6529 36.4111 57.2147 37.689 58.3135 39.3287C59.4123 40.9684 59.9988 42.8961 59.9988 44.8681C59.9988 47.5125 58.9452 50.0485 57.0699 51.9184C55.1946 53.7883 52.6511 54.8387 49.999 54.8387Z" />
</svg>
