<svg width="100" height="100" viewBox="0 0 100 100" fill="none" xmlns="http://www.w3.org/2000/svg">
<path d="M50 0C36.7392 0 24.0215 5.26784 14.6447 14.6447C5.26784 24.0215 0 36.7392 0 50C0 63.2608 5.26784 75.9785 14.6447 85.3553C24.0215 94.7322 36.7392 100 50 100C63.2608 100 75.9785 94.7322 85.3553 85.3553C94.7322 75.9785 100 63.2608 100 50C100 36.7392 94.7322 24.0215 85.3553 14.6447C75.9785 5.26784 63.2608 0 50 0ZM50.048 24.008C53.336 24.008 56.048 26.716 56.048 30.008C56.048 31.104 55.728 32.12 55.204 33.008C57.8264 34.0289 60.0787 35.8191 61.6649 38.1436C63.2512 40.468 64.0973 43.2179 64.092 46.032C64.092 46.032 64.048 52.56 64.048 56.232C64.048 56.016 64.104 56.432 64.392 56.92C64.68 57.408 65.124 58.008 65.58 58.56C66.488 59.668 67.416 60.572 67.416 60.572C67.7024 60.8496 67.8992 61.2066 67.9812 61.5969C68.0632 61.9873 68.0266 62.3933 67.8761 62.7627C67.7256 63.1321 67.468 63.448 67.1366 63.6699C66.8051 63.8919 66.4149 64.0096 66.016 64.008H58.04C58.0379 65.2946 57.7265 66.5618 57.132 67.7028C56.5375 68.8438 55.6773 69.8251 54.624 70.564C53.2288 71.5346 51.5612 72.0364 49.8621 71.9968C48.163 71.9573 46.5205 71.3784 45.172 70.344C44.2076 69.5938 43.4279 68.6327 42.8926 67.5344C42.3573 66.4361 42.0807 65.2298 42.084 64.008H33.984C33.5838 64.0081 33.1927 63.8882 32.8614 63.6636C32.5301 63.4391 32.2737 63.1203 32.1255 62.7486C31.9773 62.3768 31.9441 61.9691 32.0301 61.5782C32.1161 61.1873 32.3174 60.8312 32.608 60.556C32.608 60.556 33.56 59.656 34.492 58.556C34.956 58.004 35.412 57.4 35.704 56.916C35.996 56.428 36.048 56.016 36.048 56.236C36.048 51.852 36.092 46.008 36.092 46.008C36.1058 43.2149 36.9519 40.4893 38.5222 38.1795C40.0926 35.8696 42.3158 34.0802 44.908 33.04C44.3519 32.1259 44.0546 31.0779 44.048 30.008C44.048 26.716 46.756 24.008 50.048 24.008ZM50.048 28.008C48.92 28.008 48.048 28.88 48.048 30.008C48.048 31.136 48.92 32.008 50.048 32.008C51.176 32.008 52.048 31.136 52.048 30.008C52.048 28.88 51.176 28.008 50.048 28.008ZM50.092 36.016V36.024C48.7762 36.0171 47.4721 36.2713 46.2552 36.7719C45.0383 37.2725 43.9328 38.0096 43.0027 38.9404C42.0726 39.8712 41.3365 40.9773 40.8368 42.1946C40.3372 43.4119 40.084 44.7162 40.092 46.032C40.092 46.032 40.048 51.88 40.048 56.232C40.048 57.42 39.592 58.2 39.128 58.976C38.9 59.348 38.624 59.664 38.368 60.008H61.696C61.44 59.656 61.168 59.328 60.944 58.952C60.488 58.18 60.048 57.404 60.048 56.232C60.048 52.528 60.092 46.008 60.092 46.008C60.1016 44.6925 59.8494 43.3882 59.3502 42.1711C58.8509 40.9539 58.1146 39.8482 57.184 38.9184C56.2533 37.9885 55.1471 37.253 53.9295 36.7548C52.712 36.2565 51.4075 36.0054 50.092 36.016ZM46.064 64.008C46.0577 64.7399 46.2536 65.4592 46.63 66.0869C47.0064 66.7146 47.5488 67.2262 48.1973 67.5653C48.8459 67.9045 49.5754 68.0581 50.3057 68.0091C51.0359 67.9602 51.7385 67.7107 52.336 67.288C52.8646 66.9198 53.2964 66.4292 53.5945 65.8581C53.8926 65.287 54.0482 64.6522 54.048 64.008H46.064Z"/>
</svg>
