<svg width="100" height="65" viewBox="0 0 100 65"  xmlns="http://www.w3.org/2000/svg">
<path d="M94.9525 9.98214C93.4341 9.34699 91.7483 9.14039 90.1046 9.38803C88.4608 9.63566 86.9317 10.3266 85.7071 11.375L74.9625 20.6607V13.9286C74.9625 10.2345 73.383 6.6917 70.5713 4.07958C67.7597 1.46747 63.9463 0 59.97 0H14.9925C11.0162 0 7.20284 1.46747 4.3912 4.07958C1.57956 6.6917 0 10.2345 0 13.9286V51.0714C0 54.7655 1.57956 58.3083 4.3912 60.9204C7.20284 63.5325 11.0162 65 14.9925 65H59.97C63.9463 65 67.7597 63.5325 70.5713 60.9204C73.383 58.3083 74.9625 54.7655 74.9625 51.0714V44.3393L85.7571 53.625C87.3463 54.9614 89.4107 55.7055 91.5542 55.7143C92.7438 55.7117 93.9192 55.4743 95.0025 55.0179C96.4765 54.4639 97.7392 53.5143 98.6294 52.2903C99.5196 51.0663 99.9968 49.6236 100 48.1464V16.8536C99.9928 15.371 99.5082 13.9244 98.6087 12.6999C97.7092 11.4753 96.4359 10.5288 94.9525 9.98214Z" />
</svg>
