<svg width="100" height="63" viewBox="0 0 100 66"  xmlns="http://www.w3.org/2000/svg">
<path d="M16.6636 0C7.46055 0 0 6.56645 0 14.6666V51.3334C0 59.433 7.46055 66 16.6636 66H58.3226C67.2118 66 74.4747 59.8738 74.9604 52.1577L93.7278 61.8362C95.0159 62.5005 96.6098 62.5072 97.9054 61.8538C99.201 61.2004 100 59.9867 100 58.6726V7.3275C100 6.01462 99.2026 4.80191 97.9087 4.148C96.6156 3.49409 95.0234 3.49879 93.7353 4.16032L74.9579 13.8005C74.4489 6.10357 67.1952 0 58.3226 0H16.6636ZM8.33181 14.6666C8.33181 10.6166 12.0621 7.33329 16.6636 7.33329H58.3226C62.9242 7.33329 66.6544 10.6166 66.6544 14.6666V51.3334C66.6544 55.3829 62.9242 58.6667 58.3226 58.6667H16.6636C12.0621 58.6667 8.33181 55.3829 8.33181 51.3334V14.6666ZM74.9871 43.6715V22.2753L91.6682 13.7111V52.2743L74.9871 43.6715Z" />
</svg>
