<svg width="100" height="60" viewBox="0 0 100 60"  xmlns="http://www.w3.org/2000/svg">
<path d="M97.65 5.75C96.8899 5.31116 96.0277 5.08013 95.15 5.08013C94.2723 5.08013 93.4101 5.31116 92.65 5.75L75 14.45C74.8576 10.5679 73.2145 6.89237 70.4168 4.1972C67.619 1.50202 63.8848 -0.00260887 60 3.39578e-06H15C11.0218 3.39578e-06 7.20644 1.58036 4.3934 4.3934C1.58035 7.20645 0 11.0218 0 15V45C0 48.9782 1.58035 52.7936 4.3934 55.6066C7.20644 58.4196 11.0218 60 15 60H60C63.8848 60.0026 67.619 58.498 70.4168 55.8028C73.2145 53.1076 74.8576 49.4321 75 45.55L92.8 54.45C93.4815 54.7994 94.2342 54.9876 95 55C95.9361 55.003 96.8543 54.7431 97.65 54.25C98.3706 53.7996 98.9645 53.1731 99.3756 52.4295C99.7868 51.6859 100.002 50.8497 100 50V10C100.002 9.15028 99.7868 8.31414 99.3756 7.57053C98.9645 6.82691 98.3706 6.20036 97.65 5.75ZM65 45C65 46.3261 64.4732 47.5979 63.5355 48.5355C62.5978 49.4732 61.3261 50 60 50H15C13.6739 50 12.4021 49.4732 11.4645 48.5355C10.5268 47.5979 10 46.3261 10 45V15C10 13.6739 10.5268 12.4022 11.4645 11.4645C12.4021 10.5268 13.6739 10 15 10H60C61.3261 10 62.5978 10.5268 63.5355 11.4645C64.4732 12.4022 65 13.6739 65 15V45ZM90 41.9L75 34.4V25.6L90 18.1V41.9Z" />
</svg>
