<svg width="100" height="100" viewBox="0 0 100 100"  xmlns="http://www.w3.org/2000/svg">
<path d="M50 0C40.2839 0.0184442 30.7829 2.85951 22.6542 8.17714C14.5255 13.4948 8.11993 21.0595 4.21775 29.9498C0.315562 38.8401 -0.914827 48.6724 0.676446 58.249C2.26772 67.8256 6.61198 76.7331 13.1801 83.8867C17.8711 88.9672 23.5645 93.0218 29.9015 95.795C36.2385 98.5683 43.0818 100 50 100C56.9182 100 63.7615 98.5683 70.0985 95.795C76.4355 93.0218 82.1289 88.9672 86.8199 83.8867C93.388 76.7331 97.7323 67.8256 99.3236 58.249C100.915 48.6724 99.6844 38.8401 95.7823 29.9498C91.8801 21.0595 85.4745 13.4948 77.3458 8.17714C69.2171 2.85951 59.7161 0.0184442 50 0ZM50 90.0931C39.6226 90.0774 29.6559 86.0403 22.1972 78.8315C24.4617 73.3235 28.314 68.6124 33.2645 65.2969C38.215 61.9815 44.0402 60.2112 50 60.2112C55.9598 60.2112 61.785 61.9815 66.7355 65.2969C71.686 68.6124 75.5383 73.3235 77.8028 78.8315C70.3441 86.0403 60.3774 90.0774 50 90.0931ZM39.981 40.0414C39.981 38.0615 40.5686 36.1261 41.6695 34.4799C42.7704 32.8337 44.3351 31.5507 46.1659 30.793C47.9966 30.0354 50.0111 29.8371 51.9546 30.2234C53.8981 30.6096 55.6833 31.563 57.0845 32.963C58.4857 34.363 59.4399 36.1466 59.8265 38.0885C60.2131 40.0303 60.0147 42.043 59.2564 43.8722C58.4981 45.7013 57.2139 47.2647 55.5663 48.3647C53.9187 49.4646 51.9816 50.0517 50 50.0517C47.3428 50.0517 44.7944 48.9971 42.9155 47.1198C41.0365 45.2425 39.981 42.6963 39.981 40.0414ZM84.6158 70.0724C80.1399 62.4233 73.2512 56.4735 65.0285 53.1549C67.5792 50.2652 69.2412 46.7016 69.815 42.8915C70.3888 39.0815 69.8501 35.1869 68.2634 31.6752C66.6768 28.1635 64.1097 25.1838 60.8702 23.0937C57.6306 21.0036 53.8563 19.8918 50 19.8918C46.1437 19.8918 42.3694 21.0036 39.1298 23.0937C35.8903 25.1838 33.3232 28.1635 31.7366 31.6752C30.1499 35.1869 29.6112 39.0815 30.185 42.8915C30.7588 46.7016 32.4208 50.2652 34.9715 53.1549C26.7488 56.4735 19.8601 62.4233 15.3843 70.0724C11.8172 64.0017 9.9325 57.0913 9.92388 50.0517C9.92388 39.4321 14.1462 29.2474 21.6619 21.7382C29.1776 14.229 39.3712 10.0103 50 10.0103C60.6288 10.0103 70.8224 14.229 78.3381 21.7382C85.8538 29.2474 90.0761 39.4321 90.0761 50.0517C90.0675 57.0913 88.1828 64.0017 84.6158 70.0724Z" />
</svg>
