<svg width="100" height="70" viewBox="0 0 100 70" xmlns="http://www.w3.org/2000/svg">
<path d="M41.4156 69.9091C22.3711 69.5596 15.8664 69.2453 11.8683 68.4244C9.16326 67.8789 6.81261 66.6679 5.08905 64.9114C3.75696 63.582 2.69759 61.5537 1.87569 58.7396C1.17068 56.3951 0.896102 54.4445 0.504636 49.6797C-0.0946219 38.9262 -0.237479 30.1345 0.504636 20.311C1.11688 14.8862 1.41373 8.44633 5.48052 4.68927C7.40074 2.93092 9.63451 1.79936 12.1429 1.33158C16.0612 0.590147 32.7551 0.00402963 50.0371 0.00402963C67.2802 0.00402963 84.0111 0.590147 87.9332 1.33158C91.0668 1.91769 94.0056 3.67419 95.731 5.93915C99.4416 11.7559 99.5065 18.989 99.8831 24.6468C100.039 27.3426 100.039 42.65 99.8831 45.3458C99.2969 54.2873 98.8256 57.4509 97.4935 60.7309C96.6698 62.8017 95.9666 63.8944 94.7495 65.1055C92.8408 66.9692 90.4074 68.2088 87.7737 68.6592C71.2931 69.8943 57.2987 70.1624 41.4156 69.9091V69.9091ZM66.6531 33.9803C57.4842 29.0972 48.705 24.5692 39.731 19.8821V47.9232C49.1744 42.8072 59.1299 38.1201 66.692 33.9415L66.6531 33.9803Z" fill="#CD201F"/>
</svg>
