<svg width="100" height="70" viewBox="0 0 100 70"  xmlns="http://www.w3.org/2000/svg">
<path d="M99.977 24.6702C100.202 18.193 98.7797 11.7643 95.8432 5.98094C93.8509 3.60789 91.0858 2.00646 88.03 1.4557C75.3903 0.313185 62.6984 -0.155092 50.0085 0.0528697C37.3649 -0.164531 24.7186 0.288636 12.1233 1.41044C9.63317 1.86169 7.32871 3.02524 5.49115 4.75912C1.40282 8.51508 0.948564 14.9409 0.494306 20.3712C-0.164769 30.1347 -0.164769 39.9313 0.494306 49.6948C0.625724 52.7512 1.08254 55.785 1.85708 58.7453C2.4048 61.0308 3.51296 63.1454 5.08232 64.8996C6.93237 66.7254 9.2905 67.9551 11.8508 68.4293C21.6442 69.6336 31.5121 70.1326 41.3776 69.9226C57.2766 70.1489 71.2224 69.9226 87.712 68.6556C90.3351 68.2105 92.7597 66.9792 94.6621 65.1259C95.9339 63.8584 96.8838 62.3071 97.4331 60.6006C99.0577 55.6347 99.8556 50.4374 99.7953 45.2148C99.977 42.6807 99.977 27.3853 99.977 24.6702ZM39.7423 47.93V19.9187L66.6344 33.9922C59.0937 38.1554 49.1454 42.8617 39.7423 47.93Z" />
</svg>
