<svg width="100" height="100" viewBox="0 0 100 100" fill="none" xmlns="http://www.w3.org/2000/svg">
<path d="M57.5 20C53.5 20 50 23.5 50 27.5C50 31.5 53.5 35 57.5 35C61.5 35 65 31.5 65 27.5C65 23.5 61.5 20 57.5 20ZM85 0H15C6.5 0 0 6.5 0 15V85C0 93.5 6.5 100 15 100H85C93.5 100 100 93.5 100 85V15C100 6.5 93.5 0 85 0ZM90 59.5L80.5 50C74.5 44.5 65 44.5 59.5 50L55 54.5L40.5 40C34.5 34.5 25 34.5 19.5 40L10 49.5V15C10 12 12 10 15 10H85C88 10 90 12 90 15V59.5Z" fill="url(#paint0_linear_153_68)"/>
<defs>
<linearGradient id="paint0_linear_153_68" x1="93" y1="9.9957e-07" x2="9" y2="117" gradientUnits="userSpaceOnUse">
<stop stop-color="#43FFDD"/>
<stop offset="0.401735" stop-color="#FFB951"/>
<stop offset="0.9999" stop-color="#31FC46" stop-opacity="0.34375"/>
</linearGradient>
</defs>
</svg>
