<svg width="80" height="100" viewBox="0 0 80 100" fill="none" xmlns="http://www.w3.org/2000/svg">
<path d="M56.1263 34.7083L53.8875 80.7145C53.8614 81.2481 53.6358 81.751 53.2574 82.1194C52.879 82.4877 52.3768 82.6933 51.8544 82.6937H51.7525C51.4849 82.6804 51.2224 82.6132 50.9802 82.4959C50.738 82.3787 50.5208 82.2138 50.3411 82.0106C50.1613 81.8074 50.0225 81.5699 49.9326 81.3118C49.8427 81.0536 49.8035 80.7799 49.8172 80.5062L52.0459 34.7083H42.0311V80.6104C42.0311 81.1629 41.8165 81.6928 41.4344 82.0835C41.0524 82.4742 40.5342 82.6937 39.9939 82.6937C39.4536 82.6937 38.9355 82.4742 38.5534 82.0835C38.1714 81.6928 37.9567 81.1629 37.9567 80.6104V34.7083H27.9399L30.1686 80.5062C30.1823 80.7799 30.1431 81.0536 30.0532 81.3118C29.9633 81.5699 29.8245 81.8074 29.6447 82.0106C29.465 82.2138 29.2478 82.3787 29.0056 82.4959C28.7634 82.6132 28.5009 82.6804 28.2333 82.6937H28.1314C27.609 82.6933 27.1067 82.4877 26.7284 82.1194C26.35 81.751 26.1244 81.2481 26.0983 80.7145L23.8615 34.7083H7.10977C6.93254 34.7083 6.75734 34.6875 6.58011 34.6812L11.7953 91.7708C11.9907 94.023 13.0055 96.1181 14.6389 97.642C16.2723 99.1658 18.4053 100.007 20.6163 100H59.3634C63.9674 100 67.7566 96.4583 68.1844 91.7708L73.3996 34.6812C73.2284 34.6896 73.0614 34.7083 72.8903 34.7083H56.1263Z" fill="#FFCFCF"/>
<path d="M72.8903 14.2708H57.5707V9.64583C57.5707 4.3125 53.3537 0 48.1385 0H31.8411C26.6463 0 22.409 4.3125 22.409 9.64583V14.2708H7.10975C3.178 14.2708 0 17.5208 0 21.5417V23.2708C0 27.2708 3.178 30.5416 7.10975 30.5416H72.8903C74.7742 30.5362 76.5795 29.7684 77.9117 28.406C79.2438 27.0436 79.9946 25.1975 80 23.2708V21.5417C80 17.5208 76.8016 14.2708 72.8903 14.2708ZM53.4963 14.2708H26.4833V9.64583C26.4833 6.625 28.8872 4.16666 31.8411 4.16666H48.1385C51.0924 4.16666 53.4963 6.625 53.4963 9.64583V14.2708Z" fill="#CAE0EE"/>
</svg>
