<svg width="100" height="100" viewBox="0 0 100 100"  xmlns="http://www.w3.org/2000/svg">
<path d="M95.4421 38.7932L92.4351 35.882C91.3201 34.8063 90.437 33.517 89.8397 32.0924C89.2423 30.6679 88.943 29.1377 88.9601 27.5949C90.1579 18.3962 83.3887 9.68671 73.7632 9.93136L70.3424 9.9848C65.8385 10.3044 62.402 7.20084 59.5211 4.19787C56.6708 1.46537 52.8495 -0.0425905 48.8857 0.00091591C44.922 0.0444223 41.1353 1.63589 38.3465 4.43029C35.3835 7.63202 32.119 10.9395 27.399 10.824L24.0502 10.8778C20.0747 10.9568 16.2911 12.5877 13.5202 15.4164C10.7494 18.2452 9.21483 22.0437 9.24961 25.9876L9.32163 30.5418C9.52958 34.5333 7.10919 37.914 4.24397 40.4898C1.46996 43.3263 -0.055847 47.1388 0.00156335 51.0902C0.0589737 55.0416 1.69491 58.8089 4.55017 61.5649L7.34103 64.2618C10.5013 67.0724 11.0017 71.2926 10.8519 75.2636C10.9129 79.213 12.5512 82.9769 15.4071 85.7294C18.263 88.4818 22.1032 89.9978 26.0848 89.9447C29.9944 89.6474 33.8333 90.1692 36.7441 93.1062L39.5349 95.785C40.95 97.149 42.6221 98.2231 44.4557 98.9461C46.2894 99.6691 48.2486 100.027 50.2216 99.9985C52.1945 99.9703 54.1426 99.5568 55.9545 98.7818C57.7663 98.0067 59.4066 96.8852 60.7814 95.4813L63.8064 92.3915C66.8769 88.9815 71.4695 88.7744 75.7621 88.8912C79.7436 88.8305 83.5381 87.2054 86.3129 84.3726C89.0877 81.5398 90.6161 77.7307 90.5626 73.7813C90.3195 69.551 90.4304 65.0489 93.7317 61.9221C101.026 55.8268 102.416 45.6957 95.4421 38.7932ZM83.3063 49.9915C83.2958 58.7514 79.7829 67.1495 73.5384 73.3437C67.2938 79.5379 58.8273 83.0223 49.9961 83.0328C5.80598 81.2154 5.81886 18.7609 49.9964 16.9503C58.8275 16.9608 67.2939 20.4453 73.5384 26.6395C79.783 32.8336 83.2958 41.2317 83.3063 49.9915Z" />
<path d="M49.9961 20.5223C42.1192 20.53 34.567 23.6372 28.9972 29.1621C23.4273 34.687 20.2948 42.1782 20.287 49.9915C21.9141 89.0874 78.0841 89.076 79.7052 49.9913C79.6974 42.178 76.5648 34.6869 70.995 29.1621C65.4251 23.6372 57.873 20.53 49.9961 20.5223ZM69.118 43.9727L49.3299 63.5831C48.8066 64.1034 48.185 64.5161 47.5006 64.7977C46.8162 65.0794 46.0826 65.2243 45.3417 65.2243C44.6008 65.2243 43.8671 65.0794 43.1828 64.7977C42.4984 64.5161 41.8768 64.1034 41.3535 63.5831L30.8923 53.2064C30.3786 52.6967 29.9724 52.0907 29.6972 51.4237C29.422 50.7567 29.2834 50.0421 29.2894 49.3215C29.2954 48.6008 29.4459 47.8886 29.7321 47.2262C30.0184 46.5638 30.4347 45.9646 30.9567 45.4634C31.4787 44.9621 32.0961 44.569 32.7728 44.3068C33.4496 44.0445 34.1721 43.9185 34.8984 43.9361C35.6248 43.9536 36.3403 44.1143 37.0034 44.4088C37.6665 44.7034 38.2638 45.1258 38.7607 45.6516L45.1706 52.4562L61.4116 36.3464C62.435 35.3512 63.8128 34.7965 65.246 34.8028C66.6791 34.809 68.0519 35.3756 69.0665 36.3797C70.0811 37.3837 70.6556 38.7441 70.6652 40.1657C70.6748 41.5872 70.1189 42.9552 69.118 43.9727Z" />
<path d="M63.9684 38.8647L46.413 56.2783C46.241 56.446 46.0372 56.5781 45.8134 56.6672C45.5896 56.7562 45.3502 56.8003 45.1091 56.797C44.868 56.7937 44.6299 56.743 44.4087 56.6478C44.1875 56.5526 43.9874 56.4149 43.8202 56.2426L36.1319 48.0984C35.9615 47.918 35.7567 47.7731 35.5293 47.672C35.302 47.5709 35.0566 47.5157 34.8075 47.5095C34.5585 47.5034 34.3106 47.5465 34.0785 47.6363C33.8464 47.7261 33.6346 47.8608 33.4555 48.0326C33.2763 48.2043 33.1334 48.4098 33.0351 48.6368C32.9367 48.8639 32.8849 49.1081 32.8827 49.3553C32.8804 49.6024 32.9277 49.8475 33.0218 50.0763C33.116 50.3051 33.2551 50.5131 33.431 50.6881L43.8922 61.0648C44.2786 61.4425 44.7992 61.6542 45.3417 61.6542C45.8841 61.6542 46.4048 61.4425 46.7911 61.0648L66.5612 41.4365C66.8929 41.093 67.0757 40.6343 67.0706 40.1587C67.0654 39.6831 66.8726 39.2284 66.5336 38.8921C66.1945 38.5557 65.7361 38.3645 65.2566 38.3594C64.7771 38.3543 64.3147 38.5356 63.9684 38.8647Z" />
</svg>
