<svg width="101" height="101" viewBox="0 0 101 101"  xmlns="http://www.w3.org/2000/svg">
<path d="M77.7448 1.6034C59.6522 0.141376 41.4713 0.135509 23.3776 1.58586C17.7613 2.00797 12.4808 4.42343 8.48859 8.39647C4.49642 12.3695 2.0555 17.6386 1.6062 23.253C0.135449 41.3461 0.129582 59.5285 1.58866 77.6226C2.01077 83.2392 4.42613 88.52 8.39899 92.5123C12.3719 96.5046 17.6406 98.9457 23.2548 99.395C41.3472 100.866 59.5288 100.872 77.622 99.4126C83.2383 98.9904 88.5189 96.575 92.511 92.6019C96.5032 88.6289 98.9441 83.3599 99.3935 77.7454C100.13 68.7101 100.499 59.552 100.499 50.4992C100.499 41.4815 100.13 32.3585 99.411 23.3758C98.9889 17.7593 96.5736 12.4785 92.6007 8.4861C88.6278 4.49375 83.359 2.05273 77.7448 1.6034ZM77.9378 62.1486C87.9885 72.8349 72.9419 88.0981 62.1487 77.9382L50.4998 66.2715L38.851 77.9384C27.9974 87.9881 13.0008 73.0361 23.0619 62.1486L34.7283 50.4992L23.0619 38.8498C20.9802 36.7535 19.8142 33.9174 19.8194 30.963C19.8246 28.0086 21.0004 25.1767 23.0894 23.0876C25.1784 20.9985 28.0102 19.8226 30.9645 19.8174C33.9188 19.8122 36.7547 20.9783 38.851 23.06L50.4998 34.7269L62.1487 23.06C72.8339 13.0092 88.0975 28.0555 77.9376 38.8498L66.2714 50.4992L77.9378 62.1486Z" />
<path d="M70.0433 25.0601C69.271 25.0573 68.5058 25.2079 67.7921 25.503C67.0784 25.7982 66.4303 26.232 65.8855 26.7794L52.3595 40.306C51.864 40.795 51.1959 41.0691 50.4998 41.0691C49.8038 41.0691 49.1357 40.795 48.6402 40.306L35.1142 26.7794C34.0047 25.6962 32.5129 25.0939 30.9623 25.1033C29.4117 25.1126 27.9273 25.7327 26.8309 26.8292C25.7344 27.9257 25.1143 29.4102 25.105 30.9608C25.0957 32.5115 25.6979 34.0033 26.7811 35.1129L40.3071 48.6395C40.7961 49.135 41.0702 49.8031 41.0702 50.4992C41.0702 51.1953 40.7961 51.8635 40.3071 52.3589L26.7811 65.8855C25.6784 66.9911 25.0596 68.4892 25.0606 70.0507C25.0616 71.6122 25.6823 73.1095 26.7864 74.2137C27.8906 75.3178 29.3878 75.9386 30.9492 75.9396C32.5107 75.9406 34.0087 75.3218 35.1142 74.219L48.6402 60.6924C49.1357 60.2034 49.8038 59.9293 50.4998 59.9293C51.1959 59.9293 51.864 60.2034 52.3595 60.6924L65.8855 74.219C71.552 79.4649 79.5694 71.5348 74.2186 65.8855L60.6926 52.3589C60.2036 51.8635 59.9295 51.1953 59.9295 50.4992C59.9295 49.8031 60.2036 49.135 60.6926 48.6395L74.2186 35.1129C75.0274 34.2828 75.5748 33.2336 75.7929 32.0954C76.0111 30.9571 75.8904 29.7799 75.4459 28.7095C75.0013 27.6392 74.2525 26.7229 73.2921 26.0742C72.3317 25.4255 71.2021 25.0728 70.0433 25.0601Z" />
</svg>
