<svg width="68" height="134" viewBox="0 0 68 134" fill="none" xmlns="http://www.w3.org/2000/svg">
<path fill-rule="evenodd" clip-rule="evenodd" d="M33.9966 1.49532C33.9367 1.55911 33.8819 1.62752 33.8327 1.69992C27.2446 8.12218 22.4689 15.3799 19.169 23.0382C19.1468 23.0801 19.1264 23.123 19.1078 23.1668C19.083 23.237 19.0371 23.3046 19.0051 23.3771C18.9449 23.5203 18.905 23.6711 18.8865 23.8253C18.6417 24.4788 18.3907 25.217 18.1385 26.0212C18.1193 26.0649 18.1021 26.1094 18.0867 26.1546C18.0569 26.239 18.0389 26.3259 18.0091 26.4102C17.8993 26.7619 17.8322 26.9564 17.732 27.2941C13.8933 38.9388 12.8983 51.0809 13.862 62.6984C12.4349 63.2335 11.088 63.962 9.85904 64.8635C5.3369 68.2713 2.35152 73.9855 1.02547 80.7941C-0.741114 89.877 0.326475 101.084 4.63164 112.375C4.76373 112.719 5.00619 113.01 5.32108 113.202C5.63597 113.393 6.00552 113.475 6.3719 113.434C6.73828 113.394 7.08081 113.233 7.34589 112.976C7.61097 112.72 7.78363 112.383 7.83687 112.019C9.07897 103.405 10.9293 97.6193 13.1497 94.5344C14.2658 92.9933 15.4102 92.1245 16.6623 91.7031C17.7436 91.34 18.9746 91.3143 20.4353 91.6368C20.6291 92.1447 20.787 92.6873 20.9856 93.1905C21.1075 93.4964 21.3172 93.7593 21.5883 93.9461C21.8594 94.1329 22.1798 94.2352 22.509 94.2401L27.5712 94.3283C28.5895 99.86 29.9923 105.919 31.6548 112.627C31.6524 112.629 31.6429 112.634 31.6612 112.662C31.6681 112.688 31.6755 112.713 31.6835 112.738C31.6893 112.754 31.6953 112.77 31.7015 112.786C31.7059 112.797 31.7104 112.808 31.7151 112.819C31.7306 112.863 31.7479 112.907 31.767 112.949C31.7714 112.961 31.7759 112.972 31.7806 112.983C31.7997 113.021 31.8203 113.058 31.8423 113.095C31.8697 113.143 31.8996 113.19 31.9318 113.235C31.951 113.261 31.971 113.287 31.9917 113.312C32.0052 113.329 32.019 113.347 32.0332 113.364C32.0416 113.373 32.0501 113.382 32.0587 113.391C32.0969 113.431 32.1372 113.469 32.1793 113.506C32.2122 113.536 32.2463 113.565 32.2815 113.593C32.2907 113.599 32.3 113.606 32.3094 113.612C32.3553 113.644 32.4028 113.674 32.4517 113.702C32.4965 113.727 32.5425 113.751 32.5895 113.772C32.6309 113.792 32.673 113.81 32.7159 113.826C32.7628 113.844 32.8105 113.86 32.8588 113.874C32.8604 113.872 32.862 113.871 32.8636 113.869C32.8761 113.873 32.8886 113.876 32.9012 113.879C32.9448 113.888 32.9887 113.895 33.0328 113.9C33.0445 113.905 33.0562 113.909 33.068 113.913C33.1134 113.917 33.159 113.919 33.2046 113.92C33.2431 113.921 33.2816 113.921 33.3201 113.919C33.3373 113.922 33.3546 113.923 33.3718 113.925C33.3859 113.927 33.4001 113.929 33.4142 113.93C33.4569 113.927 33.4995 113.921 33.5418 113.914C33.5559 113.916 33.57 113.918 33.5841 113.919C33.6302 113.913 33.676 113.904 33.7213 113.893C33.7765 113.881 33.8311 113.865 33.8848 113.847C33.9111 113.838 33.9372 113.828 33.9631 113.817C33.9886 113.809 34.0139 113.8 34.039 113.791C34.0471 113.783 34.0551 113.775 34.063 113.767C34.102 113.746 34.1401 113.723 34.1773 113.699C34.2137 113.681 34.2494 113.662 34.2844 113.642C34.3032 113.624 34.3216 113.606 34.3396 113.588C34.3736 113.558 34.4064 113.526 34.4379 113.493C34.4443 113.487 34.4507 113.481 34.4571 113.475C34.5377 113.397 34.6102 113.312 34.6737 113.219C34.7042 113.175 34.7325 113.129 34.7586 113.082C34.7864 113.032 34.8117 112.982 34.8343 112.93C34.8607 112.866 34.8831 112.801 34.9014 112.735C34.907 112.684 34.9216 112.66 34.9294 112.616C36.8107 106.003 38.4172 100.012 39.6232 94.5383L44.511 94.6235C44.8408 94.6303 45.1653 94.5391 45.4433 94.3614C45.7213 94.1837 45.9403 93.9275 46.0725 93.6252C46.2837 93.1433 46.4557 92.6111 46.6623 92.1197C49.8104 91.5215 51.9202 92.3339 53.92 95.2589C56.0806 98.4224 57.7773 104.258 58.7176 112.905C58.758 113.271 58.9188 113.614 59.1747 113.879C59.4307 114.145 59.7674 114.318 60.1321 114.371C60.4969 114.425 60.869 114.356 61.1904 114.175C61.5118 113.995 61.7643 113.713 61.9084 113.373C66.6057 102.239 68.0622 91.0734 66.6165 81.9369C65.2344 73.2164 61.0613 66.2365 54.3479 63.3779C55.7646 51.9221 55.3054 39.8961 52.0338 28.2784C51.9191 27.8238 51.8346 27.5347 51.7088 27.0445C51.4532 26.0217 51.1867 25.0882 50.9067 24.2512C50.8882 24.1518 50.8607 24.0542 50.8245 23.9598C50.8222 23.9574 50.8153 23.9502 50.8177 23.9432C50.7906 23.8767 50.7735 23.7774 50.751 23.7157C50.7018 23.5894 50.6374 23.4695 50.5592 23.3588C47.3162 15.2135 42.5023 7.78592 36.3916 1.49933C36.2392 1.34149 36.0571 1.2153 35.8558 1.12801C35.6545 1.04071 35.4379 0.994039 35.2185 0.990655C34.9991 0.98727 34.7812 1.02724 34.5772 1.10828C34.3733 1.18932 34.1874 1.30984 34.0301 1.4629C34.0285 1.46444 34.027 1.46599 34.0254 1.46753C34.0157 1.47668 34.0061 1.48594 33.9966 1.49532ZM35.1516 5.27784C39.8353 10.3932 43.6458 16.244 46.4306 22.5961L23.4199 22.1999C26.3652 15.9479 30.3299 10.2291 35.1516 5.27784ZM21.7837 25.7169L48.0083 26.2021C48.0996 26.5078 48.1948 26.8607 48.2903 27.1948C48.2903 27.1979 48.2902 27.2011 48.2902 27.2042C48.3037 27.3006 48.3257 27.3957 48.3559 27.4882C48.5387 28.0902 48.6836 28.7009 48.8546 29.305C49.011 29.9278 49.1779 30.6285 49.323 31.0954C49.3449 31.1643 49.3713 31.2317 49.402 31.2972C54.5702 52.0144 50.6273 74.1995 43.3697 91.2726L40.2895 91.2166C40.9375 87.8662 41.465 84.6599 41.6642 81.7614C42.2544 73.3558 40.6426 66.5762 35.3253 62.2072C35.2315 62.1276 35.1291 62.0586 35.0201 62.0015L34.9428 61.9695C34.5966 61.7936 34.1997 61.7442 33.8208 61.8298L33.674 61.8649C33.4405 61.9167 33.2208 62.0182 33.03 62.1625L33.0068 62.1385C27.5376 66.3219 25.6873 73.0483 25.9785 81.4693C26.0785 84.3801 26.4888 87.6074 27.0214 90.9854L23.7645 90.9287C17.1243 73.6393 14.137 51.5575 20.0329 31.0636C20.0675 30.994 20.0971 30.9221 20.1216 30.8483C20.5758 29.5431 21.2667 27.2402 21.7837 25.7169ZM28.737 38.9829C27.2168 40.451 26.2474 42.4992 26.2079 44.7616C26.1773 46.9455 27.0122 49.0527 28.5303 50.6229C30.0484 52.1931 32.1262 53.0987 34.3098 53.1418C36.4918 53.1734 38.5977 52.3402 40.1675 50.8243C41.7373 49.3083 42.6434 47.2328 42.6881 45.0511C42.7205 42.868 41.888 40.7608 40.3723 39.1895C38.8566 37.6181 36.7808 36.7102 34.598 36.664C33.5167 36.6462 32.4426 36.8421 31.4372 37.2404C30.4318 37.6388 29.5127 38.2293 28.737 38.9829ZM31.0386 41.3662C31.9402 40.4956 33.1752 39.9702 34.5397 39.9963C35.185 40.005 35.8222 40.1415 36.4143 40.3979C37.0065 40.6543 37.542 41.0256 37.9899 41.4902C38.4377 41.9549 38.789 42.5036 39.0234 43.1049C39.2579 43.7061 39.3708 44.3479 39.3557 44.993C39.3479 45.6378 39.2123 46.2746 38.9567 46.8666C38.7012 47.4586 38.3308 47.994 37.8669 48.442C37.4031 48.8899 36.855 49.2414 36.2545 49.4761C35.6539 49.7109 35.0127 49.8242 34.3681 49.8095C33.7228 49.8021 33.0854 49.6668 32.4927 49.4115C31.9 49.1562 31.3638 48.786 30.9151 48.3222C30.4664 47.8585 30.114 47.3103 29.8785 46.7096C29.6429 46.1088 29.5287 45.4672 29.5425 44.8221C29.5664 43.4552 30.137 42.2369 31.0386 41.3662ZM9.72179 69.6112C11.0426 68.3589 12.613 67.5282 14.1945 66.7377C14.32 67.6499 14.4829 68.5815 14.6318 69.5035L14.6683 69.7092C15.0321 71.9574 15.4543 74.2326 15.9681 76.5306C16.3848 78.4497 16.8709 80.3111 17.3806 82.1681L17.6557 83.1536C18.1736 84.9713 18.7394 86.775 19.3527 88.5628C18.0836 88.477 16.7622 88.1452 15.6002 88.5398C13.594 89.2168 11.8627 90.6199 10.4469 92.5849C8.52134 95.2553 7.18745 99.4117 6.05528 104.3C3.89734 95.9951 3.0269 87.9389 4.29343 81.4333C5.10174 77.2701 6.53076 73.74 8.4902 71.0184C8.86476 70.4945 9.27843 70.0255 9.72179 69.6112ZM34.0873 66.1366C37.4113 69.6411 38.8125 74.4368 38.3188 81.5075C37.8706 87.8576 35.8931 96.0598 33.4009 105.255C31.2222 95.9785 29.5257 87.7098 29.3045 81.3528C29.0607 74.2622 30.6382 69.523 34.0873 66.1366ZM53.9238 67.4063C58.6947 69.9954 62.1474 75.0343 63.3236 82.4571C64.364 89.0146 63.2051 97.052 60.7461 105.288C59.7671 100.34 58.5467 96.1198 56.671 93.3761C54.5105 90.2078 51.303 89.0746 47.849 89.1017C48.5504 87.2771 49.2028 85.4341 49.8056 83.5747L49.8929 83.3004C50.429 81.6289 50.9836 79.9766 51.4499 78.2473C52.4569 74.6777 53.2826 71.0594 53.9238 67.4063ZM27.8335 103.861L27.5167 122.248L29.7507 122.292L29.9189 112.542C29.2 109.654 28.5033 106.762 27.8335 103.861ZM38.9966 104.221C38.2647 106.976 37.4578 109.85 36.6136 112.829L36.407 124.64L38.6388 124.677L38.9966 104.221ZM32.1038 115.395L31.863 129.029L34.0972 129.063L34.3333 115.429C34.3045 115.457 34.2502 115.463 34.2098 115.479C34.1933 115.48 34.1768 115.48 34.1603 115.481L33.9781 115.517L34.0157 115.528C33.8578 115.562 33.6974 115.584 33.536 115.592C33.5179 115.593 33.4998 115.593 33.4818 115.594C33.4456 115.596 33.4095 115.597 33.3733 115.596C33.3685 115.601 33.3637 115.606 33.3589 115.61C33.3573 115.612 33.3557 115.613 33.3541 115.615C33.3423 115.611 33.3306 115.607 33.3189 115.603C33.279 115.595 33.2598 115.613 33.2199 115.606C33.2057 115.604 33.1916 115.602 33.1775 115.6C33.1352 115.595 33.1044 115.606 33.062 115.6C32.9888 115.596 32.9158 115.589 32.8431 115.58C32.8322 115.575 32.8213 115.57 32.8104 115.565C32.714 115.552 32.6272 115.525 32.5333 115.504C32.4082 115.488 32.2853 115.457 32.1671 115.413C32.1368 115.396 32.1226 115.4 32.1038 115.395ZM27.4775 124.487L27.4338 126.717L29.6703 126.758L29.7046 124.524L27.4775 124.487ZM31.8216 131.26L31.785 133.492L34.0144 133.531L34.0558 131.299L31.8216 131.26ZM36.3632 126.874L36.329 129.104L38.556 129.145L38.5998 126.911L36.3632 126.874Z" fill="white" fill-opacity="0.3"/>
</svg>
