<svg width="100" height="100" viewBox="0 0 100 100"  xmlns="http://www.w3.org/2000/svg">
<path d="M76.7 17.3C75.5133 17.3 74.3533 17.6519 73.3666 18.3112C72.3799 18.9705 71.6108 19.9075 71.1567 21.0039C70.7026 22.1003 70.5838 23.3067 70.8153 24.4705C71.0468 25.6344 71.6182 26.7035 72.4574 27.5426C73.2965 28.3818 74.3656 28.9532 75.5295 29.1847C76.6933 29.4162 77.8997 29.2974 78.9961 28.8433C80.0925 28.3892 81.0295 27.6201 81.6888 26.6334C82.3481 25.6467 82.7 24.4867 82.7 23.3C82.7 21.7087 82.0679 20.1826 80.9426 19.0574C79.8174 17.9321 78.2913 17.3 76.7 17.3ZM99.7 29.4C99.6028 25.2515 98.8258 21.147 97.4 17.25C96.1287 13.9157 94.1499 10.8964 91.6 8.4C89.1241 5.83713 86.0978 3.87088 82.75 2.65C78.8633 1.1808 74.7542 0.38605 70.6 0.3C65.3 -2.79397e-07 63.6 0 50 0C36.4 0 34.7 -2.79397e-07 29.4 0.3C25.2458 0.38605 21.1367 1.1808 17.25 2.65C13.9084 3.88324 10.8847 5.8478 8.4 8.4C5.83713 10.8759 3.87088 13.9022 2.65 17.25C1.1808 21.1367 0.38605 25.2458 0.3 29.4C-2.79397e-07 34.7 0 36.4 0 50C0 63.6 -2.79397e-07 65.3 0.3 70.6C0.38605 74.7542 1.1808 78.8633 2.65 82.75C3.87088 86.0978 5.83713 89.1241 8.4 91.6C10.8847 94.1522 13.9084 96.1168 17.25 97.35C21.1367 98.8192 25.2458 99.614 29.4 99.7C34.7 100 36.4 100 50 100C63.6 100 65.3 100 70.6 99.7C74.7542 99.614 78.8633 98.8192 82.75 97.35C86.0978 96.1291 89.1241 94.1629 91.6 91.6C94.1612 89.1129 96.1417 86.091 97.4 82.75C98.8258 78.853 99.6028 74.7485 99.7 70.6C99.7 65.3 100 63.6 100 50C100 36.4 100 34.7 99.7 29.4ZM90.7 70C90.6636 73.1739 90.0888 76.3185 89 79.3C88.2017 81.476 86.9194 83.4421 85.25 85.05C83.6282 86.7025 81.6661 87.9822 79.5 88.8C76.5185 89.8888 73.3739 90.4636 70.2 90.5C65.2 90.75 63.35 90.8 50.2 90.8C37.05 90.8 35.2 90.8 30.2 90.5C26.9045 90.5617 23.623 90.0543 20.5 89C18.4289 88.1404 16.5568 86.8639 15 85.25C13.3404 83.6437 12.0742 81.676 11.3 79.5C10.0793 76.4758 9.40222 73.2597 9.3 70C9.3 65 9 63.15 9 50C9 36.85 9 35 9.3 30C9.32241 26.7553 9.91475 23.5397 11.05 20.5C11.9302 18.3896 13.2813 16.5083 15 15C16.5191 13.2808 18.3964 11.9155 20.5 11C23.5478 9.90022 26.76 9.3254 30 9.3C35 9.3 36.85 9 50 9C63.15 9 65 9 70 9.3C73.1739 9.3364 76.3185 9.91123 79.3 11C81.5722 11.8433 83.6115 13.2142 85.25 15C86.8885 16.5359 88.1688 18.4137 89 20.5C90.1113 23.5447 90.6864 26.7589 90.7 30C90.95 35 91 36.85 91 50C91 63.15 90.95 65 90.7 70ZM50 24.35C44.9291 24.3599 39.9748 25.8726 35.7633 28.6971C31.5517 31.5216 28.2719 35.531 26.3382 40.2188C24.4044 44.9066 23.9036 50.0623 24.899 55.0346C25.8943 60.007 28.3412 64.5727 31.9304 68.1549C35.5196 71.7371 40.0901 74.1751 45.0643 75.1607C50.0385 76.1464 55.1933 75.6355 59.8773 73.6927C64.5614 71.7498 68.5644 68.4622 71.3806 64.2452C74.1969 60.0281 75.7 55.071 75.7 50C75.7066 46.6255 75.046 43.283 73.7562 40.1648C72.4664 37.0465 70.5728 34.214 68.1843 31.8303C65.7959 29.4465 62.9597 27.5584 59.839 26.2746C56.7182 24.9909 53.3745 24.3368 50 24.35ZM50 66.65C46.7069 66.65 43.4878 65.6735 40.7498 63.844C38.0117 62.0144 35.8776 59.4141 34.6174 56.3717C33.3572 53.3293 33.0275 49.9815 33.6699 46.7517C34.3124 43.522 35.8981 40.5552 38.2267 38.2267C40.5552 35.8981 43.522 34.3124 46.7517 33.6699C49.9815 33.0275 53.3293 33.3572 56.3717 34.6174C59.4141 35.8776 62.0144 38.0117 63.844 40.7498C65.6735 43.4878 66.65 46.7069 66.65 50C66.65 52.1865 66.2193 54.3516 65.3826 56.3717C64.5459 58.3918 63.3194 60.2272 61.7733 61.7733C60.2272 63.3194 58.3918 64.5459 56.3717 65.3826C54.3516 66.2193 52.1865 66.65 50 66.65Z" />
</svg>
