<svg width="100" height="100" viewBox="0 0 100 100"  xmlns="http://www.w3.org/2000/svg">
<path d="M96.5084 40.4001C95.1033 38.7134 93.3451 37.3556 91.3579 36.4225C89.3706 35.4894 87.2028 35.0039 85.0074 35.0001H62.2054L65.0057 27.8502C66.1704 24.7196 66.5583 21.3532 66.1361 18.0398C65.7138 14.7264 64.4941 11.5648 62.5814 8.82635C60.6687 6.08787 58.1202 3.8542 55.1545 2.31693C52.1888 0.77967 48.8944 -0.0152971 45.554 0.000222956C44.5921 0.00222976 43.6512 0.281599 42.8441 0.804835C42.037 1.32807 41.3979 2.07297 41.0036 2.95022L26.7523 35.0001H15.0013C11.0227 35.0001 7.20707 36.5805 4.39378 39.3935C1.58049 42.2066 0 46.0219 0 50.0001V85C0 88.9783 1.58049 92.7936 4.39378 95.6066C7.20707 98.4197 11.0227 100 15.0013 100H78.6568C82.1662 99.9988 85.5641 98.7675 88.2593 96.5201C90.9545 94.2728 92.7764 91.1518 93.4081 87.7L99.7587 52.7001C100.151 50.537 100.064 48.314 99.5023 46.1885C98.9406 44.063 97.9185 42.0869 96.5084 40.4001ZM25.0022 90H15.0013C13.6751 90 12.4032 89.4732 11.4655 88.5356C10.5277 87.5979 10.0009 86.3261 10.0009 85V50.0001C10.0009 48.674 10.5277 47.4023 11.4655 46.4646C12.4032 45.5269 13.6751 45.0001 15.0013 45.0001H25.0022V90ZM90.0078 50.9001L83.6573 85.9C83.4443 87.0648 82.8248 88.1162 81.9091 88.867C80.9934 89.6178 79.8409 90.0193 78.6568 90H35.003V41.0501L48.6042 10.4502C50.0043 10.8583 51.3045 11.5522 52.4228 12.4881C53.5412 13.424 54.4534 14.5815 55.1018 15.8877C55.7502 17.1938 56.1208 18.6201 56.1902 20.0767C56.2595 21.5332 56.0262 22.9883 55.5048 24.3502L52.8546 31.5002C52.2899 33.0114 52.0992 34.6369 52.2989 36.2378C52.4986 37.8387 53.0827 39.3676 54.0014 40.6938C54.92 42.0201 56.146 43.1045 57.5745 43.8543C59.0031 44.6042 60.5919 44.9973 62.2054 45.0001H85.0074C85.742 44.9989 86.4679 45.1596 87.1333 45.4707C87.7988 45.7818 88.3876 46.2357 88.8577 46.8001C89.3394 47.3567 89.6923 48.0128 89.8911 48.7216C90.0899 49.4303 90.1298 50.1742 90.0078 50.9001Z" />
</svg>
