<svg width="100" height="100" viewBox="0 0 100 100"  xmlns="http://www.w3.org/2000/svg">
<path d="M40 45C40.9234 44.9972 41.8279 44.7388 42.6133 44.2534C43.3988 43.768 44.0345 43.0746 44.45 42.25C45.0431 41.0691 45.1446 39.7015 44.7323 38.4461C44.3201 37.1906 43.4276 36.1494 42.25 35.55L32.25 30.55C31.6609 30.1955 31.005 29.9663 30.3232 29.8768C29.6415 29.7872 28.9487 29.8393 28.288 30.0296C27.6273 30.2199 27.0129 30.5445 26.4834 30.983C25.9538 31.4215 25.5203 31.9645 25.2101 32.5781C24.8998 33.1917 24.7195 33.8627 24.6803 34.5491C24.6411 35.2356 24.7439 35.9227 24.9822 36.5677C25.2206 37.2126 25.5894 37.8014 26.0657 38.2974C26.5419 38.7933 27.1153 39.1857 27.75 39.45L37.75 44.45C38.4416 44.8202 39.2156 45.0094 40 45ZM50 0C40.111 0 30.444 2.93245 22.2215 8.42652C13.999 13.9206 7.59043 21.7295 3.80605 30.8658C0.0216642 40.0021 -0.968502 50.0555 0.960758 59.7545C2.89002 69.4535 7.65206 78.3627 14.6447 85.3553C21.6373 92.3479 30.5465 97.11 40.2455 99.0392C49.9445 100.969 59.9979 99.9783 69.1342 96.194C78.2705 92.4096 86.0794 86.0009 91.5735 77.7785C97.0675 69.556 100 59.889 100 50C100 43.4339 98.7067 36.9321 96.194 30.8658C93.6812 24.7995 89.9983 19.2876 85.3553 14.6447C80.7124 10.0017 75.2005 6.31876 69.1342 3.80602C63.0679 1.29329 56.5661 0 50 0ZM50 90C42.0888 90 34.3552 87.654 27.7772 83.2588C21.1992 78.8635 16.0723 72.6164 13.0448 65.3073C10.0173 57.9983 9.2252 49.9556 10.7686 42.1964C12.312 34.4371 16.1216 27.3098 21.7157 21.7157C27.3098 16.1216 34.4372 12.312 42.1964 10.7686C49.9556 9.22518 57.9983 10.0173 65.3073 13.0448C72.6164 16.0723 78.8635 21.1992 83.2588 27.7772C87.654 34.3551 90 42.0887 90 50C90 60.6086 85.7857 70.7828 78.2843 78.2843C70.7828 85.7857 60.6087 90 50 90ZM31.8 66.65C30.7922 67.4964 30.1588 68.706 30.0371 70.0165C29.9154 71.3269 30.3153 72.6325 31.15 73.65C31.5698 74.1563 32.0853 74.5748 32.667 74.8815C33.2487 75.1883 33.8853 75.3773 34.5402 75.4377C35.195 75.498 35.8554 75.4286 36.4834 75.2334C37.1114 75.0382 37.6948 74.721 38.2 74.3C41.5424 71.6051 45.7065 70.1356 50 70.1356C54.2935 70.1356 58.4576 71.6051 61.8 74.3C62.6996 75.0454 63.8318 75.4523 65 75.45C66.0179 75.4399 67.0085 75.1195 67.8393 74.5314C68.6702 73.9433 69.3018 73.1156 69.6496 72.1589C69.9975 71.2023 70.0451 70.1623 69.7861 69.1778C69.527 68.1934 68.9737 67.3115 68.2 66.65C63.0406 62.5028 56.6196 60.242 50 60.242C43.3805 60.242 36.9594 62.5028 31.8 66.65ZM67.75 30.55L57.75 35.55C56.5724 36.1494 55.6799 37.1906 55.2677 38.4461C54.8555 39.7015 54.957 41.0691 55.55 42.25C55.9655 43.0746 56.6012 43.768 57.3867 44.2534C58.1721 44.7388 59.0767 44.9972 60 45C60.7844 45.0094 61.5584 44.8202 62.25 44.45L72.25 39.45C73.3318 38.7991 74.1272 37.7631 74.4767 36.5499C74.8262 35.3368 74.7038 34.0363 74.1342 32.9097C73.5645 31.783 72.5898 30.9136 71.4056 30.4759C70.2214 30.0382 68.9155 30.0647 67.75 30.55Z" />
</svg>
