<svg width="100" height="100" viewBox="0 0 100 100"  xmlns="http://www.w3.org/2000/svg">
<path d="M35 35C34.0111 35 33.0444 35.2932 32.2222 35.8426C31.3999 36.392 30.7591 37.1729 30.3806 38.0866C30.0022 39.0002 29.9032 40.0055 30.0961 40.9754C30.289 41.9453 30.7652 42.8363 31.4645 43.5355C32.1637 44.2348 33.0547 44.711 34.0246 44.9039C34.9945 45.0968 35.9998 44.9978 36.9134 44.6194C37.8271 44.2409 38.608 43.6001 39.1574 42.7778C39.7068 41.9556 40 40.9889 40 40C40 38.6739 39.4732 37.4021 38.5355 36.4645C37.5979 35.5268 36.3261 35 35 35ZM63.3 57.8L42.35 65.3C41.249 65.6994 40.3231 66.4726 39.7339 67.4849C39.1446 68.4971 38.9294 69.6841 39.1259 70.8388C39.3223 71.9934 39.9178 73.0425 40.8086 73.803C41.6994 74.5634 42.8288 74.9871 44 75C44.5798 74.9993 45.155 74.8978 45.7 74.7L66.7 67.2C67.3348 66.9905 67.9212 66.6558 68.4245 66.2157C68.9277 65.7756 69.3376 65.2391 69.6298 64.6379C69.9221 64.0366 70.0908 63.3829 70.1261 62.7153C70.1613 62.0477 70.0623 61.3799 69.8349 60.7512C69.6075 60.1225 69.2564 59.5459 68.8022 59.0553C68.3481 58.5647 67.8002 58.1702 67.1909 57.895C66.5817 57.6199 65.9234 57.4697 65.2551 57.4534C64.5868 57.437 63.922 57.5549 63.3 57.8ZM65 35C64.0111 35 63.0444 35.2932 62.2222 35.8426C61.3999 36.392 60.7591 37.1729 60.3806 38.0866C60.0022 39.0002 59.9032 40.0055 60.0961 40.9754C60.289 41.9453 60.7652 42.8363 61.4645 43.5355C62.1637 44.2348 63.0547 44.711 64.0246 44.9039C64.9945 45.0968 65.9998 44.9978 66.9134 44.6194C67.8271 44.2409 68.608 43.6001 69.1574 42.7778C69.7068 41.9556 70 40.9889 70 40C70 38.6739 69.4732 37.4021 68.5355 36.4645C67.5979 35.5268 66.3261 35 65 35ZM50 0C40.111 0 30.444 2.93245 22.2215 8.42652C13.999 13.9206 7.59043 21.7295 3.80605 30.8658C0.0216642 40.0021 -0.968502 50.0555 0.960758 59.7545C2.89002 69.4535 7.65206 78.3627 14.6447 85.3553C21.6373 92.3479 30.5465 97.11 40.2455 99.0392C49.9445 100.969 59.9979 99.9783 69.1342 96.194C78.2705 92.4096 86.0794 86.0009 91.5735 77.7785C97.0675 69.556 100 59.889 100 50C100 43.4339 98.7067 36.9321 96.194 30.8658C93.6812 24.7995 89.9983 19.2876 85.3553 14.6447C80.7124 10.0017 75.2005 6.31876 69.1342 3.80602C63.0679 1.29329 56.5661 0 50 0ZM50 90C42.0888 90 34.3552 87.654 27.7772 83.2588C21.1992 78.8635 16.0723 72.6164 13.0448 65.3073C10.0173 57.9983 9.2252 49.9556 10.7686 42.1964C12.312 34.4371 16.1216 27.3098 21.7157 21.7157C27.3098 16.1216 34.4372 12.312 42.1964 10.7686C49.9556 9.22518 57.9983 10.0173 65.3073 13.0448C72.6164 16.0723 78.8635 21.1992 83.2588 27.7772C87.654 34.3551 90 42.0887 90 50C90 60.6086 85.7857 70.7828 78.2843 78.2843C70.7828 85.7857 60.6087 90 50 90Z" />
</svg>
