<svg width="100" height="100" viewBox="0 0 100 100"  xmlns="http://www.w3.org/2000/svg">
<path d="M84.9993 0H21.3461C17.8368 0.00116952 14.4391 1.23254 11.744 3.47987C9.04887 5.7272 7.22699 8.84825 6.59533 12.3L0.245013 47.2999C-0.150664 49.4621 -0.0662782 51.6848 0.492199 53.8108C1.05068 55.9368 2.0696 57.914 3.47686 59.6026C4.88411 61.2913 6.64532 62.65 8.63584 63.5826C10.6264 64.5153 12.7975 64.9991 14.9958 64.9999H37.7969L34.9967 72.1498C33.832 75.2804 33.4441 78.6468 33.8664 81.9602C34.2886 85.2736 35.5083 88.4352 37.4209 91.1737C39.3335 93.9121 41.882 96.1458 44.8475 97.6831C47.8131 99.2203 51.1074 100.015 54.4477 99.9998C55.4096 99.9978 56.3504 99.7184 57.1575 99.1952C57.9646 98.6719 58.6036 97.927 58.998 97.0498L73.2487 64.9999H84.9993C88.9777 64.9999 92.7932 63.4195 95.6064 60.6065C98.4196 57.7934 100 53.9781 100 49.9999V15C100 11.0217 98.4196 7.20643 95.6064 4.39339C92.7932 1.58035 88.9777 0 84.9993 0ZM64.9983 58.9499L51.3976 89.5498C50.006 89.1288 48.7153 88.4273 47.6051 87.4886C46.4949 86.5498 45.5886 85.3938 44.9422 84.0915C44.2957 82.7893 43.9227 81.3685 43.8462 79.9167C43.7697 78.4649 43.9912 77.0128 44.4972 75.6498L47.1474 68.4998C47.7121 66.9886 47.9027 65.3631 47.703 63.7622C47.5033 62.1613 46.9193 60.6325 46.0006 59.3062C45.082 57.9799 43.8561 56.8955 42.4276 56.1457C40.9991 55.3958 39.4103 55.0027 37.7969 54.9999H14.9958C14.2612 55.0011 13.5353 54.8404 12.8699 54.5293C12.2044 54.2182 11.6157 53.7643 11.1456 53.1999C10.6639 52.6433 10.311 51.9872 10.1122 51.2784C9.91343 50.5697 9.87357 49.8258 9.9955 49.0999L16.3458 14.1C16.5588 12.9352 17.1783 11.8838 18.094 11.133C19.0096 10.3822 20.1621 9.98067 21.3461 9.99998H64.9983V58.9499ZM89.9995 49.9999C89.9995 51.326 89.4727 52.5977 88.535 53.5354C87.5972 54.4731 86.3254 54.9999 84.9993 54.9999H74.9988V9.99998H84.9993C86.3254 9.99998 87.5972 10.5268 88.535 11.4644C89.4727 12.4021 89.9995 13.6739 89.9995 15V49.9999Z" />
</svg>
