<svg width="100" height="100" viewBox="0 0 100 100"  xmlns="http://www.w3.org/2000/svg">
<path fill-rule="evenodd" clip-rule="evenodd" d="M8.46778 45.7798C10.5871 24.7202 28.3852 8.25683 49.9999 8.25683C73.0366 8.25683 91.7431 26.9633 91.7431 50C91.7431 73.0367 73.0366 91.7432 49.9999 91.7432C40.7247 91.7432 32.1513 88.711 25.2201 83.5826C23.3852 82.2294 20.7981 82.6193 19.4449 84.4495C18.0917 86.2798 18.477 88.867 20.3073 90.2248C28.6146 96.367 38.8852 100 49.9999 100C77.5963 100 100 77.5963 100 50C100 22.4037 77.5963 0 49.9999 0C24.11 0 2.78888 19.7247 0.25218 44.9541C0.0228221 47.2202 1.67879 49.2431 3.94485 49.4725C6.21549 49.7018 8.23843 48.0459 8.46778 45.7798Z" />
<path fill-rule="evenodd" clip-rule="evenodd" d="M18.266 46.8532C16.7248 45.5459 14.4679 45.5459 12.9266 46.8532C12.9266 46.8532 6.83487 52.0367 3.17432 57.4955C1.2156 60.4221 0 63.4817 0 66.0551C0 74.6652 6.98622 81.6514 15.5963 81.6514C24.2064 81.6514 31.1926 74.6652 31.1926 66.0551C31.1926 63.4817 29.977 60.4221 28.0183 57.4955C24.3578 52.0367 18.266 46.8532 18.266 46.8532ZM15.5963 55.6193C14.3257 56.867 12.7844 58.4863 11.3991 60.234C9.83487 62.2111 8.25683 64.2569 8.25683 66.0551C8.25683 70.1055 11.5459 73.3946 15.5963 73.3946C19.6468 73.3946 22.9358 70.1055 22.9358 66.0551C22.9358 64.2569 21.3578 62.2111 19.7935 60.234C18.4082 58.4863 16.867 56.867 15.5963 55.6193Z" />
<path d="M36.2351 54.4601C38.7685 54.4601 40.8221 52.4067 40.8221 49.8736C40.8221 47.3405 38.7685 45.287 36.2351 45.287C33.7017 45.287 31.6478 47.3405 31.6478 49.8736C31.6478 52.4067 33.7017 54.4601 36.2351 54.4601Z" />
<path d="M65.0839 54.4601C67.6173 54.4601 69.6708 52.4067 69.6708 49.8736C69.6708 47.3405 67.6173 45.287 65.0839 45.287C62.5504 45.287 60.4966 47.3405 60.4966 49.8736C60.4966 52.4067 62.5504 54.4601 65.0839 54.4601Z" />
<path fill-rule="evenodd" clip-rule="evenodd" d="M32.5241 29.8398C32.5241 29.8398 28.4877 34.2362 22.4085 35.8651C20.2064 36.4551 18.8992 38.7192 19.4893 40.9213C20.0793 43.1235 22.3434 44.4306 24.5456 43.8406C33.0174 41.5705 38.6218 35.4054 38.6218 35.4054C40.1569 33.7261 40.0362 31.1132 38.3557 29.5736C36.6719 28.0397 34.058 28.1561 32.5241 29.8398Z" />
<path fill-rule="evenodd" clip-rule="evenodd" d="M61.6294 35.4047C61.6294 35.4047 67.2339 41.5698 75.7057 43.8399C77.9078 44.4299 80.1719 43.1228 80.762 40.9206C81.352 38.7185 80.0448 36.4544 77.8427 35.8644C71.7636 34.2355 67.7272 29.8391 67.7272 29.8391C66.1932 28.1554 63.5793 28.039 61.8955 29.5729C60.215 31.1125 60.0943 33.7253 61.6294 35.4047Z" />
<path fill-rule="evenodd" clip-rule="evenodd" d="M49.997 61.428C44.7208 61.428 38.2074 63.4406 34.9098 66.6211C33.3191 68.1558 32.3406 69.9559 32.0475 71.896C31.7501 73.841 32.1035 76.0128 33.6036 78.3197C35.5951 81.394 37.4228 82.6295 39.0264 83.1652C40.4187 83.6333 41.7939 83.6478 43.294 83.3148C44.8846 82.9577 46.7855 81.8043 49.9151 81.8043C53.0489 81.8043 54.9457 82.9577 56.5406 83.3148C58.0407 83.6478 59.4158 83.6333 60.8081 83.1652C62.4074 82.6295 64.2394 81.394 66.2309 78.3197C67.718 76.0272 68.0844 73.8699 67.8086 71.9346C67.537 69.9848 66.5757 68.1847 65.0067 66.6499C61.7521 63.455 55.2905 61.428 49.997 61.428ZM58.2217 75.202C58.4803 74.9124 58.9632 74.3574 59.3037 73.8265C59.489 73.5417 59.6787 73.3295 59.6356 73.093C59.5839 72.8179 59.3338 72.6345 59.0924 72.4173C58.1786 71.6017 56.851 70.9984 55.4241 70.5447C53.6568 69.9849 51.7256 69.6809 49.997 69.6809C47.1908 69.6809 43.794 70.4434 41.5266 71.8865C40.9274 72.2677 40.2938 72.5621 40.2119 73.1267C40.1774 73.3536 40.3542 73.5562 40.5266 73.8265C40.8714 74.3574 41.3541 74.9124 41.6128 75.202C42.0568 75.0717 42.9189 74.8112 43.5439 74.6133C45.2294 74.0727 47.2683 73.5515 49.9151 73.5515C52.5661 73.5515 54.6051 74.0727 56.2905 74.6133C56.9156 74.8112 57.7777 75.0717 58.2217 75.202Z" />
</svg>
