<svg width="100" height="100" viewBox="0 0 100 100"  xmlns="http://www.w3.org/2000/svg">
<path d="M31.8 66.65C30.7922 67.4964 30.1588 68.706 30.0371 70.0165C29.9154 71.3269 30.3153 72.6325 31.15 73.65C31.5698 74.1563 32.0853 74.5748 32.667 74.8815C33.2487 75.1883 33.8853 75.3773 34.5402 75.4377C35.195 75.498 35.8554 75.4286 36.4834 75.2334C37.1114 75.0382 37.6948 74.721 38.2 74.3C41.5424 71.6051 45.7065 70.1356 50 70.1356C54.2935 70.1356 58.4576 71.6051 61.8 74.3C62.3053 74.721 62.8886 75.0382 63.5166 75.2334C64.1446 75.4286 64.805 75.498 65.4599 75.4377C66.1148 75.3773 66.7513 75.1883 67.333 74.8815C67.9148 74.5748 68.4303 74.1563 68.85 73.65C69.6847 72.6325 70.0846 71.3269 69.9629 70.0165C69.8412 68.706 69.2078 67.4964 68.2 66.65C63.0406 62.5028 56.6196 60.242 50 60.242C43.3805 60.242 36.9594 62.5028 31.8 66.65ZM35 45C35.9889 45 36.9556 44.7067 37.7779 44.1573C38.6001 43.6079 39.241 42.827 39.6194 41.9134C39.9979 40.9998 40.0969 39.9944 39.9039 39.0245C39.711 38.0546 39.2348 37.1637 38.5355 36.4645C37.8363 35.7652 36.9454 35.289 35.9755 35.0961C35.0056 34.9031 34.0002 35.0022 33.0866 35.3806C32.173 35.759 31.3921 36.3999 30.8427 37.2221C30.2933 38.0444 30 39.0111 30 40C30 41.3261 30.5268 42.5978 31.4645 43.5355C32.4022 44.4732 33.6739 45 35 45ZM50 0C40.111 0 30.444 2.93245 22.2215 8.42652C13.999 13.9206 7.59043 21.7295 3.80605 30.8658C0.0216642 40.0021 -0.968502 50.0555 0.960758 59.7545C2.89002 69.4535 7.65206 78.3627 14.6447 85.3553C21.6373 92.3479 30.5465 97.11 40.2455 99.0392C49.9445 100.969 59.9979 99.9783 69.1342 96.194C78.2705 92.4096 86.0794 86.0009 91.5735 77.7785C97.0675 69.556 100 59.889 100 50C100 43.4339 98.7067 36.9321 96.194 30.8658C93.6812 24.7995 89.9983 19.2876 85.3553 14.6447C80.7124 10.0017 75.2005 6.31876 69.1342 3.80602C63.0679 1.29329 56.5661 0 50 0ZM50 90C42.0888 90 34.3552 87.654 27.7772 83.2588C21.1992 78.8635 16.0723 72.6164 13.0448 65.3073C10.0173 57.9983 9.2252 49.9556 10.7686 42.1964C12.312 34.4371 16.1216 27.3098 21.7157 21.7157C27.3098 16.1216 34.4372 12.312 42.1964 10.7686C49.9556 9.22518 57.9983 10.0173 65.3073 13.0448C72.6164 16.0723 78.8635 21.1992 83.2588 27.7772C87.654 34.3551 90 42.0887 90 50C90 60.6086 85.7857 70.7828 78.2843 78.2843C70.7828 85.7857 60.6087 90 50 90ZM65 35C64.0111 35 63.0444 35.2932 62.2222 35.8426C61.3999 36.392 60.7591 37.1729 60.3806 38.0866C60.0022 39.0002 59.9032 40.0055 60.0961 40.9754C60.289 41.9453 60.7652 42.8363 61.4645 43.5355C62.1637 44.2348 63.0547 44.711 64.0246 44.9039C64.9945 45.0968 65.9998 44.9978 66.9134 44.6194C67.8271 44.2409 68.608 43.6001 69.1574 42.7778C69.7068 41.9556 70 40.9889 70 40C70 38.6739 69.4732 37.4021 68.5355 36.4645C67.5979 35.5268 66.3261 35 65 35Z" />
</svg>
