<svg width="100" height="100" viewBox="0 0 100 100"  xmlns="http://www.w3.org/2000/svg">
<path fill-rule="evenodd" clip-rule="evenodd" d="M50 0C22.4037 0 0 22.4037 0 50C0 77.5963 22.4037 100 50 100C77.5963 100 100 77.5963 100 50C100 22.4037 77.5963 0 50 0ZM50 8.25683C73.0367 8.25683 91.7431 26.9633 91.7431 50C91.7431 73.0367 73.0367 91.7432 50 91.7432C26.9633 91.7432 8.25689 73.0367 8.25689 50C8.25689 26.9633 26.9633 8.25683 50 8.25683Z" />
<path fill-rule="evenodd" clip-rule="evenodd" d="M63.3028 63.7615C63.3028 56.4128 57.3487 50.4587 50 50.4587C49.9771 50.4587 49.9587 50.4587 49.9358 50.4587C42.5917 50.4587 36.6331 56.4128 36.6331 63.7615C36.6331 65.2569 36.6331 66.8028 36.6331 68.2982C36.6331 75.6469 42.5917 81.601 49.9358 81.601C49.9587 81.601 49.9771 81.601 50 81.601C57.3487 81.601 63.3028 75.6469 63.3028 68.2982V63.7615ZM55.0459 63.7615C55.0459 60.9725 52.789 58.7156 50 58.7156C49.9771 58.7156 49.9587 58.7156 49.9358 58.7156C47.1514 58.7156 44.89 60.9725 44.89 63.7615C44.89 65.2569 44.89 66.8028 44.89 68.2982C44.89 71.0872 47.1514 73.344 49.9358 73.344C49.9587 73.344 49.9771 73.344 50 73.344C52.789 73.344 55.0459 71.0872 55.0459 68.2982V63.7615Z" />
<path fill-rule="evenodd" clip-rule="evenodd" d="M34.3944 36.3899V41.1146C34.3944 43.3899 36.243 45.243 38.5229 45.243C40.8027 45.243 42.6513 43.3899 42.6513 41.1146V36.3899C42.6513 34.1146 40.8027 32.2614 38.5229 32.2614C36.243 32.2614 34.3944 34.1146 34.3944 36.3899Z" />
<path fill-rule="evenodd" clip-rule="evenodd" d="M57.3485 36.3899V41.1146C57.3485 43.3899 59.1971 45.243 61.477 45.243C63.7568 45.243 65.6054 43.3899 65.6054 41.1146V36.3899C65.6054 34.1146 63.7568 32.2614 61.477 32.2614C59.1971 32.2614 57.3485 34.1146 57.3485 36.3899Z" />
</svg>
