<svg width="100" height="100" viewBox="0 0 100 100"  xmlns="http://www.w3.org/2000/svg">
<path d="M50 0C40.1109 0 30.444 2.93245 22.2215 8.42652C13.9991 13.9206 7.59043 21.7295 3.80605 30.8658C0.021664 40.0021 -0.968502 50.0555 0.960758 59.7545C2.89002 69.4536 7.65206 78.3627 14.6447 85.3553C21.6373 92.3479 30.5465 97.11 40.2455 99.0392C49.9445 100.969 59.9979 99.9783 69.1342 96.194C78.2705 92.4096 86.0794 86.001 91.5735 77.7785C97.0676 69.556 100 59.8891 100 50C100 43.4339 98.7067 36.9321 96.194 30.8658C93.6812 24.7995 89.9983 19.2876 85.3553 14.6447C80.7124 10.0017 75.2005 6.31876 69.1342 3.80602C63.0679 1.29329 56.5661 0 50 0ZM78.5101 78.5101C71.9137 85.106 63.2344 89.2108 53.9509 90.1248C44.6675 91.0389 35.3543 88.7058 27.5982 83.523C19.8421 78.3402 14.123 70.6284 11.4154 61.7016C8.70779 52.7748 9.1792 43.1854 12.7493 34.5672C16.3194 25.949 22.7673 18.8354 30.9943 14.4383C39.2214 10.0412 48.7185 8.6328 57.8676 10.453C67.0166 12.2732 75.2515 17.2094 81.1691 24.4206C87.0867 31.6317 90.3208 40.6716 90.3205 50C90.3329 55.2967 89.2956 60.5435 87.2684 65.437C85.2413 70.3305 82.2645 74.7737 78.5101 78.5101Z" />
<path d="M66.1216 43.5579C69.6885 43.5579 72.5801 40.6664 72.5801 37.0994C72.5801 33.5325 69.6885 30.6409 66.1216 30.6409C62.5546 30.6409 59.6631 33.5325 59.6631 37.0994C59.6631 40.6664 62.5546 43.5579 66.1216 43.5579Z" />
<path d="M33.8785 43.5579C37.4454 43.5579 40.337 40.6664 40.337 37.0994C40.337 33.5325 37.4454 30.6409 33.8785 30.6409C30.3115 30.6409 27.4199 33.5325 27.4199 37.0994C27.4199 40.6664 30.3115 43.5579 33.8785 43.5579Z" />
<path d="M73.1252 56.4585H26.8748C26.4897 56.4535 26.1079 56.5308 25.755 56.6851C25.402 56.8393 25.0861 57.0671 24.8281 57.3532C24.5702 57.6393 24.3762 57.977 24.2592 58.344C24.1421 58.711 24.1047 59.0987 24.1494 59.4813C24.9536 65.3841 27.8841 70.7906 32.3912 74.6864C36.8982 78.5822 42.6719 80.6994 48.629 80.6408H51.371C57.3168 80.6832 63.0745 78.5587 67.5676 74.6644C72.0608 70.7701 74.9818 65.3727 75.7846 59.4813C75.8286 59.1042 75.7929 58.7221 75.6797 58.3598C75.5666 57.9974 75.3786 57.6629 75.1278 57.3779C74.8771 57.0929 74.5692 56.8638 74.2242 56.7054C73.8792 56.547 73.5048 56.4629 73.1252 56.4585Z" />
</svg>
