<svg width="100" height="92" viewBox="0 0 100 92"  xmlns="http://www.w3.org/2000/svg">
<path d="M90.8151 9.21288C85.5093 3.92157 78.4748 0.704506 70.9911 0.146747C63.5073 -0.411013 56.0712 1.72758 50.0353 6.17359C43.6767 1.4584 35.7623 -0.679689 27.8858 0.189876C20.0093 1.05944 12.7559 4.87207 7.58609 10.86C2.41631 16.8479 -0.285776 24.5664 0.0239652 32.461C0.333706 40.3556 3.63227 47.84 9.2554 53.4071L46.487 90.5262C46.9516 90.9932 47.5043 91.3639 48.1133 91.6168C48.7223 91.8698 49.3755 92 50.0353 92C50.695 92 51.3482 91.8698 51.9572 91.6168C52.5662 91.3639 53.1189 90.9932 53.5835 90.5262L90.8151 53.4071C93.727 50.5059 96.0369 47.0612 97.6129 43.2696C99.1888 39.4781 100 35.4142 100 31.31C100 27.2058 99.1888 23.1418 97.6129 19.3503C96.0369 15.5588 93.727 12.114 90.8151 9.21288ZM83.7686 46.3818L50.0353 79.9634L16.3019 46.3818C13.3293 43.4058 11.3043 39.6209 10.4809 35.5019C9.65762 31.3829 10.0727 27.1132 11.674 23.2284C13.2753 19.3437 15.9916 16.0169 19.4821 13.6653C22.9726 11.3137 27.0819 10.0422 31.2945 10.0101C36.9223 10.0238 42.3146 12.2638 46.2871 16.2381C46.7517 16.7051 47.3044 17.0758 47.9134 17.3287C48.5224 17.5817 49.1756 17.7119 49.8354 17.7119C50.4951 17.7119 51.1483 17.5817 51.7573 17.3287C52.3663 17.0758 52.919 16.7051 53.3836 16.2381C57.4732 12.705 62.7565 10.8528 68.164 11.0565C73.5716 11.2602 78.6996 13.5045 82.5102 17.3352C86.3207 21.1659 88.5292 26.2968 88.6886 31.6896C88.848 37.0823 86.9465 42.3341 83.3688 46.3818H83.7686Z" />
</svg>
