<svg width="100" height="100" viewBox="0 0 100 100"  xmlns="http://www.w3.org/2000/svg">
<path d="M50 0C38.2319 0.0341292 26.8506 4.19824 17.8483 11.7635C8.84608 19.3287 2.79634 29.8131 0.758017 41.3815C-1.2803 52.9499 0.82266 64.8653 6.69882 75.0422C12.575 85.219 21.85 93.0089 32.9004 97.0484H33.2012C44.0534 100.984 55.9466 100.984 66.7988 97.0484H67.0997C78.15 93.0089 87.425 85.219 93.3012 75.0422C99.1773 64.8653 101.28 52.9499 99.242 41.3815C97.2037 29.8131 91.1539 19.3287 82.1517 11.7635C73.1494 4.19824 61.7681 0.0341292 50 0ZM60.0291 88.79C53.4561 90.5257 46.5439 90.5257 39.9709 88.79V73.1242C42.9817 71.2573 46.4555 70.2679 50 70.2679C53.5445 70.2679 57.0183 71.2573 60.0291 73.1242V88.79ZM70.0582 84.6859V45.0457C71.3882 45.0457 72.6637 44.5184 73.6041 43.5797C74.5445 42.6411 75.0728 41.368 75.0728 40.0406C75.0728 38.7132 74.5445 37.4401 73.6041 36.5015C72.6637 35.5629 71.3882 35.0355 70.0582 35.0355H60.0291C58.6992 35.0355 57.4237 35.5629 56.4833 36.5015C55.5429 37.4401 55.0146 38.7132 55.0146 40.0406C55.0146 41.368 55.5429 42.6411 56.4833 43.5797C57.4237 44.5184 58.6992 45.0457 60.0291 45.0457V62.0129C53.5399 59.7229 46.4601 59.7229 39.9709 62.0129V45.0457C41.3008 45.0457 42.5763 44.5184 43.5167 43.5797C44.4571 42.6411 44.9854 41.368 44.9854 40.0406C44.9854 38.7132 44.4571 37.4401 43.5167 36.5015C42.5763 35.5629 41.3008 35.0355 39.9709 35.0355H29.9418C28.6118 35.0355 27.3363 35.5629 26.3959 36.5015C25.4555 37.4401 24.9272 38.7132 24.9272 40.0406C24.9272 41.368 25.4555 42.6411 26.3959 43.5797C27.3363 44.5184 28.6118 45.0457 29.9418 45.0457V84.6859C22.2939 80.2787 16.3167 73.4759 12.9372 65.3326C9.55772 57.1892 8.96482 48.1604 11.2505 39.6464C13.5361 31.1325 18.5725 23.6092 25.5786 18.2434C32.5847 12.8775 41.169 9.96909 50 9.96909C58.831 9.96909 67.4153 12.8775 74.4214 18.2434C81.4275 23.6092 86.4639 31.1325 88.7496 39.6464C91.0352 48.1604 90.4423 57.1892 87.0628 65.3326C83.6833 73.4759 77.7061 80.2787 70.0582 84.6859Z" />
</svg>
