<svg width="88" height="101" viewBox="0 0 88 101"  xmlns="http://www.w3.org/2000/svg">
<path fill-rule="evenodd" clip-rule="evenodd" d="M43.804 100.2C19.608 100.104 0 82.5393 0 60.9143C0 48.7715 6.66397 36.5821 14.824 26.3821C26.68 11.5643 41.5 0.982155 41.5 0.982155C42.964 -0.060702 45.036 -0.060702 46.5 0.982155C46.5 0.982155 61.32 11.5643 73.176 26.3821C81.336 36.5821 88 48.7715 88 60.9143C88 82.5393 68.392 100.104 44.196 100.2C44.128 100.2 44.064 100.2 44 100.2C43.936 100.2 43.872 100.2 43.804 100.2ZM44.144 93.0572C56.304 92.9857 66.152 84.15 66.152 73.275C66.152 66.5179 62.236 59.8071 57.692 54.1285C53.316 48.6606 48.28 44.1429 45 41.4393C42.896 45.4572 41.028 52.4679 43.688 65.6393C43.896 66.6786 43.58 67.75 42.82 68.5607C42.06 69.3714 40.936 69.8429 39.748 69.8429C33.876 69.8429 29.92 66.8179 27.216 63.2821C26.672 62.5714 26.12 61.7607 25.612 60.9642C23.372 64.8892 21.848 69.075 21.848 73.275C21.848 84.1929 31.772 93.0572 44 93.0572H44.144ZM73.332 79.5464C77.528 74.2892 80 67.8572 80 60.9143C80 50.2 73.864 39.5321 66.664 30.5321C58.364 20.1535 48.524 11.975 44 8.45002C39.476 11.975 29.636 20.1535 21.336 30.5321C14.136 39.5321 8 50.2 8 60.9143C8 67.8572 10.472 74.2892 14.668 79.5464C14.132 77.5321 13.848 75.4322 13.848 73.275C13.848 66.2429 17.108 59.1822 21.536 52.9715C22.748 51.2679 24.224 50.8643 25.388 50.8C26.62 50.7357 28.072 51.075 29.364 52.3964C30.256 53.3107 31.348 55.5249 32.876 57.8999C33.412 58.7356 34.02 59.6356 34.764 60.4249C32.76 43.5214 38.256 37.1321 40.684 33.9178C41.308 33.0892 42.292 32.5321 43.396 32.3821C44.5 32.2321 45.628 32.5 46.5 33.125C46.5 33.125 56.336 40.1464 64.204 49.9786C69.704 56.8571 74.152 65.0893 74.152 73.275C74.152 75.4322 73.868 77.5321 73.332 79.5464Z" />
</svg>
