<svg width="100" height="100" viewBox="0 0 100 100"  xmlns="http://www.w3.org/2000/svg">
<path d="M50 0C40.1109 0 30.444 2.93245 22.2215 8.42652C13.999 13.9206 7.59043 21.7295 3.80605 30.8658C0.0216642 40.0021 -0.968502 50.0555 0.960758 59.7545C2.89002 69.4536 7.65206 78.3627 14.6447 85.3553C21.6373 92.3479 30.5465 97.11 40.2455 99.0392C49.9445 100.969 59.9979 99.9783 69.1342 96.194C78.2705 92.4096 86.0794 86.0009 91.5735 77.7785C97.0676 69.556 100 59.8891 100 50C100 36.7392 94.7322 24.0215 85.3553 14.6447C75.9785 5.26784 63.2608 0 50 0ZM50 92.3077C41.6323 92.3077 33.4526 89.8264 26.4951 85.1775C19.5377 80.5287 14.115 73.9212 10.9128 66.1904C7.71064 58.4597 6.87281 49.9531 8.50526 41.7462C10.1377 33.5393 14.1671 26.0008 20.084 20.0839C26.0008 14.1671 33.5393 10.1377 41.7462 8.50524C49.9531 6.87278 58.4597 7.71062 66.1905 10.9128C73.9212 14.115 80.5287 19.5376 85.1776 26.4951C89.8264 33.4526 92.3077 41.6323 92.3077 50C92.3077 61.2207 87.8503 71.9818 79.9161 79.916C71.9818 87.8503 61.2207 92.3077 50 92.3077Z" />
<path d="M77.8462 34.6154L62.4616 30.7693C61.4722 30.5253 60.4264 30.6839 59.5538 31.2103C58.6812 31.7367 58.0533 32.5879 57.8078 33.577C57.6514 34.082 57.6009 34.6139 57.6593 35.1394C57.7178 35.6648 57.8839 36.1726 58.1474 36.631C58.4109 37.0894 58.766 37.4885 59.1907 37.8035C59.6153 38.1184 60.1003 38.3425 60.6155 38.4616L76.0001 42.3077H76.9231C77.4282 42.3683 77.9403 42.3289 78.4301 42.1916C78.92 42.0543 79.378 41.8219 79.778 41.5076C80.178 41.1933 80.5122 40.8033 80.7614 40.3598C81.0107 39.9164 81.1702 39.4282 81.2308 38.9231C81.2914 38.418 81.252 37.906 81.1147 37.4161C80.9774 36.9263 80.745 36.4683 80.4307 36.0683C80.1164 35.6683 79.7264 35.3341 79.2829 35.0848C78.8395 34.8355 78.3513 34.676 77.8462 34.6154ZM42.3078 33.6923C42.2003 33.1798 41.9892 32.6945 41.6875 32.2664C41.3858 31.8383 40.9999 31.4763 40.5534 31.2026C40.1068 30.9289 39.6091 30.7493 39.0907 30.6748C38.5722 30.6003 38.0441 30.6324 37.5385 30.7693L22.1539 34.6154C21.1339 34.7378 20.2042 35.2604 19.5695 36.0683C18.9347 36.8761 18.6469 37.903 18.7693 38.9231C18.8917 39.9432 19.4143 40.8728 20.2222 41.5076C21.03 42.1423 22.0569 42.4301 23.077 42.3077H24.0001L39.3847 38.4616C39.8973 38.3541 40.3825 38.143 40.8106 37.8413C41.2388 37.5397 41.6008 37.1537 41.8745 36.7072C42.1481 36.2606 42.3278 35.7629 42.4023 35.2445C42.4768 34.7261 42.4446 34.1979 42.3078 33.6923ZM50.0001 53.8462C37.2693 53.8462 26.9232 62.4616 26.9232 73.077C26.9232 74.097 27.3284 75.0753 28.0497 75.7966C28.771 76.5179 29.7492 76.9231 30.7693 76.9231H69.2308C70.2509 76.9231 71.2292 76.5179 71.9505 75.7966C72.6718 75.0753 73.077 74.097 73.077 73.077C73.077 62.4616 62.7308 53.8462 50.0001 53.8462ZM50.0001 61.5385C52.8795 61.3673 55.7502 61.9951 58.2954 63.3525C60.8406 64.71 62.9612 66.7442 64.4231 69.2308H35.577C37.039 66.7442 39.1596 64.71 41.7047 63.3525C44.2499 61.9951 47.1206 61.3673 50.0001 61.5385Z" />
</svg>
