<svg width="100" height="100" viewBox="0 0 100 100"  xmlns="http://www.w3.org/2000/svg">
<path fill-rule="evenodd" clip-rule="evenodd" d="M12.1038 99.53C8.80129 100.627 5.15862 99.77 2.69238 97.3182C0.230855 94.8617 -0.629023 91.2333 0.47181 87.9438C5.57911 72.6774 15.6614 42.5588 19.4978 31.0855C21.0947 26.2995 26.2776 23.7018 31.092 25.2736C31.2337 25.3206 31.3707 25.3724 31.503 25.4336C36.6009 27.6925 45.3509 32.4597 55.3481 42.4176C65.5297 52.5591 71.3409 62.4512 74.1899 68.1879C74.2182 68.2491 74.2466 68.3149 74.2749 68.3761C75.3049 70.7244 75.2907 73.3927 74.2466 75.7316C73.1977 78.0705 71.2134 79.8635 68.7896 80.6683C56.9923 84.626 27.2603 94.4993 12.1038 99.53ZM28.2667 33.495C28.0493 33.4762 27.8367 33.608 27.7659 33.8291C23.9248 45.3024 13.8472 75.421 8.73987 90.6874C8.67845 90.8615 8.7257 91.0498 8.85326 91.1815C8.98555 91.3086 9.17454 91.3557 9.34935 91.2945C24.4964 86.2684 54.219 76.3999 66.021 72.4421C66.1391 72.3998 66.2384 72.3151 66.2856 72.2021C66.3328 72.0986 66.3376 71.9856 66.3045 71.8821C63.6823 66.6349 58.3813 57.7122 49.1872 48.5543C40.4656 39.867 32.8448 35.5657 28.2667 33.495ZM43.4752 19.8334L48.1998 5.71531C48.9605 3.44229 47.7226 0.981038 45.4454 0.223367C43.1634 -0.534304 40.6924 0.698676 39.9317 2.96698L35.2071 17.0851C34.4465 19.3581 35.6843 21.8193 37.9616 22.577C40.2436 23.3347 42.7145 22.1017 43.4752 19.8334Z" />
<path fill-rule="evenodd" clip-rule="evenodd" d="M73.9852 55.4451C73.9852 55.4451 84.6039 51.3423 92.5654 59.2725C94.2642 60.9647 97.023 60.9647 98.7217 59.2725C100.425 57.5804 100.425 54.828 98.7265 53.1359C86.7721 41.2285 70.8393 47.3556 70.8393 47.3556C68.5985 48.2185 67.4805 50.735 68.3469 52.967C69.218 55.199 71.7395 56.3128 73.9852 55.4451Z" />
<path fill-rule="evenodd" clip-rule="evenodd" d="M64.4604 25.6667C70.8309 25.6667 76.0761 20.4421 76.0761 14.0968C76.0761 7.75135 70.8309 2.52679 64.4604 2.52679C58.09 2.52679 52.8448 7.75135 52.8448 14.0968C52.8448 20.4421 58.09 25.6667 64.4604 25.6667ZM64.4604 16.9892C62.8669 16.9892 61.5565 15.684 61.5565 14.0968C61.5565 12.5095 62.8669 11.2043 64.4604 11.2043C66.054 11.2043 67.3643 12.5095 67.3643 14.0968C67.3643 15.684 66.054 16.9892 64.4604 16.9892Z" />
<path fill-rule="evenodd" clip-rule="evenodd" d="M83.2795 8.01917C84.1961 17.738 78.8119 27.0271 69.9036 31.0958C67.7163 32.0899 66.7555 34.6679 67.7598 36.8449C68.7577 39.0235 71.3459 39.9806 73.5315 38.9803C85.8028 33.3835 93.2181 20.5903 91.9485 7.20647C91.7254 4.821 89.5993 3.06688 87.2061 3.29534C84.8112 3.51757 83.0501 5.63538 83.2795 8.01917Z" />
<path fill-rule="evenodd" clip-rule="evenodd" d="M10.4596 60.8418L20.901 92.0381C21.6616 94.3064 24.1326 95.5394 26.4146 94.7817C28.6919 94.024 29.9297 91.5628 29.169 89.2898L18.7277 58.0935C17.967 55.8252 15.496 54.5922 13.214 55.3499C10.9368 56.1075 9.69894 58.5688 10.4596 60.8418ZM24.1704 31.2409L42.157 84.979C42.9177 87.2473 45.3886 88.4803 47.6706 87.7227C49.9479 86.965 51.1857 84.5037 50.4251 82.2307L32.4338 28.4972C31.6731 26.2242 29.2068 24.996 26.9249 25.7536C24.6429 26.5113 23.4098 28.9726 24.1704 31.2409Z" />
</svg>
