<svg width="100" height="100" viewBox="0 0 100 100"  xmlns="http://www.w3.org/2000/svg">
<path d="M98.3572 90.4709L79.4744 71.6436C85.5668 63.882 88.8725 54.2973 88.8603 44.4301C88.8603 35.6427 86.2545 27.0526 81.3724 19.7461C76.4904 12.4396 69.5514 6.74487 61.4328 3.38206C53.3143 0.0192507 44.3809 -0.860614 35.7623 0.853732C27.1437 2.56808 19.227 6.79964 13.0133 13.0133C6.79964 19.227 2.56808 27.1437 0.853732 35.7623C-0.860614 44.3809 0.0192507 53.3143 3.38206 61.4328C6.74487 69.5514 12.4396 76.4904 19.7461 81.3724C27.0526 86.2545 35.6427 88.8603 44.4301 88.8603C54.2973 88.8725 63.882 85.5668 71.6436 79.4744L90.4709 98.3572C90.9872 98.8777 91.6014 99.2909 92.2782 99.5729C92.955 99.8548 93.6809 100 94.414 100C95.1472 100 95.8731 99.8548 96.5499 99.5729C97.2267 99.2909 97.8409 98.8777 98.3572 98.3572C98.8777 97.8409 99.2909 97.2267 99.5729 96.5499C99.8548 95.8731 100 95.1472 100 94.414C100 93.6809 99.8548 92.955 99.5729 92.2782C99.2909 91.6014 98.8777 90.9872 98.3572 90.4709ZM11.1076 44.4301C11.1076 37.8396 13.0619 31.397 16.7234 25.9171C20.385 20.4372 25.5892 16.1662 31.6781 13.6441C37.767 11.122 44.4671 10.4621 50.9311 11.7478C57.395 13.0336 63.3325 16.2073 67.9928 20.8675C72.653 25.5278 75.8267 31.4653 77.1125 37.9292C78.3982 44.3932 77.7383 51.0932 75.2162 57.1821C72.6941 63.2711 68.4231 68.4753 62.9432 72.1369C57.4633 75.7984 51.0207 77.7527 44.4301 77.7527C35.5924 77.7527 27.1167 74.242 20.8675 67.9928C14.6183 61.7436 11.1076 53.2678 11.1076 44.4301Z" />
</svg>
