<svg width="101" height="51" viewBox="0 0 101 51"  xmlns="http://www.w3.org/2000/svg">
<path d="M94.19 25.5465C93.4833 25.6941 92.825 25.9946 92.2696 26.4232C91.2973 27.1433 90.1523 27.6389 88.9299 27.8689C87.8893 28.0244 86.8232 27.816 85.9409 27.2845C88.487 26.354 90.6492 24.707 92.1193 22.5782C93.9506 20.2385 94.8312 17.3806 94.6074 14.5036C94.1399 11.32 91.5516 9.6589 87.6608 10.0895C78.2262 11.1508 74.1684 20.6095 74.9866 26.7616C74.9866 26.9615 74.9866 27.1615 74.9866 27.3768C74.7511 27.9668 74.4127 28.5174 73.9847 29.0071C73.8042 29.2336 73.5449 29.3965 73.25 29.4685C72.6489 29.4685 72.2648 28.9148 72.0978 27.6536C71.7638 25.0236 73.0329 16.3646 73.8845 10.6279C74.3427 8.28974 74.6328 5.92632 74.7529 3.55301C74.3855 0.738448 68.0734 1.30751 68.0734 1.32289C67.4237 1.38551 66.8098 1.62758 66.3121 2.01733C65.8145 2.40709 65.4563 2.92631 65.2848 3.50687C64.3831 6.27528 63.0138 19.5944 62.7633 26.6847L62.6297 27.2076C62.2672 28.6103 61.5458 29.9128 60.5257 31.0065C60.9432 26.7308 61.4107 23.5471 61.8449 20.6711C62.062 19.2099 62.2624 17.8257 62.446 16.4108C62.4761 16.1565 62.442 15.8994 62.3464 15.6593C62.2508 15.4192 62.0963 15.2026 61.895 15.0266C60.509 13.75 56.4847 13.8115 56.0004 13.8731C55.2426 13.8911 54.514 14.1461 53.9343 14.5961C53.3547 15.0461 52.9586 15.6644 52.811 16.3492C52.811 16.7184 52.6774 17.4412 52.5605 18.887C52.3946 21.7404 52.0713 24.5843 51.592 27.4075C50.7404 31.7909 49.7218 32.0216 49.7051 32.0216C49.6884 32.0216 48.8033 32.1292 48.5529 30.1298C48.5365 26.5951 48.8888 23.0671 49.6049 19.5944C49.7845 18.8988 49.8797 18.187 49.8887 17.472C49.5214 14.6574 43.2093 15.2265 43.2093 15.2419C42.5641 15.3163 41.9566 15.5627 41.4612 15.9506C40.9658 16.3386 40.6042 16.8513 40.4207 17.4259L40.3205 17.7642C40.2036 16.9029 39.903 14.9958 37.5986 15.2573H37.3481C37.465 14.2729 37.5819 13.3347 37.6988 12.4735C37.9963 10.8192 38.1858 9.15006 38.2666 7.47493C37.8992 4.66037 31.5872 5.22944 31.5872 5.24482C30.942 5.31929 30.3344 5.56561 29.839 5.95357C29.3437 6.34153 28.982 6.85424 28.7985 7.42879C28.1201 10.4756 27.6405 13.5572 27.3624 16.6568L26.8114 16.7337H26.2937C25.9918 16.7797 25.7058 16.8903 25.4588 17.0567C25.8101 16.039 25.9127 14.9623 25.7594 13.9038C25.0413 8.44388 19.7145 6.55212 14.7717 7.10581C7.74164 7.89019 2.94916 12.3658 3.6338 17.5181C4.11806 21.194 7.1572 23.5471 10.0794 25.8234C13.0017 28.0996 15.3729 29.9453 15.7569 32.8367C15.7569 33.1905 16.1243 36.3126 13.0852 36.651C11.1147 36.8663 10.0293 35.3898 9.82896 33.821C9.75365 32.921 9.80981 32.0158 9.99595 31.1295C10.38 29.3608 10.7474 27.6998 9.67867 26.6385C9.31183 26.32 8.86589 26.0889 8.3798 25.9656C7.89371 25.8423 7.38223 25.8304 6.89002 25.931C2.98256 26.3771 -0.590925 29.6838 0.127112 35.1591C0.308046 36.578 0.798608 37.9485 1.56931 39.1883C2.34001 40.4281 3.37493 41.5116 4.61187 42.3736C5.84881 43.2356 7.26221 43.8583 8.76713 44.2043C10.272 44.5504 11.8374 44.6126 13.3691 44.3872C16.9155 44.1131 20.2301 42.6523 22.6868 40.2807C23.89 38.9613 24.7684 37.4174 25.2613 35.7552C25.7543 34.0931 25.8501 32.3523 25.5423 30.6527C24.9244 25.7465 20.9836 22.6705 17.8276 20.102C15.6567 18.364 13.7865 16.8876 13.6028 15.3957C13.5533 15.1988 13.5465 14.9948 13.5827 14.7954C13.6188 14.596 13.6973 14.4052 13.8137 14.2338C13.93 14.0624 14.0818 13.9137 14.2605 13.7964C14.4393 13.6791 14.6413 13.5954 14.8552 13.5501C16.0742 13.4116 17.6439 14.7959 17.9111 16.8568C18.3452 20.1174 20.7498 20.2097 21.6849 20.102C22.2165 20.0414 22.7296 19.8836 23.1941 19.638C23.6586 19.3924 24.0652 19.0639 24.3901 18.6716C24.3111 19.1817 24.3111 19.6996 24.3901 20.2097C24.4763 20.7396 24.7481 21.2292 25.164 21.604C25.5799 21.9787 26.1173 22.2182 26.6945 22.286C26.2269 26.578 26.0651 30.8937 26.2102 35.2053C26.2756 36.1371 26.5526 37.046 27.0233 37.8731C27.4939 38.7002 28.1477 39.4272 28.9425 40.007C29.7373 40.5868 30.6553 41.0066 31.6372 41.2392C32.6191 41.4718 33.6431 41.512 34.643 41.3573C35.9155 41.2056 37.1419 40.8197 38.2493 40.2225C39.3566 39.6254 40.3222 38.8292 41.0886 37.8814C41.7101 38.5646 42.4906 39.1102 43.3723 39.4776C44.254 39.845 45.2142 40.0249 46.1817 40.0038C45.2377 40.7006 44.5006 41.6063 44.0392 42.6363C43.5779 43.6664 43.4073 44.7872 43.5433 45.8944C43.7713 47.3682 44.6221 48.6994 45.9107 49.5982C47.1992 50.4969 48.8211 50.8904 50.4231 50.693C58.6388 49.7702 59.3067 43.4951 59.8578 38.4658V38.1428C61.5029 37.21 63.0172 36.0943 64.3664 34.8207C65.1383 35.7851 66.1911 36.5282 67.4029 36.9637C68.6147 37.3993 69.9357 37.5095 71.2128 37.2816C72.6138 37.0941 73.9557 36.6353 75.1502 35.9355C76.3447 35.2356 77.3646 34.3105 78.1427 33.2212C79.1897 34.1688 80.4628 34.8779 81.8603 35.2918C83.2577 35.7057 84.7409 35.813 86.1914 35.6051C89.1289 35.3028 91.8295 33.9766 93.7391 31.8985C95.0971 30.6144 95.9039 28.9206 96.0101 27.1307C95.793 25.4543 94.4571 25.5158 94.19 25.5465ZM39.0848 29.8222C38.7718 30.9779 38.2034 32.0617 37.4149 33.0059C37.0643 33.3904 36.8472 33.4519 36.6969 33.4673C35.9455 33.5596 35.6449 32.5137 35.528 31.6217C35.4992 28.9022 35.7227 26.1854 36.1959 23.501C36.2794 22.9166 36.3462 22.3782 36.413 21.963C37.0797 21.8841 37.7212 21.6778 38.2963 21.3574C38.8714 21.0369 39.3675 20.6093 39.7527 20.102C39.3029 23.3258 39.0686 26.572 39.0514 29.8222H39.0848ZM87.3102 17.6873C86.8993 19.206 85.9246 20.5444 84.5549 21.4708C84.7035 20.7022 85.0217 19.9699 85.4898 19.3191C85.958 18.6683 86.5662 18.1129 87.2768 17.6873H87.3102Z" fill="black"/>
<path d="M25.6591 18.6409C23.8557 18.8408 23.2879 17.595 23.1209 16.2877C22.787 13.7346 20.7163 11.8275 18.7793 12.089C18.4205 12.15 18.0782 12.2756 17.7722 12.4587C17.4662 12.6418 17.2024 12.8788 16.9961 13.156C16.7898 13.4332 16.6449 13.7453 16.5698 14.0742C16.4947 14.4031 16.4908 14.7424 16.5584 15.0727C17.1262 19.456 27.4793 22.4398 28.5313 30.3605C29.5165 37.8814 24.3566 42.1878 17.3098 42.9722C15.9191 43.1826 14.4963 43.1301 13.1283 42.8179C11.7602 42.5056 10.4754 41.9402 9.35222 41.156C8.229 40.3719 7.29082 39.3853 6.59479 38.2565C5.89876 37.1277 5.45944 35.8802 5.3036 34.59C4.66906 29.7607 7.69149 26.9 11.098 26.5001C15.3227 26.0233 12.2502 30.8219 12.6176 33.5903C12.6243 34.1132 12.7486 34.6291 12.9828 35.1055C13.2169 35.5819 13.5557 36.0085 13.9777 36.3582C14.3998 36.7079 14.896 36.9733 15.4351 37.1375C15.9741 37.3017 16.5442 37.3613 17.1095 37.3123C17.7103 37.2271 18.2857 37.0288 18.7997 36.7297C19.3137 36.4306 19.7552 36.0371 20.0968 35.5739C20.4383 35.1106 20.6726 34.5876 20.7849 34.0372C20.8973 33.4869 20.8853 32.9212 20.7497 32.3753C19.8814 25.7773 9.49493 23.624 8.62661 16.9952C8.00876 12.3812 12.5341 8.4285 18.796 7.76716C23.0207 7.29037 27.9134 8.7361 28.548 13.6731C28.8986 16.2877 27.7464 18.4102 25.6591 18.6409Z" />
<path d="M17.3433 43.2337C15.913 43.4506 14.4497 43.3973 13.0425 43.077C11.6352 42.7567 10.3135 42.176 9.15755 41.3703C8.00164 40.5646 7.03577 39.5508 6.3187 38.3905C5.60162 37.2301 5.14833 35.9476 4.9864 34.6208C4.31846 29.6377 7.52458 26.6385 11.0146 26.2386C11.3771 26.1551 11.7562 26.1534 12.1196 26.2338C12.483 26.3141 12.82 26.474 13.1019 26.7C13.8867 27.4844 13.5528 28.9609 13.2188 30.5143C12.9328 31.5174 12.8091 32.5539 12.8514 33.5903C12.8589 34.078 12.9749 34.559 13.1922 35.0037C13.4094 35.4484 13.7233 35.8474 14.1146 36.176C14.5058 36.5046 14.966 36.7559 15.4667 36.9143C15.9675 37.0727 16.4982 37.1349 17.026 37.097C17.5784 37.0036 18.1048 36.8089 18.5739 36.5245C19.043 36.2401 19.4453 35.8718 19.7568 35.4414C20.0683 35.011 20.2827 34.5273 20.3873 34.0191C20.492 33.5109 20.4846 32.9885 20.3658 32.483C19.9483 29.2839 17.2431 27.1922 14.3877 24.9775C11.5322 22.7627 8.79367 20.4711 8.32611 17.0721C7.70827 12.3658 12.1835 8.25931 18.746 7.52107C23.288 7.01353 28.164 8.72072 28.7651 13.6731C29.1325 16.4569 27.8133 18.6716 25.6258 18.9177C23.9559 19.0869 23.0375 18.2256 22.787 16.3339C22.6357 15.0078 21.9288 13.7884 20.8166 12.9349C20.5295 12.7186 20.1986 12.557 19.8432 12.4593C19.4878 12.3617 19.1148 12.3299 18.746 12.3658C18.1251 12.4952 17.581 12.8376 17.2243 13.3232C16.8676 13.8089 16.7251 14.4014 16.8257 14.9804C17.0594 16.7491 19.0299 18.3333 21.3343 20.1635C24.5404 22.7781 28.1974 25.7465 28.7985 30.3605C29.7336 37.3892 25.3419 42.3416 17.3433 43.2337ZM11.1315 26.7462C8.00884 27.0999 4.93631 29.6838 5.57085 34.5593C5.72955 35.8129 6.1617 37.0241 6.84134 38.12C7.52097 39.216 8.43409 40.1741 9.52583 40.9369C10.6176 41.6997 11.8654 42.2514 13.1945 42.5588C14.5235 42.8663 15.9063 42.9232 17.2598 42.7261C23.2713 42.0494 29.2995 38.4658 28.2308 30.422C27.6463 25.9772 24.0895 23.1319 20.9502 20.6403C18.579 18.7332 16.5251 17.1029 16.2579 15.1342C16.1271 14.4025 16.315 13.6529 16.7809 13.0481C17.2468 12.4433 17.953 12.0323 18.746 11.9044C19.1861 11.8607 19.6312 11.8981 20.0555 12.0142C20.4797 12.1304 20.8747 12.3231 21.2174 12.5811C22.4172 13.5072 23.1828 14.8239 23.3548 16.257C23.5552 17.795 24.2732 18.5332 25.5757 18.3948C27.4459 18.1795 28.5647 16.2108 28.2308 13.7808C27.5795 8.87452 22.7369 7.62873 18.7794 8.09013C12.5341 8.78224 8.25932 12.7042 8.84377 17.0721C9.26123 20.2712 11.9664 22.3629 14.8051 24.5776C17.6439 26.7923 20.5327 29.0071 20.9669 32.4061C21.107 32.9853 21.1166 33.5848 20.9951 34.1675C20.8736 34.7503 20.6235 35.3039 20.2604 35.794C19.8972 36.2842 19.4288 36.7005 18.8839 37.0172C18.3391 37.3339 17.7295 37.5443 17.0928 37.6353C16.4912 37.6885 15.8841 37.6263 15.3098 37.4526C14.7356 37.2789 14.2066 36.9974 13.7564 36.6261C13.3061 36.2547 12.9442 35.8014 12.6936 35.2948C12.443 34.7882 12.3091 34.2393 12.3004 33.6826C12.2508 32.562 12.3916 31.4411 12.7178 30.3605C13.0184 28.9917 13.3357 27.5767 12.7178 26.9923C12.491 26.8431 12.2303 26.7434 11.9555 26.7008C11.6806 26.6581 11.3988 26.6737 11.1315 26.7462Z" fill="black"/>
<path d="M41.1722 7.29038C41.1722 7.47494 40.6545 11.5814 40.0701 16.1801C42.124 15.9648 42.9088 15.2726 43.2261 17.6104C43.5434 19.9482 40.8382 20.5019 39.4856 20.6864C39.3019 22.6705 38.1831 28.8379 38.5171 31.4525C38.7175 32.9905 39.352 34.3593 40.905 34.1748C41.469 34.0886 41.9764 33.8082 42.3244 33.3904C43.1997 32.3126 43.8301 31.0834 44.1779 29.7761C44.395 28.8379 44.8125 27.1615 46.4656 26.9769C46.6186 26.9582 46.7741 26.9676 46.9232 27.0046C47.0722 27.0415 47.2118 27.1053 47.3339 27.1922C48.052 27.792 47.885 29.4992 47.6345 30.2682C46.3487 35.0361 43.5267 39.4963 38.5672 40.0961C37.7103 40.2294 36.8325 40.1946 35.9911 39.9941C35.1498 39.7936 34.3638 39.4319 33.6846 38.9325C33.0054 38.4332 32.4482 37.8075 32.0493 37.0964C31.6505 36.3852 31.4191 35.6045 31.3701 34.8054C31.2122 30.2462 31.4019 25.6825 31.9379 21.1478C30.5352 21.0402 29.7003 20.6403 29.5834 19.779C29.4665 18.9177 29.4164 17.7181 30.3682 17.5643C30.7189 17.5643 31.4369 17.3951 32.322 17.3028C32.5886 14.0222 33.0794 10.7603 33.7914 7.53646C33.895 7.12657 34.1364 6.75725 34.4812 6.4811C34.826 6.20495 35.2567 6.03604 35.7118 5.99845C36.8306 5.75237 40.9885 5.75237 41.1722 7.29038Z" />
<path d="M38.6005 40.173C37.7083 40.3054 36.7959 40.2649 35.9216 40.054C35.0473 39.8431 34.2305 39.4665 33.5232 38.9483C32.816 38.4301 32.234 37.7816 31.8143 37.0444C31.3947 36.3072 31.1467 35.4975 31.0862 34.6669C30.9668 30.1734 31.1732 25.6776 31.704 21.2094C30.2512 21.0402 29.4998 20.5326 29.3829 19.6714C29.1825 18.1333 29.5165 17.3028 30.4015 17.1644H30.9526L32.1215 17.0106C32.3508 13.7451 32.8195 10.4977 33.5241 7.29038C33.6547 6.84195 33.9311 6.44103 34.3161 6.14139C34.7011 5.84174 35.1764 5.6577 35.6783 5.61395C36.5466 5.52167 41.2222 5.414 41.4559 7.15196C41.4559 7.29038 41.3558 8.25932 40.8715 11.9813C40.7212 13.1348 40.5542 14.4421 40.3872 15.7802L41.0385 15.6725C41.7732 15.5495 42.341 15.4572 42.7083 15.7494C43.0757 16.0417 43.3095 16.5184 43.4264 17.472C43.6602 19.2561 42.3243 20.425 39.6692 20.7787C39.6692 21.3016 39.5022 22.0553 39.3853 22.9166C38.8969 25.6612 38.6789 28.441 38.7341 31.2218C38.8844 32.4522 39.3853 33.8826 40.8047 33.7288C41.3038 33.646 41.7508 33.3935 42.0571 33.0213C42.8998 31.9677 43.5071 30.7706 43.8438 29.4992C44.0442 28.6072 44.4951 26.7308 46.3653 26.5155C46.7464 26.4833 47.127 26.5819 47.434 26.7923C48.319 27.5152 48.0686 29.3762 47.8348 30.1144C46.9665 33.6211 44.5118 39.5886 38.6005 40.173ZM32.3552 17.3797L30.9693 17.5643L30.4015 17.6412C29.8839 17.7181 29.7002 18.3794 29.8505 19.5791C29.8505 20.0097 30.1844 20.5788 31.9545 20.7326H32.2384V20.9787C31.727 25.5046 31.5484 30.0573 31.704 34.6054C31.761 35.3674 31.9895 36.1101 32.375 36.7863C32.7605 37.4626 33.2945 38.0576 33.9431 38.5334C34.5917 39.0093 35.3407 39.3557 36.1425 39.5506C36.9443 39.7455 37.7814 39.7846 38.6005 39.6655C44.1778 39.0503 46.5323 33.3596 47.434 30.0375C47.6845 29.2839 47.8181 27.7151 47.2169 27.223C47.0256 27.1042 46.7955 27.0498 46.5657 27.0692C45.0628 27.2845 44.6454 28.8225 44.445 29.6684C44.091 31.0292 43.4436 32.3107 42.5414 33.4365C42.1264 33.9141 41.5291 34.2277 40.8715 34.3132C39.402 34.467 38.4502 33.4212 38.183 31.3602C38.1146 28.5331 38.3327 25.7063 38.8343 22.9166C38.9679 21.963 39.0848 21.1325 39.1349 20.6095V20.4096H39.3686C41.8901 20.1328 43.0757 19.1946 42.8586 17.6412C42.7584 16.8568 42.6081 16.4262 42.3744 16.2724C42.1406 16.1186 41.673 16.1801 41.0552 16.2724L40.0199 16.4262H39.6859V16.1032C39.8696 14.6421 40.0533 13.2271 40.2036 11.9813C40.5208 9.56663 40.788 7.49032 40.788 7.275C40.621 6.18301 37.0642 5.99845 35.6282 6.15225C35.2375 6.18513 34.8674 6.32837 34.5685 6.56238C34.2696 6.79639 34.0565 7.10973 33.9583 7.45956C33.2404 10.6617 32.7496 13.9035 32.4888 17.1644V17.3643L32.3552 17.3797Z" fill="black"/>
<path d="M71.2127 27.4691C70.311 30.6527 68.8916 33.7134 62.8635 37.1124C62.279 42.357 62.0285 48.386 54.2971 49.2473C52.987 49.4143 51.6583 49.0972 50.6009 48.3654C49.5436 47.6335 48.8433 46.5463 48.653 45.3407C47.9851 40.1884 54.8482 38.4197 56.1507 37.097C56.1507 37.097 56.1507 36.8663 56.1507 36.4049C54.7832 37.6028 53.0196 38.3446 51.1411 38.512C50.3013 38.6151 49.4475 38.5563 48.6337 38.3394C47.8199 38.1224 47.0639 37.7519 46.4139 37.2515C45.7638 36.7511 45.2338 36.1317 44.8575 35.4326C44.4812 34.7335 44.2668 33.9699 44.2279 33.1905C43.8803 27.8825 44.2562 22.5554 45.3467 17.3336C45.4503 16.9237 45.6917 16.5544 46.0365 16.2782C46.3813 16.0021 46.8119 15.8332 47.267 15.7956C48.3858 15.6725 52.5438 15.7033 52.7275 17.1336C52.7275 17.5797 50.924 26.2848 51.3749 29.7453C51.5753 31.2833 52.1597 32.6983 53.7628 32.5137C57.3196 32.1138 57.4698 17.5181 57.8205 16.0724C57.9087 15.5877 58.1833 15.1485 58.5942 14.835C59.005 14.5215 59.5247 14.3548 60.0581 14.3652C60.9431 14.2729 65.4518 14.4421 65.2848 15.7802C64.6669 20.5326 63.7819 25.0082 63.114 33.1136C65.3497 31.6068 66.949 29.4326 67.6393 26.9615C67.8897 25.8849 68.3239 24.3315 69.927 24.147C71.53 23.9624 71.6302 26.0541 71.2127 27.4691ZM55.7833 40.6344C54.8649 41.1881 52.8611 42.4185 53.0447 43.8027C53.0447 44.3872 53.4622 44.7563 54.2971 44.664C55.1321 44.5717 55.6497 43.3259 55.7833 40.6344Z" />
<path d="M54.3807 49.4933C53.6931 49.5846 52.9926 49.5498 52.3196 49.3911C51.6465 49.2323 51.0141 48.9528 50.4587 48.5684C49.9033 48.184 49.4357 47.7023 49.0829 47.1511C48.7301 46.5998 48.4989 45.9898 48.4027 45.3561C47.8683 41.3573 51.7424 39.3425 54.1803 38.0198L54.6479 37.7583C53.62 38.2972 52.4836 38.6374 51.3082 38.758C50.4329 38.8678 49.5425 38.8085 48.6934 38.5839C47.8444 38.3593 47.0555 37.9743 46.3769 37.4534C45.6983 36.9326 45.1449 36.2873 44.7519 35.5586C44.359 34.83 44.135 34.0339 44.0944 33.2212C43.7233 27.8826 44.0994 22.5223 45.2132 17.272C45.3438 16.8236 45.6202 16.4227 46.0052 16.1231C46.3902 15.8234 46.8655 15.6394 47.3673 15.5956C48.2357 15.5033 52.9113 15.3957 53.145 17.1336C53.0897 17.7789 52.9949 18.4207 52.8612 19.0561C52.09 22.5846 51.7151 26.1769 51.7424 29.7761C52.093 32.5137 53.4122 32.3753 53.813 32.3292C56.4013 32.0369 57.1527 22.5474 57.4032 18.4871C57.4318 17.6788 57.5098 16.8726 57.6369 16.0724C57.7391 15.5415 58.0412 15.0607 58.4902 14.7147C58.9392 14.3687 59.5062 14.1796 60.0916 14.1806C60.8598 14.0884 64.283 14.1806 65.3183 15.1188C65.4288 15.2141 65.5136 15.3319 65.5658 15.4627C65.618 15.5936 65.6362 15.7339 65.6188 15.8725C65.4352 17.2874 65.2348 18.6563 65.0177 20.1174C64.5167 23.4548 63.9657 27.2076 63.5148 32.5906C65.4527 31.1442 66.8295 29.1584 67.439 26.9307C67.6394 26.0233 68.0902 24.147 69.9605 23.8547C70.1747 23.8242 70.3937 23.8433 70.5978 23.9105C70.802 23.9776 70.9846 24.0906 71.1294 24.2392C71.4241 24.7248 71.6033 25.2625 71.6551 25.8167C71.707 26.3709 71.6302 26.9289 71.4299 27.4537C70.5783 30.5297 69.2257 33.6826 63.0807 37.1893C63.0807 37.42 63.0807 37.6353 62.9972 37.866C62.563 42.9722 61.9452 48.6628 54.3807 49.4933ZM56.4681 35.8358V36.4049C56.4681 36.8663 56.4681 37.097 56.4681 37.1124V37.1893C55.8881 37.6611 55.2423 38.0594 54.5477 38.3735C52.1765 39.6347 48.5696 41.5418 49.0539 45.2331C49.2319 46.3718 49.8921 47.3994 50.8903 48.0911C51.8885 48.7828 53.1434 49.0824 54.3807 48.9243C61.4943 48.1245 62.0621 42.8799 62.6131 37.8199L62.7133 37.0047V36.8817H62.8302C68.7916 33.4365 70.1108 30.4528 70.9457 27.3921C71.1145 26.9475 71.1852 26.4764 71.1537 26.0063C71.1221 25.5361 70.989 25.0766 70.762 24.6545C70.6777 24.5673 70.5704 24.5016 70.4504 24.4638C70.3305 24.4261 70.2019 24.4176 70.0774 24.4392C68.7749 24.5776 68.4075 25.7772 68.0234 27.0384C67.3556 29.6015 65.73 31.8664 63.4313 33.4365L62.9304 33.8057V33.2212C63.3979 27.4998 63.9824 23.5933 64.4833 20.1327C64.7004 18.6716 64.9175 17.2874 65.0845 15.8878C65.0845 15.8109 65.0845 15.7033 64.9342 15.5495C64.116 14.7959 60.9266 14.6728 60.1751 14.7497C59.695 14.7371 59.2264 14.8864 58.8574 15.1696C58.4884 15.4528 58.2444 15.8505 58.1713 16.2877C58.1713 16.5799 58.0377 17.4874 57.9542 18.6409C57.4199 25.8849 56.5515 32.6368 53.8798 32.9444C52.8445 33.052 51.542 32.6214 51.1913 29.8683C51.1608 26.256 51.5188 22.6497 52.26 19.1023C52.4103 18.2564 52.5439 17.4566 52.5439 17.3336C52.3936 16.2416 48.8201 16.057 47.384 16.2108C46.9934 16.2437 46.6233 16.3869 46.3244 16.6209C46.0255 16.855 45.8124 17.1683 45.7142 17.5181C44.6341 22.7049 44.2583 27.9952 44.5954 33.2673C44.6789 33.8518 45.5138 38.9887 51.2748 38.3582C53.0744 38.1795 54.7622 37.467 56.084 36.328L56.4681 35.8358ZM55.9337 36.9739C55.6179 37.2168 55.283 37.4379 54.9318 37.6353C55.2902 37.4481 55.626 37.2264 55.9337 36.9739ZM54.2638 44.9101C54.0829 44.9544 53.8934 44.9603 53.7097 44.9272C53.526 44.8942 53.3528 44.8232 53.2032 44.7195C53.0536 44.6158 52.9316 44.4822 52.8463 44.3287C52.761 44.1752 52.7147 44.0059 52.7109 43.8335C52.4938 42.2955 54.5644 41.0343 55.5663 40.4191L56.0172 40.1423V40.6498C55.917 43.2952 55.2992 44.8024 54.3306 44.9101H54.2638ZM55.4828 41.1266C54.5477 41.7264 53.1784 42.6646 53.312 43.772C53.312 44.2949 53.6627 44.4794 54.2638 44.4179C54.865 44.3564 55.2825 43.4643 55.4828 41.1266Z" fill="black"/>
<path d="M77.7922 3.13775C77.9759 4.58348 74.5693 22.9012 75.1371 27.2537C75.3375 28.7918 75.9553 30.1144 77.5083 29.9453C78.0741 29.8423 78.5826 29.5592 78.9444 29.1455C79.8202 28.07 80.4455 26.8396 80.7812 25.5312C80.9983 24.593 81.4325 22.9166 83.0856 22.732C83.3943 22.6992 83.7049 22.7762 83.9539 22.9473C84.672 23.5471 84.4883 25.2543 84.2545 26.0233C82.952 30.8065 80.1467 35.2514 75.1872 35.8512C74.3294 35.9843 73.4507 35.9496 72.6085 35.7492C71.7662 35.5488 70.9792 35.1873 70.2987 34.6882C69.6182 34.1891 69.0594 33.5636 68.6588 32.8524C68.2582 32.1412 68.0246 31.3603 67.9734 30.5605C67.4057 26.2694 69.3427 6.50599 70.4114 3.30693C70.5102 2.89485 70.7502 2.52293 71.096 2.24602C71.4417 1.9691 71.875 1.80185 72.3318 1.76892C73.4506 1.67664 77.6085 1.7074 77.7922 3.13775Z" />
<path d="M75.2203 36.0819C74.3278 36.2168 73.4144 36.178 72.5391 35.968C71.6638 35.7581 70.8459 35.3817 70.138 34.863C69.4302 34.3444 68.8481 33.695 68.4292 32.9566C68.0104 32.2182 67.764 31.4072 67.706 30.5758C67.1382 26.2386 69.0419 6.55213 70.144 3.21464C70.2722 2.76924 70.546 2.37093 70.9284 2.07378C71.3108 1.77663 71.7831 1.59502 72.2814 1.55359C73.1497 1.44593 77.8253 1.33827 78.0591 3.0916C77.8992 5.39555 77.6094 7.69029 77.1908 9.96651C76.289 16.1185 75.0533 24.4699 75.404 27.1922C75.571 28.4072 76.0553 29.8222 77.4746 29.653C77.9737 29.5703 78.4207 29.3178 78.727 28.9455C79.5874 27.9017 80.1965 26.7011 80.5138 25.4235C80.7308 24.5468 81.1817 22.6551 83.0519 22.4551C83.4317 22.4091 83.8158 22.5031 84.1206 22.7166C84.989 23.4549 84.7552 25.3158 84.5214 26.0541C83.5863 29.53 81.1316 35.4206 75.2203 36.0819ZM72.3649 2.04576C71.9704 2.07514 71.5962 2.21902 71.2961 2.4567C70.9961 2.69438 70.7856 3.0136 70.695 3.36845C69.643 6.53675 67.706 26.3155 68.257 30.5143C68.3148 31.2737 68.5424 32.014 68.9257 32.6885C69.3089 33.363 69.8394 33.9573 70.4839 34.4339C71.1285 34.9105 71.873 35.2593 72.6709 35.4582C73.4687 35.6571 74.3026 35.7019 75.1201 35.5898C80.6975 34.9592 83.0519 29.2839 83.9537 25.9464C84.1874 25.1928 84.321 23.6394 83.7366 23.1319C83.5452 23.013 83.3152 22.9587 83.0853 22.9781C81.5992 23.1473 81.2151 24.7314 81.0147 25.5927C80.6681 26.9418 80.0198 28.2095 79.1111 29.3147C78.9098 29.5555 78.6585 29.757 78.3718 29.9075C78.0851 30.058 77.7688 30.1545 77.4412 30.1913C75.9885 30.3605 75.0366 29.3147 74.7695 27.2845C74.4021 24.4853 75.6378 16.0724 76.5562 9.92037C77.0572 6.5675 77.4746 3.66067 77.4078 3.1685C77.3744 2.0919 73.801 1.89196 72.3649 2.04576Z" fill="black"/>
<path d="M90.1491 34.1594C83.9706 34.8515 80.6977 30.622 80.13 26.1002C79.4119 20.5941 82.952 11.566 91.8189 10.5663C102.272 9.41282 97.0623 24.9313 88.0117 26.1771C88.5116 26.9661 89.2545 27.6007 90.1463 28.0005C91.0381 28.4002 92.0387 28.5471 93.0212 28.4226C96.361 28.0535 98.5819 24.6237 98.8824 26.8846C99.1663 28.3457 96.3276 33.4365 90.1491 34.1594ZM87.1935 22.9473C89.3142 22.2552 92.704 19.1484 92.3867 16.7953C92.3867 16.4415 92.1028 16.1954 91.4182 16.2723C89.3476 16.3954 87.1768 19.7329 87.2102 22.9473H87.1935Z" />
<path d="M90.149 34.4209C83.8369 35.113 80.397 30.7604 79.7959 26.131C79.0778 20.3019 82.9018 11.32 91.8188 10.3664C95.1585 9.98189 97.4462 11.3507 97.847 14.1345C98.5316 18.7485 94.1399 25.362 88.4791 26.4386C88.9982 27.0958 89.7007 27.6114 90.512 27.9309C91.3234 28.2504 92.2134 28.3618 93.0879 28.2534C94.4387 28.0193 95.7095 27.4921 96.795 26.7154C97.6466 26.1771 98.2477 25.7926 98.732 25.9926C98.8945 26.0913 99.0272 26.2262 99.1177 26.3849C99.2082 26.5436 99.2536 26.7208 99.2497 26.9C99.45 28.4072 96.5779 33.698 90.149 34.4209ZM91.8188 10.8278C83.2692 11.7814 79.5955 20.4557 80.3469 26.0695C80.8813 30.1298 83.6866 34.6208 90.0822 33.9133C96.0101 33.252 98.8322 28.2996 98.6318 26.8539C98.6318 26.4386 98.4815 26.3617 98.4481 26.3463C98.4147 26.3309 97.5965 26.6693 97.0455 27.023C95.8883 27.8585 94.5316 28.4279 93.0879 28.6841C92.0381 28.8254 90.9664 28.6738 90.011 28.2489C89.0556 27.824 88.2603 27.1453 87.7277 26.3002L87.544 25.9772H87.928C93.9061 25.162 97.8303 18.2871 97.2458 14.196C96.9286 11.6583 95.0082 10.4741 91.8188 10.8278ZM86.8092 23.3011V22.9473C86.8092 19.656 88.9968 16.1647 91.2845 15.9032C92.2864 15.7956 92.5201 16.3339 92.5535 16.6569C92.9042 19.333 89.2138 22.4551 87.1766 23.1473L86.8092 23.3011ZM91.3513 16.4108C89.6814 16.6107 87.4939 19.4868 87.3603 22.5628C89.4476 21.6708 92.3699 18.8254 92.0192 16.7491C92.1027 16.5184 92.0693 16.3493 91.4681 16.4108H91.3513ZM18.7961 7.78254C23.0208 7.30575 27.9135 8.75148 28.5481 13.6885C28.8987 16.2877 27.7465 18.4102 25.6592 18.6409C23.8558 18.8408 23.288 17.595 23.121 16.2877C22.7871 13.7654 20.7498 11.8736 18.8295 12.089C18.4707 12.15 18.1284 12.2756 17.8224 12.4587C17.5164 12.6418 17.2526 12.8788 17.0463 13.156C16.84 13.4332 16.6951 13.7453 16.62 14.0742C16.5449 14.4031 16.541 14.7424 16.6086 15.0727C17.1764 19.456 27.5294 22.4398 28.5815 30.3605C29.5667 37.8814 24.4068 42.1878 17.36 42.9722C15.9692 43.1826 14.5465 43.1301 13.1784 42.8179C11.8104 42.5056 10.5256 41.9402 9.40242 41.156C8.2792 40.3719 7.34101 39.3853 6.64498 38.2565C5.94895 37.1277 5.50964 35.8802 5.35379 34.59C4.71925 29.7607 7.74168 26.9 11.1482 26.5001C15.3729 26.0233 12.3004 30.8219 12.6678 33.5903C12.6745 34.1132 12.7988 34.6291 13.033 35.1055C13.2671 35.5819 13.6058 36.0085 14.0279 36.3582C14.45 36.7079 14.9462 36.9733 15.4852 37.1375C16.0243 37.3017 16.5944 37.3613 17.1597 37.3123C17.7605 37.2271 18.3359 37.0288 18.8499 36.7297C19.3638 36.4306 19.8054 36.0371 20.147 35.5739C20.4885 35.1106 20.7228 34.5876 20.8351 34.0372C20.9475 33.4869 20.9355 32.9212 20.7999 32.3753C19.9316 25.7773 9.54513 23.624 8.6768 16.9952C8.00886 12.3812 12.5342 8.47464 18.7961 7.78254ZM18.6625 6.76745C11.6324 7.55184 6.85666 12.0274 7.5246 17.1644C8.00886 20.8556 11.048 23.2088 13.9702 25.485C16.8925 27.7613 19.2804 29.5915 19.6644 32.483C19.6644 32.8521 20.0318 35.9743 16.976 36.3126C15.0055 36.5126 13.9201 34.9745 13.7198 33.4365C13.6957 32.493 13.8137 31.551 14.0704 30.6374C14.4545 28.884 14.8219 27.223 13.7699 26.1618C13.4005 25.8419 12.9517 25.6102 12.4627 25.4869C11.9736 25.3635 11.4593 25.3523 10.9645 25.4543C7.05704 25.8849 3.48356 29.207 4.28509 34.6823C4.46393 36.1006 4.95254 37.4708 5.7215 38.7105C6.49047 39.9502 7.52387 41.0338 8.75949 41.896C9.99511 42.7581 11.4074 43.3811 12.9113 43.7273C14.4152 44.0734 15.9796 44.1357 17.5103 43.9104C21.0004 43.6238 24.2612 42.1876 26.6945 39.8654C27.9026 38.5487 28.784 37.005 29.2772 35.342C29.7704 33.6791 29.8635 31.937 29.55 30.2375C28.9655 25.3005 25.0247 22.1629 21.8686 19.5945C19.7145 17.8719 17.8443 16.38 17.6439 14.9035C17.5947 14.7055 17.5885 14.5005 17.6257 14.3003C17.663 14.1001 17.7429 13.9087 17.8609 13.7371C17.9789 13.5655 18.1326 13.4172 18.3132 13.3006C18.4938 13.184 18.6976 13.1015 18.913 13.0579C20.132 12.9349 21.7017 14.3191 21.9855 16.38C22.403 19.6406 24.7575 19.7329 25.7427 19.6252C28.3978 19.3176 30.0175 16.7645 29.6001 13.4732C28.882 8.01324 23.5719 6.12149 18.6124 6.67517L18.6625 6.76745Z" fill="black"/>
<path d="M72.3316 1.79967C73.4504 1.67663 77.6084 1.70739 77.792 3.13774C77.9757 4.56809 74.5692 22.9012 75.1203 27.2845C75.3207 28.8225 75.9385 30.1452 77.4915 29.976C78.0573 29.8731 78.5657 29.5899 78.9275 29.1762C79.5036 28.5199 79.9501 27.7754 80.2467 26.9769C80.2467 26.7 80.1465 26.4232 80.0964 26.131C79.3784 20.6249 82.9185 11.5968 91.7854 10.5971C102.239 9.44358 97.0288 24.9621 87.9781 26.2079C88.478 26.9969 89.2209 27.6315 90.1127 28.0312C91.0046 28.431 92.0051 28.5779 92.9877 28.4534C95.4758 28.1765 97.3293 26.2233 98.2477 26.131C98.565 26.131 98.7654 26.2848 98.8489 26.8539C99.0493 28.3919 96.2105 33.4981 90.0488 34.1902C88.5287 34.4298 86.9661 34.2681 85.5417 33.7237C84.1173 33.1793 82.8894 32.2746 82.0001 31.1141C81.3423 32.3475 80.3754 33.419 79.1791 34.24C77.9828 35.061 76.5915 35.608 75.1203 35.8358C73.7934 36.0855 72.4136 35.903 71.2166 35.3195C70.0196 34.736 69.0798 33.7877 68.5577 32.6368C66.9649 34.4356 65.0297 35.9522 62.8469 37.1124C62.2624 42.357 62.0119 48.386 54.2805 49.2473C52.9704 49.4142 51.6417 49.0972 50.5843 48.3654C49.5269 47.6335 48.8267 46.5463 48.6364 45.3407C47.9685 40.1884 54.8316 38.4197 56.134 37.097C56.134 37.097 56.134 36.8663 56.134 36.4049C54.7665 37.6028 53.003 38.3446 51.1245 38.512C49.9106 38.7198 48.6562 38.5519 47.5567 38.0344C46.4573 37.517 45.5746 36.6791 45.0462 35.6513C44.3651 36.7893 43.4081 37.7672 42.2496 38.5088C41.091 39.2504 39.7623 39.7357 38.3668 39.9269C37.5099 40.0602 36.6321 40.0254 35.7907 39.8249C34.9494 39.6244 34.1634 39.2627 33.4842 38.7633C32.805 38.264 32.2478 37.6383 31.8489 36.9272C31.4501 36.216 31.2187 35.4353 31.1697 34.6362C31.0118 30.077 31.2015 25.5133 31.7375 20.9787C30.3348 20.871 29.4999 20.4711 29.383 19.6098C29.2661 18.7485 29.216 17.5489 30.1678 17.3951C30.5185 17.3951 31.2365 17.2259 32.1216 17.1336C32.3882 13.853 32.879 10.5911 33.591 7.36727C33.6946 6.95738 33.936 6.58806 34.2808 6.31191C34.6256 6.03576 35.0563 5.86685 35.5114 5.82926C36.6302 5.70622 40.7881 5.73698 40.9718 7.16733C40.9718 7.35189 40.4541 11.4584 39.8697 16.057C40.5543 16.057 41.1054 15.8571 41.5395 15.8109C42.4078 15.7187 42.842 15.934 43.0424 17.4874C43.3597 19.8559 40.6545 20.3788 39.3019 20.5634C39.1182 22.5474 37.9994 28.7148 38.3334 31.3295C38.5338 32.8675 39.1683 34.2363 40.7213 34.0517C41.2853 33.9655 41.7927 33.6851 42.1407 33.2673C43.016 32.1896 43.6464 30.9603 43.9942 29.653V29.5146C43.9631 25.4351 44.3884 21.3635 45.2633 17.3643C45.3669 16.9544 45.6083 16.5851 45.9531 16.309C46.2979 16.0328 46.7285 15.8639 47.1836 15.8263C48.3024 15.7033 52.4604 15.734 52.6441 17.1644C52.6441 17.6104 50.8406 26.3155 51.2915 29.7761C51.4918 31.3141 52.0763 32.729 53.6794 32.5445C57.2361 32.1446 57.3864 17.5489 57.7371 16.1032C57.8252 15.6185 58.0999 15.1793 58.5107 14.8658C58.9216 14.5523 59.4413 14.3855 59.9747 14.396C60.8597 14.3037 65.3683 14.4729 65.2013 15.8109C64.5835 20.5634 63.6985 25.039 63.0305 33.1443C65.2663 31.6376 66.8656 29.4634 67.5558 26.9923C67.5918 26.7845 67.642 26.579 67.7061 26.3771C67.9566 19.0254 69.376 5.86002 70.2109 3.30692C70.325 2.87071 70.5974 2.48347 70.9831 2.20936C71.3688 1.93524 71.8446 1.7907 72.3316 1.79967ZM87.21 22.9473C89.3307 22.2552 92.7205 19.1484 92.4033 16.7953C92.4033 16.4415 92.1194 16.1954 91.4347 16.2723C89.3474 16.3954 87.1766 19.7329 87.21 22.9473ZM54.2972 44.664C55.0152 44.664 55.6498 43.3259 55.7834 40.6344C54.8649 41.1881 52.8611 42.4185 53.0448 43.8027C53.1116 44.3872 53.4122 44.7563 54.2972 44.664ZM72.198 0.799967C71.5528 0.874436 70.9453 1.12076 70.4499 1.50872C69.9545 1.89668 69.5929 2.40939 69.4094 2.98394C68.4409 5.75236 67.0549 19.1946 66.771 26.2386C66.771 26.4386 66.6708 26.6231 66.6541 26.7462C66.282 28.1533 65.5555 29.4599 64.5334 30.5605C64.9509 26.2848 65.4351 23.1011 65.8526 20.225C66.0697 18.7639 66.2701 17.3797 66.4537 15.9647C66.4872 15.7117 66.4563 15.4549 66.3636 15.2147C66.2708 14.9745 66.1188 14.7574 65.9194 14.5805C64.5501 13.304 60.5425 13.4424 60.0916 13.4424C59.3343 13.4647 58.6078 13.7234 58.0312 14.1762C57.4547 14.6289 57.0624 15.2488 56.9189 15.934C56.7759 16.774 56.6923 17.6217 56.6684 18.4717C56.4962 21.3203 56.1674 24.159 55.6832 26.9769C54.8483 31.3602 53.8129 31.5909 53.7962 31.5909C53.7795 31.5909 52.8945 31.6832 52.6441 29.6992C52.6303 26.1791 52.9882 22.6662 53.7128 19.2099C53.8823 18.5127 53.9774 17.8018 53.9966 17.0875C53.6293 14.2883 47.3172 14.8574 47.3172 14.8574C46.6675 14.92 46.0535 15.1621 45.5559 15.5518C45.0582 15.9416 44.7001 16.4608 44.5286 17.0413L44.4284 17.3797C44.3115 16.503 44.0276 14.6113 41.7232 14.8728H41.456C41.5729 13.8884 41.7065 12.9502 41.8067 12.0736C42.0976 10.4181 42.2927 8.74959 42.3911 7.07505C42.0238 4.27587 35.7117 4.84493 35.7117 4.84493C35.062 4.90755 34.4481 5.14962 33.9504 5.53938C33.4527 5.92913 33.0946 6.44835 32.9231 7.02891C32.2472 10.0503 31.7677 13.1061 31.487 16.1801L30.936 16.257L30.435 16.3339C29.6502 16.4569 28.3978 17.0567 28.7651 19.6713C28.8463 20.1996 29.1117 20.6893 29.5213 21.0666C29.9309 21.4438 30.4626 21.6883 31.0361 21.763C30.5688 26.0603 30.4071 30.381 30.5519 34.6977C30.6198 35.6287 30.8985 36.5363 31.3699 37.3623C31.8413 38.1882 32.4951 38.9142 33.2893 39.4935C34.0834 40.0729 35.0004 40.4929 35.9812 40.7264C36.9621 40.96 37.9851 41.002 38.9846 40.8497C40.2577 40.6997 41.4848 40.3146 42.5924 39.7173C43.6999 39.12 44.6652 38.3229 45.4303 37.3738C46.0159 38.0356 46.7475 38.5752 47.5766 38.957C48.4056 39.3388 49.3133 39.5541 50.2395 39.5886C49.295 40.2808 48.5583 41.184 48.0995 42.2123C47.6406 43.2406 47.4748 44.3598 47.6178 45.4638C47.8377 46.9391 48.6835 48.2741 49.9698 49.1764C51.2561 50.0787 52.8782 50.4747 54.4809 50.2777C62.6966 49.3549 63.3812 43.0798 63.9323 37.9737V37.6661C65.5732 36.7397 67.087 35.6346 68.4409 34.3747C69.2141 35.3418 70.2697 36.0865 71.4848 36.5222C72.6999 36.9579 74.0244 37.0665 75.304 36.8355C76.7046 36.6537 78.0465 36.1971 79.2392 35.4966C80.4318 34.7962 81.4473 33.8681 82.2172 32.7752C83.2637 33.7288 84.5387 34.4427 85.9396 34.8595C87.3405 35.2762 88.8281 35.3841 90.2825 35.1745C93.1977 34.8616 95.8734 33.5359 97.7635 31.4679C99.1279 30.1878 99.9358 28.4916 100.034 26.7C99.8174 24.9929 98.4815 25.0544 98.2143 25.162C97.5095 25.3226 96.8531 25.6275 96.294 26.0541C95.3234 26.7767 94.1777 27.2727 92.9543 27.4998C91.9093 27.6172 90.8535 27.3823 89.982 26.8385C92.5352 25.8804 94.6967 24.2071 96.1604 22.0553C97.9917 19.7155 98.8723 16.8576 98.6485 13.9807C98.1809 10.7816 95.5927 9.13598 91.7019 9.56662C82.2672 10.6125 78.2095 20.0866 79.0277 26.2233C79.0435 26.4304 79.077 26.6361 79.1279 26.8385C78.8849 27.4284 78.541 27.9788 78.1093 28.4688C77.7586 28.8533 77.5416 28.9148 77.3746 28.9302C76.7901 28.9302 76.4061 28.3919 76.2391 27.1307C75.8884 24.5007 77.1742 15.8263 78.0258 10.1049C78.4838 7.7672 78.7684 5.40344 78.8774 3.03008C78.5101 0.215523 72.198 0.784587 72.198 0.799967ZM40.4708 21.4708C41.1362 21.3938 41.7768 21.1899 42.3518 20.8721C42.9268 20.5543 43.4236 20.1297 43.8105 19.6252C43.3399 22.8526 43.0945 26.1045 43.0758 29.3608C42.7492 30.5166 42.1821 31.6031 41.4059 32.5599C41.0386 32.929 40.8215 33.0059 40.6712 33.0213C39.9198 33.0982 39.6359 32.0523 39.519 31.1757C39.4748 28.4563 39.6927 25.7388 40.1702 23.055C40.2537 22.4705 40.3372 21.9322 40.3873 21.517L40.4708 21.4708ZM88.5459 21.0248C88.7019 20.2527 89.0266 19.5179 89.5002 18.8649C89.9738 18.2119 90.5865 17.6543 91.3012 17.2259C90.9018 18.7534 89.9251 20.1002 88.5459 21.0248Z" fill="black"/>
<path d="M15.3897 10.3664C13.5695 10.1357 11.7995 11.9044 11.0481 13.2271C10.5663 14.0724 10.3574 15.0272 10.4462 15.9784C10.535 16.9296 10.9177 17.8375 11.549 18.5947C11.6659 18.7178 11.9665 18.7024 11.9665 18.5025C11.8159 17.0411 12.033 15.5675 12.601 14.196C12.9173 13.5986 13.3735 13.0733 13.9369 12.658C14.5047 12.2581 15.206 12.1197 15.7571 11.7198C15.888 11.6313 15.9874 11.5089 16.0426 11.3681C16.0977 11.2274 16.1061 11.0747 16.0667 10.9295C16.0273 10.7843 15.9419 10.6533 15.8213 10.553C15.7007 10.4527 15.5505 10.3877 15.3897 10.3664ZM36.4131 7.70563C36.3013 7.57735 36.1406 7.49319 35.9637 7.47033C35.7868 7.44746 35.6072 7.48761 35.4613 7.58259C34.3926 8.36697 34.5763 10.028 34.4093 11.1815C34.3091 11.8583 34.1421 12.5504 34.1087 13.2271C34.1308 13.9505 34.2202 14.6709 34.3759 15.3803C34.3759 15.4048 34.3865 15.4282 34.4053 15.4456C34.4241 15.4629 34.4495 15.4726 34.4761 15.4726C34.5027 15.4726 34.5282 15.4629 34.547 15.4456C34.5657 15.4282 34.5763 15.4048 34.5763 15.3803C34.9934 14.8509 35.3515 14.2841 35.645 13.6885C35.8984 13.0115 36.0938 12.3173 36.2295 11.6122C36.4966 10.474 37.2481 8.82838 36.4131 7.70563ZM47.7848 17.9488C47.743 17.8585 47.6794 17.7781 47.5988 17.7138C47.5182 17.6496 47.4228 17.603 47.3198 17.5778C47.2167 17.5526 47.1088 17.5494 47.0042 17.5684C46.8996 17.5873 46.8011 17.628 46.7161 17.6873C45.9981 18.1795 45.9814 18.7178 45.8144 19.5022C45.6474 20.2865 45.4804 21.2863 45.3469 22.1937C44.9928 23.7861 45.1316 25.4382 45.7476 26.9615C45.7563 26.9815 45.7713 26.9986 45.7906 27.0107C45.81 27.0228 45.8328 27.0292 45.8562 27.0292C45.8795 27.0292 45.9024 27.0228 45.9217 27.0107C45.9411 26.9986 45.956 26.9815 45.9647 26.9615C46.673 25.541 47.0973 24.0144 47.2171 22.4551C47.3507 21.6246 47.5177 20.7941 47.718 19.9789C47.9184 19.1638 48.1689 18.6563 47.7848 17.9488ZM71.8641 4.35277C71.5023 5.23626 71.2829 6.16377 71.2129 7.1058C71.0459 8.09013 70.8956 9.08984 70.7453 10.0742C70.595 11.0585 70.4949 12.0736 70.378 13.1502C70.1591 13.8955 70.1941 14.6847 70.4782 15.4111C70.4938 15.4274 70.5131 15.4405 70.5347 15.4495C70.5563 15.4585 70.5797 15.4631 70.6034 15.4631C70.6271 15.4631 70.6505 15.4585 70.6721 15.4495C70.6937 15.4405 70.713 15.4274 70.7286 15.4111C71.1865 14.9216 71.4719 14.3155 71.5469 13.6731C71.8307 12.6273 72.0979 11.5814 72.3985 10.5971C72.6991 9.61276 72.9161 8.64381 73.1666 7.65949C73.5291 6.6979 73.7373 5.69272 73.7845 4.67575C73.7344 3.6299 72.2816 3.59914 71.8641 4.35277ZM91.5851 12.0274C88.8465 11.3353 85.8909 13.9961 84.4381 15.8109C82.9854 17.6258 80.681 20.5942 81.6996 22.732C81.7122 22.7546 81.7314 22.7735 81.7549 22.7868C81.7785 22.8 81.8056 22.807 81.8332 22.807C81.8608 22.807 81.8878 22.8 81.9114 22.7868C81.9349 22.7735 81.9541 22.7546 81.9667 22.732C82.552 21.9092 83.0551 21.0393 83.4696 20.1327C84.107 19.0648 84.8211 18.0371 85.607 17.0567C86.3102 16.0789 87.1915 15.2204 88.212 14.519C89.3381 13.9718 90.5583 13.6076 91.8189 13.4424C92.6037 13.1809 92.2363 12.1966 91.5851 12.0274Z" fill="white" fill-opacity="0.5"/>
</svg>
