<svg width="100" height="100" viewBox="0 0 100 100"  xmlns="http://www.w3.org/2000/svg">
<path d="M50 0C22.3958 0 0 22.3958 0 50C0 77.6042 22.3958 100 50 100C77.625 100 100 77.6042 100 50C100 22.3958 77.625 0 50 0ZM49.9167 4.16667C50.1254 4.16667 50.146 4.16667 49.9373 4.16667H49.9583C54.9583 4.16667 59.8125 4.95833 64.4792 6.5C65.5623 6.875 66.1667 8.04167 65.7917 9.14583C65.3892 10.3529 64.0373 10.8069 63.1667 10.4581C58.9165 9.04146 54.5 8.33333 50 8.33333C48.8542 8.33333 47.875 7.39583 47.875 6.25C47.875 5.10417 48.7708 4.16667 49.9167 4.16667ZM17.5625 17.6456C21.0625 14.1456 25.0833 11.2292 29.5 9C30.5417 8.49979 31.7917 8.91646 32.3125 9.93729C32.8125 10.9583 32.4167 12.2083 31.375 12.7292C27.3542 14.7498 23.7083 17.3956 20.5208 20.5833C19.6796 21.4242 18.4046 21.4037 17.5625 20.6042C16.75 19.7917 16.75 18.4583 17.5625 17.6456ZM6.25 52.1042C5.10417 52.1042 4.16667 51.1875 4.16667 50.0415V50C4.16667 45.0417 4.95833 40.1456 6.52083 35.479C6.89583 34.3958 8.0625 33.8123 9.16646 34.1665C10.25 34.5415 10.8333 35.7083 10.479 36.8123C9.0625 41.0417 8.33333 45.479 8.33333 50C8.33333 51.1458 7.39583 52.1042 6.25 52.1042ZM20.5625 82.4167C19.7867 83.1923 18.5033 83.2512 17.625 82.4167C14.1042 78.8958 11.2083 74.875 9 70.4583C8.47917 69.4373 8.89583 68.1665 9.91667 67.6665C10.9583 67.1456 12.2083 67.5625 12.7292 68.5831C14.7292 72.604 17.3748 76.2708 20.5625 79.4583C21.375 80.2706 21.375 81.604 20.5625 82.4167ZM25.0417 50C25.0417 43.3723 30.1442 39.1248 36.6667 39.1248C40.1617 39.1248 43.5896 40.2617 45.7917 42.9583C45.8956 43.0623 45.875 43.2083 45.7706 43.3123L42.1042 46.6458C42 46.7292 41.8333 46.7292 41.729 46.625C40.3958 45.1667 38.7917 44.4167 36.9583 44.4167C33.7908 44.4167 31.3958 46.4058 31.3958 50C31.3958 53.4942 33.8554 55.5833 36.8958 55.5833C37.9167 55.5833 38.875 55.3748 39.7706 54.9998V49.5623C39.7706 49.4165 39.875 49.3123 40.0208 49.3123H45.125C45.2708 49.3123 45.3958 49.4165 45.3958 49.5623V58.0206C45.3958 58.1042 45.3542 58.1875 45.2708 58.2292C42.8725 59.9848 39.5123 60.8748 36.5625 60.8748C30.0473 60.8748 25.0417 56.5285 25.0417 50ZM50.1873 95.8333H50C45.0208 95.8333 40.125 95.0417 35.4375 93.4583C34.3542 93.1042 33.7708 91.9167 34.125 90.8331C34.5 89.7292 35.6875 89.1456 36.7706 89.5206C41.0208 90.9373 45.4792 91.6667 50 91.6667C51.1458 91.6667 52.1667 92.6042 52.1667 93.75C52.1667 94.8958 51.3333 95.8333 50.1873 95.8333ZM54.8333 60.2081C54.8333 60.354 54.7292 60.479 54.5833 60.479H48.8125C48.6667 60.479 48.5417 60.354 48.5417 60.2081V39.7915C48.5417 39.6456 48.6667 39.5415 48.8125 39.5415H54.5833C54.7292 39.5415 54.8333 39.6456 54.8333 39.7915V60.2081ZM64.7292 60.2081C64.7292 60.354 64.6042 60.479 64.4583 60.479H58.6875C58.5417 60.479 58.4375 60.354 58.4375 60.2081V39.7915C58.4375 39.6456 58.5417 39.5415 58.6875 39.5415H74.7083C74.8542 39.5415 74.9583 39.6456 74.9583 39.7915V44.25C74.9583 44.3958 74.8542 44.5208 74.7083 44.5208H64.7292V48.479H73.4792C73.6248 48.479 73.7498 48.604 73.7498 48.7498V53.2081C73.7498 53.3542 73.6248 53.479 73.4792 53.479H64.7292V60.2081ZM82.5208 82.2917C79.0208 85.8125 75 88.729 70.5833 90.9581C69.6067 91.4467 68.3012 91.07 67.7917 90.0206C67.2708 88.9998 67.6875 87.75 68.7083 87.2292C72.7292 85.2081 76.375 82.5417 79.5625 79.354C80.375 78.5208 81.6875 78.5208 82.5 79.3331C83.3125 80.1456 83.3125 81.4581 82.5208 82.2917ZM87.25 31.3331C85.2292 27.3125 82.5833 23.6667 79.375 20.479C78.5625 19.6667 78.5625 18.3542 79.375 17.5415C80.1875 16.729 81.5 16.7081 82.3125 17.5206C85.8333 21.0206 88.75 25.0415 90.9792 29.4583C91.5 30.4792 91.0831 31.75 90.0415 32.2498C89.1748 32.7454 87.8235 32.4487 87.25 31.3331ZM93.5208 64.4165C93.1965 65.3892 92.1835 66.1065 90.875 65.75C89.7917 65.375 89.1875 64.2083 89.5625 63.104C90.9583 58.8956 91.6667 54.479 91.6667 50C91.6667 48.8542 92.6042 47.854 93.75 47.854C94.8958 47.854 95.8333 48.7083 95.8333 49.875C95.8333 50.0835 95.8333 50.1669 95.8333 49.9581C95.8333 54.9375 95.0625 59.7917 93.5208 64.4165Z" />
</svg>
