<svg width="100" height="100" viewBox="0 0 100 100"  xmlns="http://www.w3.org/2000/svg">
<path d="M66.6667 77.7778C66.6667 74.8309 67.8373 72.0048 69.921 69.921C72.0048 67.8373 74.8309 66.6667 77.7778 66.6667H100V16.6667C100 12.2464 98.2441 8.00716 95.1184 4.88155C91.9928 1.75595 87.7536 0 83.3333 0H16.6667C12.2464 0 8.00716 1.75595 4.88155 4.88155C1.75595 8.00716 0 12.2464 0 16.6667V83.3333C0 87.7536 1.75595 91.9928 4.88155 95.1184C8.00716 98.2441 12.2464 100 16.6667 100H66.6667V77.7778ZM66.6667 33.3333C67.7654 33.3333 68.8396 33.6592 69.7532 34.2696C70.6668 34.8801 71.3788 35.7477 71.7993 36.7629C72.2198 37.778 72.3298 38.8951 72.1155 39.9727C71.9011 41.0504 71.372 42.0403 70.595 42.8173C69.8181 43.5942 68.8282 44.1233 67.7505 44.3377C66.6728 44.5521 65.5558 44.442 64.5406 44.0216C63.5255 43.6011 62.6578 42.889 62.0474 41.9754C61.4369 41.0618 61.1111 39.9877 61.1111 38.8889C61.1111 37.4155 61.6964 36.0024 62.7383 34.9605C63.7802 33.9186 65.1932 33.3333 66.6667 33.3333ZM33.3333 33.3333C34.4321 33.3333 35.5062 33.6592 36.4198 34.2696C37.3334 34.8801 38.0455 35.7477 38.466 36.7629C38.8865 37.778 38.9965 38.8951 38.7821 39.9727C38.5678 41.0504 38.0387 42.0403 37.2617 42.8173C36.4847 43.5942 35.4948 44.1233 34.4172 44.3377C33.3395 44.5521 32.2225 44.442 31.2073 44.0216C30.1922 43.6011 29.3245 42.889 28.7141 41.9754C28.1036 41.0618 27.7778 39.9877 27.7778 38.8889C27.7778 37.4155 28.3631 36.0024 29.405 34.9605C30.4468 33.9186 31.8599 33.3333 33.3333 33.3333ZM28.8889 52.2222C29.3266 51.6386 29.875 51.1468 30.5028 50.7751C31.1306 50.4034 31.8254 50.159 32.5477 50.0558C33.2699 49.9527 34.0054 49.9927 34.7121 50.1738C35.4189 50.3549 36.083 50.6734 36.6667 51.1111C40.5132 53.996 45.1918 55.5556 50 55.5556C54.8082 55.5556 59.4867 53.996 63.3333 51.1111C63.917 50.6734 64.5811 50.3549 65.2879 50.1738C65.9946 49.9927 66.7301 49.9527 67.4523 50.0558C68.1746 50.159 68.8694 50.4034 69.4972 50.7751C70.125 51.1468 70.6734 51.6386 71.1111 52.2222C71.5488 52.8059 71.8673 53.47 72.0484 54.1768C72.2295 54.8835 72.2696 55.619 72.1664 56.3412C72.0632 57.0635 71.8188 57.7583 71.4471 58.3861C71.0754 59.0138 70.5837 59.5623 70 60C64.2301 64.3274 57.2123 66.6667 50 66.6667C42.7877 66.6667 35.7699 64.3274 30 60C29.4163 59.5623 28.9246 59.0138 28.5529 58.3861C28.1812 57.7583 27.9368 57.0635 27.8336 56.3412C27.7304 55.619 27.7705 54.8835 27.9516 54.1768C28.1327 53.47 28.4511 52.8059 28.8889 52.2222Z" />
<path d="M77.7778 96.7445L96.7445 77.7778H77.7778V96.7445Z" />
</svg>
