<svg width="100" height="100" viewBox="0 0 100 100"  xmlns="http://www.w3.org/2000/svg">
<path d="M15 0C6.71573 0 0 6.71573 0 15L0 85C0 93.2843 6.71573 100 15 100H85C93.2843 100 100 93.2843 100 85V15C100 6.71573 93.2843 0 85 0L15 0ZM80 35C80 37.7614 77.7614 40 75 40V40C72.2386 40 70 37.7614 70 35V35C70 32.2386 67.7614 30 65 30H62.4933C58.3475 30 54.9867 33.3609 54.9867 37.5067V62.4933C54.9867 66.6392 58.3475 70 62.4933 70H65C67.7614 70 70 72.2386 70 75V75C70 77.7614 67.7614 80 65 80H35C32.2386 80 30 77.7614 30 75V75C30 72.2386 32.2386 70 35 70H37.5067C41.6525 70 45.0133 66.6392 45.0133 62.4933V37.5067C45.0133 33.3609 41.6525 30 37.5067 30H35C32.2386 30 30 32.2386 30 35V35C30 37.7614 27.7614 40 25 40V40C22.2386 40 20 37.7614 20 35V30C20 24.4772 24.4772 20 30 20H70C75.5229 20 80 24.4772 80 30V35Z" />
</svg>
