<svg width="100" height="100" viewBox="0 0 100 100"  xmlns="http://www.w3.org/2000/svg">
<path d="M50 0C77.6142 0 100 22.3857 100 50C100 77.6142 77.6142 100 50 100C22.3857 100 0 77.6142 0 50C0 22.3857 22.3857 0 50 0ZM65.5297 63.8878C61.709 68.1567 56.17 70.8333 50.0002 70.8333C43.8305 70.8333 38.2914 68.1567 34.4707 63.8878C32.936 62.1732 30.3019 62.0272 28.5872 63.5619C26.8725 65.0967 26.7266 67.7308 28.2612 69.4458C33.5959 75.4058 41.3617 79.1666 50.0002 79.1666C58.6388 79.1666 66.4045 75.4058 71.7392 69.4458C73.2742 67.7308 73.1283 65.0967 71.4133 63.5619C69.6983 62.0272 67.0642 62.1732 65.5297 63.8878ZM35.4169 35.4167C31.9652 35.4167 29.1669 38.2149 29.1669 41.6667C29.1669 45.1184 31.9652 47.9167 35.4169 47.9167C38.8687 47.9167 41.6669 45.1184 41.6669 41.6667C41.6669 38.2149 38.8687 35.4167 35.4169 35.4167ZM64.5836 35.4167C61.1318 35.4167 58.3336 38.2149 58.3336 41.6667C58.3336 45.1184 61.1318 47.9167 64.5836 47.9167C68.035 47.9167 70.8333 45.1184 70.8333 41.6667C70.8333 38.2149 68.035 35.4167 64.5836 35.4167Z" />
</svg>
